<svg width="150" height="184" viewBox="0 0 150 184" fill="none" xmlns="http://www.w3.org/2000/svg">
<path d="M75.0028 0C116.425 0 149.94 33.4603 149.94 74.8178C149.94 116.1 116.425 149.641 75.0028 149.641C33.6507 149.641 0.0605469 116.1 0.0605469 74.8178C0.0605469 33.4603 33.6507 0 75.0028 0Z" fill="#FEF5E4"/>
<path d="M84.5283 52.1645H125.15C130.316 52.1645 134.519 56.3565 134.519 61.5167C134.519 66.6769 130.316 70.9501 125.15 70.9501H124.744C126.118 72.562 127.005 74.6607 127.005 76.9162C127.005 82.0765 122.727 86.2684 117.561 86.2684H117.237C118.611 87.9615 119.417 90.0602 119.417 92.3158C119.417 97.476 115.138 101.668 110.048 101.668H109.642C111.016 103.28 111.828 105.379 111.828 107.634C111.828 112.794 107.625 117.068 102.459 117.068H65.2288C60.0632 117.068 55.8604 112.794 55.8604 107.634C55.8604 92.2346 55.8604 76.9974 55.8604 61.5167C55.8604 59.8237 56.3472 58.1306 57.2343 56.7621C66.0348 45.7926 77.9076 29.9117 83.2355 18.4661C84.8528 15.0747 85.0151 14.9178 89.3748 18.2227C94.3024 22.0091 99.1489 31.2044 84.5283 52.1645Z" fill="#FF9C4E"/>
<path d="M108.999 114.407C107.3 116.018 104.964 117.068 102.459 117.068H65.2288C60.0632 117.068 55.8604 112.795 55.8604 107.634C55.8604 92.2349 55.8604 76.9977 55.8604 61.517C55.8604 60.3054 56.1038 59.1803 56.5094 58.0498C62.481 72.3188 78.2321 102.312 108.999 114.407Z" fill="#EB883A"/>
<path d="M52.3068 57.0811H46.5732V112.956H52.3068C54.2487 112.956 55.8606 111.345 55.8606 109.408V60.6294C55.8606 58.6118 54.2487 57.0811 52.3068 57.0811Z" fill="#B7EEF7"/>
<path d="M26.7051 51.6016H42.4563C44.7172 51.6016 46.5725 53.4569 46.5725 55.7936V114.244C46.5725 116.505 44.7172 118.436 42.4563 118.436H26.7051C24.4442 118.436 22.5889 116.505 22.5889 114.244V55.7936C22.5889 53.4569 24.4442 51.6016 26.7051 51.6016Z" fill="#455461"/>
<path d="M47.8655 126.744L55.8601 143.837L74.597 146.174C74.7593 146.174 74.9215 146.174 75.0027 146.255C75.1595 146.174 75.2407 146.174 75.4029 146.174L94.1398 143.837L102.216 126.744C102.697 125.614 103.99 125.208 105.12 125.695C105.607 125.939 105.932 126.258 106.17 126.744L114.17 143.837L132.982 146.174C134.194 146.336 135 147.38 134.843 148.592C134.76 149.154 134.517 149.637 134.113 150.041L120.384 162.861L123.938 181.403C124.182 182.533 123.376 183.745 122.24 183.907C121.677 184.064 121.19 183.983 120.709 183.745L104.152 174.631L87.6003 183.745C86.5509 184.307 85.2582 183.907 84.6091 182.858C84.3657 182.371 84.2846 181.89 84.4468 181.403L88.0006 162.861L75.0027 150.685L62.0805 162.861L65.6342 181.403C65.8722 182.533 65.0662 183.745 63.8546 183.907C63.3732 184.064 62.8864 183.983 62.405 183.745L45.8479 174.631L29.2909 183.745C28.2415 184.307 26.8676 183.907 26.3051 182.858C26.0635 182.375 25.9823 181.89 26.0617 181.403L29.6154 162.861L15.8873 149.96C15.0002 149.073 14.919 147.705 15.725 146.817C16.1307 146.417 16.6121 146.255 17.0989 146.174L35.8358 143.837L43.9115 126.744C44.3929 125.614 45.6857 125.127 46.8162 125.695C47.303 125.939 47.6221 126.258 47.8655 126.744Z" fill="#FFB508"/>
<path d="M77.6643 99.2503L88.4066 121.984L113.359 125.127C114.976 125.289 116.106 126.744 115.944 128.356C115.863 129.162 115.457 129.806 114.895 130.287L96.6446 147.38L101.41 172.051C101.648 173.668 100.68 175.199 99.0678 175.518C98.3376 175.599 97.694 175.518 97.126 175.199L75.003 163.023L52.9558 175.199C51.5008 176.005 49.7266 175.442 48.9964 174.068C48.5961 173.424 48.515 172.7 48.6718 172.051L53.3561 147.38L35.0248 130.13C33.8132 129.081 33.8132 127.226 34.8626 126.014C35.3494 125.533 35.993 125.208 36.6421 125.127L61.6752 121.984L72.4175 99.2503C73.0612 97.8006 74.7596 97.1515 76.2904 97.8006C76.9395 98.1198 77.4209 98.6066 77.6643 99.2503Z" fill="#FFC508"/>
</svg>
