<svg width="212" height="186" viewBox="0 0 212 186" fill="none" xmlns="http://www.w3.org/2000/svg">
<g style="mix-blend-mode:multiply" opacity="0.1">
<path d="M0.5 180.229C0.5 182.934 40.8929 185.098 90.7229 185.098C140.553 185.098 180.946 182.934 180.946 180.229C180.946 177.584 140.553 175.36 90.7229 175.36C40.8929 175.36 0.5 177.584 0.5 180.229Z" fill="#3C4CB1"/>
</g>
<path fill-rule="evenodd" clip-rule="evenodd" d="M60.2477 24.8496C61.9909 24.8496 63.3734 26.2321 63.3734 27.9753C63.3734 29.7184 61.9909 31.1009 60.2477 31.1009C58.5647 31.1009 57.1221 29.7184 57.1221 27.9753C57.1221 26.2321 58.5647 24.8496 60.2477 24.8496ZM60.2477 29.8987C61.3297 29.8987 62.1712 29.0572 62.1712 27.9753C62.1712 26.8933 61.3297 26.0518 60.2477 26.0518C59.2259 26.0518 58.3242 26.8933 58.3242 27.9753C58.3242 29.0572 59.2259 29.8987 60.2477 29.8987Z" fill="#B5B3E6"/>
<path fill-rule="evenodd" clip-rule="evenodd" d="M147.225 107.382C148.968 107.382 150.351 108.764 150.351 110.507C150.351 112.251 148.968 113.633 147.225 113.633C145.482 113.633 144.1 112.251 144.1 110.507C144.1 108.764 145.482 107.382 147.225 107.382ZM147.225 112.431C148.307 112.431 149.149 111.589 149.149 110.507C149.149 109.426 148.307 108.584 147.225 108.584C146.143 108.584 145.302 109.426 145.302 110.507C145.302 111.589 146.143 112.431 147.225 112.431Z" fill="#B5B3E6"/>
<path d="M105.75 24.0674C105.389 24.0674 105.148 24.3679 105.148 24.6685C105.148 25.0291 105.389 25.2696 105.75 25.2696H111.76C112.061 25.2696 112.361 25.0291 112.361 24.6685C112.361 24.3679 112.061 24.0674 111.76 24.0674H105.75Z" fill="#B5B3E6"/>
<path d="M114.344 24.0674C113.984 24.0674 113.743 24.3679 113.743 24.6685C113.743 25.0291 113.984 25.2696 114.344 25.2696H115.426C115.787 25.2696 116.027 25.0291 116.027 24.6685C116.027 24.3679 115.787 24.0674 115.426 24.0674H114.344Z" fill="#B5B3E6"/>
<path d="M161.047 93.7988C160.687 93.7988 160.446 94.0994 160.446 94.3999C160.446 94.7606 160.687 95.001 161.047 95.001H167.058C167.359 95.001 167.659 94.7606 167.659 94.3999C167.659 94.0994 167.359 93.7988 167.058 93.7988H161.047Z" fill="#B5B3E6"/>
<path d="M169.644 93.7988C169.283 93.7988 169.043 94.0994 169.043 94.3999C169.043 94.7606 169.283 95.001 169.644 95.001H170.726C171.087 95.001 171.327 94.7606 171.327 94.3999C171.327 94.0994 171.087 93.7988 170.726 93.7988H169.644Z" fill="#B5B3E6"/>
<path d="M5.97218 79.3682C5.61153 79.3682 5.37109 79.6687 5.37109 79.9692C5.37109 80.3299 5.61153 80.5703 5.97218 80.5703H11.983C12.2836 80.5703 12.5841 80.3299 12.5841 79.9692C12.5841 79.6687 12.2836 79.3682 11.983 79.3682H5.97218Z" fill="#B5B3E6"/>
<path d="M14.5659 79.3682C14.2053 79.3682 13.9648 79.6687 13.9648 79.9692C13.9648 80.3299 14.2053 80.5703 14.5659 80.5703H15.6479C16.0085 80.5703 16.249 80.3299 16.249 79.9692C16.249 79.6687 16.0085 79.3682 15.6479 79.3682H14.5659Z" fill="#B5B3E6"/>
<path d="M149.27 28.8776L148.188 29.9595L147.106 28.8776C146.866 28.6372 146.445 28.6372 146.205 28.8776C146.024 29.118 146.024 29.4787 146.205 29.7191L147.347 30.8011L146.265 31.883C146.024 32.1235 146.024 32.4841 146.265 32.7245C146.445 32.965 146.866 32.965 147.106 32.7245L148.188 31.6426L149.27 32.7245C149.511 32.965 149.871 32.965 150.112 32.7245C150.352 32.4841 150.352 32.1235 150.112 31.883L149.03 30.8011L150.112 29.7191C150.352 29.4787 150.352 29.118 150.112 28.8776C149.871 28.6372 149.511 28.6372 149.27 28.8776Z" fill="#B5B3E6"/>
<path d="M50.692 106.176L49.61 107.258L48.5281 106.176C48.2876 105.936 47.8669 105.936 47.6265 106.176C47.4461 106.417 47.4461 106.838 47.6265 107.018L48.7685 108.16L47.6866 109.242C47.4461 109.482 47.4461 109.843 47.6866 110.083C47.8669 110.324 48.2876 110.324 48.5281 110.083L49.61 109.002L50.692 110.083C50.9324 110.324 51.2931 110.324 51.5335 110.083C51.7739 109.843 51.7739 109.482 51.5335 109.242L50.4516 108.16L51.5335 107.018C51.7739 106.838 51.7739 106.417 51.5335 106.176C51.2931 105.936 50.9324 105.936 50.692 106.176Z" fill="#B5B3E6"/>
<path d="M90.2408 101.846C90.2408 108.698 84.7108 114.228 77.8585 114.228C71.0061 114.228 65.416 108.698 65.416 101.846C65.416 94.9333 71.0061 89.4033 77.8585 89.4033C84.7108 89.4033 90.2408 94.9333 90.2408 101.846Z" fill="#FDE8A6"/>
<path d="M87.474 101.843C87.474 107.132 83.1462 111.46 77.8566 111.46C72.507 111.46 68.2393 107.132 68.2393 101.843C68.2393 96.4933 72.507 92.2256 77.8566 92.2256C83.1462 92.2256 87.474 96.4933 87.474 101.843Z" fill="#FD8C21"/>
<path d="M119.812 176.86V179.625H117.528V176.74L119.812 176.86Z" fill="#FFAD97"/>
<path d="M119.814 178.662C119.814 178.662 120.415 179.083 120.415 180.045C120.415 181.066 120.415 182.028 120.415 182.028H111.278C111.278 182.028 111.098 180.886 112.36 180.886C113.623 180.886 115.787 179.924 116.207 179.504C116.748 178.903 117.109 178.662 117.53 178.662C117.89 178.662 119.814 178.662 119.814 178.662Z" fill="url(#paint0_linear_524_11876)"/>
<path d="M137.905 176.86V179.625H135.621V176.74L137.905 176.86Z" fill="#FFAD97"/>
<path d="M137.907 178.662C137.907 178.662 138.508 179.083 138.508 180.045C138.508 181.066 138.508 182.028 138.508 182.028H129.371C129.371 182.028 129.191 180.886 130.453 180.886C131.715 180.886 133.939 179.924 134.36 179.504C134.841 178.903 135.262 178.662 135.622 178.662C136.043 178.662 137.907 178.662 137.907 178.662Z" fill="url(#paint1_linear_524_11876)"/>
<path d="M112.663 129.858C112.663 129.858 112.663 154.262 116.57 177.404C116.57 177.404 118.614 178.246 120.718 177.344C120.718 177.344 121.439 145.547 124.024 132.924C124.024 132.924 117.352 125.831 112.663 129.858Z" fill="url(#paint2_linear_524_11876)"/>
<path d="M129.193 127.514C129.193 127.514 133.34 154.623 139.111 177.645C139.111 177.645 136.827 178.666 134.422 177.885C134.422 177.885 115.849 137.672 114.647 129.257C113.444 120.842 129.193 127.514 129.193 127.514Z" fill="url(#paint3_linear_524_11876)"/>
<path d="M142.899 82.7926C142.899 82.7926 134.904 94.9345 127.33 99.8033C119.035 105.093 118.194 101.907 113.686 94.9947C110.019 89.4647 108.637 82.1314 108.637 82.1314C108.637 82.1314 107.074 81.8309 105.691 82.973C105.691 82.973 105.752 91.7488 112.965 104.011C113.445 105.874 112.063 118.437 111.281 132.082C117.292 134.546 126.068 133.224 131.057 130.278C129.194 120.901 127.811 111.585 129.134 108.579C132.019 101.847 141.095 93.0712 145.183 84.9565C145.183 84.9565 144.522 83.4538 142.899 82.7926Z" fill="url(#paint4_linear_524_11876)"/>
<path d="M117.353 96.4384C117.774 92.5915 120.178 89.4658 120.178 89.4658C120.719 89.8265 122.042 90.3073 122.943 90.7882C123.845 91.209 123.304 92.5314 123.124 93.1925C122.883 93.8537 122.823 95.4166 123.124 95.657C123.544 95.0559 124.506 92.7718 125.227 93.974C125.889 95.1761 125.408 95.4166 124.807 96.7389C124.206 98.0613 125.889 98.422 125.889 98.422C124.266 101.427 124.266 101.488 123.785 102.449C123.124 104.012 116.752 105.996 118.736 101.848C119.337 100.586 120.659 99.3837 120.659 99.3837C117.894 99.8646 117.173 98.5422 117.353 96.4384Z" fill="#FFC9B0"/>
<path d="M120.177 89.4649C120.177 89.4649 118.554 88.443 118.735 87.301C118.915 86.219 120.177 85.3174 122.522 85.3174C124.866 85.3174 129.494 87.3611 129.855 90.6069C129.855 90.6069 131.117 92.1096 130.215 93.7927C129.254 95.5358 127.45 96.3172 125.888 98.421C125.888 98.421 124.205 98.0604 124.806 96.738C125.407 95.4156 125.888 95.1752 125.226 93.973C124.505 92.7708 123.543 95.055 123.123 95.6561C122.822 95.4156 122.882 93.8528 123.123 93.1916C123.303 92.5304 123.844 91.208 122.942 90.7873C122.041 90.3064 120.718 89.8255 120.177 89.4649Z" fill="#302F5B"/>
<path d="M147.104 81.8326C146.503 82.9146 145.541 83.4555 144.82 82.9747C144.159 82.5539 144.099 81.3518 144.7 80.2698C145.241 79.1878 146.263 78.6469 146.984 79.1277C147.645 79.5485 147.705 80.7507 147.104 81.8326Z" fill="#FFC9B0"/>
<path d="M108.155 78.9473C108.215 80.2096 107.614 81.2915 106.893 81.3516C106.111 81.4117 105.39 80.45 105.33 79.1877C105.21 77.9254 105.811 76.9036 106.592 76.8435C107.373 76.7834 108.035 77.7451 108.155 78.9473Z" fill="#FFC9B0"/>
<path d="M177.281 75.7649C177.281 78.2293 175.297 80.2129 172.833 80.2129H49.6702C47.2058 80.2129 45.1621 78.2293 45.1621 75.7649V42.9456C45.1621 40.4812 47.2058 38.4375 49.6702 38.4375H172.833C175.297 38.4375 177.281 40.4812 177.281 42.9456V75.7649Z" fill="#0782BD"/>
<path d="M173.612 75.7649C173.612 78.2293 171.628 80.2129 169.164 80.2129H46.0013C43.5369 80.2129 41.4932 78.2293 41.4932 75.7649V42.9456C41.4932 40.4812 43.5369 38.4375 46.0013 38.4375H169.164C171.628 38.4375 173.612 40.4812 173.612 42.9456V75.7649Z" fill="#3BA3DB"/>
<g style="mix-blend-mode:multiply" opacity="0.6">
<path d="M58.2009 49.4928C58.4413 48.8917 58.8621 48.8917 59.1626 49.4928L61.0861 54.2414C61.3265 54.9026 62.108 55.4435 62.7692 55.5037L67.9385 55.8643C68.5997 55.9244 68.7199 56.3452 68.1789 56.7659L64.2719 60.132C63.791 60.5528 63.4905 61.4544 63.6708 62.1156L64.873 67.1046C64.9932 67.7658 64.6926 68.0062 64.0915 67.6456L59.7036 64.9407C59.1626 64.58 58.2009 64.58 57.6599 64.9407L53.272 67.6456C52.6709 68.0062 52.3103 67.7658 52.4906 67.1046L53.6928 62.1156C53.8731 61.4544 53.5726 60.5528 53.0316 60.132L49.1245 56.7659C48.6437 56.3452 48.7639 55.9244 49.4251 55.8643L54.5343 55.5037C55.2556 55.4435 55.9769 54.9026 56.2173 54.2414L58.2009 49.4928Z" fill="#0791DA"/>
</g>
<g style="mix-blend-mode:multiply" opacity="0.6">
<path d="M82.6052 49.4928C82.8456 48.8917 83.2664 48.8917 83.5669 49.4928L85.4904 54.2414C85.7308 54.9026 86.5123 55.4435 87.1734 55.5037L92.2827 55.8643C93.004 55.9244 93.1242 56.3452 92.5832 56.7659L88.6762 60.132C88.1953 60.5528 87.8948 61.4544 88.015 62.1156L89.2772 67.1046C89.3975 67.7658 89.0969 68.0062 88.4958 67.6456L84.1079 64.9407C83.5669 64.58 82.6052 64.58 82.0041 64.9407L77.6763 67.6456C77.0752 68.0062 76.7146 67.7658 76.8949 67.1046L78.0971 62.1156C78.2774 61.4544 77.9768 60.5528 77.4359 60.132L73.5288 56.7659C73.0479 56.3452 73.1682 55.9244 73.8294 55.8643L78.9386 55.5037C79.5998 55.4435 80.3812 54.9026 80.6216 54.2414L82.6052 49.4928Z" fill="#0791DA"/>
</g>
<g style="mix-blend-mode:multiply" opacity="0.6">
<path d="M107.009 49.4928C107.25 48.8917 107.671 48.8917 107.911 49.4928L109.895 54.2414C110.135 54.9026 110.917 55.4435 111.578 55.5037L116.687 55.8643C117.348 55.9244 117.528 56.3452 116.988 56.7659L113.08 60.132C112.6 60.5528 112.299 61.4544 112.419 62.1156L113.621 67.1046C113.802 67.7658 113.441 68.0062 112.9 67.6456L108.512 64.9407C107.911 64.58 107.009 64.58 106.408 64.9407L102.02 67.6456C101.48 68.0062 101.119 67.7658 101.299 67.1046L102.501 62.1156C102.682 61.4544 102.381 60.5528 101.84 60.132L97.9331 56.7659C97.4522 56.3452 97.5725 55.9244 98.2337 55.8643L103.343 55.5037C104.004 55.4435 104.785 54.9026 105.026 54.2414L107.009 49.4928Z" fill="#0791DA"/>
</g>
<g style="mix-blend-mode:multiply" opacity="0.6">
<path d="M131.416 49.4928C131.657 48.8917 132.077 48.8917 132.318 49.4928L134.301 54.2414C134.542 54.9026 135.323 55.4435 135.984 55.5037L141.094 55.8643C141.755 55.9244 141.875 56.3452 141.394 56.7659L137.487 60.132C136.946 60.5528 136.706 61.4544 136.826 62.1156L138.028 67.1046C138.208 67.7658 137.848 68.0062 137.307 67.6456L132.919 64.9407C132.318 64.58 131.416 64.58 130.815 64.9407L126.427 67.6456C125.886 68.0062 125.526 67.7658 125.706 67.1046L126.908 62.1156C127.028 61.4544 126.728 60.5528 126.247 60.132L122.34 56.7659C121.799 56.3452 121.979 55.9244 122.64 55.8643L127.75 55.5037C128.411 55.4435 129.192 54.9026 129.433 54.2414L131.416 49.4928Z" fill="#0791DA"/>
</g>
<g style="mix-blend-mode:multiply" opacity="0.6">
<path d="M155.819 49.4928C156.059 48.8917 156.48 48.8917 156.72 49.4928L158.704 54.2414C158.944 54.9026 159.726 55.4435 160.387 55.5037L165.496 55.8643C166.158 55.9244 166.278 56.3452 165.797 56.7659L161.89 60.132C161.349 60.5528 161.048 61.4544 161.229 62.1156L162.431 67.1046C162.611 67.7658 162.25 68.0062 161.649 67.6456L157.322 64.9407C156.72 64.58 155.759 64.58 155.218 64.9407L150.83 67.6456C150.289 68.0062 149.928 67.7658 150.109 67.1046L151.311 62.1156C151.431 61.4544 151.13 60.5528 150.65 60.132L146.742 56.7659C146.201 56.3452 146.322 55.9244 147.043 55.8643L152.152 55.5037C152.813 55.4435 153.595 54.9026 153.835 54.2414L155.819 49.4928Z" fill="#0791DA"/>
</g>
<path d="M83.5115 64.7622C83.6918 64.7622 83.9322 64.8223 84.1126 64.9425L88.5005 67.6474C88.8611 67.8879 89.1617 67.8277 89.2218 67.5873L84.9541 64.9425C84.5333 64.7021 83.9923 64.642 83.5115 64.7622ZM107.014 49.4947L105.03 54.2432C104.79 54.9044 104.008 55.4454 103.347 55.5055L98.2381 55.8662C97.5769 55.9263 97.4566 56.347 97.9375 56.7678L101.845 60.1339C102.386 60.5546 102.686 61.4562 102.506 62.1174L101.304 67.1065C101.123 67.7676 101.484 68.0081 102.025 67.6474L102.145 67.5873C102.085 67.4671 102.085 67.2868 102.145 67.1065L103.347 62.1174C103.468 61.4562 103.167 60.5546 102.686 60.1339L98.779 56.7678C98.2381 56.347 98.4184 55.9263 99.0796 55.8662L104.189 55.5055C104.85 55.4454 105.631 54.9044 105.872 54.2432L107.855 49.4947C107.855 49.4947 107.855 49.4947 107.855 49.4345C107.615 48.8936 107.254 48.9537 107.014 49.4947ZM82.6098 49.4947L80.6263 54.2432C80.3858 54.9044 79.6044 55.4454 78.9432 55.5055L73.834 55.8662C73.1728 55.9263 73.0526 56.347 73.5335 56.7678L77.4405 60.1339C77.9815 60.5546 78.282 61.4562 78.1017 62.1174L76.8995 67.1065C76.7192 67.7676 77.0799 68.0081 77.681 67.6474L77.7411 67.5873C77.6809 67.4671 77.6809 67.2868 77.7411 67.1065L78.9432 62.1174C79.0634 61.4562 78.823 60.5546 78.282 60.1339L74.375 56.7678C73.834 56.347 74.0143 55.9263 74.6755 55.8662L79.7847 55.5055C80.4459 55.4454 81.2273 54.9044 81.4678 54.2432L83.4514 49.4947C83.4514 49.4947 83.4514 49.4947 83.5115 49.4345C83.2109 48.8936 82.8503 48.9537 82.6098 49.4947ZM59.1074 64.7622C59.3478 64.7622 59.5282 64.8223 59.7085 64.9425L64.0964 67.6474C64.4571 67.8879 64.7576 67.8277 64.8177 67.5873L60.55 64.9425C60.1894 64.7021 59.5883 64.642 59.1074 64.7622ZM58.2058 49.4947L56.2222 54.2432C55.9818 54.9044 55.2605 55.4454 54.5392 55.5055L49.4299 55.8662C48.7688 55.9263 48.6485 56.347 49.1294 56.7678L53.0365 60.1339C53.5774 60.5546 53.878 61.4562 53.6976 62.1174L52.4955 67.1065C52.3152 67.7676 52.6758 68.0081 53.2769 67.6474L53.337 67.5873C53.2769 67.4671 53.2769 67.2868 53.337 67.1065L54.5392 62.1174C54.7195 61.4562 54.419 60.5546 53.878 60.1339L49.9709 56.7678C49.4901 56.347 49.6103 55.9263 50.2715 55.8662L55.3807 55.5055C56.0419 55.4454 56.8233 54.9044 57.0637 54.2432L59.0473 49.4947C59.0473 49.4947 59.0473 49.4947 59.1074 49.4345C58.8069 48.8936 58.4462 48.9537 58.2058 49.4947ZM158.106 64.9425C157.745 64.7021 157.144 64.642 156.664 64.7622C156.904 64.7622 157.144 64.8223 157.325 64.9425L161.653 67.6474C162.073 67.8879 162.314 67.8277 162.434 67.5873L158.106 64.9425ZM155.762 49.4947L153.778 54.2432C153.538 54.9044 152.756 55.4454 152.095 55.5055L146.986 55.8662C146.325 55.9263 146.205 56.347 146.686 56.7678L150.593 60.0738C151.134 60.5546 151.374 61.4562 151.254 62.1174L150.052 67.1065C149.871 67.7075 150.232 68.0081 150.773 67.6474L150.893 67.5873C150.833 67.4671 150.833 67.2868 150.893 67.1065L152.095 62.1174C152.215 61.4562 151.915 60.5546 151.434 60.0738L147.527 56.7678C146.986 56.347 147.106 55.9263 147.828 55.8662L152.937 55.5055C153.598 55.4454 154.379 54.9044 154.62 54.2432L156.603 49.4947V49.4345C156.363 48.8936 156.002 48.9537 155.762 49.4947ZM107.855 64.7021C108.096 64.7622 108.276 64.8223 108.457 64.9425L112.844 67.6474C113.205 67.8879 113.506 67.8277 113.566 67.5873L109.298 64.9425C108.937 64.7021 108.336 64.642 107.855 64.7021ZM132.259 64.7021C132.5 64.7622 132.68 64.8223 132.861 64.9425L137.248 67.6474C137.609 67.8879 137.91 67.8277 137.97 67.5873L133.702 64.9425C133.281 64.7021 132.74 64.642 132.259 64.7021ZM131.358 49.4947L129.374 54.2432C129.134 54.9044 128.413 55.4454 127.691 55.5055L122.582 55.8662C121.921 55.9263 121.801 56.347 122.281 56.7678L126.189 60.0738C126.729 60.5546 127.03 61.4562 126.85 62.1174L125.648 67.1065C125.467 67.7075 125.828 68.0081 126.429 67.6474L126.489 67.5873C126.429 67.4671 126.429 67.2868 126.489 67.1065L127.691 62.1174C127.811 61.4562 127.571 60.5546 127.03 60.0738L123.123 56.7678C122.642 56.347 122.762 55.9263 123.424 55.8662L128.533 55.5055C129.194 55.4454 129.975 54.9044 130.216 54.2432L132.199 49.4947C132.199 49.4947 132.199 49.4345 132.259 49.4345C131.959 48.8936 131.598 48.9537 131.358 49.4947Z" fill="#0791DA"/>
<path d="M33.2608 93.0725C33.2608 93.0123 42.3973 78.1655 46.124 71.3733C46.124 71.3733 47.747 71.0727 48.5885 72.876C48.5885 72.876 41.135 90.4277 35.9056 96.7992C30.616 103.231 33.2608 93.0123 33.2608 93.0123V93.0725Z" fill="url(#paint5_linear_524_11876)"/>
<path d="M49.972 69.8717C50.3928 68.91 50.2125 67.8881 49.5513 67.5876C48.8901 67.2269 47.9885 67.7679 47.5076 68.6695C47.0868 69.5712 47.2672 70.593 47.9284 70.9537C48.5895 71.2542 49.4912 70.7733 49.972 69.8717Z" fill="#E3AD91"/>
<path d="M64.7555 65.7843C65.2364 65.3635 65.1161 64.9427 64.455 64.8826L59.2856 64.522C58.5643 64.4619 57.843 63.9209 57.5425 63.2597L55.619 58.5111C55.4988 58.2106 55.3185 58.0303 55.1381 58.0303C55.1381 58.0303 55.1181 58.0303 55.078 58.0303H54.1163V59.1723L54.3567 59.2324L52.6737 63.2597C52.4332 63.9209 51.6518 64.4619 50.9906 64.522L45.8213 64.8826C45.1 64.9427 44.9798 65.3635 45.5208 65.7843L49.4278 69.1503C49.9688 69.6312 50.2693 70.5328 50.089 71.194L48.8868 76.1229L48.7065 76.2432L47.9852 76.9043H49.0672C49.2475 76.9644 49.4278 76.9043 49.6683 76.7841L54.0562 74.0792C54.6573 73.7186 55.619 73.7186 56.16 74.0792L59.8867 76.3634L60.0069 76.9043H60.9687H61.149H61.0889C61.3293 76.8442 61.4495 76.6639 61.3293 76.2432L60.1271 71.194C59.9468 70.5328 60.2474 69.6312 60.7883 69.1503L64.7555 65.7843Z" fill="#D48721"/>
<path d="M53.5169 58.5105C53.8174 57.8494 54.2382 57.8494 54.4786 58.5105L56.4622 63.2591C56.7026 63.9203 57.484 64.4613 58.1452 64.5214L63.3146 64.882C63.9758 64.9421 64.1561 65.3629 63.6151 65.7837L59.6479 69.1497C59.1671 69.6306 58.8665 70.5322 59.0469 71.1934L60.249 76.2426C60.4294 76.8436 60.0687 77.1442 59.4676 76.7835L55.0797 74.0786C54.4786 73.718 53.5169 73.718 52.9759 74.0786L48.5279 76.7835C47.9869 77.1442 47.6262 76.8436 47.8066 76.2426L49.0087 71.1934C49.129 70.5322 48.8284 69.6306 48.3475 69.1497L44.3804 65.7837C43.8995 65.3629 44.0197 64.9421 44.6809 64.882L49.8503 64.5214C50.5114 64.4613 51.2929 63.9203 51.5333 63.2591L53.5169 58.5105Z" fill="#FEC80F"/>
<path d="M31.5781 174.103V176.687H33.8622V173.982L31.5781 174.103Z" fill="#FFC9B0"/>
<path d="M31.5782 175.845C31.5782 175.845 30.917 176.205 30.917 177.107C30.917 178.069 30.917 179.03 30.917 179.03H40.2939C40.2939 179.03 40.4742 177.888 39.212 177.888C37.8896 177.888 35.6656 176.987 35.2448 176.566C34.7038 176.025 34.2831 175.845 33.8623 175.845C33.5017 175.845 31.5782 175.845 31.5782 175.845Z" fill="url(#paint6_linear_524_11876)"/>
<path d="M9.15627 172.116L7.9541 174.46L9.99779 175.542L11.2601 173.138L9.15627 172.116Z" fill="#FFC9B0"/>
<path d="M8.31615 173.679C8.31615 173.679 7.59485 173.739 7.17409 174.52C6.75333 175.362 6.27246 176.203 6.27246 176.203L12.644 179.569H14.0866C14.0866 179.569 14.3871 178.127 13.5456 178.127C11.5019 178.127 11.3817 176.624 11.2014 176.083C11.021 175.302 10.7806 174.941 10.4199 174.761C10.0593 174.58 8.31615 173.679 8.31615 173.679Z" fill="url(#paint7_linear_524_11876)"/>
<path d="M24.4269 125.652C20.9406 129.98 22.1428 140.018 19.4379 146.751C16.6729 153.423 8.37793 172.297 8.37793 172.297C8.37793 172.297 9.51999 173.86 11.5637 173.86C11.5637 173.86 29.7165 150.117 32.4213 141.16C35.1863 132.264 32.6618 125.412 32.6618 125.412C32.6618 125.412 25.3886 124.45 24.4269 125.652Z" fill="#0C337D"/>
<path d="M24.908 123.85C22.5037 134.369 27.132 136.052 28.8151 152.702C30.0172 165.084 30.9189 174.882 30.9189 174.882C30.9189 174.882 33.1429 175.543 34.5254 174.882C34.5254 174.882 38.0117 134.128 38.0117 126.915C38.0117 119.702 25.1484 122.647 24.908 123.85Z" fill="#0C4296"/>
<path d="M35.9673 91.751C36.0875 88.3248 34.3444 85.3193 34.3444 85.3193C33.8635 85.5598 32.6614 85.8002 31.8198 86.1007C30.9783 86.4013 31.2789 87.6035 31.339 88.2045C31.4592 88.8056 31.339 90.1881 31.0384 90.3685C30.7379 89.7674 30.1969 87.6636 29.4155 88.6253C28.6341 89.587 29.0548 89.8275 29.4155 91.0898C29.7762 92.2919 28.2734 92.4121 28.2734 92.4121C29.4756 95.2372 30.0767 96.0788 30.0767 96.0788C30.0767 96.0788 34.0439 97.9421 33.5029 95.5378C33.2624 94.2755 32.7215 93.9149 32.7215 93.9149C35.0657 94.6362 35.8471 93.6143 35.9673 91.751Z" fill="#FFC9B0"/>
<path d="M29.596 95.2978C29.596 95.2978 24.8474 96.2596 24.8474 103.773C24.8474 111.287 21.6016 129.98 21.6016 129.98C21.6016 129.98 34.8855 130.101 38.9729 127.336C37.4101 110.445 40.7762 107.981 38.7926 101.729C37.5303 97.8825 34.5249 94.817 29.596 95.2978Z" fill="url(#paint8_linear_524_11876)"/>
<path d="M32.3599 97.2249C35.0647 95.5418 47.928 81.3562 52.6765 75.165C52.6765 75.165 54.2995 75.165 54.9006 77.0284C54.9006 77.0284 46.0045 89.6512 39.7532 97.4052C37.95 99.6292 38.6111 101.733 38.8516 103.957C39.6931 112.192 27.3107 100.411 32.3599 97.2249Z" fill="url(#paint9_linear_524_11876)"/>
<path d="M56.6421 74.2608C57.2432 73.3591 57.183 72.3373 56.582 71.9165C55.9809 71.4958 55.0191 71.8564 54.418 72.6979C53.8771 73.5395 53.8771 74.5613 54.4782 74.9821C55.1394 75.4028 56.1011 75.1023 56.6421 74.2608Z" fill="#FFC9B0"/>
<path d="M35.4826 82.9128C34.8214 81.4702 34.6411 83.8745 33.6793 83.5139C32.7176 83.1532 28.9307 81.5904 26.286 85.6177C24.5428 87.9018 24.9035 91.328 22.439 92.7105C16.8489 96.0164 15.7069 100.705 15.8271 105.634C12.2206 106.776 8.79439 115.191 11.92 121.142C16.6085 130.278 24.8434 124.748 26.6466 121.022C28.4499 117.295 26.4663 114.41 27.2477 109.3C27.969 104.251 31.5154 105.514 30.9143 96.317C30.5537 90.0657 34.04 90.6668 34.3405 85.3171C34.3405 85.3171 36.1438 84.4155 35.4826 82.9128Z" fill="#302F5B"/>
<path d="M188.399 36.3305C188.399 43.4233 182.689 49.1336 175.596 49.1336C168.503 49.1336 162.793 43.4233 162.793 36.3305C162.793 29.2377 168.503 23.5273 175.596 23.5273C182.689 23.5273 188.399 29.2377 188.399 36.3305Z" fill="#FFFAAB"/>
<path d="M79.8444 101.971L81.7078 100.047C82.2487 99.5665 82.2487 98.725 81.7078 98.1841C81.2269 97.6431 80.3854 97.6431 79.8444 98.1841L77.9209 100.108L76.0576 98.1841C75.5166 97.6431 74.6751 97.6431 74.1341 98.1841C73.6532 98.725 73.6532 99.5665 74.1341 100.047L76.0576 101.971L74.1341 103.894C73.6532 104.375 73.6532 105.217 74.1341 105.758C74.6751 106.299 75.5166 106.299 76.0576 105.758L77.9209 103.834L79.8444 105.758C80.3854 106.299 81.2269 106.299 81.7078 105.758C82.2487 105.217 82.2487 104.375 81.7078 103.894L79.8444 101.971Z" fill="white"/>
<path d="M180.167 34.3418C180.167 35.003 179.746 35.544 179.145 35.544C178.604 35.544 178.123 35.003 178.123 34.3418C178.123 33.6806 178.604 33.1396 179.145 33.1396C179.746 33.1396 180.167 33.6806 180.167 34.3418Z" fill="#66241C"/>
<path d="M172.955 34.3418C172.955 35.003 172.474 35.544 171.933 35.544C171.392 35.544 170.911 35.003 170.911 34.3418C170.911 33.6806 171.392 33.1396 171.933 33.1396C172.474 33.1396 172.955 33.6806 172.955 34.3418Z" fill="#66241C"/>
<path d="M31.1545 54.1194C31.1545 61.8133 24.9032 68.0646 17.2694 68.0646C9.5755 68.0646 3.32422 61.8133 3.32422 54.1194C3.32422 46.4857 9.5755 40.2344 17.2694 40.2344C24.9032 40.2344 31.1545 46.4857 31.1545 54.1194Z" fill="#FEC9AB"/>
<path d="M28.3275 54.1176C28.3275 60.2487 23.3986 65.2377 17.2675 65.2377C11.0764 65.2377 6.14746 60.2487 6.14746 54.1176C6.14746 47.9865 11.0764 43.0576 17.2675 43.0576C23.3986 43.0576 28.3275 47.9865 28.3275 54.1176Z" fill="#FE171A"/>
<path d="M19.3691 55.0821V50.3937C19.3691 50.0931 19.3691 49.7926 19.4292 49.6724C19.4894 49.6122 19.5495 49.6122 19.5495 49.6122C19.7298 49.492 20.0303 49.5521 20.2708 49.5521H22.074C22.1942 49.5521 22.3746 49.5521 22.4347 49.5521C22.4948 49.6122 22.5549 49.6724 22.615 49.7325C22.6751 49.9128 22.615 50.2734 22.615 50.5139V55.5029C22.615 55.6231 22.615 55.7433 22.615 55.8635C22.5549 55.9837 22.4347 56.0439 22.3145 56.0439C22.1341 56.104 21.8336 56.0439 21.5932 56.0439H20.2107C20.0303 56.0439 19.7298 56.104 19.6096 56.0439C19.5495 55.9837 19.4292 55.9236 19.4292 55.8635C19.3691 55.7433 19.3691 55.3827 19.3691 55.0821Z" fill="white"/>
<path d="M11.3168 54.6596C11.1365 54.5394 10.896 54.2989 10.896 53.9984C10.8359 53.5776 11.0163 53.217 11.2567 53.0968C11.3769 53.0367 11.4971 53.0367 11.6173 52.9765C11.6173 52.9164 11.4971 52.8563 11.4971 52.7962C11.3769 52.7361 11.2567 52.6159 11.1966 52.4957C11.0163 52.0749 11.1966 51.5941 11.4971 51.4137C11.5572 51.3536 11.6775 51.3536 11.7376 51.2935C11.7376 51.1733 11.6775 51.1733 11.6173 51.1132C11.437 50.993 11.3168 50.5722 11.437 50.2717C11.5572 50.0312 11.7977 49.7908 12.0381 49.7908C12.3387 49.7307 12.6392 49.7908 12.8796 49.7908C14.5026 49.7908 16.1255 49.7908 17.8085 49.7908C18.1692 49.7908 18.5899 49.6706 18.7703 49.911C18.8304 50.0913 18.8304 50.3919 18.8304 50.6323V52.9765C18.8304 53.4574 18.8304 53.9984 18.8304 54.5394C18.7703 56.5229 17.8085 57.665 16.8468 58.747C16.7266 58.8672 16.6064 59.0475 16.426 59.1677C16.3058 59.2879 16.1255 59.4683 16.1255 59.5885C16.0654 59.6486 16.0654 59.8289 16.0654 59.889C16.0654 60.0092 16.0654 60.1295 16.0654 60.2497C16.0654 60.4901 16.0654 60.6704 16.0654 60.9109C16.0053 61.2114 15.7047 61.4518 15.4643 61.4518C14.9834 61.512 14.6829 61.2114 14.5026 60.971C14.202 60.43 14.0818 59.5885 14.2621 58.8071C14.3222 58.4464 14.4424 58.1459 14.5627 57.8453C14.6829 57.6049 14.743 57.3645 14.8632 57.1841C14.9233 57.0639 14.9834 57.0038 14.9834 56.9437C14.9233 56.8235 14.6228 56.8235 14.4424 56.8235C13.7813 56.8235 13.1802 56.8235 12.519 56.8235C12.0982 56.8235 11.6775 56.8836 11.3769 56.7634C11.0764 56.6432 10.896 56.3426 10.8359 55.982C10.8359 55.5612 10.9562 55.2006 11.2567 55.0202C11.3168 54.9601 11.3769 54.9 11.4971 54.8399C11.4971 54.7798 11.3769 54.7197 11.3168 54.6596Z" fill="white"/>
<path fill-rule="evenodd" clip-rule="evenodd" d="M175.453 72.986C170.59 72.986 165.871 72.0368 161.422 70.1544C157.132 68.3409 153.277 65.7426 149.969 62.4338C146.66 59.1196 144.062 55.27 142.243 50.9748C140.366 46.5313 139.411 41.8066 139.411 36.9442C139.411 32.0817 140.366 27.357 142.243 22.9135C144.062 18.6184 146.66 14.7687 149.969 11.4545C153.277 8.1457 157.132 5.54743 161.422 3.73394C165.871 1.85151 170.59 0.902344 175.453 0.902344C180.321 0.902344 185.04 1.85151 189.484 3.73394C193.779 5.54743 197.634 8.1457 200.943 11.4545C204.251 14.7687 206.85 18.6184 208.668 22.9135C210.546 27.357 211.5 32.0817 211.5 36.9442C211.5 41.8066 210.546 46.5313 208.668 50.9748C206.85 55.27 204.251 59.1196 200.943 62.4338C197.634 65.7426 193.779 68.3409 189.484 70.1544C185.04 72.0368 180.321 72.986 175.453 72.986ZM175.453 5.0914C157.891 5.0914 143.6 19.3766 143.6 36.9442C143.6 54.5117 157.891 68.7969 175.453 68.7969C193.02 68.7969 207.311 54.5117 207.311 36.9442C207.311 19.3766 193.02 5.0914 175.453 5.0914Z" fill="#EB2024"/>
<path fill-rule="evenodd" clip-rule="evenodd" d="M160.749 46.2232L159.7 42.5644H154.726L153.612 46.2232H148.988L154.715 27.6641H160.739L166.561 46.2232H160.749ZM155.696 38.5132H158.703L157.197 33.131L155.696 38.5132Z" fill="black"/>
<path fill-rule="evenodd" clip-rule="evenodd" d="M168.269 46.2232V27.6641H175.448C178.57 27.6641 180.905 28.5885 182.453 30.4373C184.001 32.2862 184.776 34.4249 184.776 36.8535C184.776 39.6285 183.945 41.8839 182.283 43.6196C180.618 45.3553 178.458 46.2232 175.804 46.2232H168.269ZM173.969 41.9546H175.448C176.392 41.9546 177.188 41.4968 177.834 40.5812C178.481 39.6656 178.805 38.4195 178.805 36.8429C178.805 35.4925 178.518 34.3277 177.946 33.3485C177.37 32.3692 176.537 31.8796 175.448 31.8796H173.969V41.9546Z" fill="black"/>
<path d="M185.269 40.8518L190.555 39.9027C191.001 41.398 192.144 42.1457 193.986 42.1457C195.418 42.1457 196.134 41.7639 196.134 41.0003C196.134 40.6044 195.967 40.2951 195.635 40.0724C195.303 39.8497 194.711 39.6517 193.859 39.4785C190.607 38.8563 188.517 38.0415 187.591 37.034C186.668 36.0265 186.207 34.844 186.207 33.4865C186.207 31.7367 186.87 30.2802 188.196 29.1172C189.525 27.9577 191.435 27.3779 193.928 27.3779C197.71 27.3779 200.208 28.8962 201.42 31.9329L196.701 33.3593C196.213 32.1185 195.222 31.4981 193.726 31.4981C192.482 31.4981 191.86 31.8834 191.86 32.654C191.86 32.9969 192.001 33.2638 192.284 33.4547C192.563 33.6456 193.108 33.8277 193.917 34.0009C196.137 34.471 197.714 34.8864 198.647 35.247C199.58 35.6076 200.36 36.2262 200.985 37.1029C201.611 37.9761 201.924 39.0065 201.924 40.1943C201.924 42.075 201.162 43.5968 199.639 44.7599C198.115 45.9264 196.116 46.5097 193.641 46.5097C189.12 46.5097 186.329 44.6238 185.269 40.8518Z" fill="black"/>
<path d="M153.283 62.2544L150.473 59.444L198.281 11.6357L201.091 14.4461L153.283 62.2544Z" fill="#EB2024"/>
<defs>
<linearGradient id="paint0_linear_524_11876" x1="111.248" y1="178.684" x2="120.388" y2="178.684" gradientUnits="userSpaceOnUse">
<stop stop-color="#3D342B"/>
<stop offset="1" stop-color="#291C17"/>
</linearGradient>
<linearGradient id="paint1_linear_524_11876" x1="129.378" y1="178.684" x2="138.516" y2="178.684" gradientUnits="userSpaceOnUse">
<stop stop-color="#3D342B"/>
<stop offset="1" stop-color="#291C17"/>
</linearGradient>
<linearGradient id="paint2_linear_524_11876" x1="8.94889" y1="157.536" x2="11.6194" y2="128.772" gradientUnits="userSpaceOnUse">
<stop stop-color="#4C2A71"/>
<stop offset="1" stop-color="#302F5B"/>
</linearGradient>
<linearGradient id="paint3_linear_524_11876" x1="69.0903" y1="176.941" x2="58.2741" y2="118.577" gradientUnits="userSpaceOnUse">
<stop stop-color="#4C2A71"/>
<stop offset="1" stop-color="#302F5B"/>
</linearGradient>
<linearGradient id="paint4_linear_524_11876" x1="91.7306" y1="120.738" x2="90.8132" y2="91.6899" gradientUnits="userSpaceOnUse">
<stop stop-color="#814DB0"/>
<stop offset="1" stop-color="#BE6FD3"/>
</linearGradient>
<linearGradient id="paint5_linear_524_11876" x1="70.2101" y1="88.1448" x2="58.3892" y2="109.918" gradientUnits="userSpaceOnUse">
<stop stop-color="#F2577E"/>
<stop offset="1" stop-color="#D11F42"/>
</linearGradient>
<linearGradient id="paint6_linear_524_11876" x1="40.3156" y1="175.832" x2="30.9404" y2="175.832" gradientUnits="userSpaceOnUse">
<stop stop-color="#3D342B"/>
<stop offset="1" stop-color="#291C17"/>
</linearGradient>
<linearGradient id="paint7_linear_524_11876" x1="15.2569" y1="177.354" x2="7.79898" y2="173.374" gradientUnits="userSpaceOnUse">
<stop stop-color="#3D342B"/>
<stop offset="1" stop-color="#291C17"/>
</linearGradient>
<linearGradient id="paint8_linear_524_11876" x1="68.1285" y1="127.973" x2="45.571" y2="140.093" gradientUnits="userSpaceOnUse">
<stop stop-color="#F2577E"/>
<stop offset="1" stop-color="#EB3061"/>
</linearGradient>
<linearGradient id="paint9_linear_524_11876" x1="53.4255" y1="112.551" x2="30.9419" y2="124.631" gradientUnits="userSpaceOnUse">
<stop stop-color="#F2577E"/>
<stop offset="1" stop-color="#EB3061"/>
</linearGradient>
</defs>
</svg>
