<svg width="262" height="184" viewBox="0 0 262 184" fill="none" xmlns="http://www.w3.org/2000/svg">
<path d="M25.099 169.537C25.099 169.537 4.20883 160.104 7.52473 137.373C10.8406 114.626 26.2596 114.626 30.736 114.626C35.2125 114.626 48.8077 114.493 45.9892 93.6031C43.1707 72.7129 52.2894 56.6308 68.5373 56.6308C84.7853 56.6308 99.8726 75.1999 121.426 40.3829C142.979 5.5659 194.824 17.0058 204.655 47.8437C214.47 78.6816 215.929 74.5367 230.851 85.4792C245.772 96.4216 239.92 113.996 227.203 120.296C214.47 126.596 215.017 136.71 225.214 135.218C235.394 133.726 249.751 137.207 250.746 153.621C251.741 170.035 236.902 173.069 236.902 173.069L223.058 174.13L25.099 169.537Z" fill="#E3E9FF"/>
<path d="M32.7266 156.771L73.5122 90.9337L99.0446 121.871L131.027 57.8907L146.313 78.4161L184.147 36.1549L179.124 31.264L203.496 25.627L198.688 49.0041L193.05 43.5328L148.551 94.0672L133.033 81.8149L101.548 144.734L75.1535 110.481L41.6795 163.585L32.7266 156.771Z" fill="#FA7092"/>
<path d="M93.7056 163.121C93.8824 163.607 94.0593 164.11 94.2361 164.63L70.4777 164.663C70.4777 164.663 63.2656 165.16 58.1094 139.578C58.1094 139.578 68.8695 142.347 74.8381 143.342C78.8172 144.005 83.7745 146.21 88.2012 152.344C89.3949 158.346 91.8321 161.496 93.7056 163.121Z" fill="#335080"/>
<path d="M106.587 146.542C106.587 146.542 105.841 135.467 106.919 131.289C106.919 131.289 110.152 135.384 113.965 137.042C117.779 138.7 128.191 145.63 126.218 160.486C124.245 175.341 124.245 164.664 124.245 164.664L107.798 164.448L110.567 164.398C110.567 164.398 111.279 155.313 106.587 146.542Z" fill="#335080"/>
<path d="M96.2256 164.663C96.2256 164.663 89.2622 162.573 87.7701 149.476C86.2779 136.378 87.3887 131.901 87.3887 131.901C87.3887 131.901 97.7509 133.758 104.615 143.358C111.479 152.957 110.567 164.397 110.567 164.397L96.2256 164.663Z" fill="#4F70A6"/>
<path d="M123.979 146.509C124.344 147.205 124.681 147.94 124.991 148.714C124.974 148.714 122.305 149.825 119.951 153.638L119.503 152.461C119.503 152.461 120.067 149.692 123.979 146.509Z" fill="#3A598C"/>
<path d="M69.8975 147.188C70.4612 147.574 71.0084 147.956 71.5389 148.331C70.2623 148.647 63.6636 150.404 61.8896 153.421C61.6354 152.758 61.3867 152.051 61.1436 151.299C61.1436 151.299 64.3102 148.63 69.8975 147.188Z" fill="#3A598C"/>
<path d="M80.0442 154.781C80.7737 155.389 81.459 155.975 82.1 156.539C80.9892 156.804 75.3356 158.296 67.9743 163.519C67.4603 163.104 66.88 162.54 66.2666 161.761C66.2666 161.745 71.1907 156.157 80.0442 154.781Z" fill="#3A598C"/>
<path d="M110.335 158.694C115.325 156.141 121.393 158.363 121.393 158.363C121.526 158.91 121.659 159.706 121.659 159.706C116.27 157.998 110.484 160.12 110.484 160.12C110.44 159.667 110.39 159.192 110.335 158.694Z" fill="#3A598C"/>
<path d="M85.9131 159.672C85.9462 158.578 86.1784 153.819 87.6208 151.548C87.8197 151.802 88.0132 152.067 88.2011 152.344C88.3669 153.151 88.5492 153.902 88.7482 154.598C88.7482 154.598 87.9855 155.461 87.8032 161.678C87.2726 161.098 86.6592 160.418 85.9131 159.672Z" fill="#3A598C"/>
<path d="M58.1591 139.794L58.1094 139.578C58.1094 139.578 58.3083 139.628 58.6897 139.727C66.3826 144.254 72.2849 148.299 76.7945 151.764C76.7613 150.57 76.8276 146.691 78.5685 144.386C78.668 144.43 78.773 144.475 78.8835 144.519C78.8725 144.53 78.8614 144.541 78.8503 144.552C76.9603 147.006 77.0929 151.399 77.1261 152.029C87.2562 159.871 90.0581 164.547 90.0581 164.547C90.0691 164.58 90.0747 164.608 90.0747 164.63H89.7099C89.2954 163.967 86.1951 159.44 76.8774 152.245C76.8663 152.245 76.8608 152.239 76.8608 152.228C72.2683 148.68 66.1836 144.486 58.1591 139.794Z" fill="#283C5C"/>
<path d="M139.333 164.63C139.333 164.63 137.476 155.212 143.793 149.194C150.109 143.176 175.808 135.217 177.797 132.067C177.797 132.067 173.801 162.872 159.228 165.309L139.333 164.63Z" fill="#4F70A6"/>
<path d="M106.853 131.554C106.875 131.466 106.897 131.377 106.919 131.289C106.919 131.289 107.052 131.455 107.301 131.737C107.947 133.196 110.036 137.506 113.253 141.403C113.684 141.922 114.12 142.491 114.562 143.11C114.817 143.464 115.071 143.829 115.325 144.205C115.574 143.624 116.22 142.248 116.95 141.121C117.364 140.491 117.795 139.96 118.227 139.662C118.315 139.739 118.403 139.811 118.492 139.877C118.481 139.888 118.464 139.899 118.442 139.91C118.044 140.176 117.63 140.706 117.232 141.303C116.403 142.563 115.706 144.171 115.541 144.536C116.768 146.426 117.961 148.598 118.989 150.869C119 150.881 119.006 150.892 119.006 150.903C120.713 154.683 121.957 158.745 122.106 162.276C122.106 162.359 122.04 162.442 121.957 162.442C121.857 162.442 121.775 162.376 121.775 162.293C121.625 158.811 120.398 154.815 118.724 151.085C118.144 150.936 113.949 149.875 108.577 151.102C108.544 151.002 108.511 150.897 108.478 150.787C108.478 150.787 108.483 150.787 108.494 150.787C113.435 149.659 117.398 150.422 118.558 150.704L118.542 150.687C118.42 150.411 118.293 150.14 118.16 149.875C117.773 149.068 117.364 148.278 116.933 147.504C116.403 146.542 115.834 145.597 115.226 144.669L115.209 144.636C114.922 144.193 114.629 143.768 114.33 143.359C113.85 143.293 110.799 142.978 106.488 144.022C106.477 144.022 106.466 144.022 106.455 144.022L106.438 143.84V143.691C110.252 142.779 113.087 142.911 114.082 142.994C113.717 142.508 113.358 142.049 113.004 141.618C109.473 137.341 107.301 132.599 106.853 131.554Z" fill="#283C5C"/>
<path d="M177.465 132.432C177.609 132.3 177.72 132.178 177.797 132.067C177.797 132.067 177.764 132.316 177.681 132.78C176.388 135.848 173.801 139.147 170.635 142.28C171.629 142.247 174.166 142.247 175.509 142.861C175.487 142.96 175.459 143.065 175.426 143.176C175.415 143.176 175.404 143.17 175.393 143.159C173.884 142.479 170.734 142.595 170.286 142.629C168.43 144.436 166.374 146.193 164.285 147.835C164.274 147.857 164.263 147.868 164.251 147.868C161.085 150.355 157.819 152.56 154.934 154.234C146.511 159.175 145.898 164.63 145.881 164.862L145.55 164.845C145.55 164.845 145.981 159.109 154.768 153.952C157.62 152.294 160.853 150.122 163.986 147.669C163.87 147.105 163.273 144.369 162.594 142.231C162.279 141.219 161.947 140.357 161.615 139.926C161.615 139.915 161.61 139.904 161.599 139.893L161.715 139.843L161.914 139.76C162.229 140.225 162.594 141.103 162.909 142.131C163.555 144.121 164.102 146.624 164.285 147.437C166.307 145.845 168.28 144.137 170.071 142.38C170.093 142.358 170.115 142.336 170.137 142.314C173.47 139.064 176.189 135.632 177.465 132.432Z" fill="#365486"/>
<path d="M145.251 148C148.186 151.332 149.479 158.213 149.479 158.213L147.274 160.982C145.981 153.919 143.245 149.741 143.245 149.741C143.422 149.553 143.604 149.371 143.792 149.194C144.19 148.812 144.688 148.398 145.251 148Z" fill="#3A598C"/>
<path d="M87.3389 132.1C87.372 131.968 87.3886 131.901 87.3886 131.901C87.3886 131.901 87.4881 131.918 87.6539 131.968L87.7036 132.017C87.7368 132.062 87.7755 132.1 87.8197 132.133C87.8749 132.2 87.9247 132.261 87.9689 132.316C88.5879 133.023 89.1958 133.742 89.7926 134.471C90.8316 135.753 91.8319 137.069 92.7935 138.417C93.7883 139.821 94.7389 141.252 95.6452 142.711C96.0431 143.352 96.4355 143.993 96.8224 144.634L96.8389 144.684C97.3529 143.772 99.1932 140.622 100.752 138.997L100.835 139.064C100.868 139.097 100.895 139.125 100.917 139.147L100.984 139.213C99.3424 140.954 97.3529 144.435 97.0379 145.016V145.032C97.3363 145.541 97.6347 146.055 97.9332 146.574C98.2206 147.105 98.5079 147.641 98.7953 148.182L98.8119 148.216C99.0661 148.702 99.3203 149.183 99.5745 149.658C100.514 151.526 101.398 153.422 102.227 155.345C102.625 156.262 103.012 157.191 103.388 158.13C103.797 159.18 104.189 160.241 104.565 161.313H104.582C104.88 160.7 105.576 159.374 106.521 158.114C107.4 156.953 108.511 155.826 109.738 155.328C109.749 155.328 109.76 155.328 109.771 155.328C109.793 155.439 109.815 155.549 109.837 155.66C108.677 156.124 107.632 157.202 106.787 158.313C105.643 159.838 104.88 161.446 104.731 161.761C105.311 163.469 105.576 164.447 105.576 164.447C105.587 164.458 105.593 164.475 105.593 164.497H105.245C105.195 164.298 104.913 163.336 104.399 161.811L104.383 161.761C104.018 160.722 103.637 159.689 103.239 158.661C102.852 157.677 102.454 156.704 102.045 155.743C101.194 153.753 100.276 151.791 99.2927 149.857C99.0606 149.393 98.8174 148.929 98.5632 148.464V148.448C97.9829 148.365 94.3188 147.984 87.6539 148.448L87.6373 148.265L87.6207 148.116C93.7386 147.685 97.3363 147.984 98.3642 148.083L98.3477 148.05C98.0713 147.541 97.795 147.033 97.5187 146.525C97.2534 146.049 96.9826 145.579 96.7063 145.115L96.6897 145.066C96.325 144.447 95.9492 143.828 95.5623 143.209C94.6339 141.705 93.6612 140.235 92.6443 138.798C91.6716 137.417 90.6603 136.068 89.6103 134.753C89.0134 134.024 88.4 133.305 87.7699 132.598C87.6483 132.443 87.5157 132.294 87.372 132.15L87.3389 132.1Z" fill="#365486"/>
<path d="M185.257 146.343C185.257 146.343 182.273 140.888 187.081 137.87C191.889 134.836 194.542 140.855 194.707 132.068C194.873 123.28 198.852 123.645 200.842 124.109C202.831 124.557 203.66 124.773 203.826 122.949C203.992 121.125 205.318 114.162 210.292 114.659C215.266 115.157 214.603 122.949 212.448 126.265C210.292 129.581 206.313 132.731 211.121 136.876C215.929 141.021 215.813 142.38 209.148 144.933C202.5 147.487 205.418 148.531 208.27 152.228C211.121 155.942 207.308 157.766 203.163 158.926C199.018 160.087 207.523 159.905 207.573 162.392C207.64 164.895 202.831 164.729 200.345 166.387C197.858 168.045 193.381 169.206 193.381 169.206L181.825 166.686C182.444 166.42 183.107 166.111 183.815 165.757C189.004 163.154 190.894 159.092 192.884 155.279C194.873 151.466 197.543 147.785 197.543 147.785C192.602 146.691 188.556 146.309 185.257 146.343Z" fill="#3C9A50"/>
<path d="M207.424 151.2C207.424 151.2 208.137 145.713 210.624 146.343C213.111 146.989 215.598 148.863 216.758 147.918C217.919 146.989 214.934 141.684 217.421 140.026C219.908 138.368 223.158 141.501 224.6 139.678C226.043 137.87 227.154 129.133 230.9 129.846C234.664 130.575 237.599 136.113 233.139 141.236C228.695 146.343 229.143 146.691 230.237 150.322C231.348 153.953 229.856 156.605 223.556 156.439C217.256 156.274 225.048 163.237 223.556 164.398C222.064 165.558 217.421 163.469 217.09 164.398C216.758 165.31 218.416 166.056 218.416 167.216C218.416 168.377 209.297 169.206 209.297 169.206L198.139 170.035C198.139 170.035 197.708 169.139 197.178 167.946C198.289 167.515 199.449 166.984 200.344 166.387C202.831 164.729 207.639 164.895 207.573 162.392C207.523 159.905 199.018 160.087 203.163 158.926C207.308 157.766 211.121 155.942 208.269 152.228C207.988 151.864 207.689 151.515 207.424 151.2Z" fill="#4AC164"/>
<path d="M202.235 133.626C202.577 133.117 202.904 132.637 203.213 132.183C204.921 129.68 206.28 127.906 207.192 126.099C207.872 124.756 208.303 123.413 208.452 121.771C208.336 123.429 207.938 124.789 207.292 126.148C206.413 127.972 205.103 129.796 203.429 132.316C203.097 132.824 202.749 133.366 202.384 133.941C202.384 133.991 202.351 134.04 202.301 134.073C201.522 135.3 200.693 136.676 199.798 138.285C200.908 137.937 204.009 137.124 207.491 137.704C207.59 137.721 207.64 137.804 207.623 137.887C207.623 137.986 207.524 138.036 207.441 138.036C203.528 137.389 200.096 138.517 199.566 138.699C199.179 139.407 198.786 140.147 198.388 140.921C199.632 140.539 203.362 139.478 205.849 140.026C205.932 140.042 205.998 140.125 205.965 140.224C205.949 140.307 205.866 140.374 205.766 140.341C203.08 139.744 198.886 141.103 198.173 141.352C198.107 141.473 198.04 141.606 197.974 141.75C195.951 145.795 194.542 149.924 193.58 153.588C193.332 154.533 193.099 155.461 192.917 156.323C194.094 155.876 197.526 154.732 201.853 155.279C201.936 155.279 202.003 155.362 201.986 155.461C201.986 155.544 201.903 155.61 201.804 155.61C197.261 155.03 193.696 156.356 192.834 156.721C192.657 157.539 192.497 158.318 192.353 159.059C193.232 158.777 195.387 158.164 197.709 158.429C197.792 158.429 197.858 158.512 197.841 158.611C197.841 158.694 197.758 158.76 197.659 158.76C195.238 158.479 193 159.191 192.287 159.44C191.591 163.419 191.475 166.039 191.475 166.039C191.458 166.221 191.309 166.37 191.127 166.354C190.944 166.337 190.795 166.188 190.812 166.006C190.812 166.006 191.11 160.568 193.066 153.455C193.779 150.852 194.708 148.033 195.918 145.182C195.338 144.718 192.934 142.91 189.518 141.998C189.435 141.982 189.369 141.882 189.402 141.8C189.419 141.717 189.518 141.667 189.601 141.683C192.95 142.562 195.354 144.303 196.067 144.867C196.288 144.336 196.526 143.806 196.78 143.275C196.15 142.861 193.713 141.286 192.519 141.004C192.42 140.987 192.37 140.904 192.387 140.805C192.403 140.722 192.503 140.672 192.586 140.689C193.796 140.971 196.216 142.512 196.913 142.977C197.145 142.501 197.383 142.032 197.626 141.567C199.234 138.417 200.726 135.964 202.036 133.941C201.771 133.493 200.212 130.857 198.239 129.199C198.173 129.149 198.156 129.033 198.223 128.967C198.272 128.901 198.388 128.884 198.455 128.95C200.312 130.492 201.804 132.913 202.235 133.626Z" fill="#287939"/>
<path d="M223.341 147.885C223.584 147.609 223.827 147.332 224.07 147.056C225.927 144.884 227.436 142.712 228.198 140.789C227.502 142.745 226.076 144.984 224.252 147.205C223.987 147.537 223.716 147.863 223.44 148.184C223.423 148.233 223.39 148.283 223.341 148.316C223.329 148.316 223.324 148.316 223.324 148.316C222.76 148.957 222.18 149.587 221.583 150.206C222.561 150.057 224.667 149.941 226.789 151.317C226.872 151.367 226.889 151.466 226.839 151.549C226.789 151.632 226.69 151.649 226.607 151.599C224.07 149.941 221.55 150.521 221.169 150.637C220.793 151.013 220.417 151.383 220.041 151.748C221.169 151.748 224.136 151.848 225.612 152.643C225.695 152.677 225.728 152.776 225.678 152.859C225.645 152.942 225.546 152.975 225.463 152.925C223.821 152.063 220.306 152.063 219.693 152.08C218.532 153.174 217.339 154.218 216.162 155.163C214.354 156.639 212.978 158.595 211.95 160.469C211.635 161.066 211.337 161.663 211.088 162.226C211.834 162.309 213.608 162.558 215.15 163.072C215.233 163.105 215.283 163.205 215.25 163.287C215.217 163.37 215.134 163.42 215.034 163.387C213.459 162.856 211.602 162.608 210.939 162.541C209.895 164.929 209.463 166.802 209.463 166.802C209.414 166.985 209.248 167.101 209.066 167.051C208.883 167.001 208.784 166.835 208.817 166.653C208.817 166.653 209.596 163.52 211.47 160.204C211.917 159.408 212.431 158.595 213.011 157.833C212.68 157.236 211.619 155.329 210.591 154.235C210.525 154.152 210.525 154.053 210.591 153.986C210.657 153.937 210.757 153.937 210.823 154.003C211.818 155.047 212.829 156.821 213.227 157.534C213.536 157.125 213.874 156.727 214.238 156.341C213.94 155.661 212.713 153.041 210.16 150.239C210.093 150.173 210.11 150.074 210.176 150.007C210.243 149.958 210.342 149.958 210.408 150.024C212.846 152.693 214.089 155.23 214.487 156.092C214.918 155.628 215.382 155.213 215.88 154.815C218.35 152.892 220.903 150.538 223.092 148.15C222.876 147.653 221.5 144.702 218.566 142.298C218.499 142.248 218.483 142.149 218.549 142.066C218.599 141.999 218.698 141.983 218.781 142.049C221.567 144.32 222.976 147.106 223.341 147.885Z" fill="#308341"/>
<path d="M173.337 149.526C176.189 147.421 183.019 144.586 197.543 147.785C197.543 147.785 194.874 151.466 192.884 155.279C190.895 159.093 189.004 163.155 183.815 165.758C178.626 168.377 175.807 168.377 175.807 168.377L158.614 169.206C158.614 169.206 157.122 167.25 155.646 165.194L159.228 165.31C165.992 164.183 170.469 156.954 173.337 149.526Z" fill="#335080"/>
<path d="M180.45 146.757C180.45 146.773 181.676 150.786 181.478 153.903L179.853 154.798C179.853 154.798 180.45 151.515 178.526 147.171C179.123 147.017 179.764 146.878 180.45 146.757Z" fill="#3A598C"/>
<path d="M185.871 164.53C185.871 164.53 181.13 159.407 174.232 158.595L176.305 157.036C176.305 157.036 183.484 158.28 187.314 163.403C186.872 163.801 186.391 164.176 185.871 164.53Z" fill="#3A598C"/>
<path d="M197.195 147.702C197.316 147.735 197.432 147.763 197.543 147.785C197.543 147.785 197.493 147.851 197.394 148.001C194.326 148.846 191.558 149.741 189.087 150.686C189.933 151.084 192.055 152.162 193.696 153.754C193.641 153.853 193.586 153.953 193.53 154.052C193.519 154.041 193.508 154.036 193.497 154.036C191.624 152.195 189.071 151.035 188.656 150.852C187.208 151.405 185.86 151.969 184.611 152.543C185.821 153.057 189.833 154.881 192.038 156.887C191.983 156.987 191.928 157.086 191.873 157.186C191.861 157.175 191.85 157.164 191.839 157.152C189.452 154.947 184.826 152.991 184.213 152.742C177.1 156.042 173.088 159.49 170.916 161.944C172.01 162.143 175.94 162.939 178.974 164.166C180.532 164.796 181.842 165.542 182.439 166.387C182.45 166.398 182.455 166.404 182.455 166.404C182.356 166.459 182.256 166.509 182.157 166.553C181.56 165.757 180.317 165.061 178.858 164.481C175.625 163.171 171.347 162.358 170.667 162.226C169.059 164.099 168.578 165.31 168.578 165.31C168.545 165.392 168.446 165.442 168.363 165.409C168.28 165.376 168.23 165.276 168.263 165.194C168.263 165.194 168.777 163.9 170.468 161.944C170.479 161.944 170.485 161.944 170.485 161.944C172.64 159.44 176.735 155.843 184.13 152.411C184.141 152.411 184.146 152.405 184.146 152.394C185.506 151.764 186.987 151.14 188.59 150.521H188.606C191.143 149.542 194.011 148.597 197.195 147.702Z" fill="#283C5C"/>
<path d="M119.934 163.834C119.934 163.834 60.7951 164.564 39.2418 164.829C34.2016 164.895 29.2609 166.404 25.0331 169.173C23.4581 170.217 21.6177 170.781 19.7277 170.797C13.958 170.88 1.49021 171.179 0.727554 172.356C-0.267217 173.881 -4.24631 177.678 60.0822 177.827C60.0822 177.827 65.0561 177.33 64.0613 179.817C63.0665 182.304 60.248 183.962 86.7752 183.63C113.302 183.298 127.561 181.74 151.037 183.514C174.531 185.288 136.05 181.707 213.957 180.762C213.957 180.762 261.689 181.64 261.689 178.822C261.689 176.003 246.602 173.881 240.467 173.881C234.333 173.881 234.499 168.377 225.048 167.548C215.598 166.719 131.208 163.237 119.934 163.834Z" fill="#839ADD"/>
<path d="M170.386 155.859C170.369 155.859 164.119 153.157 157.105 152.726L159.344 151.25C159.344 151.25 168.098 152.543 171.115 154.483C170.883 154.947 170.64 155.406 170.386 155.859Z" fill="#3A598C"/>
<path d="M130.761 166.885C146.561 166.885 159.394 168.957 159.394 171.527C159.394 174.08 146.561 176.169 130.761 176.169C114.944 176.169 102.128 174.08 102.128 171.527C102.128 168.957 114.944 166.885 130.761 166.885Z" fill="#6680CD"/>
<path d="M165.213 172.737C172.276 172.737 177.996 173.251 177.996 173.881C177.996 174.511 172.276 175.025 165.213 175.025C158.134 175.025 152.414 174.511 152.414 173.881C152.414 173.251 158.134 172.737 165.213 172.737Z" fill="#6680CD"/>
<path d="M139.166 136.544C139.166 136.544 134.358 139.445 134.358 148.498C134.358 157.55 139.498 166.288 150.275 169.206H110.815C121.592 166.288 126.732 157.55 126.732 148.498C126.732 139.445 121.924 136.544 121.924 136.544H139.166Z" fill="#F3D22D"/>
<path d="M125.389 141.186C123.98 137.787 121.924 136.544 121.924 136.544H139.167C139.167 136.544 137.094 137.787 135.685 141.186H125.389Z" fill="#F1BD2C"/>
<path d="M108.81 125.784L86.0791 115.72C76.778 111.609 72.5834 100.733 76.6951 91.4314C78.668 86.9716 82.3487 83.4733 86.8915 81.7159C90.1742 80.4392 93.7057 80.1574 97.1045 80.8206C97.1376 81.9977 97.2039 83.4899 97.32 85.2141C94.5181 84.5344 91.5337 84.7167 88.7981 85.7613C85.2833 87.1208 82.4316 89.8398 80.9063 93.2884C79.381 96.7535 79.2815 100.683 80.641 104.198C82.0005 107.729 84.7196 110.581 88.1681 112.106L97.4029 116.185C96.4579 115.173 96.176 113.648 96.7894 112.305C97.6184 110.514 99.724 109.735 101.515 110.548L101.813 110.68C103.488 116.069 105.742 121.341 108.81 125.784Z" fill="#F1BD2C"/>
<path d="M134.657 152.295C134.823 153.279 135.049 154.246 135.337 155.196H125.737C126.025 154.246 126.251 153.279 126.417 152.295H134.657Z" fill="#F1BD2C"/>
<path d="M130.429 138.036C96.2254 137.904 96.8886 77.8525 96.8886 77.8525H164.201C164.201 77.8525 164.865 138.036 130.545 138.036H130.429Z" fill="#F3D22D"/>
<path d="M108.461 82.5771C108.461 82.5771 107.981 129.166 132.104 132.796C131.131 132.94 130.114 133.012 129.053 133.012H128.97C101.83 132.913 102.36 82.5771 102.36 82.5771H108.461Z" fill="#F6DD69"/>
<path d="M165.776 76.7757C165.776 76.0794 165.213 75.5322 164.533 75.5322H96.5569C96.2253 75.5322 95.9103 75.6649 95.6617 75.897C95.4295 76.1291 95.3135 76.4441 95.3135 76.7757C95.3135 77.4555 95.8606 78.0192 96.5569 78.0192H164.533C165.213 78.0192 165.776 77.4555 165.776 76.7757Z" fill="#F1BD2C"/>
<path d="M152.431 125.784L175.161 115.72C184.462 111.609 188.657 100.733 184.545 91.4314C182.572 86.9716 178.892 83.4733 174.349 81.7159C171.066 80.4392 167.535 80.1574 164.136 80.8206C164.103 81.9977 164.036 83.4899 163.92 85.2141C166.722 84.5344 169.707 84.7167 172.442 85.7613C175.957 87.1208 178.809 89.8398 180.334 93.2884C181.876 96.7535 181.959 100.683 180.599 104.198C179.24 107.729 176.521 110.581 173.072 112.106L163.837 116.185C164.782 115.173 165.064 113.648 164.451 112.305C163.622 110.514 161.516 109.735 159.726 110.548L159.427 110.68C157.753 116.069 155.498 121.341 152.431 125.784Z" fill="#F1BD2C"/>
<path d="M153.425 170.781C153.425 170.35 153.26 169.952 152.961 169.654C152.663 169.372 152.265 169.206 151.85 169.206C144.804 169.206 116.271 169.206 109.224 169.206C108.81 169.206 108.412 169.372 108.114 169.654C107.815 169.952 107.649 170.35 107.649 170.781C107.649 171.196 107.815 171.594 108.114 171.892C108.412 172.19 108.81 172.356 109.224 172.356C116.271 172.356 144.804 172.356 151.85 172.356C152.265 172.356 152.663 172.19 152.961 171.892C153.26 171.594 153.425 171.196 153.425 170.781Z" fill="#F1BD2C"/>
<path fill-rule="evenodd" clip-rule="evenodd" d="M156.094 76.6091L154.868 69.596C154.785 69.2147 155.05 68.8333 155.448 68.767C155.829 68.7007 156.21 68.966 156.277 69.3473C157.819 78.0681 172.989 164.215 174.531 172.92C174.597 173.317 174.332 173.682 173.934 173.748C173.553 173.815 173.171 173.566 173.105 173.168L171.795 165.774H158.896L160.173 173.036C160.239 173.417 159.974 173.798 159.593 173.865C159.195 173.931 158.813 173.682 158.747 173.284C157.222 164.58 142.035 78.4163 140.51 69.712C140.443 69.3307 140.692 68.9494 141.09 68.8831C141.488 68.8167 141.853 69.0654 141.919 69.4633L143.179 76.6091H156.094ZM170.469 158.213H157.57L158.648 164.331H171.547L170.469 158.213ZM169.143 150.653H156.227L157.305 156.771H170.22L169.143 150.653ZM167.882 143.491H154.967L155.978 149.211H168.894L167.882 143.491ZM166.606 136.295H153.69L154.718 142.065H167.617L166.606 136.295ZM165.329 129H152.414L153.442 134.853H166.357L165.329 129ZM164.019 121.556H151.104L152.165 127.558H165.081L164.019 121.556ZM162.726 114.261H149.827L150.855 120.114H163.771L162.726 114.261ZM161.45 107.066H148.534L149.562 112.819H162.461L161.45 107.066ZM160.173 99.7873H147.258L148.285 105.623H161.201L160.173 99.7873ZM158.863 92.3762H145.948L147.009 98.3614H159.924L158.863 92.3762ZM157.553 84.9818H144.638L145.699 90.9338H158.598L157.553 84.9818ZM156.343 78.0515H143.428L144.389 83.5394H157.305L156.343 78.0515Z" fill="#070534"/>
<path d="M107.649 12.2637V13.6895L109.374 13.1092L108.495 12.2637H107.649Z" fill="#617DD6"/>
<path d="M113.635 11.3691L114.762 11.4355L111.479 14.3535L109.987 13.1432L113.635 11.3691Z" fill="#617DD6"/>
<path d="M137.359 4.32288L121.294 15.6798L119.437 17.0062C119.437 17.0062 119.072 17.2549 118.492 18.5647C117.58 20.604 116.104 25.1965 114.496 35.3432H100.205C100.205 35.3432 99.7073 34.9121 99.7073 34.2489C99.7073 33.7515 100.238 25.8099 100.934 20.7863C101.001 20.2392 101.083 19.7253 101.15 19.2776C101.332 18.2331 101.514 17.4207 101.697 17.0062L100.039 15.7959L99.9892 15.7462L87.4385 6.56112L87.5711 6.39532L87.7203 6.19636L88.7151 4.96948L107.649 12.2645V13.6903L108.329 13.4582L109.373 13.11L109.987 13.1432L111.031 13.9887L111.479 14.3535L114.762 11.4355L136.016 2.58203L136.646 3.41101L137.177 4.07419L137.359 4.32288Z" fill="#94A5D9"/>
<path d="M109.374 13.1094L109.987 13.1425L111.032 13.9881L109.49 15.1818L108.329 15.016V13.4575L109.374 13.1094Z" fill="#2B2556"/>
<path d="M108.329 15.0156C108.329 15.0156 104.35 22.3106 104.35 29.4398L105.842 31.0978L108.511 29.1082C108.511 29.1082 107.931 25.2949 109.489 15.1814L108.329 15.0156Z" fill="#2E2858"/>
<path d="M108.495 12.2635L109.241 10.8045C109.241 10.8045 107.649 10.5724 109.025 4.07324H112.507C113.402 4.07324 114.132 4.80274 114.132 5.69803C114.132 6.65964 114.132 7.72074 114.132 7.72074C114.132 7.72074 115.458 7.22335 115.458 8.05233C115.458 8.8813 113.966 9.71028 113.468 9.87607L113.634 11.3682L109.987 13.1422L109.373 13.1091L108.495 12.2635Z" fill="#FDAF83"/>
<path d="M109.025 4.07394C109.025 4.07394 106.721 2.08439 108.511 0.923828C108.511 0.923828 108.826 2.41598 110.816 1.58701C112.806 0.758033 115.79 1.58701 115.79 4.07394C115.79 4.07394 118.277 5.2345 115.458 8.05302C115.458 7.22404 114.132 7.72143 114.132 7.72143C114.132 7.72143 114.132 6.66034 114.132 5.69873C114.132 4.80343 113.402 4.07394 112.507 4.07394H109.025Z" fill="#2A2756"/>
<path d="M109.241 10.804C109.241 10.804 110.285 11.4175 112.557 9.57715C112.557 9.57715 111.214 12.0807 108.976 11.318L109.241 10.804Z" fill="#E48968"/>
<path d="M100.205 35.3428C100.205 35.3428 99.1938 55.6361 103.521 72.713L107.003 73.7078C107.003 73.7078 107.185 48.5069 107.832 44.5278L113.8 59.4494L117.945 72.713L122.09 73.2104C122.09 73.2104 116.437 41.0959 114.497 35.3428H100.205Z" fill="#2B2857"/>
<path d="M103.521 72.7129L98.2158 75.5314H107.335L107.003 73.7077L103.521 72.7129Z" fill="black"/>
<path d="M117.945 72.7129L113.303 75.5314H122.753L122.09 73.2103L117.945 72.7129Z" fill="black"/>
<path d="M87.4386 6.5606C87.4386 6.5606 86.6096 6.70982 86.1123 6.5606C85.6149 6.39481 84.8522 6.06322 84.7859 5.56583C84.703 5.05187 86.0459 3.0789 86.7423 2.91311C87.4386 2.74731 87.5215 3.22812 87.7205 3.77524C87.936 4.32236 87.7205 6.19585 87.7205 6.19585L87.4386 6.5606Z" fill="#E48968"/>
<path d="M88.7153 4.96829C88.7153 4.96829 88.4335 3.74141 87.9361 3.57561C87.4387 3.40982 86.6097 4.50406 86.4439 4.75275C86.2781 5.00144 87.1403 5.2004 87.2729 5.31646C87.4387 5.4491 86.7755 5.73095 86.7755 5.89674C86.7755 6.06254 87.5548 6.39413 87.5548 6.39413L88.7153 4.96829Z" fill="#FDAF83"/>
<path d="M137.011 1.22206C137.011 1.22206 137.674 -0.402731 138.503 0.0946549C139.332 0.59204 141.388 2.58158 140.161 3.41056C138.918 4.23953 137.359 4.32243 137.359 4.32243L136.646 3.41056L137.011 1.22206Z" fill="#E48968"/>
<path d="M136.016 2.58161C136.016 2.58161 134.806 0.592067 136.016 0.757862C137.177 0.907078 140.045 2.3495 138.503 2.58161C136.746 2.8303 138.835 3.26137 137.177 4.07377L136.016 2.58161Z" fill="#FDAF83"/>
<path d="M121.294 15.6795L119.437 17.0059C119.437 17.0059 119.072 17.2546 118.492 18.5644C118.177 15.8619 116.734 14.0879 116.734 14.0879C118.276 15.5635 119.934 15.8287 121.294 15.6795Z" fill="#778FC9"/>
<path d="M105.726 13.8057C105.61 13.8886 102.493 16.2594 101.78 18.9619C101.747 19.0614 101.299 20.0064 100.934 20.7856C101.001 20.2385 101.084 19.7246 101.15 19.2769C101.332 18.2324 101.515 17.42 101.697 17.0055L100.039 15.7952C100.603 15.961 101.249 16.0107 101.962 15.8449C103.554 15.4968 104.035 14.701 105.726 13.8057Z" fill="#778FC9"/>
<path d="M154.42 127.558C154.42 127.558 156.244 124.607 157.321 124.772C158.399 124.938 159.377 127.558 159.377 127.558H154.42Z" fill="black"/>
<path d="M154.966 110.282C154.966 110.282 153.375 105.175 152.712 103.004C152.546 102.473 152.828 101.909 153.342 101.71C155.464 100.931 160.504 99.0742 160.504 99.0742L154.966 110.282Z" fill="#211D40"/>
<path d="M155.414 126.149C155.414 126.149 153.06 117.113 152.513 115.057C152.446 114.792 152.479 114.527 152.612 114.278C153.839 111.891 160.504 99.0746 160.504 99.0746C160.504 99.0746 167.351 97.5824 170.667 97.7482C170.667 97.7482 170.568 98.7761 170.468 99.887C170.319 101.644 169.275 103.219 167.733 104.048C166.987 104.463 166.357 104.795 166.357 104.795C166.357 104.795 159.178 113.035 157.619 114.809C157.42 115.024 157.321 115.306 157.337 115.604C157.453 117.594 157.901 125.602 157.901 125.602L155.414 126.149Z" fill="#2C2958"/>
<path d="M170.668 97.7469C170.668 97.7469 169.457 84.2015 168.661 79.2442C168.38 78.1002 167.551 77.1552 166.456 76.7407C165.893 76.5086 165.246 76.3594 164.55 76.3594C162.842 76.3594 160.206 76.3925 158.449 76.807C157.885 76.9894 157.503 77.5199 157.52 78.1168C157.603 80.2887 157.984 85.561 159.543 90.0209C160.919 93.9005 160.504 99.0733 160.504 99.0733L170.668 97.7469Z" fill="#4A4391"/>
<path d="M157.603 77.7031C157.603 77.7031 155.729 81.9143 153.06 89.1596L149.18 83.5225L147.406 84.6002C147.406 84.6002 150.921 93.1055 152.944 93.2713C154.652 93.4039 158.1 86.6229 159.095 84.567C159.294 84.1691 159.36 83.7381 159.327 83.2904C159.178 82.047 158.747 79.3777 157.603 77.7031Z" fill="#312C6E"/>
<path d="M149.18 83.5222C149.18 83.5222 149.114 82.1627 147.954 82.3285C146.793 82.4943 146.13 83.5222 146.13 83.5222C146.13 83.5222 146.528 83.8869 147.406 84.5999L149.18 83.5222Z" fill="#FDAF83"/>
<path d="M160.024 67.9706C159.875 67.9872 159.709 67.9209 159.626 67.8048C159.228 67.2909 158.532 65.9811 161.052 65.5832C163.008 65.2682 164.053 65.9148 164.55 66.7437C165.047 67.5727 166.026 68.2359 166.523 69.0649C167.02 69.8938 166.424 72.3808 164.069 74.2045C164.069 74.2045 163.041 74.0387 162.047 72.8782C162.047 72.8782 163.705 72.0492 163.373 71.0544C163.041 70.0596 162.063 70.7228 161.715 71.2202C161.715 71.2202 161.383 70.3912 161.218 70.0596C161.218 70.0596 162.395 68.2856 161.715 68.0038C161.234 67.8048 160.422 67.9043 160.024 67.9706Z" fill="#2A2756"/>
<path d="M164.401 76.3597L160.505 76.4923C160.505 76.4923 160.903 74.7183 159.377 73.9059C159.079 73.7401 158.896 73.4086 158.93 73.0604C159.013 71.8998 159.294 69.4295 160.057 67.9539C160.472 67.8876 161.234 67.8047 161.715 68.0036C162.395 68.2855 161.218 70.0595 161.218 70.0595C161.383 70.3911 161.715 71.2201 161.715 71.2201C162.063 70.7227 163.041 70.0595 163.373 71.0543C163.705 72.049 162.047 72.878 162.047 72.878C163.041 74.0386 164.069 74.2044 164.069 74.2044L164.401 76.3597Z" fill="#FDAF83"/>
<path d="M35.2294 165.227C35.2294 165.227 35.5444 163.404 34.3838 163.072C33.2233 162.74 25.9283 163.735 25.5967 161.248C25.2651 158.761 30.239 157.932 29.5758 156.937C28.9126 155.943 21.9492 153.622 23.4414 151.135C24.9335 148.648 28.2494 147.653 27.9178 146.327C27.5862 145 19.6612 136.031 23.375 131.985C27.0889 127.923 32.8254 129.449 33.1901 136.976C33.5549 144.503 35.2128 150.471 43.6684 149.808C52.1239 149.145 45.8734 155.992 52.8866 157.717C59.9163 159.424 51.0794 161.016 54.7435 164.78L35.2294 165.227Z" fill="#3C9A50"/>
<path d="M70.1128 164.63L54.5281 164.779C51.0464 160.949 59.8169 159.391 52.8867 157.716C50.665 157.169 49.7697 156.091 49.3221 154.914C49.3221 154.898 49.6371 152.444 50.3003 151.134C50.9635 149.808 50.4992 149.145 49.3221 148.481C48.1449 147.818 41.8447 144.834 41.8447 140.523C41.8447 136.213 48.3107 137.456 48.4765 134.919C48.6423 132.399 44.3317 127.591 46.487 122.617C48.6423 117.643 55.8876 117.395 56.2357 123.397C56.6005 129.415 56.2358 134.737 60.8117 133.974C65.0892 133.278 65.9348 133.659 66.4487 141.601C62.022 140.59 58.1092 139.578 58.1092 139.578C62.5857 161.745 68.5875 164.331 70.1128 164.63Z" fill="#4AC164"/>
<path d="M100.221 150.969C100.585 149.841 102.293 144.851 104.73 143.541C105.073 144.027 105.399 144.519 105.709 145.017C105.709 145.017 103.686 144.602 100.934 152.444C100.702 151.958 100.464 151.466 100.221 150.969Z" fill="#3A598C"/>
<path d="M103.106 158.329C99.8569 157.798 89.8926 157.765 89.876 157.765C89.6218 157.19 89.3786 156.566 89.1465 155.892C95.1814 155.709 101.299 156.522 102.443 156.688C102.664 157.229 102.885 157.776 103.106 158.329Z" fill="#3A598C"/>
<path d="M69.964 164.596C70.0193 164.607 70.069 164.618 70.1132 164.629H69.9972L69.964 164.596ZM63.9125 158.064C63.8793 158.086 63.8406 158.091 63.7964 158.08C63.7964 158.08 60.2318 157.102 57.0983 157.434C57.0154 157.434 56.9325 157.368 56.9159 157.285C56.9159 157.185 56.9822 157.102 57.0651 157.102C59.8837 156.804 63.0338 157.55 63.7467 157.716C63.802 157.837 63.8572 157.953 63.9125 158.064ZM62.984 156.124C62.9398 156.135 62.8956 156.135 62.8514 156.124C62.8514 156.124 57.9273 154.267 53.8321 155.792C53.7492 155.826 53.6498 155.792 53.6166 155.71C53.5834 155.61 53.6332 155.527 53.7161 155.494C57.4962 154.085 61.9561 155.461 62.8182 155.759C62.8735 155.881 62.9288 156.002 62.984 156.124ZM62.6193 155.262C60.8784 152.775 59.0547 149.956 57.4299 146.956C56.8496 146.69 53.9648 145.497 50.4499 145.497C50.367 145.497 50.2841 145.414 50.2841 145.331C50.2841 145.231 50.367 145.165 50.4499 145.165C53.5337 145.165 56.1367 146.06 57.1812 146.491C56.8164 145.795 56.4572 145.093 56.1035 144.386V144.369C55.374 144.154 50.6654 142.844 47.4656 142.844C47.3827 142.844 47.2998 142.761 47.2998 142.678C47.2998 142.579 47.3827 142.512 47.4656 142.512C50.4168 142.512 54.6279 143.607 55.9046 143.971C55.8272 143.805 55.7554 143.64 55.689 143.474C54.429 140.805 53.4011 138.052 52.771 135.333C52.0747 132.399 51.8426 129.481 52.2737 126.762C51.9255 129.481 52.2405 132.366 52.9866 135.284C53.6663 137.969 54.7274 140.689 56.0041 143.325C57.6952 146.823 59.751 150.189 61.7903 153.173C62.0666 153.913 62.3429 154.61 62.6193 155.262Z" fill="#308341"/>
<path d="M49.206 164.895C48.7252 164.315 47.1833 162.507 45.1772 160.617C44.923 160.374 44.6632 160.131 44.398 159.888C43.4363 159.805 39.706 159.589 37.4346 160.717C37.3517 160.75 37.2522 160.717 37.219 160.634C37.1693 160.551 37.2024 160.451 37.2853 160.418C39.3578 159.39 42.6074 159.457 44 159.54C43.58 159.164 43.149 158.799 42.7068 158.445C41.6789 158.396 37.2356 158.246 34.7818 159.407C34.6989 159.44 34.5995 159.407 34.5497 159.324C34.5166 159.241 34.5497 159.142 34.6326 159.109C36.8708 158.064 40.7007 158.047 42.2592 158.097C41.6458 157.633 41.0157 157.185 40.3857 156.804C38.2635 155.494 36.39 153.67 34.7155 151.349C33.6378 149.857 32.6265 148.183 31.6815 146.276C30.8525 144.635 30.0898 142.827 29.3438 140.871C30.1561 142.794 31.0017 144.568 31.8638 146.193C32.8586 148.033 33.8865 149.691 34.9808 151.15C36.2574 152.825 37.6169 154.234 39.1091 155.362C39.623 154.665 41.5297 152.195 43.2705 151.465C43.3534 151.432 43.4529 151.482 43.4861 151.565C43.5192 151.648 43.4695 151.747 43.3866 151.78C41.7121 152.477 39.8552 154.881 39.3744 155.561C39.7059 155.804 40.0431 156.03 40.3857 156.24C40.8831 155.627 42.74 153.538 44.6135 152.958C44.6964 152.924 44.7793 152.974 44.8124 153.074C44.8456 153.157 44.7959 153.256 44.6964 153.273C42.939 153.82 41.1981 155.776 40.6676 156.423C42.3918 157.451 44.0995 158.843 45.5751 160.203C46.0559 160.65 46.5201 161.098 46.9512 161.529C47.432 160.932 48.6257 159.506 49.5542 159.092C49.6537 159.059 49.7366 159.109 49.7863 159.191C49.8195 159.274 49.7697 159.374 49.6868 159.407C48.7749 159.788 47.6144 161.214 47.1833 161.761C48.8247 163.403 49.8858 164.679 49.8858 164.679C49.9355 164.746 49.9521 164.812 49.9521 164.878L49.206 164.895Z" fill="#287939"/>
</svg>
