<svg width="568" height="315" viewBox="0 0 568 315" fill="none" xmlns="http://www.w3.org/2000/svg">
<path d="M28.1473 242.64C28.1473 242.64 35.7334 221.877 37.8075 220.987C39.6899 218.383 41.7753 215.982 44.1988 213.975C54.0168 205.803 67.2164 204.495 76.5046 195.568C93.7171 179.021 87.4498 148.417 99.1165 126.842C105.474 115.074 116.802 107.127 128.447 103.351C140.079 99.5747 152.107 99.4958 163.841 100.116C178.81 100.916 195.628 102.133 207.791 90.8613C226.086 73.9306 221.306 41.0048 236.433 20.5572C245.226 8.66508 259.237 3.27701 272.459 1.42838C296.029 -1.87434 319.655 4.55076 338.232 18.6184C357.778 12.7569 378.868 13.467 397.884 21.3124C410.125 26.3736 422.164 35.0418 427.36 48.6811C436.31 72.1609 422.604 102.765 435.578 123.629C444.212 137.505 460.771 140.492 475.436 143.423C486.945 145.723 498.532 148.766 508.711 155.293C518.901 161.819 527.648 172.28 530.534 185.209C535.832 208.914 521.325 236.914 533.363 257.136C539.867 268.048 552.244 272.579 559.47 282.893C565.545 291.584 567.191 303.465 567.337 314.601L72.255 314.545C55.6061 314.737 39.3405 301.875 32.1263 284.719C27.2793 273.188 25.9492 257.001 28.1473 242.64Z" fill="url(#paint0_linear_415_1160)"/>
<path d="M3.78823 288.603C8.79305 280.078 17.3711 276.327 21.88 267.304C30.2326 250.581 20.1779 227.432 23.8413 207.824C25.8477 197.129 31.9121 188.474 38.9685 183.082C46.0361 177.69 54.0618 175.174 62.0425 173.273C72.21 170.846 83.6962 168.379 89.6817 156.899C98.6769 139.638 89.1745 114.34 95.3741 94.9211C98.9812 83.6398 107.323 76.4671 115.81 72.2888C135.683 62.5097 158.825 66.0413 176.612 81.5705C176.635 81.5838 176.654 81.6004 176.669 81.6203C179.96 84.4953 184.21 84.6346 187.557 81.869C204.962 67.5236 227.72 63.1663 247.164 72.0898C262.359 79.0536 274.15 93.4885 280.259 111.087C282.976 118.936 290.573 123.293 297.742 120.966C311.934 116.34 330.431 116.578 344.386 122.04C352.874 125.363 361.227 131.063 364.823 140.036C371.034 155.466 361.52 175.581 370.526 189.3C376.501 198.423 385.067 200.382 395.246 202.312C403.216 203.814 411.253 205.824 418.309 210.112C425.376 214.399 431.441 221.274 433.436 229.779C437.111 245.358 427.056 263.763 435.397 277.053C439.906 284.226 448.496 287.201 453.5 293.985C457.716 299.696 458.855 307.505 458.956 314.827L200.791 314.797L18.9943 314.817C6.84297 314.827 -2.18599 305.287 0.834935 295.468C1.59017 293.01 2.55957 290.692 3.78823 288.603Z" fill="url(#paint1_linear_415_1160)"/>
<path d="M255.156 313.948L18.4193 314.827C16.8976 314.827 15.4547 314.139 14.8799 313.023C13.5836 310.453 14.1359 306.666 15.2631 303.735C18.6786 294.853 25.4306 287.582 33.5916 283.964C36.2856 282.769 39.1713 281.946 41.5948 280.176C44.0183 278.407 45.9571 275.352 45.5175 272.196C45.0666 269.006 42.4402 266.808 40.7719 264.136C37.0972 258.241 38.4048 249.877 42.2486 244.106C46.1036 238.334 51.9764 234.648 57.8153 231.47C64.5223 227.806 72.3 223.388 73.5738 215.294C74.2163 211.225 72.9763 207.122 72.3113 203.053C70.3161 191.07 73.9796 177.454 83.2227 170.668C88.2951 166.959 94.4497 165.573 100.108 163.093C105.767 160.602 111.437 156.341 112.913 149.86C113.714 146.354 113.161 142.668 113.297 139.05C113.872 123.528 129.427 110.948 143.134 114.927L256.193 121.228L255.156 313.948Z" fill="url(#paint2_linear_415_1160)"/>
<path d="M479.046 314.594H101.843C101.532 314.594 101.288 314.338 101.288 314.039V300.458C101.288 300.147 101.532 299.903 101.843 299.903H479.046C479.346 299.903 479.601 300.147 479.601 300.458V314.039C479.601 314.338 479.346 314.594 479.046 314.594Z" fill="#EDF0F9"/>
<path d="M479.601 56.8956C479.601 50.3662 474.16 45.0806 467.442 45.0806H113.436C106.729 45.0806 101.288 50.3662 101.288 56.8956V68.8327H479.601V56.8956Z" fill="#0071E3"/>
<path d="M101.288 300.447H479.601V105.632H101.288V300.447Z" fill="white"/>
<path d="M479.601 68.8328V105.633H101.288V68.8328H479.601Z" fill="url(#paint3_linear_415_1160)"/>
<path d="M450.263 185.051C441.313 202.651 419.793 209.658 402.193 200.708C384.592 191.758 377.586 170.237 386.536 152.637C395.486 135.037 417.006 128.03 434.606 136.98C452.207 145.93 459.214 167.45 450.263 185.051Z" fill="url(#paint4_linear_415_1160)"/>
<path d="M441.558 180.62C435.05 193.412 419.416 198.509 406.623 192.002C393.831 185.495 388.734 169.86 395.241 157.068C401.749 144.276 417.383 139.179 430.176 145.686C442.968 152.193 448.065 167.828 441.558 180.62Z" fill="url(#paint5_linear_415_1160)"/>
<path d="M418.405 148.051L424.679 160.765L438.704 162.798L428.554 172.703L430.953 186.672L418.405 180.076L405.846 186.672L408.245 172.703L398.095 162.798L412.12 160.765L418.405 148.051Z" fill="url(#paint6_linear_415_1160)"/>
<path opacity="0.6" d="M192.743 124.077H127.039C126.406 124.077 125.895 123.566 125.895 122.933V114.805C125.895 114.172 126.406 113.661 127.039 113.661H192.743C193.376 113.661 193.887 114.172 193.887 114.805V122.933C193.887 123.566 193.376 124.077 192.743 124.077Z" fill="#BED2FD"/>
<path opacity="0.6" d="M436.55 113.661H454.539C454.783 113.661 454.983 113.861 454.983 114.105V117.314C454.983 117.558 454.783 117.758 454.539 117.758H436.55C436.294 117.758 436.094 117.558 436.094 117.314V114.105C436.094 113.861 436.294 113.661 436.55 113.661Z" fill="#BED2FD"/>
<path opacity="0.6" d="M436.55 119.968H454.539C454.783 119.968 454.983 120.168 454.983 120.423V123.621C454.983 123.866 454.783 124.077 454.539 124.077H436.55C436.294 124.077 436.094 123.866 436.094 123.621V120.423C436.094 120.168 436.294 119.968 436.55 119.968Z" fill="#BED2FD"/>
<path opacity="0.8" d="M368.624 141.666H249.886C249.875 141.666 249.864 141.655 249.864 141.644V133.782C249.864 133.771 249.875 133.76 249.886 133.76H368.624C368.635 133.76 368.647 133.771 368.647 133.782V141.644C368.647 141.655 368.635 141.666 368.624 141.666Z" fill="url(#paint7_linear_415_1160)"/>
<path opacity="0.8" d="M337.088 155.124H249.886C249.875 155.124 249.864 155.113 249.864 155.091V147.229C249.864 147.218 249.875 147.207 249.886 147.207H337.088C337.099 147.207 337.11 147.218 337.11 147.229V155.091C337.11 155.113 337.099 155.124 337.088 155.124Z" fill="url(#paint8_linear_415_1160)"/>
<path opacity="0.6" d="M368.647 168.272H249.864V164.319H368.647V168.272Z" fill="#BED2FD"/>
<path opacity="0.6" d="M368.647 175.568H249.864V171.615H368.647V175.568Z" fill="#BED2FD"/>
<path opacity="0.6" d="M368.647 182.874H249.864V178.91H368.647V182.874Z" fill="#BED2FD"/>
<path d="M257.737 190.436L259.869 194.734L264.61 195.422C264.921 195.467 265.043 195.855 264.821 196.077L261.39 199.42L262.201 204.15C262.256 204.461 261.923 204.705 261.645 204.55L257.403 202.318L253.151 204.55C252.873 204.705 252.551 204.461 252.595 204.15L253.406 199.42L249.975 196.077C249.753 195.855 249.875 195.467 250.186 195.422L254.938 194.734L257.059 190.436C257.192 190.148 257.603 190.148 257.737 190.436Z" fill="url(#paint9_linear_415_1160)"/>
<path d="M276.414 190.436L278.535 194.734L283.288 195.422C283.599 195.467 283.721 195.855 283.499 196.077L280.056 199.42L280.867 204.15C280.923 204.461 280.6 204.705 280.312 204.55L276.07 202.318L271.828 204.55C271.55 204.705 271.217 204.461 271.273 204.15L272.083 199.42L268.652 196.077C268.419 195.855 268.552 195.467 268.863 195.422L273.605 194.734L275.726 190.436C275.87 190.148 276.27 190.148 276.414 190.436Z" fill="url(#paint10_linear_415_1160)"/>
<path d="M295.092 190.436L297.213 194.734L301.954 195.422C302.265 195.467 302.398 195.855 302.165 196.077L298.734 199.42L299.544 204.15C299.6 204.461 299.267 204.705 298.989 204.55L294.747 202.318L290.494 204.55C290.217 204.705 289.895 204.461 289.95 204.15L290.761 199.42L287.319 196.077C287.096 195.855 287.219 195.467 287.53 195.422L292.282 194.734L294.403 190.436C294.547 190.148 294.947 190.148 295.092 190.436Z" fill="url(#paint11_linear_415_1160)"/>
<path d="M313.758 190.436L315.879 194.734L320.631 195.422C320.942 195.467 321.065 195.855 320.842 196.077L317.4 199.42L318.211 204.15C318.266 204.461 317.944 204.705 317.667 204.55L313.414 202.318L309.172 204.55C308.894 204.705 308.561 204.461 308.617 204.15L309.427 199.42L305.996 196.077C305.763 195.855 305.896 195.467 306.207 195.422L310.949 194.734L313.069 190.436C313.214 190.148 313.614 190.148 313.758 190.436Z" fill="url(#paint12_linear_415_1160)"/>
<path d="M332.435 190.436L334.556 194.734L339.298 195.422C339.609 195.467 339.742 195.855 339.509 196.077L336.078 199.42L336.888 204.15C336.944 204.461 336.611 204.705 336.333 204.55L332.091 202.318L327.849 204.55C327.561 204.705 327.239 204.461 327.294 204.15L328.105 199.42L324.662 196.077C324.44 195.855 324.562 195.467 324.873 195.422L329.626 194.734L331.747 190.436C331.891 190.148 332.291 190.148 332.435 190.436Z" fill="url(#paint13_linear_415_1160)"/>
<path opacity="0.8" fill-rule="evenodd" clip-rule="evenodd" d="M368.624 231.267H249.886C249.875 231.267 249.863 231.256 249.863 231.234V223.383C249.863 223.361 249.875 223.35 249.886 223.35H368.624C368.635 223.35 368.646 223.361 368.646 223.383V231.234C368.646 231.256 368.635 231.267 368.624 231.267ZM300.166 244.714H249.886C249.875 244.714 249.863 244.703 249.863 244.692V236.83C249.863 236.819 249.875 236.808 249.886 236.808H300.166C300.188 236.808 300.199 236.819 300.199 236.83V244.692C300.199 244.703 300.188 244.714 300.166 244.714ZM319.565 244.714H306.951C306.929 244.714 306.917 244.703 306.917 244.692V236.83C306.917 236.819 306.929 236.808 306.951 236.808H319.565C319.576 236.808 319.588 236.819 319.588 236.83V244.692C319.588 244.703 319.576 244.714 319.565 244.714Z" fill="url(#paint14_linear_415_1160)"/>
<path opacity="0.6" d="M368.646 257.862H249.863V253.909H368.646V257.862Z" fill="#BED2FD"/>
<path opacity="0.6" d="M368.646 265.168H249.863V261.215H368.646V265.168Z" fill="#BED2FD"/>
<path opacity="0.6" d="M368.646 272.464H249.863V268.511H368.646V272.464Z" fill="#BED2FD"/>
<path opacity="0.6" d="M454.983 254.175H380.695V250.222H454.983V254.175Z" fill="#BED2FD"/>
<path opacity="0.6" d="M454.983 261.482H380.695V257.529H454.983V261.482Z" fill="#BED2FD"/>
<path opacity="0.6" d="M418.405 268.777H380.695V264.824H418.405V268.777Z" fill="#BED2FD"/>
<path opacity="0.6" d="M454.983 239.584H380.695V235.62H454.983V239.584Z" fill="#BED2FD"/>
<path opacity="0.6" d="M454.983 246.879H380.695V242.926H454.983V246.879Z" fill="#BED2FD"/>
<path opacity="0.6" d="M454.983 224.982H380.695V221.029H454.983V224.982Z" fill="#BED2FD"/>
<path opacity="0.6" d="M454.983 232.277H380.695V228.324H454.983V232.277Z" fill="#BED2FD"/>
<path d="M257.737 280.026L259.869 284.335L264.61 285.023C264.921 285.067 265.043 285.456 264.821 285.667L261.39 289.021L262.201 293.751C262.256 294.062 261.923 294.295 261.645 294.151L257.403 291.919L253.151 294.151C252.873 294.295 252.551 294.062 252.595 293.751L253.406 289.021L249.975 285.667C249.753 285.456 249.875 285.067 250.186 285.023L254.938 284.335L257.059 280.026C257.192 279.748 257.603 279.748 257.737 280.026Z" fill="url(#paint15_linear_415_1160)"/>
<path d="M276.414 280.026L278.535 284.335L283.288 285.023C283.599 285.067 283.721 285.456 283.499 285.667L280.056 289.021L280.867 293.751C280.923 294.062 280.6 294.295 280.312 294.151L276.07 291.919L271.828 294.151C271.55 294.295 271.217 294.062 271.273 293.751L272.083 289.021L268.652 285.667C268.419 285.456 268.552 285.067 268.863 285.023L273.605 284.335L275.726 280.026C275.87 279.748 276.27 279.748 276.414 280.026Z" fill="url(#paint16_linear_415_1160)"/>
<path d="M295.092 280.026L297.213 284.335L301.954 285.023C302.265 285.067 302.398 285.456 302.165 285.667L298.734 289.021L299.544 293.751C299.6 294.062 299.267 294.295 298.989 294.151L294.747 291.919L290.494 294.151C290.217 294.295 289.895 294.062 289.95 293.751L290.761 289.021L287.319 285.667C287.096 285.456 287.219 285.067 287.53 285.023L292.282 284.335L294.403 280.026C294.547 279.748 294.947 279.748 295.092 280.026Z" fill="url(#paint17_linear_415_1160)"/>
<path fill-rule="evenodd" clip-rule="evenodd" d="M308.994 294.65C308.816 294.65 308.65 294.595 308.506 294.495C308.239 294.295 308.117 293.984 308.172 293.673L308.939 289.176L305.674 286C305.441 285.778 305.363 285.445 305.463 285.134C305.563 284.834 305.818 284.612 306.14 284.568L310.649 283.913L312.67 279.826C312.947 279.249 313.88 279.249 314.169 279.826L316.19 283.913L320.698 284.568C321.009 284.612 321.276 284.834 321.375 285.134C321.475 285.445 321.387 285.778 321.153 286L317.9 289.176L318.666 293.673C318.722 293.984 318.588 294.295 318.333 294.495C318.077 294.684 317.733 294.706 317.445 294.55L313.414 292.43L309.383 294.55C309.261 294.617 309.127 294.65 308.994 294.65ZM306.429 285.456L309.916 288.865L309.094 293.673L313.414 291.397L317.733 293.673L316.912 288.865L320.409 285.456L315.579 284.745L313.391 280.326L311.259 284.745L306.429 285.456ZM313.347 280.237C313.347 280.237 313.347 280.241 313.347 280.248V280.237Z" fill="url(#paint18_linear_415_1160)"/>
<path fill-rule="evenodd" clip-rule="evenodd" d="M327.661 294.65C327.494 294.65 327.316 294.595 327.172 294.495C326.917 294.295 326.783 293.984 326.839 293.673L327.605 289.176L324.352 286C324.118 285.778 324.041 285.445 324.129 285.134C324.229 284.834 324.496 284.612 324.807 284.568L329.326 283.913L331.336 279.826C331.625 279.249 332.558 279.249 332.846 279.826L334.856 283.913L339.365 284.568C339.687 284.612 339.942 284.834 340.042 285.134C340.142 285.445 340.064 285.778 339.831 286L336.566 289.176L337.344 293.673C337.399 293.984 337.266 294.295 337.011 294.495C336.744 294.684 336.411 294.706 336.122 294.55L332.091 292.43L328.06 294.55C327.938 294.617 327.805 294.65 327.661 294.65ZM332.091 291.397L336.411 293.673L335.589 288.865L339.087 285.456L334.246 284.745L332.069 280.326L329.926 284.745L325.096 285.456L328.593 288.865L327.772 293.673L332.091 291.397Z" fill="url(#paint19_linear_415_1160)"/>
<path fill-rule="evenodd" clip-rule="evenodd" d="M131.103 53.1755C129.015 53.1755 127.327 54.8634 127.327 56.951C127.327 59.0386 129.015 60.7376 131.103 60.7376C133.19 60.7376 134.889 59.0386 134.889 56.951C134.889 54.8634 133.19 53.1755 131.103 53.1755ZM142.618 53.1755C140.53 53.1755 138.842 54.8634 138.842 56.951C138.842 59.0386 140.53 60.7376 142.618 60.7376C144.706 60.7376 146.405 59.0386 146.405 56.951C146.405 54.8634 144.706 53.1755 142.618 53.1755ZM154.144 53.1755C152.057 53.1755 150.358 54.8634 150.358 56.951C150.358 59.0386 152.057 60.7376 154.144 60.7376C156.232 60.7376 157.92 59.0386 157.92 56.951C157.92 54.8634 156.232 53.1755 154.144 53.1755Z" fill="url(#paint20_linear_415_1160)"/>
<path d="M200.116 254.608C200.116 274.607 183.915 290.808 163.927 290.808C143.928 290.808 127.727 274.607 127.727 254.608C127.727 234.62 143.928 218.419 163.927 218.419C183.915 218.419 200.116 234.62 200.116 254.608Z" fill="white"/>
<path d="M200.116 254.608C200.116 274.607 183.915 290.808 163.927 290.808C143.928 290.808 127.727 274.607 127.727 254.608C127.727 234.62 143.928 218.419 163.927 218.419C183.915 218.419 200.116 234.62 200.116 254.608Z" fill="url(#paint21_linear_415_1160)"/>
<mask id="mask0_415_1160" style="mask-type:luminance" maskUnits="userSpaceOnUse" x="127" y="218" width="74" height="73">
<path d="M200.118 254.611C200.118 274.602 183.913 290.808 163.923 290.808C143.931 290.808 127.726 274.602 127.726 254.611C127.726 234.621 143.931 218.416 163.923 218.416C183.913 218.416 200.118 234.621 200.118 254.611Z" fill="white"/>
</mask>
<g mask="url(#mask0_415_1160)">
<path d="M187.479 284.723C187.291 279.237 183.682 274.185 177.885 271.731C177.7 271.657 177.515 271.582 177.33 271.508L174.776 270.787C173.466 273.807 170.301 279.748 164.338 283.49C158.231 279.659 155.055 273.529 153.811 270.576L151.413 271.508C151.22 271.582 151.031 271.657 150.846 271.731C145.061 274.185 141.441 279.237 141.252 284.723L140.952 299.758H187.779L187.479 284.723Z" fill="url(#paint22_linear_415_1160)"/>
<path d="M157.065 265.845C156.05 265.697 155.044 265.519 154.044 265.312C149.758 264.413 145.394 262.858 142.718 259.816C147.881 251.965 144.85 242.215 149.336 234.32C150.047 233.065 150.979 231.844 152.345 231.1C153.5 230.489 154.821 230.078 156.176 229.956C156.676 229.923 157.62 229.889 158.63 230.111C160.64 230.545 162.706 230.2 164.627 229.479C165.959 228.968 167.48 228.723 168.935 228.612C171.811 228.39 174.709 229.234 177.052 230.689C179.395 232.132 181.205 234.153 182.593 236.33C183.537 237.851 184.303 239.45 184.848 241.105C185.358 242.67 185.669 244.27 186.169 245.835C186.913 248.212 188.068 250.488 189.567 252.587C190.866 254.397 192.176 255.918 194.597 256.295C192.776 258.883 189.734 260.648 186.602 262.025C182.083 264.013 177.175 265.346 172.155 265.99L157.065 265.845Z" fill="url(#paint23_linear_415_1160)"/>
<path d="M164.338 283.49C170.301 279.748 173.466 273.807 174.776 270.787L173.166 270.331C171.078 269.521 169.668 267.833 169.457 265.901L169.302 263.069L159.652 262.78L159.285 265.901C159.074 267.833 156.52 269.521 154.433 270.331L153.811 270.576C155.055 273.529 158.231 279.659 164.338 283.49Z" fill="url(#paint24_linear_415_1160)"/>
<path d="M175.931 245.635C168.424 244.614 162.95 242.104 161.107 238.806C160.518 239.939 158.197 243.659 153.356 243.748C153.256 246.335 153.156 250.721 153.556 253.297C153.955 255.862 154.888 258.428 156.665 260.515C157.464 261.459 158.419 262.292 159.485 262.991C162.45 264.935 166.492 264.957 169.513 263.08C170.667 262.37 171.7 261.503 172.533 260.515C174.31 258.428 175.242 255.862 175.642 253.297C176.042 250.721 176.031 248.223 175.931 245.635Z" fill="url(#paint25_linear_415_1160)"/>
</g>
<path d="M200.549 168.272C200.549 188.493 184.148 204.894 163.927 204.894C143.695 204.894 127.305 188.493 127.305 168.272C127.305 148.04 143.695 131.65 163.927 131.65C184.148 131.65 200.549 148.04 200.549 168.272Z" fill="url(#paint26_linear_415_1160)"/>
<mask id="mask1_415_1160" style="mask-type:luminance" maskUnits="userSpaceOnUse" x="127" y="131" width="74" height="74">
<path d="M200.545 168.27C200.545 188.495 184.148 204.892 163.923 204.892C143.696 204.892 127.301 188.495 127.301 168.27C127.301 148.043 143.696 131.648 163.923 131.648C184.148 131.648 200.545 148.043 200.545 168.27Z" fill="white"/>
</mask>
<g mask="url(#mask1_415_1160)">
<path d="M164.338 197.488C170.378 193.701 173.588 187.694 174.898 184.629L173.277 184.173C171.167 183.363 169.734 181.642 169.523 179.687L169.368 176.822L159.607 176.534L159.23 179.687C159.019 181.642 156.431 183.363 154.322 184.173L153.689 184.418C154.954 187.405 158.164 193.612 164.338 197.488Z" fill="url(#paint27_linear_415_1160)"/>
<path d="M175.287 159.189C172.977 152.77 170.356 150.683 161.206 152.282C160.64 153.426 156.232 151.949 153.833 157.279C153.744 159.899 153.644 164.341 154.033 166.94C154.41 169.538 155.288 172.125 156.976 174.235C157.742 175.201 158.641 176.045 159.663 176.756C162.472 178.71 166.325 178.732 169.19 176.845C170.29 176.123 171.267 175.246 172.066 174.235C173.754 172.125 174.631 169.538 175.009 166.94C175.398 164.341 175.387 161.809 175.287 159.189Z" fill="url(#paint28_linear_415_1160)"/>
<path d="M187.757 198.731C187.568 193.19 183.915 188.082 178.051 185.595C177.866 185.513 177.678 185.436 177.485 185.362L174.898 184.629C174.809 184.851 174.705 185.084 174.587 185.328C170.578 194.034 158.041 193.967 154.055 185.251C153.922 184.954 153.8 184.677 153.689 184.418L151.268 185.362C151.075 185.436 150.883 185.513 150.69 185.595C144.838 188.082 141.174 193.19 140.985 198.731L140.685 213.944H188.068L187.757 198.731Z" fill="url(#paint29_linear_415_1160)"/>
<path fill-rule="evenodd" clip-rule="evenodd" d="M175.886 162.997C175.82 165.596 175.631 168.727 175.253 171.47C174.654 175.745 171.644 179.232 167.669 180.076C165.737 180.498 163.394 180.642 160.773 180.087C156.42 179.176 153.233 175.19 152.967 170.482L152.467 161.509C146.082 154.403 152.745 142.132 152.745 142.132C152.845 143.776 154.888 144.475 155.798 144.32C174.32 141.188 172.621 150.261 172.621 150.261C178.063 152.459 176.863 159.511 175.886 162.997ZM167.136 170.493C167.014 170.404 164.493 168.749 162.028 170.759C163.527 170.893 165.237 170.837 167.136 170.493ZM174.087 168.094C174.087 168.094 174.509 162.209 174.709 158.911C173.565 156.002 171.267 155.946 171.267 155.946C166.447 160.799 154.355 157.723 154.355 157.723L155.199 168.594C155.199 168.594 156.187 169.305 157.986 169.926C157.997 169.915 162.65 163.353 171.456 169.26C172.311 168.927 173.177 168.561 174.087 168.094Z" fill="url(#paint30_linear_415_1160)"/>
</g>
<path d="M59.7685 122.744C60.4459 122.089 60.7235 121.145 60.4681 120.235C59.5686 117.103 60.3904 113.761 62.6445 111.595C63.122 111.129 63.6439 110.751 64.1658 110.452C66.5977 109.052 67.9746 106.354 67.5193 103.6C67.2973 102.279 67.3861 100.946 67.8525 99.6804C68.8186 97.0598 71.0838 95.5718 72.4941 94.85C73.0937 94.5391 73.4157 93.884 73.3158 93.2177C72.7828 89.7754 74.6039 86.5218 77.5244 85.1115C81.1444 83.346 83.976 83.7901 86.1524 84.9228C87.2073 85.4669 88.1068 86.1776 88.8508 86.8882C89.3394 86.6661 89.6836 85.8999 90.8162 85.7667C91.4492 85.689 92.3375 85.8111 93.6478 86.3552C94.0698 86.5218 94.4696 86.7328 94.8582 86.966C97.7453 88.7316 99.622 92.1739 99.6664 96.0715C99.6664 97.0043 100.099 97.9148 100.888 98.4145C101.71 98.9142 102.62 99.6693 103.331 100.746C104.819 103.001 105.019 105.965 103.997 108.808C103.542 110.063 103.964 111.473 105.085 112.206C105.596 112.539 106.107 112.972 106.562 113.55C107.906 115.271 108.217 117.669 107.484 119.979C107.228 120.812 107.395 121.723 107.984 122.378C108.861 123.344 109.649 124.643 109.96 126.32C110.482 129.251 109.183 131.539 108.805 132.149C104.73 133.604 74.5151 144.164 63.011 137.002C61.2121 135.892 57.7475 133.726 57.2478 130.017C56.8925 127.308 57.8475 124.61 59.7685 122.744Z" fill="url(#paint31_linear_415_1160)"/>
<path d="M125.517 165.873L129.204 166.429C129.204 166.429 133.035 173.502 141.352 171.07L142.44 168.96C142.44 168.96 132.28 162.753 129.992 162.631C127.716 162.509 122.219 162.287 122.219 162.287L125.517 165.873Z" fill="url(#paint32_linear_415_1160)"/>
<path d="M94.0365 120.212C93.3147 119.646 88.0402 118.314 88.0402 118.314L88.1512 114.671C88.1512 114.671 86.7632 115.204 84.8644 115.082C84.2647 115.038 83.6207 114.938 82.9544 114.727C82.4547 114.582 81.955 114.383 81.4442 114.105L81.4775 119.779C81.4775 119.779 77.6576 122.045 75.8809 123C72.7939 124.687 75.7477 126.564 75.6367 126.453C75.6441 126.46 75.6515 126.472 75.6589 126.486C75.9365 126.819 87.4517 145.008 87.7959 144.997C88.1401 144.975 94.7583 120.79 94.0365 120.212Z" fill="url(#paint33_linear_415_1160)"/>
<path d="M81.4553 110.674C82.3437 112.395 84.1203 113.328 85.9304 113.827C86.6966 114.038 87.4627 114.172 88.1623 114.249L88.1512 114.671C88.1512 114.671 86.7632 115.204 84.8643 115.082C84.2647 115.038 83.6207 114.938 82.9544 114.727C82.4547 114.582 81.955 114.383 81.4442 114.105L81.422 110.618C81.4294 110.64 81.4405 110.659 81.4553 110.674Z" fill="#843E2C"/>
<path fill-rule="evenodd" clip-rule="evenodd" d="M76.9137 101.268C77.5356 100.858 78.5017 101.535 79.0791 102.012C79.0865 101.998 79.0902 101.983 79.0902 101.968C89.2284 102.867 89.8947 95.8606 90.4166 93.1956C90.4277 93.2178 91.8935 96.5713 94.1144 98.0593C95.4136 111.262 91.1162 114.682 86.8299 114.138C84.2537 113.805 81.6775 111.851 80.2784 109.319C80.1118 108.986 79.9563 108.642 79.8009 108.309C79.5677 108.508 79.3234 108.642 79.068 108.664C78.0131 108.775 77.3357 107.076 76.9915 106.221C76.3252 104.533 75.9921 101.868 76.9137 101.268ZM80.2228 107.831C80.2117 107.853 80.1895 107.875 80.1673 107.909C80.2339 107.953 80.2673 107.953 80.2228 107.831Z" fill="url(#paint34_linear_415_1160)"/>
<path d="M37.6599 133.971L36.0498 131.15C36.0498 131.15 30.8085 134.304 26.3335 129.551L26.4556 127.752C26.4556 127.752 35.4835 127.586 37.0159 128.374C38.5483 129.163 40.9468 132.56 40.9468 132.56L37.6599 133.971Z" fill="url(#paint35_linear_415_1160)"/>
<path d="M97.0902 121.212C97.0902 121.212 89.8613 123.055 90.0612 136.602C90.1833 144.697 91.638 154.913 96.0131 160.787C99.1334 164.985 104.019 167.628 109.305 168.083C115.179 168.583 123.185 168.061 127.572 167.85L128.804 160.976L108.383 155.013L97.0902 121.212Z" fill="url(#paint36_linear_415_1160)"/>
<path d="M60.4572 307.409L58.2363 304.422C58.2363 304.422 59.1247 302.068 58.8026 300.536C58.4806 298.992 63.3443 296.894 63.3443 296.894L65.7318 300.536L66.8755 304.7V307.409H60.4572Z" fill="url(#paint37_linear_415_1160)"/>
<path d="M66.8753 304.7L72.383 312.218H55.0381L58.2361 304.422C58.2361 304.422 62.3447 306.932 66.8753 304.7Z" fill="url(#paint38_linear_415_1160)"/>
<path d="M73.8044 314.716H56.2818C55.4601 314.716 54.7938 314.061 54.7938 313.25V312.861C54.7938 312.195 55.2491 311.606 55.9043 311.44C58.0918 310.885 62.9222 309.719 65.1431 309.719C67.3861 309.719 72.1721 311.173 74.2708 311.851C74.8927 312.051 75.3035 312.617 75.3035 313.25C75.3035 314.061 74.6262 314.716 73.8044 314.716Z" fill="url(#paint39_linear_415_1160)"/>
<path d="M111.015 311.262L108.117 304.722C108.117 304.722 109.072 302.612 105.274 294.406C103.153 289.831 110.438 294.284 110.438 294.284L113.658 295.827C113.658 295.827 116.756 304.4 119.232 306.832C121.697 309.275 118.333 312.728 118.333 312.728L111.015 311.262Z" fill="url(#paint40_linear_415_1160)"/>
<path d="M115.301 306.687L114.691 304.677C114.691 304.677 115.534 303.567 118.133 303.101C118.133 303.101 120.831 307.542 123.085 308.497C124.307 309.008 126.939 309.574 128.782 310.518C125.573 311.673 120.365 312.173 115.301 306.687Z" fill="url(#paint41_linear_415_1160)"/>
<path d="M105.741 311.473C105.726 311.643 105.715 311.814 105.707 311.984C105.63 313.272 106.518 314.416 107.739 314.56C113.813 315.282 126.905 314.338 130.148 314.06C130.67 314.016 131.058 313.505 130.947 312.961C130.847 312.484 130.625 312.062 130.337 311.684C129.981 311.24 129.426 310.851 128.782 310.518C125.573 311.673 120.365 312.173 115.301 306.687C109.938 306.843 108.117 304.722 108.117 304.722C106.873 306.643 105.929 308.753 105.741 311.473Z" fill="url(#paint42_linear_415_1160)"/>
<path d="M96.7571 168.683L80.3116 164.152L78.446 163.952L72.483 167.894C72.483 167.894 51.5958 224.205 56.726 300.025H61.4786H72.3831C72.3831 300.025 73.7378 230.978 83.7317 205.738C83.7317 205.738 87.5516 263.203 103.52 300.191L109.993 299.692L116.789 298.759C116.789 298.759 99.6775 203.506 96.7571 168.683Z" fill="url(#paint43_linear_415_1160)"/>
<path d="M51.196 142.288C51.8067 142.443 52.3842 142.665 52.9283 142.932C52.1399 142.332 51.2071 141.599 50.1855 140.722C46.3212 140.222 42.5235 141.855 40.0695 144.842C40.2989 145.241 40.5395 145.634 40.7912 146.019C43.1898 142.854 47.2429 141.255 51.196 142.288Z" fill="url(#paint44_linear_415_1160)"/>
<path d="M36.3274 132.76C36.5939 137.136 37.9708 141.244 40.0695 144.842C40.299 145.242 40.5396 145.634 40.7913 146.019C44.8666 152.326 51.1517 156.846 57.3479 158.012C57.7699 158.1 58.1918 158.167 58.6138 158.212C58.6212 158.212 58.6323 158.212 58.6471 158.212C68.53 159.322 73.1271 151.76 74.1821 150.649L74.3708 146.941L75.4813 125.254L70.7175 125.165C70.7175 125.165 69.0296 128.73 63.8661 135.703C60.4682 140.311 57.8698 142.721 56.4929 143.843C55.8488 144.376 55.4713 144.609 55.4046 144.653L55.3935 144.664C55.3935 144.664 54.4275 144.054 52.9284 142.932C52.14 142.332 51.2072 141.599 50.1856 140.722C47.2652 138.224 43.6229 134.604 40.6692 130.095C40.5915 130.151 39.6254 130.917 39.5476 130.961C38.3151 131.717 37.6266 131.939 36.3274 132.76Z" fill="url(#paint45_linear_415_1160)"/>
<path d="M97.8009 146.552C97.8009 146.552 104.275 144.498 104.497 134.748C104.497 134.748 101.066 127.752 99.0113 123.233C98.0119 121.012 96.0575 119.679 93.659 119.302L91.9489 119.091C91.6935 119.058 91.4936 119.313 91.5936 119.557C92.0267 120.612 92.7262 122.988 91.1272 124.565C89.1395 126.531 84.3758 127.241 78.3017 121.234C78.3017 121.234 71.9056 123.533 70.7174 125.165C70.7174 125.165 69.4738 161.232 70.7508 169.849C70.9062 170.893 70.884 171.859 70.7174 172.769H97.6899L97.8009 146.552Z" fill="url(#paint46_linear_415_1160)"/>
<path d="M479.257 310.996L482.31 303.956C482.31 303.956 481.7 298.737 480.012 293.385C478.513 288.621 475.381 295.861 475.381 295.861L474.46 298.47C474.46 298.47 474.959 304.644 472.361 307.265C469.751 309.886 471.528 312.573 471.528 312.573L479.257 310.996Z" fill="url(#paint47_linear_415_1160)"/>
<path d="M474.726 306.066L475.381 303.9C475.381 303.9 474.482 302.712 471.728 302.212C471.728 302.212 468.885 306.987 466.509 308.02C465.221 308.575 462.434 309.175 460.49 310.196C463.877 311.429 469.374 311.973 474.726 306.066Z" fill="url(#paint48_linear_415_1160)"/>
<path d="M482.31 303.956C482.31 303.956 480.389 306.244 474.726 306.066C469.374 311.973 463.877 311.429 460.49 310.197C459.802 310.552 459.224 310.963 458.847 311.44C458.536 311.851 458.303 312.307 458.203 312.817C458.081 313.406 458.492 313.961 459.047 314.005C462.467 314.305 476.292 315.316 482.71 314.538C483.998 314.383 484.942 313.162 484.864 311.762C484.85 311.585 484.838 311.403 484.831 311.218C484.62 308.287 483.632 306.021 482.31 303.956Z" fill="url(#paint49_linear_415_1160)"/>
<path d="M492.46 113.994C492.393 113.639 485.442 112.362 485.442 112.362L485.564 106.532C483.421 110.608 478.136 109.131 478.136 109.131L478.224 112.873C478.224 112.873 471.962 115.405 471.317 116.237C470.662 117.059 482.511 144.243 482.899 144.165C483.288 144.098 493.748 117.414 493.959 116.97C493.967 116.948 493.974 116.933 493.981 116.926C493.881 117.07 493.171 117.947 492.46 113.994Z" fill="url(#paint50_linear_415_1160)"/>
<path d="M485.542 107.498L485.664 101.824C485.405 102.52 485.105 103.223 484.765 103.934C483.554 106.243 480.612 108.02 478.124 108.587L478.135 109.131C478.135 109.131 482.666 110.441 485.542 107.498Z" fill="#FD8AAD"/>
<path d="M493.981 116.926C493.993 116.904 493.993 116.904 493.981 116.926V116.926Z" fill="url(#paint51_linear_415_1160)"/>
<path d="M485.409 101.502C485.342 101.569 485.309 101.557 485.342 101.435C485.364 101.458 485.387 101.48 485.409 101.502Z" fill="url(#paint52_linear_415_1160)"/>
<path d="M477.614 108.631C480.245 108.92 483.266 107.654 485.309 105.533C485.376 105.466 485.431 105.411 485.487 105.344C485.742 105.044 485.986 104.745 486.231 104.445C486.419 104.7 486.63 104.9 486.886 104.978C487.941 105.355 489.051 103.79 489.606 103.001C490.706 101.447 491.35 99.7587 490.561 98.9148C490.028 98.3485 488.873 98.7926 488.163 99.148C488.163 99.1258 488.163 99.1073 488.163 99.0924C488.148 99.0776 488.129 99.0665 488.107 99.0591C487.915 99.755 487.726 100.451 487.541 101.147C487.463 101.447 487.352 101.78 487.074 101.924C486.664 102.135 486.153 101.746 486.008 101.291C485.864 100.836 485.942 100.347 485.875 99.8809C485.664 98.3485 484.087 97.4712 482.733 96.7383C480.9 95.75 479.146 94.5841 477.736 93.0517C476.958 92.2189 476.003 91.1751 474.915 91.4971C474.527 91.6081 474.06 91.8746 473.716 91.8191C473.516 92.4484 473.335 93.0554 473.172 93.6402C470.196 104.334 473.505 108.187 477.614 108.631Z" fill="url(#paint53_linear_415_1160)"/>
<path d="M472.961 87.2106C473.316 86.2779 474.027 85.4894 474.238 84.5123C474.371 83.8571 474.26 83.1686 474.382 82.5135C474.493 81.8583 474.993 81.1588 475.615 81.2143C475.892 81.2365 476.126 81.4031 476.381 81.503C477.902 82.1359 479.601 80.5813 481.222 80.8367C482.933 81.1032 483.732 83.1575 485.087 84.268C486.342 85.3118 488.052 85.5228 489.451 86.3334C491.761 87.6548 492.993 90.5086 493.137 93.318C493.271 96.1274 492.682 98.9368 491.76 101.613C491.283 102.968 490.55 104.333 489.551 105.322C488.562 106.31 486.975 106.776 485.853 106.032C485.642 105.899 485.464 105.722 485.309 105.533C485.376 105.466 485.431 105.411 485.487 105.344C485.742 105.044 485.986 104.744 486.231 104.445C486.419 104.7 486.63 104.9 486.886 104.978C487.941 105.355 489.051 103.789 489.606 103.001C490.706 101.446 491.35 99.7585 490.561 98.9146C490.028 98.3483 488.873 98.7924 488.163 99.1478C488.163 99.1256 487.73 100.447 487.541 101.147C487.463 101.446 487.352 101.779 487.074 101.924C486.664 102.135 486.153 101.746 486.008 101.291C485.864 100.836 485.942 100.347 485.875 99.8807C485.664 98.3483 484.087 97.471 482.733 96.7381C480.9 95.7499 479.146 94.5839 477.736 93.0515C476.958 92.2187 476.003 91.1749 474.915 91.4969C474.527 91.6079 474.06 91.8744 473.716 91.8189C473.516 92.4482 473.335 93.0552 473.172 93.64C473.016 92.6295 472.905 91.6079 472.794 90.5974C472.683 89.4648 472.561 88.2877 472.961 87.2106Z" fill="url(#paint54_linear_415_1160)"/>
<path d="M463.156 226.525C464.433 213.267 486.275 184.362 486.275 184.362L485.253 193.323C479.657 204.728 473.116 225.848 471.906 228.013C470.118 231.211 482.277 298.737 482.277 298.737H479.201C474.271 281.336 462.134 237.108 463.156 226.525Z" fill="url(#paint55_linear_415_1160)"/>
<path d="M507.751 310.996L510.815 303.956C510.815 303.956 510.305 303.723 510.083 298.737C509.872 293.74 503.875 295.861 503.875 295.861L502.965 298.47C502.965 298.47 503.464 304.644 500.866 307.265C498.256 309.885 500.022 312.573 500.022 312.573L507.751 310.996Z" fill="url(#paint56_linear_415_1160)"/>
<path d="M490.217 148.551C495.58 154.059 500.111 163.464 500.111 163.464C500.111 163.464 521.32 196.588 510.083 298.737L507.207 298.626C513.236 238.807 494.814 165.596 490.217 148.551Z" fill="url(#paint57_linear_415_1160)"/>
<path d="M452.695 228.013C452.695 207.859 472.295 164.908 472.295 164.908L482.277 155.902L484.743 165.019C485.187 154.347 486.364 144.964 489.273 147.64C489.591 147.929 489.906 148.233 490.217 148.551C494.814 165.596 513.236 238.807 507.207 298.626L502.965 298.47C502.965 298.47 494.603 239.329 485.253 193.323L486.275 184.362C486.275 184.362 464.433 213.267 463.156 226.525C462.134 237.108 474.271 281.336 479.201 298.737H473.727C473.727 298.737 452.695 248.179 452.695 228.013Z" fill="url(#paint58_linear_415_1160)"/>
<path d="M503.22 306.066L503.875 303.9C503.875 303.9 502.976 302.712 500.233 302.212C500.233 302.212 497.39 306.987 495.003 308.02C493.715 308.575 490.939 309.175 488.995 310.196C492.371 311.429 497.879 311.973 503.22 306.066Z" fill="url(#paint59_linear_415_1160)"/>
<path d="M510.815 303.956C510.815 303.956 508.894 306.244 503.22 306.066C497.879 311.973 492.371 311.429 488.995 310.197C488.307 310.552 487.73 310.963 487.352 311.44C487.041 311.851 486.808 312.307 486.697 312.817C486.586 313.406 486.997 313.961 487.541 314.005C490.972 314.305 504.797 315.316 511.215 314.538C512.503 314.383 513.447 313.162 513.369 311.762C513.355 311.585 513.34 311.403 513.325 311.218C513.125 308.287 512.137 306.021 510.815 303.956Z" fill="url(#paint60_linear_415_1160)"/>
<path d="M493.115 123.399L500.866 114.238C500.866 114.238 515.712 118.669 518.322 115.171C520.943 111.673 510.704 92.1185 510.704 92.1185L515.335 89.7866C515.335 89.7866 539.054 112.439 528.893 128.574C517.511 146.619 466.587 122.056 466.587 122.056L493.115 123.399Z" fill="url(#paint61_linear_415_1160)"/>
<path d="M469.174 124.898L466.165 113.272C466.165 113.272 450.452 109.153 448.553 104.433C446.932 100.425 449.597 80.6699 449.597 80.6699L444.834 78.3269C444.834 78.3269 435.883 98.5035 437.616 112.817C440.17 133.893 489.973 135.525 489.973 135.525L469.174 124.898Z" fill="url(#paint62_linear_415_1160)"/>
<path d="M502.887 114.794C502.887 114.794 502.409 149.628 501.821 163.797C501.821 163.797 483.399 168.627 471.328 165.096C471.328 165.096 471.273 163.608 471.051 160.865C470.962 159.822 470.851 158.389 470.718 156.646C469.974 147.141 468.364 128.43 464.299 112.75C464.299 112.75 469.841 114.472 474.304 114.072C474.304 114.072 475.737 120.557 482.511 120.201C489.295 119.835 490.295 112.573 490.295 112.573C490.295 112.573 493.759 112.906 497.313 113.506C499.356 113.85 501.432 114.283 502.887 114.794Z" fill="url(#paint63_linear_415_1160)"/>
<path d="M543.284 91.6634L419.182 71.1093C418.683 71.0315 418.339 70.554 418.416 70.0432L428.621 8.4142C428.71 7.9034 429.187 7.55917 429.698 7.648L553.789 28.191C554.3 28.2798 554.644 28.7573 554.555 29.2681L544.35 90.8972C544.273 91.408 543.784 91.7522 543.284 91.6634Z" fill="url(#paint64_linear_415_1160)"/>
<path d="M479.735 48.5341C477.547 61.7483 465.066 70.6872 451.863 68.4997C438.649 66.3121 429.71 53.8198 431.897 40.6167C434.085 27.4026 446.566 18.4747 459.78 20.6622C472.994 22.8498 481.922 35.3311 479.735 48.5341Z" fill="white"/>
<path d="M460.135 18.497C445.755 16.1206 432.119 25.8813 429.743 40.2615C427.355 54.6416 437.116 68.2777 451.496 70.654C465.876 73.0303 479.512 63.2696 481.9 48.8895C484.276 34.5094 474.515 20.8844 460.135 18.497Z" fill="white"/>
<mask id="mask2_415_1160" style="mask-type:luminance" maskUnits="userSpaceOnUse" x="431" y="20" width="50" height="49">
<path d="M479.738 48.5363C477.55 61.746 465.069 70.6817 451.858 68.4941C438.648 66.3065 429.713 53.8242 431.9 40.6145C434.088 27.4047 446.57 18.4691 459.781 20.6566C472.991 22.8442 481.926 35.3266 479.738 48.5363Z" fill="white"/>
</mask>
<g mask="url(#mask2_415_1160)">
<path d="M452.929 63.7024C457.281 61.8813 460.024 58.3057 461.223 56.4513L460.213 55.9738C458.914 55.2076 458.17 53.9417 458.236 52.6425L458.447 50.7548L452.107 49.5L451.518 51.521C451.163 52.7758 449.297 53.6197 447.832 53.9306L447.387 54.0195C447.887 56.1071 449.32 60.5044 452.929 63.7024Z" fill="url(#paint65_linear_415_1160)"/>
<path d="M464.222 39.8727C463.411 35.431 461.923 33.7875 455.771 33.8319C455.283 34.5204 452.562 33.0768 450.419 36.3082C450.075 38.0072 449.531 40.8943 449.497 42.6377C449.475 44.381 449.764 46.1577 450.641 47.7234C451.03 48.4341 451.529 49.0893 452.118 49.6556C453.75 51.2435 456.26 51.6655 458.336 50.7438C459.125 50.3885 459.858 49.9221 460.491 49.3558C461.823 48.1565 462.678 46.5686 463.211 44.9029C463.733 43.2484 463.999 41.5939 464.222 39.8727Z" fill="url(#paint66_linear_415_1160)"/>
<path d="M468.097 67.056C468.575 63.4138 466.731 59.6716 463.178 57.4175C463.059 57.3434 462.945 57.2731 462.834 57.2065L461.223 56.4514C461.135 56.5846 461.042 56.7253 460.946 56.8733C457.381 62.1257 449.197 60.7265 447.543 54.597C447.484 54.3897 447.432 54.1972 447.387 54.0195L445.7 54.3749C445.566 54.3971 445.437 54.4267 445.311 54.4637C441.213 55.452 438.271 58.3946 437.549 61.9924L435.706 71.8975L466.642 77.0166L468.097 67.056Z" fill="url(#paint67_linear_415_1160)"/>
<path fill-rule="evenodd" clip-rule="evenodd" d="M464.199 42.4266C463.877 44.1144 463.411 46.1465 462.867 47.8899C462.023 50.6105 459.68 52.5759 456.993 52.6981C455.682 52.7536 454.139 52.5982 452.484 51.9541C449.742 50.8881 448.087 47.9454 448.42 44.8362L449.064 38.9176C445.666 33.5875 451.341 26.292 451.341 26.292C451.241 27.3802 452.495 28.0576 453.106 28.0576C465.532 28.0132 463.444 33.7541 463.444 33.7541C466.765 35.7751 465.221 40.2501 464.199 42.4266ZM457.681 46.3686C457.615 46.302 456.138 44.9473 454.317 46.0022C455.272 46.2465 456.404 46.3908 457.681 46.3686ZM462.478 45.558C462.478 45.558 463.389 41.7603 463.877 39.6283C463.444 37.6073 461.945 37.3297 461.945 37.3297C458.27 39.9725 450.708 36.6523 450.708 36.6523L450.086 43.8368C450.086 43.8368 450.652 44.4143 451.763 45.0139C451.774 45.0028 455.516 41.2273 460.635 46.0355C461.223 45.9133 461.834 45.769 462.478 45.558Z" fill="url(#paint68_linear_415_1160)"/>
</g>
<path d="M538.321 55.341L490.395 47.4014L490.872 44.5698L538.787 52.4983L538.321 55.341Z" fill="white"/>
<path d="M537.422 60.7268L489.506 52.7872L489.973 49.9556L537.888 57.8952L537.422 60.7268Z" fill="white"/>
<path d="M523.263 63.9136L488.618 58.1838L489.084 55.3411L523.73 61.082L523.263 63.9136Z" fill="white"/>
<path d="M491.838 63.4915L492.582 65.9678C492.604 66.0122 492.638 66.0566 492.693 66.0788L495.158 66.8561C495.292 66.9005 495.314 67.0782 495.203 67.1559L493.082 68.6328C493.037 68.6661 493.004 68.7216 493.015 68.7772L493.026 71.3534C493.026 71.4977 492.86 71.5754 492.749 71.4866L490.694 69.932C490.65 69.8987 490.594 69.8876 490.539 69.9098L488.096 70.7204C487.963 70.7648 487.829 70.6316 487.874 70.4983L488.718 68.0665C488.74 68.011 488.729 67.9554 488.696 67.911L487.174 65.8345C487.085 65.7124 487.174 65.5569 487.308 65.5569L489.895 65.6124C489.95 65.6124 489.995 65.5902 490.028 65.5458L491.538 63.4471C491.616 63.336 491.794 63.3582 491.838 63.4915Z" fill="url(#paint69_linear_415_1160)"/>
<path d="M502.11 65.1905L502.854 67.6667C502.876 67.7223 502.92 67.7556 502.965 67.7778L505.43 68.5551C505.563 68.5995 505.585 68.7772 505.474 68.866L503.353 70.3318C503.309 70.3651 503.287 70.4206 503.287 70.4761L503.298 73.0523C503.298 73.1967 503.142 73.2744 503.02 73.1967L500.966 71.631C500.922 71.5977 500.866 71.5866 500.811 71.6088L498.368 72.4194C498.234 72.4638 498.101 72.3417 498.145 72.2084L499.001 69.7655C499.012 69.7099 499.001 69.6544 498.967 69.61L497.446 67.5335C497.357 67.4224 497.446 67.2559 497.579 67.267L500.166 67.3114C500.222 67.3114 500.266 67.2892 500.3 67.2448L501.81 65.1461C501.888 65.035 502.065 65.0572 502.11 65.1905Z" fill="url(#paint70_linear_415_1160)"/>
<path fill-rule="evenodd" clip-rule="evenodd" d="M512.381 66.9008L513.125 69.366C513.147 69.4215 513.192 69.4659 513.236 69.477L515.701 70.2654C515.835 70.3098 515.857 70.4875 515.746 70.5652L513.625 72.0421C513.581 72.0643 513.558 72.1198 513.558 72.1754L513.569 74.7627C513.569 74.8737 513.469 74.9403 513.37 74.9292C513.347 74.9218 513.325 74.9107 513.303 74.8959L511.238 73.3413C511.215 73.3191 511.193 73.308 511.171 73.308C511.141 73.3006 511.112 73.3006 511.082 73.308L508.639 74.1186C508.609 74.126 508.58 74.1297 508.55 74.1297C508.461 74.1075 508.384 74.0076 508.428 73.9076L509.272 71.4647C509.283 71.4203 509.283 71.3536 509.25 71.3092L507.717 69.2327C507.629 69.1217 507.717 68.9551 507.862 68.9662L510.438 69.0106C510.493 69.0106 510.549 68.9884 510.582 68.944L512.081 66.8453C512.126 66.7898 512.192 66.7676 512.248 66.7787C512.303 66.7898 512.359 66.8342 512.381 66.9008ZM511.293 69.4548C511.093 69.7435 510.76 69.899 510.416 69.899L509.283 69.8768L509.961 70.7873C510.16 71.0649 510.216 71.4314 510.105 71.7534L509.727 72.8305L510.804 72.4752C510.971 72.4197 511.149 72.4086 511.315 72.4308C511.482 72.4641 511.637 72.5307 511.77 72.6306L512.681 73.3191L512.67 72.1865C512.67 71.8422 512.837 71.5091 513.125 71.3092L514.058 70.6652L512.97 70.3209C512.648 70.2099 512.392 69.9545 512.281 69.6214L511.959 68.5331L511.293 69.4548Z" fill="url(#paint71_linear_415_1160)"/>
<path fill-rule="evenodd" clip-rule="evenodd" d="M522.653 68.5995L523.408 71.0647C523.419 71.1202 523.463 71.1646 523.519 71.1757L525.973 71.9641C526.106 72.0086 526.128 72.1862 526.017 72.264L523.896 73.7408C523.852 73.7741 523.83 73.8186 523.83 73.8741L523.841 76.4614C523.841 76.5724 523.741 76.6391 523.641 76.628C523.619 76.6206 523.597 76.6095 523.574 76.5946L521.509 75.04C521.487 75.0178 521.465 75.0067 521.442 75.0067C521.413 74.9993 521.383 74.9993 521.353 75.0067L518.91 75.8173C518.881 75.8322 518.855 75.8359 518.833 75.8284C518.733 75.8173 518.655 75.7063 518.7 75.6064L519.543 73.1634C519.555 73.119 519.555 73.0524 519.521 73.008L517.989 70.9314C517.911 70.8204 517.989 70.6649 518.133 70.6649L520.709 70.7205C520.765 70.7205 520.82 70.6871 520.854 70.6427L522.353 68.544C522.397 68.4885 522.464 68.4663 522.519 68.4774C522.575 68.4885 522.63 68.5329 522.653 68.5995ZM521.564 71.1535C521.365 71.4422 521.043 71.5977 520.687 71.5977L519.555 71.5755L520.232 72.486C520.432 72.7637 520.487 73.1301 520.376 73.4521L519.999 74.5292L521.076 74.1739C521.242 74.1184 521.42 74.1073 521.587 74.1406C521.753 74.1628 521.909 74.2294 522.042 74.3294L522.953 75.0178L522.941 73.8852C522.941 73.541 523.108 73.2078 523.397 73.0191L524.329 72.3639L523.241 72.0197C522.919 71.9197 522.664 71.6532 522.564 71.3201L522.231 70.2319L521.564 71.1535Z" fill="url(#paint72_linear_415_1160)"/>
<path fill-rule="evenodd" clip-rule="evenodd" d="M532.924 70.2987L533.679 72.7638C533.69 72.8193 533.735 72.8638 533.79 72.886L536.244 73.6633C536.378 73.7077 536.411 73.8854 536.289 73.9631L534.179 75.44C534.124 75.4733 534.101 75.5288 534.101 75.5843L534.112 78.1605C534.112 78.2716 534.012 78.3493 533.924 78.3271C533.894 78.3271 533.868 78.316 533.846 78.2938L531.792 76.7392C531.769 76.7244 531.744 76.7133 531.714 76.7059C531.684 76.6985 531.658 76.7022 531.636 76.717L529.182 77.5276C529.152 77.535 529.127 77.535 529.104 77.5276C529.004 77.5165 528.927 77.4165 528.971 77.3055L529.815 74.8736C529.837 74.8181 529.826 74.7626 529.793 74.7182L528.26 72.6306C528.183 72.5195 528.26 72.3641 528.405 72.3641L530.981 72.4196C531.037 72.4196 531.092 72.3863 531.125 72.3419L532.624 70.2542C532.669 70.1876 532.735 70.1765 532.791 70.1765C532.858 70.1876 532.902 70.232 532.924 70.2987ZM531.836 72.8638C531.636 73.1414 531.314 73.3079 530.959 73.2968L529.826 73.2746L530.504 74.1963C530.703 74.4739 530.759 74.8292 530.648 75.1624L530.27 76.2284L531.359 75.873C531.514 75.8175 531.692 75.8064 531.858 75.8397C532.025 75.8619 532.18 75.9286 532.314 76.0396L533.224 76.717V75.5843C533.213 75.2401 533.391 74.9181 533.668 74.7182L534.601 74.063L533.524 73.7188C533.191 73.6189 532.935 73.3524 532.835 73.0303L532.502 71.931L531.836 72.8638Z" fill="url(#paint73_linear_415_1160)"/>
<path d="M514.724 90.0753L513.403 87.1771C513.403 87.1771 518.189 80.2036 514.413 77.0944C513.047 75.9617 511.36 77.3609 511.36 77.3609C511.36 77.3609 509.661 84.7341 509.616 87.6657C509.594 88.9205 511.748 91.5966 511.748 91.5966L514.724 90.0753Z" fill="url(#paint74_linear_415_1160)"/>
<path d="M446.022 78.9045L447.254 75.7397C447.254 75.7397 442.024 69.488 445.355 66.1678C446.566 64.9574 448.309 66.1456 448.309 66.1456C448.309 66.1456 450.608 73.0414 450.919 75.8508C451.052 77.05 449.009 80.3813 449.009 80.3813L446.022 78.9045Z" fill="url(#paint75_linear_415_1160)"/>
<defs>
<linearGradient id="paint0_linear_415_1160" x1="569.184" y1="1.64202" x2="298.153" y2="471.081" gradientUnits="userSpaceOnUse">
<stop stop-color="#FFE6F2"/>
<stop offset="1" stop-color="#0071E3"/>
</linearGradient>
<linearGradient id="paint1_linear_415_1160" x1="301.246" y1="-72.3456" x2="-22.631" y2="294.631" gradientUnits="userSpaceOnUse">
<stop stop-color="white"/>
<stop offset="1" stop-color="#FFBA92"/>
</linearGradient>
<linearGradient id="paint2_linear_415_1160" x1="256.198" y1="114.186" x2="14.1305" y2="114.186" gradientUnits="userSpaceOnUse">
<stop stop-color="#FFE6F2"/>
<stop offset="1" stop-color="#4FA2F4"/>
</linearGradient>
<linearGradient id="paint3_linear_415_1160" x1="101.288" y1="68.8297" x2="479.599" y2="68.8297" gradientUnits="userSpaceOnUse">
<stop stop-color="#E0F2FF"/>
<stop offset="1" stop-color="#B0B4F5"/>
</linearGradient>
<linearGradient id="paint4_linear_415_1160" x1="402.74" y1="120.776" x2="466.468" y2="153.184" gradientUnits="userSpaceOnUse">
<stop stop-color="#F9F077"/>
<stop offset="1" stop-color="#F39B34"/>
</linearGradient>
<linearGradient id="paint5_linear_415_1160" x1="392.418" y1="142.863" x2="444.381" y2="142.863" gradientUnits="userSpaceOnUse">
<stop offset="0.019" stop-color="#F8D86E"/>
<stop offset="1" stop-color="#F29A09"/>
</linearGradient>
<linearGradient id="paint6_linear_415_1160" x1="398.093" y1="148.05" x2="438.706" y2="148.05" gradientUnits="userSpaceOnUse">
<stop stop-color="#F9DE57"/>
<stop offset="0.344" stop-color="#F7FAB4"/>
<stop offset="1" stop-color="#F4AA33"/>
</linearGradient>
<linearGradient id="paint7_linear_415_1160" x1="249.861" y1="133.76" x2="368.651" y2="133.76" gradientUnits="userSpaceOnUse">
<stop stop-color="#7EB2FD"/>
<stop offset="1" stop-color="#6A67E5"/>
</linearGradient>
<linearGradient id="paint8_linear_415_1160" x1="249.861" y1="147.21" x2="337.109" y2="147.21" gradientUnits="userSpaceOnUse">
<stop stop-color="#7EB2FD"/>
<stop offset="1" stop-color="#6A67E5"/>
</linearGradient>
<linearGradient id="paint9_linear_415_1160" x1="249.861" y1="190.223" x2="264.937" y2="190.223" gradientUnits="userSpaceOnUse">
<stop offset="0.019" stop-color="#F8D86E"/>
<stop offset="1" stop-color="#F29A09"/>
</linearGradient>
<linearGradient id="paint10_linear_415_1160" x1="268.534" y1="190.223" x2="283.61" y2="190.223" gradientUnits="userSpaceOnUse">
<stop offset="0.019" stop-color="#F8D86E"/>
<stop offset="1" stop-color="#F29A09"/>
</linearGradient>
<linearGradient id="paint11_linear_415_1160" x1="287.207" y1="190.223" x2="302.282" y2="190.223" gradientUnits="userSpaceOnUse">
<stop offset="0.019" stop-color="#F8D86E"/>
<stop offset="1" stop-color="#F29A09"/>
</linearGradient>
<linearGradient id="paint12_linear_415_1160" x1="305.879" y1="190.223" x2="320.955" y2="190.223" gradientUnits="userSpaceOnUse">
<stop offset="0.019" stop-color="#F8D86E"/>
<stop offset="1" stop-color="#F29A09"/>
</linearGradient>
<linearGradient id="paint13_linear_415_1160" x1="324.552" y1="190.223" x2="339.627" y2="190.223" gradientUnits="userSpaceOnUse">
<stop offset="0.019" stop-color="#F8D86E"/>
<stop offset="1" stop-color="#F29A09"/>
</linearGradient>
<linearGradient id="paint14_linear_415_1160" x1="249.861" y1="223.355" x2="368.651" y2="223.355" gradientUnits="userSpaceOnUse">
<stop stop-color="#7EB2FD"/>
<stop offset="1" stop-color="#6A67E5"/>
</linearGradient>
<linearGradient id="paint15_linear_415_1160" x1="249.861" y1="279.818" x2="264.937" y2="279.818" gradientUnits="userSpaceOnUse">
<stop offset="0.019" stop-color="#F8D86E"/>
<stop offset="1" stop-color="#F29A09"/>
</linearGradient>
<linearGradient id="paint16_linear_415_1160" x1="268.534" y1="279.818" x2="283.61" y2="279.818" gradientUnits="userSpaceOnUse">
<stop offset="0.019" stop-color="#F8D86E"/>
<stop offset="1" stop-color="#F29A09"/>
</linearGradient>
<linearGradient id="paint17_linear_415_1160" x1="287.207" y1="279.818" x2="302.282" y2="279.818" gradientUnits="userSpaceOnUse">
<stop offset="0.019" stop-color="#F8D86E"/>
<stop offset="1" stop-color="#F29A09"/>
</linearGradient>
<linearGradient id="paint18_linear_415_1160" x1="305.421" y1="279.396" x2="321.413" y2="279.396" gradientUnits="userSpaceOnUse">
<stop offset="0.019" stop-color="#F8D86E"/>
<stop offset="1" stop-color="#F29A09"/>
</linearGradient>
<linearGradient id="paint19_linear_415_1160" x1="324.094" y1="279.396" x2="340.086" y2="279.396" gradientUnits="userSpaceOnUse">
<stop offset="0.019" stop-color="#F8D86E"/>
<stop offset="1" stop-color="#F29A09"/>
</linearGradient>
<linearGradient id="paint20_linear_415_1160" x1="127.325" y1="53.1759" x2="157.921" y2="53.1759" gradientUnits="userSpaceOnUse">
<stop stop-color="#E0F2FF"/>
<stop offset="1" stop-color="#B0B4F5"/>
</linearGradient>
<linearGradient id="paint21_linear_415_1160" x1="127.726" y1="218.415" x2="200.119" y2="218.415" gradientUnits="userSpaceOnUse">
<stop stop-color="#E0F2FF"/>
<stop offset="1" stop-color="#B0B4F5"/>
</linearGradient>
<linearGradient id="paint22_linear_415_1160" x1="149.082" y1="256.497" x2="196.842" y2="284.071" gradientUnits="userSpaceOnUse">
<stop offset="0.01" stop-color="#8DC1FD"/>
<stop offset="1" stop-color="#777BC3"/>
</linearGradient>
<linearGradient id="paint23_linear_415_1160" x1="142.717" y1="228.575" x2="194.601" y2="228.575" gradientUnits="userSpaceOnUse">
<stop offset="0.01" stop-color="#4258A2"/>
<stop offset="1" stop-color="#3B2762"/>
</linearGradient>
<linearGradient id="paint24_linear_415_1160" x1="174.529" y1="250.071" x2="174.529" y2="296.351" gradientUnits="userSpaceOnUse">
<stop offset="0.01" stop-color="#FD9FB2"/>
<stop offset="1" stop-color="#FBD2E3"/>
</linearGradient>
<linearGradient id="paint25_linear_415_1160" x1="153.265" y1="238.806" x2="175.987" y2="238.806" gradientUnits="userSpaceOnUse">
<stop offset="0.01" stop-color="#FD9FB2"/>
<stop offset="1" stop-color="#FBD2E3"/>
</linearGradient>
<linearGradient id="paint26_linear_415_1160" x1="127.3" y1="131.647" x2="200.545" y2="131.647" gradientUnits="userSpaceOnUse">
<stop stop-color="#E0F2FF"/>
<stop offset="1" stop-color="#B0B4F5"/>
</linearGradient>
<linearGradient id="paint27_linear_415_1160" x1="174.654" y1="163.676" x2="174.654" y2="210.501" gradientUnits="userSpaceOnUse">
<stop offset="0.01" stop-color="#FD9FB2"/>
<stop offset="1" stop-color="#FBD2E3"/>
</linearGradient>
<linearGradient id="paint28_linear_415_1160" x1="153.752" y1="151.768" x2="175.344" y2="151.768" gradientUnits="userSpaceOnUse">
<stop offset="0.01" stop-color="#FD9FB2"/>
<stop offset="1" stop-color="#FBD2E3"/>
</linearGradient>
<linearGradient id="paint29_linear_415_1160" x1="148.907" y1="170.178" x2="197.229" y2="198.077" gradientUnits="userSpaceOnUse">
<stop offset="0.01" stop-color="#FF9916"/>
<stop offset="1" stop-color="#FD592E"/>
</linearGradient>
<linearGradient id="paint30_linear_415_1160" x1="149.701" y1="142.127" x2="176.73" y2="142.127" gradientUnits="userSpaceOnUse">
<stop offset="0.01" stop-color="#4258A2"/>
<stop offset="1" stop-color="#3B2762"/>
</linearGradient>
<linearGradient id="paint31_linear_415_1160" x1="145.609" y1="116.744" x2="84.981" y2="56.1159" gradientUnits="userSpaceOnUse">
<stop offset="0.01" stop-color="#353535"/>
<stop offset="1" stop-color="#090909"/>
</linearGradient>
<linearGradient id="paint32_linear_415_1160" x1="143.273" y1="171.772" x2="123.416" y2="173.836" gradientUnits="userSpaceOnUse">
<stop stop-color="#C66642"/>
<stop offset="1" stop-color="#9B5349"/>
</linearGradient>
<linearGradient id="paint33_linear_415_1160" x1="73.1202" y1="115.28" x2="92.97" y2="112.472" gradientUnits="userSpaceOnUse">
<stop stop-color="#C66642"/>
<stop offset="1" stop-color="#9B5349"/>
</linearGradient>
<linearGradient id="paint34_linear_415_1160" x1="94.3459" y1="93.2006" x2="76.3471" y2="93.2006" gradientUnits="userSpaceOnUse">
<stop stop-color="#C66642"/>
<stop offset="1" stop-color="#9B5349"/>
</linearGradient>
<linearGradient id="paint35_linear_415_1160" x1="23.6176" y1="130.892" x2="35.6143" y2="139.766" gradientUnits="userSpaceOnUse">
<stop stop-color="#C66642"/>
<stop offset="1" stop-color="#9B5349"/>
</linearGradient>
<linearGradient id="paint36_linear_415_1160" x1="57.5254" y1="141.201" x2="120.382" y2="104.983" gradientUnits="userSpaceOnUse">
<stop stop-color="#FDA4F2"/>
<stop offset="1" stop-color="#0C0C0C"/>
</linearGradient>
<linearGradient id="paint37_linear_415_1160" x1="58.2342" y1="296.89" x2="66.8726" y2="296.89" gradientUnits="userSpaceOnUse">
<stop stop-color="#C66642"/>
<stop offset="1" stop-color="#9B5349"/>
</linearGradient>
<linearGradient id="paint38_linear_415_1160" x1="55.0369" y1="304.417" x2="72.3862" y2="304.417" gradientUnits="userSpaceOnUse">
<stop stop-color="#BFA4F2"/>
<stop offset="1" stop-color="#768EF6"/>
</linearGradient>
<linearGradient id="paint39_linear_415_1160" x1="54.7896" y1="309.718" x2="75.3007" y2="309.718" gradientUnits="userSpaceOnUse">
<stop stop-color="#BFA4F2"/>
<stop offset="1" stop-color="#768EF6"/>
</linearGradient>
<linearGradient id="paint40_linear_415_1160" x1="94.5531" y1="294.832" x2="114.816" y2="283.133" gradientUnits="userSpaceOnUse">
<stop stop-color="#C66642"/>
<stop offset="1" stop-color="#9B5349"/>
</linearGradient>
<linearGradient id="paint41_linear_415_1160" x1="128.751" y1="303.064" x2="114.679" y2="303.116" gradientUnits="userSpaceOnUse">
<stop stop-color="#BFA4F2"/>
<stop offset="1" stop-color="#768EF6"/>
</linearGradient>
<linearGradient id="paint42_linear_415_1160" x1="124.843" y1="297.889" x2="103.272" y2="306.701" gradientUnits="userSpaceOnUse">
<stop stop-color="#BFA4F2"/>
<stop offset="1" stop-color="#768EF6"/>
</linearGradient>
<linearGradient id="paint43_linear_415_1160" x1="238.838" y1="163.743" x2="238.838" y2="300.36" gradientUnits="userSpaceOnUse">
<stop offset="0.01" stop-color="#4258A2"/>
<stop offset="1" stop-color="#0071E3"/>
</linearGradient>
<linearGradient id="paint44_linear_415_1160" x1="78.9667" y1="140.634" x2="36.3282" y2="140.634" gradientUnits="userSpaceOnUse">
<stop stop-color="#FDA4F2"/>
<stop offset="1" stop-color="#8097F6"/>
</linearGradient>
<linearGradient id="paint45_linear_415_1160" x1="30.218" y1="186.304" x2="88.804" y2="145.039" gradientUnits="userSpaceOnUse">
<stop stop-color="#FDA4F2"/>
<stop offset="1" stop-color="#2C2C2D"/>
</linearGradient>
<linearGradient id="paint46_linear_415_1160" x1="-35.5257" y1="163.395" x2="90.1443" y2="93.1849" gradientUnits="userSpaceOnUse">
<stop stop-color="#FDA4F2"/>
<stop offset="1" stop-color="#242424"/>
</linearGradient>
<linearGradient id="paint47_linear_415_1160" x1="494.66" y1="291.185" x2="477.118" y2="281.056" gradientUnits="userSpaceOnUse">
<stop offset="0.01" stop-color="#FD9FB2"/>
<stop offset="1" stop-color="#FBD2E3"/>
</linearGradient>
<linearGradient id="paint48_linear_415_1160" x1="460.521" y1="302.173" x2="475.382" y2="302.228" gradientUnits="userSpaceOnUse">
<stop offset="0.01" stop-color="#4258A2"/>
<stop offset="1" stop-color="#3B2762"/>
</linearGradient>
<linearGradient id="paint49_linear_415_1160" x1="464.702" y1="296.762" x2="487.487" y2="306.071" gradientUnits="userSpaceOnUse">
<stop offset="0.01" stop-color="#4258A2"/>
<stop offset="1" stop-color="#3B2762"/>
</linearGradient>
<linearGradient id="paint50_linear_415_1160" x1="470.51" y1="107.925" x2="492.959" y2="105.854" gradientUnits="userSpaceOnUse">
<stop offset="0.01" stop-color="#FD9FB2"/>
<stop offset="1" stop-color="#FBD2E3"/>
</linearGradient>
<linearGradient id="paint51_linear_415_1160" x1="493.979" y1="116.911" x2="493.991" y2="116.91" gradientUnits="userSpaceOnUse">
<stop offset="0.01" stop-color="#FD9FB2"/>
<stop offset="1" stop-color="#FBD2E3"/>
</linearGradient>
<linearGradient id="paint52_linear_415_1160" x1="485.336" y1="101.544" x2="485.415" y2="101.537" gradientUnits="userSpaceOnUse">
<stop offset="0.01" stop-color="#4258A2"/>
<stop offset="1" stop-color="#3B2762"/>
</linearGradient>
<linearGradient id="paint53_linear_415_1160" x1="492.091" y1="95.4641" x2="473.782" y2="91.0187" gradientUnits="userSpaceOnUse">
<stop offset="0.01" stop-color="#FD9FB2"/>
<stop offset="1" stop-color="#FBD2E3"/>
</linearGradient>
<linearGradient id="paint54_linear_415_1160" x1="481.282" y1="70.3297" x2="459.686" y2="92.9703" gradientUnits="userSpaceOnUse">
<stop offset="0.01" stop-color="#5E574E"/>
<stop offset="1"/>
</linearGradient>
<linearGradient id="paint55_linear_415_1160" x1="288.41" y1="24.155" x2="211.931" y2="151.869" gradientUnits="userSpaceOnUse">
<stop stop-color="#7FB2FD"/>
<stop offset="1" stop-color="#637BC4"/>
</linearGradient>
<linearGradient id="paint56_linear_415_1160" x1="520.053" y1="296.568" x2="504.094" y2="287.354" gradientUnits="userSpaceOnUse">
<stop offset="0.01" stop-color="#FD9FB2"/>
<stop offset="1" stop-color="#FBD2E3"/>
</linearGradient>
<linearGradient id="paint57_linear_415_1160" x1="146.584" y1="-71.5744" x2="63.6485" y2="66.9227" gradientUnits="userSpaceOnUse">
<stop stop-color="#7FB2FD"/>
<stop offset="1" stop-color="#637BC4"/>
</linearGradient>
<linearGradient id="paint58_linear_415_1160" x1="336.146" y1="44.0285" x2="254.644" y2="180.131" gradientUnits="userSpaceOnUse">
<stop stop-color="#7FB2FD"/>
<stop offset="1" stop-color="#637BC4"/>
</linearGradient>
<linearGradient id="paint59_linear_415_1160" x1="489.022" y1="302.173" x2="503.883" y2="302.228" gradientUnits="userSpaceOnUse">
<stop offset="0.01" stop-color="#4258A2"/>
<stop offset="1" stop-color="#3B2762"/>
</linearGradient>
<linearGradient id="paint60_linear_415_1160" x1="493.203" y1="296.762" x2="515.989" y2="306.071" gradientUnits="userSpaceOnUse">
<stop offset="0.01" stop-color="#4258A2"/>
<stop offset="1" stop-color="#3B2762"/>
</linearGradient>
<linearGradient id="paint61_linear_415_1160" x1="512.69" y1="137.127" x2="596.245" y2="63.7661" gradientUnits="userSpaceOnUse">
<stop offset="0.01" stop-color="#FFA774"/>
<stop offset="1" stop-color="#FE6A14"/>
</linearGradient>
<linearGradient id="paint62_linear_415_1160" x1="421.902" y1="101.811" x2="540.13" y2="55.382" gradientUnits="userSpaceOnUse">
<stop offset="0.01" stop-color="#FE6A14"/>
<stop offset="1" stop-color="#FE6A14"/>
</linearGradient>
<linearGradient id="paint63_linear_415_1160" x1="512.147" y1="170.208" x2="451.643" y2="166.71" gradientUnits="userSpaceOnUse">
<stop offset="0.01" stop-color="#FFA875"/>
<stop offset="1" stop-color="#FE6A14"/>
</linearGradient>
<linearGradient id="paint64_linear_415_1160" x1="425.272" y1="76.7172" x2="537.03" y2="-59.3244" gradientUnits="userSpaceOnUse">
<stop stop-color="#E0F2FF"/>
<stop offset="1" stop-color="#B0B4F5"/>
</linearGradient>
<linearGradient id="paint65_linear_415_1160" x1="463.325" y1="42.7361" x2="458.261" y2="73.318" gradientUnits="userSpaceOnUse">
<stop offset="0.01" stop-color="#FD9FB2"/>
<stop offset="1" stop-color="#FBD2E3"/>
</linearGradient>
<linearGradient id="paint66_linear_415_1160" x1="450.962" y1="32.6983" x2="465.064" y2="35.0336" gradientUnits="userSpaceOnUse">
<stop offset="0.01" stop-color="#FD9FB2"/>
<stop offset="1" stop-color="#FBD2E3"/>
</linearGradient>
<linearGradient id="paint67_linear_415_1160" x1="445.806" y1="44.1978" x2="474.349" y2="67.6453" gradientUnits="userSpaceOnUse">
<stop offset="0.01" stop-color="#FF9916"/>
<stop offset="1" stop-color="#FD592E"/>
</linearGradient>
<linearGradient id="paint68_linear_415_1160" x1="449.359" y1="25.9632" x2="467.012" y2="28.8866" gradientUnits="userSpaceOnUse">
<stop offset="0.01" stop-color="#4258A2"/>
<stop offset="1" stop-color="#3B2762"/>
</linearGradient>
<linearGradient id="paint69_linear_415_1160" x1="511.529" y1="50.5332" x2="491.615" y2="74.7739" gradientUnits="userSpaceOnUse">
<stop offset="0.01" stop-color="#F1C88C"/>
<stop offset="1" stop-color="#FDA001"/>
</linearGradient>
<linearGradient id="paint70_linear_415_1160" x1="521.802" y1="52.2344" x2="501.888" y2="76.4751" gradientUnits="userSpaceOnUse">
<stop offset="0.01" stop-color="#F1C88C"/>
<stop offset="1" stop-color="#FDA001"/>
</linearGradient>
<linearGradient id="paint71_linear_415_1160" x1="508.182" y1="66.1058" x2="516.312" y2="67.4521" gradientUnits="userSpaceOnUse">
<stop offset="0.01" stop-color="#F1C88C"/>
<stop offset="1" stop-color="#FDA001"/>
</linearGradient>
<linearGradient id="paint72_linear_415_1160" x1="518.455" y1="67.8068" x2="526.585" y2="69.1531" gradientUnits="userSpaceOnUse">
<stop offset="0.01" stop-color="#F1C88C"/>
<stop offset="1" stop-color="#FDA001"/>
</linearGradient>
<linearGradient id="paint73_linear_415_1160" x1="539.639" y1="73.1396" x2="532.706" y2="81.579" gradientUnits="userSpaceOnUse">
<stop offset="0.01" stop-color="#F1C88C"/>
<stop offset="1" stop-color="#FDA001"/>
</linearGradient>
<linearGradient id="paint74_linear_415_1160" x1="507.341" y1="83.5431" x2="514.382" y2="92.0312" gradientUnits="userSpaceOnUse">
<stop offset="0.01" stop-color="#FD9FB2"/>
<stop offset="1" stop-color="#FBD2E3"/>
</linearGradient>
<linearGradient id="paint75_linear_415_1160" x1="452.921" y1="71.9873" x2="446.691" y2="81.148" gradientUnits="userSpaceOnUse">
<stop offset="0.01" stop-color="#FD9FB2"/>
<stop offset="1" stop-color="#FBD2E3"/>
</linearGradient>
</defs>
</svg>
