<svg width="467" height="347" viewBox="0 0 467 347" fill="none" xmlns="http://www.w3.org/2000/svg">
<path d="M230.4 337.519L234.343 254.942H225.142L221.2 337.519H197.654C192.579 337.519 188.454 341.63 188.454 346.705H263.131C263.131 341.63 259.007 337.519 253.931 337.519H230.4Z" fill="url(#paint0_linear_415_1049)"/>
<path d="M130.401 268.98L152.423 17.2496C152.828 12.6496 156.673 9.14014 161.273 9.14014H329.224C334.425 9.14014 338.522 13.6004 338.074 18.7877L316.039 270.518C315.647 275.118 311.802 278.641 307.188 278.641H139.252C134.05 278.641 129.954 274.167 130.401 268.98Z" fill="url(#paint1_linear_415_1049)"/>
<path d="M306.923 272.713H139.573C137.658 272.713 136.148 271.063 136.315 269.148L158.281 18.0466C158.435 16.3548 159.847 15.0544 161.553 15.0544H328.888C330.818 15.0544 332.328 16.7043 332.16 18.6198L310.194 269.721C310.041 271.413 308.628 272.713 306.923 272.713Z" fill="white"/>
<path d="M263.201 63.963C274.065 63.963 282.65 71.1217 284.859 80.993L311.327 71.0798C306.028 50.9598 288.131 36.5305 265.592 36.5305L263.201 63.963Z" fill="url(#paint2_linear_415_1049)"/>
<path d="M236.845 88.1937C238.006 74.7991 249.807 63.9491 263.201 63.9491L265.606 36.5166C237.055 36.5166 211.902 59.6427 209.399 88.1937C208.476 98.7361 210.797 108.537 215.495 116.717L238.915 100.05C237.251 96.5409 236.468 92.5001 236.845 88.1937Z" fill="url(#paint3_linear_415_1049)"/>
<path d="M256.56 139.885C272.15 139.885 286.719 132.964 297.149 122.044L277.994 104.063C273.1 109.195 266.277 112.438 258.951 112.438C249.89 112.438 242.424 107.447 238.915 100.078L215.495 116.731C223.535 130.685 238.565 139.885 256.56 139.885Z" fill="url(#paint4_linear_415_1049)"/>
<path d="M285.321 88.2074C285.265 88.8506 285.153 89.4798 285.055 90.109L312.138 92.7515C312.404 91.2555 312.613 89.7315 312.753 88.2074C313.27 82.1952 312.739 76.4347 311.327 71.0796L284.859 80.9928C285.363 83.2718 285.53 85.6907 285.321 88.2074Z" fill="url(#paint5_linear_415_1049)"/>
<path d="M277.994 104.063L297.149 122.044C304.783 114.046 310.194 103.91 312.138 92.752L285.055 90.1094C284.174 95.4365 281.615 100.26 277.994 104.063Z" fill="url(#paint6_linear_415_1049)"/>
<path d="M177.003 42.3048C176.779 44.7516 174.64 46.723 172.193 46.723C169.76 46.723 167.943 44.7516 168.166 42.3048C168.376 39.8719 170.529 37.8865 172.962 37.8865C175.409 37.8865 177.212 39.8719 177.003 42.3048Z" fill="url(#paint7_linear_415_1049)"/>
<path d="M211.594 41.1301H181.868L182.022 39.3264H211.748L211.594 41.1301Z" fill="url(#paint8_linear_415_1049)"/>
<path d="M201.527 45.2969H181.505L181.659 43.4792H201.681L201.527 45.2969Z" fill="url(#paint9_linear_415_1049)"/>
<path d="M175.632 57.9925C175.409 60.4254 173.255 62.4108 170.823 62.4108C168.376 62.4108 166.572 60.4254 166.796 57.9925C167.006 55.5457 169.159 53.5742 171.592 53.5742C174.038 53.5742 175.842 55.5457 175.632 57.9925Z" fill="url(#paint10_linear_415_1049)"/>
<path d="M200.52 56.8181H180.498L180.652 55.0005H200.674L200.52 56.8181Z" fill="url(#paint11_linear_415_1049)"/>
<path d="M200.157 60.9707H180.135L180.288 59.167H200.311L200.157 60.9707Z" fill="url(#paint12_linear_415_1049)"/>
<path d="M174.248 73.6663C174.039 76.1132 171.885 78.0846 169.453 78.0846C167.006 78.0846 165.202 76.1132 165.426 73.6663C165.635 71.2335 167.789 69.248 170.222 69.248C172.668 69.248 174.472 71.2335 174.248 73.6663Z" fill="url(#paint13_linear_415_1049)"/>
<path d="M199.192 71.9885H179.17L179.324 70.1709H199.346L199.192 71.9885Z" fill="url(#paint14_linear_415_1049)"/>
<path d="M198.829 76.1411H178.807L178.96 74.3374H198.982L198.829 76.1411Z" fill="url(#paint15_linear_415_1049)"/>
<path d="M191.851 90.1091H188.02L183.672 139.885H187.503L191.851 90.1091Z" fill="url(#paint16_linear_415_1049)"/>
<path d="M197.626 112.606H193.795L191.404 139.885H195.235L197.626 112.606Z" fill="url(#paint17_linear_415_1049)"/>
<path d="M182.721 102.818H178.89L175.646 139.884H179.477L182.721 102.818Z" fill="url(#paint18_linear_415_1049)"/>
<path d="M173.465 117.15H169.634L167.649 139.884H171.48L173.465 117.15Z" fill="url(#paint19_linear_415_1049)"/>
<path d="M167.271 96.2749H163.44L159.623 139.884H163.454L167.271 96.2749Z" fill="url(#paint20_linear_415_1049)"/>
<path d="M295.821 244.61C292.787 241.072 288.005 240.177 283.447 240.289C282.286 240.331 281.07 240.415 280.021 239.926C277.337 238.667 277.057 234.584 276.833 231.201C276.498 226.447 275.435 221.511 272.317 218.617C267.787 214.395 260.405 216.058 255.064 220.169C252.589 222.071 250.044 224.573 247.192 224.476C243.529 224.336 241.557 220.043 240.215 216.254C238.956 212.694 237.698 209.133 236.44 205.572C235.265 202.258 233.993 198.805 231.476 196.763C227.841 193.813 222.402 194.68 218.179 197.491C213.971 200.287 210.713 204.719 207.637 209.096C205.442 212.213 202.701 215.723 199.374 215.667C196.368 215.639 194.354 212.703 192.005 210.801C186.552 206.355 178.345 207.446 172.053 211.766C165.747 216.072 161.063 223.049 157.274 230.236C153.723 236.961 150.619 245.127 148.34 252.551H298.156C298.394 249.643 297.541 246.609 295.821 244.61Z" fill="url(#paint21_linear_415_1049)"/>
<path d="M275.281 246.637C272.052 240.499 272.904 230.991 268.64 226.027C265.927 222.867 261.411 222.532 257.93 225.216C255.189 227.342 253.106 231.075 250.142 232.375C247.108 233.689 243.948 231.998 241.907 229.285C239.865 226.573 238.663 222.979 237.307 219.568C235.713 215.541 233.811 211.668 231.14 208.816C228.47 205.977 224.919 204.23 221.255 204.901C217.48 205.572 213.999 208.662 211.202 212.311C208.406 215.974 206.141 220.225 203.596 224.168C200.954 228.264 198.003 232.026 194.816 235.381C192.662 237.632 190.062 239.814 187.545 239.24C185.979 238.891 184.763 237.534 183.686 236.122C180.288 231.676 176.891 225.874 171.759 226.251C167.928 226.531 164.503 230.306 161.79 234.193C157.931 239.716 154.701 245.938 152.241 252.551H188.943L275.281 246.637Z" fill="url(#paint22_linear_415_1049)"/>
<path d="M287.823 244.959C286.467 245.379 285.138 246.134 283.782 246.064C281.881 245.966 280.51 244.246 279.671 242.442C277.882 238.555 277.658 233.927 276.847 229.593C276.036 225.245 274.316 220.77 270.695 218.925C267.116 217.093 262.432 218.407 259.02 221.246C255.609 224.098 253.288 228.251 251.526 232.459C250.701 234.431 249.96 236.472 248.729 238.206C247.499 239.94 245.639 241.338 243.724 241.296C240.201 241.212 238.746 236.808 236.411 234.151C233.685 231.033 228.959 230.222 225.072 232.18C222.597 233.424 220.444 235.661 217.829 236.276C214.222 237.129 211.02 234.64 208.434 232.138C204.617 228.432 200.702 224.21 195.416 223.679C191.068 223.245 186.552 225.51 183.015 228.754C179.463 231.998 176.751 236.164 174.108 240.289C172.22 243.253 170.081 248.455 169.312 252.551H298.002C297.247 247.616 292.409 243.547 287.823 244.959Z" fill="url(#paint23_linear_415_1049)"/>
<path fill-rule="evenodd" clip-rule="evenodd" d="M294.339 226.349C292.465 226.349 291.081 224.825 291.235 222.951C291.375 221.343 292.619 220.001 294.143 219.638L290.018 176.489C289.403 176.531 288.816 176.406 288.327 176.154L278.623 190.206L278.553 190.164C278.637 190.499 278.665 190.863 278.623 191.226C278.469 193.1 276.806 194.638 274.932 194.638C273.044 194.638 271.66 193.1 271.814 191.226C271.912 190.22 272.443 189.297 273.198 188.682L261.328 163.542C260.922 163.626 260.489 163.654 260.083 163.598L251.764 206.355C252.351 206.97 252.673 207.837 252.589 208.802C252.421 210.675 250.757 212.199 248.884 212.199C247.01 212.199 245.612 210.675 245.78 208.802C245.836 208.2 246.031 207.641 246.339 207.166L229.798 168.422C229.029 168.925 228.037 169.135 227.156 168.953L203.54 193.701C204.351 194.316 204.827 195.337 204.729 196.47C204.561 198.357 202.911 199.881 201.024 199.881C199.15 199.881 197.752 198.357 197.92 196.47C197.962 196.036 198.073 195.631 198.255 195.239L189.866 187.423C189.237 187.899 188.468 188.178 187.657 188.178C186.846 188.178 186.133 187.899 185.588 187.437L161.707 207.963C162.056 208.522 162.224 209.193 162.168 209.934C162 211.808 160.336 213.332 158.463 213.332C156.589 213.332 155.191 211.808 155.359 209.934C155.527 208.061 157.176 206.523 159.064 206.523C159.707 206.523 160.308 206.718 160.798 207.026L184.819 186.403C184.595 185.913 184.497 185.368 184.539 184.781C184.707 182.907 186.371 181.383 188.244 181.383C190.118 181.383 191.516 182.907 191.348 184.781C191.306 185.354 191.11 185.899 190.817 186.375L199.094 194.093C199.779 193.463 200.674 193.072 201.625 193.072C201.858 193.072 202.082 193.095 202.296 193.142L225.911 168.394C225.086 167.779 224.611 166.758 224.709 165.625C224.877 163.738 226.541 162.214 228.414 162.214C230.288 162.214 231.686 163.738 231.518 165.625C231.462 166.269 231.225 166.87 230.875 167.387L247.388 206.061C247.989 205.642 248.716 205.39 249.485 205.39C249.862 205.39 250.226 205.46 250.548 205.572L258.825 163.109C257.902 162.508 257.357 161.445 257.455 160.228C257.622 158.341 259.286 156.817 261.16 156.817C263.033 156.817 264.432 158.341 264.264 160.228C264.166 161.361 263.523 162.368 262.614 162.983L274.429 187.997C274.778 187.885 275.142 187.829 275.519 187.829C276.512 187.829 277.365 188.248 277.924 188.919L287.306 175.329C286.845 174.728 286.593 173.945 286.663 173.092C286.831 171.218 288.494 169.694 290.368 169.694C292.242 169.694 293.64 171.218 293.472 173.092C293.36 174.42 292.507 175.553 291.361 176.126L295.513 219.596C297.093 219.861 298.198 221.259 298.044 222.951C297.876 224.825 296.226 226.349 294.339 226.349ZM294.828 220.896C293.696 220.896 292.689 221.819 292.591 222.951C292.493 224.084 293.332 224.993 294.465 224.993C295.597 224.993 296.59 224.084 296.688 222.951C296.786 221.819 295.947 220.896 294.828 220.896ZM158.938 207.879C157.806 207.879 156.813 208.802 156.715 209.934C156.617 211.067 157.456 211.976 158.575 211.976C159.707 211.976 160.714 211.067 160.812 209.934C160.91 208.802 160.071 207.879 158.938 207.879ZM249.359 206.746C248.227 206.746 247.234 207.669 247.136 208.802C247.038 209.92 247.877 210.843 248.996 210.843C250.128 210.843 251.135 209.92 251.233 208.802C251.331 207.669 250.492 206.746 249.359 206.746ZM201.499 194.428C200.38 194.428 199.374 195.337 199.276 196.47C199.178 197.602 200.017 198.525 201.149 198.525C202.282 198.525 203.275 197.602 203.373 196.47C203.47 195.337 202.632 194.428 201.499 194.428ZM275.407 189.185C274.275 189.185 273.268 190.094 273.17 191.226C273.072 192.359 273.911 193.282 275.044 193.282C276.176 193.282 277.169 192.359 277.281 191.226C277.379 190.094 276.54 189.185 275.407 189.185ZM188.132 182.725C187 182.725 185.993 183.648 185.895 184.781C185.797 185.913 186.636 186.836 187.769 186.836C188.901 186.836 189.894 185.913 189.992 184.781C190.104 183.648 189.265 182.725 188.132 182.725ZM290.256 171.05C289.124 171.05 288.117 171.959 288.019 173.092C287.921 174.224 288.76 175.147 289.893 175.147C291.025 175.147 292.018 174.224 292.116 173.092C292.214 171.959 291.375 171.05 290.256 171.05ZM228.302 163.57C227.17 163.57 226.163 164.493 226.065 165.625C225.967 166.758 226.806 167.667 227.939 167.667C229.071 167.667 230.064 166.758 230.162 165.625C230.26 164.493 229.421 163.57 228.302 163.57ZM261.048 158.173C259.915 158.173 258.909 159.096 258.811 160.228C258.713 161.347 259.552 162.27 260.684 162.27C261.817 162.27 262.81 161.347 262.908 160.228C263.019 159.096 262.18 158.173 261.048 158.173Z" fill="url(#paint24_linear_415_1049)"/>
<path d="M241.138 259.248H235.741L235.922 257.207H241.319L241.138 259.248ZM231.868 259.248H226.471L226.652 257.221H232.049L231.868 259.248ZM221.661 259.248H170.152L170.333 257.221H221.843L221.661 259.248ZM166.069 259.248H147.753L147.92 257.221H166.251L166.069 259.248Z" fill="url(#paint25_linear_415_1049)"/>
<path d="M290.004 16.9H200.688L200.772 15.9492C201.541 7.16855 209.287 0.0517578 218.067 0.0517578H275.575C284.356 0.0517578 290.857 7.16855 290.088 15.9492L290.004 16.9Z" fill="url(#paint26_linear_415_1049)"/>
<path d="M361.592 337.687L369.575 338.33C394.519 269.777 401.049 183.774 401.049 183.774L396.896 166.059C390.52 228.6 371.463 302.299 361.592 337.687Z" fill="url(#paint27_linear_415_1049)"/>
<path d="M416.359 138.319C416.359 138.319 408.221 123.47 399.217 116.101L406.557 139.507C441.232 209.235 449.663 293.028 451.593 337.477H459.255C463.911 248.678 416.359 138.319 416.359 138.319Z" fill="url(#paint28_linear_415_1049)"/>
<path d="M399.217 116.102C389.597 108.23 378.971 108.915 376.217 145.464C370.204 225.37 359.131 337.477 359.131 337.477L361.592 337.687C371.463 302.299 390.52 228.6 396.896 166.059L401.048 183.774C427.027 239.534 448.307 337.477 448.307 337.477H451.593C449.664 293.029 441.232 209.235 406.557 139.507L399.217 116.102Z" fill="url(#paint29_linear_415_1049)"/>
<path d="M361.242 335.058L362.277 332.178C362.277 332.178 360.837 330.598 356.418 329.941C356.418 329.941 351.874 336.316 348.057 337.701C345.988 338.456 341.528 339.267 338.41 340.637C343.849 342.259 352.685 342.958 361.242 335.058Z" fill="url(#paint30_linear_415_1049)"/>
<path fill-rule="evenodd" clip-rule="evenodd" d="M373.42 332.206C373.42 332.206 370.344 335.254 361.242 335.058C352.685 342.958 343.848 342.259 338.409 340.637C337.319 341.112 336.382 341.658 335.781 342.301C335.278 342.846 334.914 343.461 334.746 344.146C334.55 344.915 335.222 345.656 336.102 345.712C341.611 346.09 363.815 347.362 374.105 346.3C376.189 346.076 377.685 344.44 377.559 342.58C377.54 342.347 377.522 342.11 377.503 341.867C377.153 337.966 375.545 334.946 373.42 332.206Z" fill="url(#paint31_linear_415_1049)"/>
<path d="M450.586 335.058L451.621 332.178C451.621 332.178 450.167 330.598 445.762 329.941C445.762 329.941 441.218 336.316 437.401 337.701C435.332 338.456 430.858 339.267 427.754 340.637C433.193 342.259 442.029 342.958 450.586 335.058Z" fill="url(#paint32_linear_415_1049)"/>
<path fill-rule="evenodd" clip-rule="evenodd" d="M462.765 332.206C462.765 332.206 459.689 335.254 450.586 335.058C442.029 342.958 433.193 342.259 427.754 340.637C426.649 341.112 425.726 341.658 425.125 342.301C424.622 342.846 424.244 343.461 424.077 344.146C423.895 344.915 424.552 345.656 425.447 345.712C430.956 346.09 453.159 347.362 463.45 346.3C465.533 346.076 467.029 344.44 466.903 342.58C466.885 342.347 466.861 342.11 466.833 341.867C466.498 337.966 464.89 334.946 462.765 332.206Z" fill="url(#paint33_linear_415_1049)"/>
<path d="M409.228 61.1388C409.186 60.6215 399.035 57.7692 399.035 57.7692L400.014 49.1423C396.281 54.8889 388.647 51.9667 388.647 51.9667L388.269 57.5315C388.269 57.5315 379.698 59.3072 378.621 60.4397C377.545 61.5862 390.324 104.678 390.912 104.623C391.485 104.567 410.668 66.396 411.046 65.7808C411.064 65.7528 411.078 65.7295 411.087 65.7109C410.92 65.9206 409.745 67.1091 409.228 61.1388Z" fill="url(#paint34_linear_415_1049)"/>
<path d="M399.86 50.5543L400.811 42.1511C400.321 43.1578 399.79 44.1645 399.189 45.1572C397.078 48.429 392.464 50.6661 388.703 51.1695L388.647 51.9664C388.647 51.9664 395.176 54.5391 399.86 50.5543Z" fill="#FF89AC"/>
<path d="M400.475 41.648C400.377 41.7319 400.321 41.7179 400.391 41.5361C400.419 41.5781 400.447 41.62 400.475 41.648Z" fill="url(#paint35_linear_415_1049)"/>
<path fill-rule="evenodd" clip-rule="evenodd" d="M380.132 27.5121C381.6 26.6732 383.347 27.8476 384.76 28.7844C387.332 30.5042 390.296 31.5808 393.289 32.3778C395.512 32.965 398.112 33.6641 398.951 35.8033C399.203 36.4605 399.259 37.2015 399.636 37.8028C400 38.418 400.881 38.8095 401.412 38.3481C401.748 38.0405 401.79 37.5231 401.803 37.0617C401.831 35.9898 401.859 34.9132 401.887 33.8319C401.915 33.8412 401.948 33.8505 401.985 33.8599C401.995 33.8878 402.004 33.9158 402.013 33.9438C402.908 33.1887 404.432 32.1401 405.397 32.7693C406.837 33.7061 406.501 36.3766 405.453 39.0192C404.907 40.3614 403.859 43.018 402.195 42.8502C401.803 42.8083 401.426 42.5985 401.062 42.2909C400.825 42.8083 400.573 43.3396 400.307 43.8709C400.251 43.9688 400.182 44.0806 400.126 44.1925C398.951 43.2976 398.21 41.7596 397.581 40.3195L392.086 43.5633C388.185 43.773 384.494 41.3122 382.033 38.0684C380.481 36.0131 379.335 33.6781 378.356 31.2452C378.384 30.3318 378.43 29.3856 378.496 28.4069C379.027 28.365 379.6 27.8197 380.132 27.5121ZM400.475 41.6478C400.447 41.6198 400.419 41.5779 400.391 41.5359C400.321 41.7177 400.377 41.7317 400.475 41.6478Z" fill="url(#paint36_linear_415_1049)"/>
<path d="M390.073 51.3932C393.974 50.8898 397.903 47.9956 400.126 44.1925C400.182 44.0806 400.252 43.9688 400.308 43.8709C400.573 43.3396 400.825 42.8083 401.063 42.2909C401.426 42.5985 401.804 42.8083 402.195 42.8502C403.859 43.018 404.908 40.3614 405.453 39.0192C406.502 36.3766 406.837 33.7061 405.397 32.7693C404.432 32.1401 402.908 33.1887 402.013 33.9438C402.004 33.9158 401.995 33.8878 401.985 33.8599C401.948 33.8505 401.915 33.8412 401.888 33.8319C401.86 34.9132 401.832 35.9898 401.804 37.0617C401.79 37.5231 401.748 38.0405 401.412 38.3481C400.881 38.8095 400 38.418 399.636 37.8028C399.259 37.2015 399.203 36.4605 398.951 35.8033C398.112 33.6641 395.512 32.965 393.289 32.3778C390.297 31.5808 387.332 30.5042 384.76 28.7844C383.348 27.8476 381.6 26.6732 380.132 27.5121C379.6 27.8197 379.027 28.365 378.496 28.4069C378.431 29.3856 378.384 30.3318 378.356 31.2452C377.811 47.7719 383.949 52.1901 390.073 51.3932Z" fill="url(#paint37_linear_415_1049)"/>
<path d="M375.797 22.0034C375.965 20.5213 376.734 19.1371 376.678 17.641C376.65 16.6483 376.245 15.6975 376.189 14.7048C376.133 13.7121 376.594 12.5236 377.531 12.3838C377.936 12.3279 378.328 12.4817 378.733 12.5516C381.166 12.9151 383.068 10.0628 385.515 9.86709C388.087 9.65736 389.961 12.3419 392.31 13.4884C394.491 14.551 397.05 14.2574 399.357 14.9285C403.174 16.0331 405.956 19.7383 407.159 23.7511C408.347 27.7779 408.473 32.0564 408.067 36.2509C407.872 38.3762 407.284 40.6133 406.18 42.403C405.089 44.1787 402.964 45.4091 401.076 44.724C400.727 44.5981 400.405 44.4164 400.126 44.1927C400.182 44.0808 400.251 43.969 400.307 43.8711C400.573 43.3398 400.825 42.8084 401.062 42.2911C401.426 42.5987 401.803 42.8084 402.195 42.8504C403.859 43.0182 404.907 40.3616 405.453 39.0194C406.501 36.3768 406.837 33.7062 405.397 32.7694C404.432 32.1403 402.908 33.1889 402.013 33.9439C401.999 33.916 401.831 35.9853 401.803 37.0619C401.789 37.5233 401.748 38.0406 401.412 38.3482C400.881 38.8096 400 38.4181 399.636 37.8029C399.259 37.2017 399.203 36.4607 398.951 35.8035C398.112 33.6643 395.512 32.9652 393.288 32.378C390.296 31.581 387.332 30.5044 384.76 28.7846C383.347 27.8478 381.6 26.6733 380.132 27.5123C379.6 27.8199 379.027 28.3651 378.496 28.4071C378.43 29.3858 378.384 30.3319 378.356 31.2454C377.783 29.8332 377.265 28.3931 376.748 26.967C376.175 25.373 375.587 23.6952 375.797 22.0034Z" fill="url(#paint38_linear_415_1049)"/>
<path d="M325.882 132.53C325.882 132.53 312.305 129.664 310.11 136.921C307.915 144.191 311.858 143.324 311.858 143.324L327.168 134.46L325.882 132.53Z" fill="url(#paint39_linear_415_1049)"/>
<path d="M421.742 120.729C421.742 120.729 429.152 131.565 423.811 136.655C418.47 141.758 417.743 137.857 417.743 137.857L419.56 120.408L421.742 120.729Z" fill="url(#paint40_linear_415_1049)"/>
<path d="M394.701 82.7548C391.303 81.091 372.861 64.1169 372.861 64.1169C372.861 64.1169 360.753 103.84 346.939 114.522C333.125 125.218 323.099 131.006 323.099 131.006L325.434 136.851C325.434 136.851 355.454 135.173 369.296 119.569C383.124 103.965 384.927 81.3287 384.927 81.3287L394.701 82.7548Z" fill="url(#paint41_linear_415_1049)"/>
<path d="M404.572 58.9015C403.02 63.0961 399.342 66.0742 395.148 66.5077C389.961 67.039 384.801 63.5994 383.081 58.1465C381.306 58.6359 378.971 59.4888 376.496 60.9988C374.636 62.1313 373.182 63.3478 372.064 64.4104C374.455 85.1176 378.048 109.88 375.979 132.81C375.83 134.488 375.666 136.152 375.489 137.801C381.502 138.892 411.549 141.688 419.434 140.43C421.224 123.036 421.588 99.2253 420.623 79.0075C420.418 74.6358 420.143 70.3434 419.798 66.1301C417.896 64.6481 411.591 60.7192 404.572 58.9015Z" fill="url(#paint42_linear_415_1049)"/>
<path d="M419.56 120.408C419.56 120.408 429.348 117.919 434.913 113.892C438.296 111.446 439.247 108.915 420.735 100.847C420.973 93.7445 420.973 86.4459 420.623 79.0076C420.413 74.6452 420.134 70.3807 419.798 66.1862L419.812 66.1582C445.511 83.9292 462.387 104.091 455.368 117.528C452.18 123.638 442.645 126.602 435.22 126.378C428.858 126.196 426.328 124.84 424.035 124.071C423.461 123.889 419.379 121.652 419.56 120.408Z" fill="url(#paint43_linear_415_1049)"/>
<path d="M15.0361 342.077L11.9321 333.394C11.9321 333.394 13.5121 330.402 12.9528 325.215L21.4678 319.231L23.3553 325.215L24.5158 340.05L15.0361 342.077Z" fill="url(#paint44_linear_415_1049)"/>
<path d="M91.9924 342.077L88.8884 333.394C88.8884 333.394 88.6507 330.528 87.4203 325.215L94.3973 320.014L104.73 337.841L91.9924 342.077Z" fill="url(#paint45_linear_415_1049)"/>
<path d="M22.3484 336.009L21.4675 333.366C21.4675 333.366 22.7119 331.912 26.487 331.311C26.487 331.311 30.374 337.169 33.6458 338.442C35.4075 339.127 39.2246 339.868 41.8951 341.126C37.2391 342.622 29.6749 343.251 22.3484 336.009Z" fill="url(#paint46_linear_415_1049)"/>
<path fill-rule="evenodd" clip-rule="evenodd" d="M8.43659 342.259C8.41794 342.482 8.40396 342.706 8.39464 342.93C8.2688 344.622 9.56913 346.132 11.3448 346.327C20.1534 347.306 39.1548 346.146 43.8667 345.796C44.6218 345.74 45.195 345.069 45.0412 344.356C44.8874 343.727 44.5798 343.167 44.1464 342.664C43.629 342.077 42.8321 341.573 41.8953 341.126C37.2393 342.622 29.6751 343.251 22.3486 336.009C14.5607 336.19 11.9321 333.394 11.9321 333.394C10.1144 335.911 8.73021 338.679 8.43659 342.259Z" fill="url(#paint47_linear_415_1049)"/>
<path d="M99.3189 336.009L98.4241 333.367C98.4241 333.367 99.6685 331.913 103.444 331.311C103.444 331.311 107.331 337.17 110.602 338.442C112.378 339.127 116.195 339.868 118.866 341.127C114.21 342.623 106.631 343.252 99.3189 336.009Z" fill="url(#paint48_linear_415_1049)"/>
<path fill-rule="evenodd" clip-rule="evenodd" d="M85.4069 342.259C85.3883 342.483 85.3697 342.706 85.351 342.93C85.2392 344.622 86.5255 346.132 88.3012 346.328C97.1098 347.307 116.125 346.146 120.837 345.796C121.592 345.741 122.151 345.069 121.998 344.356C121.858 343.727 121.536 343.168 121.103 342.665C120.599 342.077 119.802 341.574 118.866 341.126C114.21 342.623 106.631 343.252 99.3189 336.009C91.531 336.191 88.8884 333.395 88.8884 333.395C87.0708 335.911 85.7006 338.68 85.4069 342.259Z" fill="url(#paint49_linear_415_1049)"/>
<path d="M29.1017 137.438C29.1017 137.438 6.91242 218.771 12.9526 325.215H22.0968C23.5229 258.312 28.2488 148.232 43.7547 131.482L29.1017 137.438Z" fill="url(#paint50_linear_415_1049)"/>
<path d="M77.2834 135.327C66.3775 66.0044 43.7548 131.482 43.7548 131.482C28.2488 148.232 23.523 258.312 22.0968 325.215H23.8725C23.8725 325.215 53.1087 183.914 54.2831 176.545L59.3726 155.628C57.5689 178.964 91.7826 323.873 91.7826 323.873L92.5237 325.075L97.2495 324.949C97.2495 324.949 88.2032 204.663 77.2834 135.327Z" fill="url(#paint51_linear_415_1049)"/>
<path d="M59.3727 155.628L54.2833 176.545C54.2833 176.545 60.9107 268.98 87.4204 325.215L92.5238 325.075L91.7828 323.873C91.7828 323.873 57.5691 178.964 59.3727 155.628Z" fill="url(#paint52_linear_415_1049)"/>
<path d="M60.2117 54.8607L59.9041 47.6181C55.4718 47.8138 50.9696 46.1919 47.4881 42.9481C47.3623 42.8363 45.2231 42.7244 45.1112 42.6125C45.3349 46.0521 45.7124 54.4972 45.1811 55.0704C44.4541 55.8674 41.9933 56.3148 39.2388 57.5452C36.4844 58.7616 38.33 65.1933 38.33 65.1933C38.33 65.1933 45.4887 82.5868 48.6626 90.5146C50.5642 87.1869 52.8153 84.0689 56.087 82.9364C58.1983 82.1953 60.4074 82.419 62.6445 82.6847L66.0841 57.4753C66.0841 57.4753 61.0086 54.9865 60.2117 54.8607Z" fill="url(#paint53_linear_415_1049)"/>
<path d="M43.5594 35.6917C43.4755 36.4607 43.4056 37.7191 43.5314 39.285C43.5594 39.5227 43.6433 39.7744 43.7831 40.068C43.5967 39.9282 43.4149 39.7837 43.2378 39.6346L43.084 35.0625C43.3776 35.0765 43.6013 35.3561 43.5594 35.6917Z" fill="url(#paint54_linear_415_1049)"/>
<path d="M60.4495 46.5973C60.3656 46.6672 60.2677 46.7091 60.1559 46.7231L59.7225 46.765C59.5547 46.779 59.4009 46.7651 59.2471 46.779C54.7589 47.0027 50.3266 45.4507 46.8311 42.2908C46.7099 42.179 46.5888 42.0718 46.4676 41.9693C45.2652 40.8507 44.2445 39.7461 43.7831 38.8513C45.1533 39.7881 46.7752 40.3334 48.7327 40.3334C52.9692 40.3334 55.9473 38.4598 58.0446 35.8452C61.6939 35.8312 65.1195 34.9364 66.6295 32.0701C66.4757 34.9503 66.1401 37.3412 65.5389 38.5856C63.4277 43.0179 61.0927 45.996 60.4495 46.5973Z" fill="#FBB1A4"/>
<path d="M65.8464 13.8657C65.8884 14.8025 65.9723 15.963 66.0562 17.2633C66.182 17.3053 66.3218 17.3472 66.4477 17.4031L65.8464 13.8657Z" fill="url(#paint55_linear_415_1049)"/>
<path d="M43.7831 23.6811C43.7831 23.6811 43.9928 33.7481 45.6846 34.3353C46.6773 34.6848 52.8154 35.8593 58.0306 35.8453C52.8154 35.8593 45.391 33.5803 45.391 33.5803V25.261C47.5442 25.6385 50.1169 25.9881 52.7175 25.2051C54.5352 24.6598 56.0592 19.864 56.0592 19.864L62.8404 20.2975C64.0848 20.3813 65.2593 19.9339 66.1681 19.109C66.1308 18.4751 66.0935 17.8599 66.0562 17.2634C53.4306 12.5375 51.7528 25.0653 43.7831 23.6811Z" fill="url(#paint56_linear_415_1049)"/>
<path d="M52.7172 25.2052C54.5348 24.6599 56.0589 19.8641 56.0589 19.8641L62.8401 20.2976C64.0845 20.3815 65.259 19.934 66.1678 19.1091C67.0486 18.3401 67.6778 17.2355 67.8736 15.9352C68.1952 13.9358 68.3909 11.6987 68.4189 9.93698C68.4608 8.52481 67.2025 7.53209 66 7.9935C63.5672 8.9163 58.9112 9.72725 50.6619 8.09137C43.4332 6.66522 37.4629 10.0488 37.1553 15.6276C37.1553 15.6276 35.5754 32.2241 43.2375 38.4321L43.3493 41.9695C50.1305 49.5058 59.4145 49.7155 63.2316 48.6109C67.0486 47.5203 66.741 31.8606 66.741 31.8606C66.6991 31.9305 66.6572 32.0004 66.6292 32.0703C66.5593 32.1962 66.4754 32.2941 66.3915 32.4059C66.1585 32.7974 65.8835 33.1469 65.5666 33.4545C65.2403 33.7808 64.8815 34.0697 64.49 34.3214C64.0705 34.5871 63.6231 34.8388 63.1337 35.0345C62.3927 35.3141 61.5677 35.5239 60.7148 35.6497C59.848 35.7895 58.9531 35.8455 58.0443 35.8455C58.0443 35.8455 58.0396 35.8455 58.0303 35.8455C52.8151 35.8594 45.3907 33.5804 45.3907 33.5804V25.2611C47.5439 25.6387 50.1166 25.9882 52.7172 25.2052Z" fill="url(#paint57_linear_415_1049)"/>
<path fill-rule="evenodd" clip-rule="evenodd" d="M66.1683 19.1089C66.4619 23.5971 66.7975 28.9522 66.6297 32.0701C66.5598 32.196 66.4759 32.2938 66.392 32.4057C66.1589 32.7972 65.884 33.1467 65.567 33.4543C65.2501 33.7806 64.8913 34.0695 64.4904 34.3212C64.071 34.5869 63.6236 34.8385 63.1342 35.0343C62.3932 35.3139 61.5682 35.5236 60.7153 35.6495C59.8484 35.7893 58.9536 35.8452 58.0448 35.8452C58.0448 35.8452 58.0401 35.8452 58.0308 35.8452C52.8156 35.8592 45.3912 33.5802 45.3912 33.5802V25.2609C47.5444 25.6384 50.1171 25.988 52.7177 25.205C54.5353 24.6597 56.0593 19.8639 56.0593 19.8639L62.8406 20.2973C64.085 20.3812 65.2594 19.9338 66.1683 19.1089ZM43.0841 33.2306C42.5109 33.3145 41.8398 33.3005 41.5322 32.951C40.9449 32.2938 37.3096 25.3588 39.8403 24.9533C41.2385 24.7296 42.2312 24.9254 42.8464 25.1631C42.8604 25.177 42.8604 25.191 42.8744 25.205L43.2519 33.1887C43.196 33.1747 43.1401 33.2306 43.0841 33.2306Z" fill="url(#paint58_linear_415_1049)"/>
<path d="M126.024 61.7679C126.024 61.7679 125.507 57.084 127.324 53.8402C129.142 50.5964 135.518 48.1216 135.518 48.1216C135.518 48.1216 139.67 50.4566 139.67 51.3654C139.67 52.2882 127.982 59.0415 127.716 61.7679H126.024Z" fill="url(#paint59_linear_415_1049)"/>
<path d="M5.23463 171.078C5.23463 171.078 8.35259 174.602 8.71612 178.307C9.09363 182.012 5.30454 187.689 5.30454 187.689C5.30454 187.689 0.564675 188.164 0.0333623 187.423C-0.483968 186.682 5.20667 174.434 3.85042 172.043L5.23463 171.078Z" fill="url(#paint60_linear_415_1049)"/>
<path d="M31.1571 67.8782L16.0706 68.0739C16.0706 68.0739 -2.3855 96.7368 2.03278 173.665H9.0517C9.0517 173.665 23.6069 108.943 28.8081 99.8548C34.0094 90.7526 31.1571 67.8782 31.1571 67.8782Z" fill="url(#paint61_linear_415_1049)"/>
<path d="M59.3726 81.1329L82.7503 65.3473C82.7503 65.3473 99.249 88.1518 109.917 81.1329C120.571 74.114 124.472 60.3418 124.472 60.3418C126.723 60.3418 127.87 60.3418 130.121 60.3418C130.121 86.5439 119.341 111.012 100.815 112.327C87.2804 113.291 72.5295 102.693 65.7203 86.0685L59.3726 81.1329Z" fill="url(#paint62_linear_415_1049)"/>
<path d="M56.0728 116.996C63.1197 122.673 70.4183 126.476 77.1436 129.021C77.1016 118.241 77.7448 95.2126 82.7503 65.3472C82.7503 65.3472 76.8639 59.1113 65.5665 55.7976C65.5665 55.7976 64.1963 66.1862 53.4862 66.5637C42.776 66.9272 41.0982 55.7976 41.0982 55.7976C41.0982 55.7976 33.6179 57.2657 26.7108 60.2299C28.3048 74.841 34.303 99.4771 56.0728 116.996Z" fill="url(#paint63_linear_415_1049)"/>
<path d="M56.0728 116.997C34.303 99.4772 28.3047 74.8411 26.7108 60.23C22.1247 62.1874 17.7903 64.8021 16.0706 68.0738C16.0706 68.0738 26.2074 115.64 29.1017 137.871C29.1017 137.871 58.7713 142.933 77.2833 135.718C77.2833 135.718 77.1575 133.355 77.1435 129.021C70.4182 126.476 63.1197 122.673 56.0728 116.997Z" fill="url(#paint64_linear_415_1049)"/>
<defs>
<linearGradient id="paint0_linear_415_1049" x1="290.691" y1="265.913" x2="281.922" y2="349.222" gradientUnits="userSpaceOnUse">
<stop offset="0.01" stop-color="#4258A2"/>
<stop offset="1" stop-color="#3B2862"/>
</linearGradient>
<linearGradient id="paint1_linear_415_1049" x1="153.139" y1="9.13468" x2="338.913" y2="9.13468" gradientUnits="userSpaceOnUse">
<stop offset="0.01" stop-color="#4258A2"/>
<stop offset="1" stop-color="#3B2862"/>
</linearGradient>
<linearGradient id="paint2_linear_415_1049" x1="241.384" y1="65.8418" x2="308.568" y2="-3.68703" gradientUnits="userSpaceOnUse">
<stop stop-color="white"/>
<stop offset="1" stop-color="#FABEF7"/>
</linearGradient>
<linearGradient id="paint3_linear_415_1049" x1="213.926" y1="36.5127" x2="265.6" y2="36.5127" gradientUnits="userSpaceOnUse">
<stop offset="0.01" stop-color="#F4ED79"/>
<stop offset="1" stop-color="#FFA100"/>
</linearGradient>
<linearGradient id="paint4_linear_415_1049" x1="216.956" y1="100.073" x2="299.076" y2="100.073" gradientUnits="userSpaceOnUse">
<stop offset="0.01" stop-color="#FF9917"/>
<stop offset="1" stop-color="#FF592E"/>
</linearGradient>
<linearGradient id="paint5_linear_415_1049" x1="285.722" y1="71.0769" x2="314.25" y2="71.0769" gradientUnits="userSpaceOnUse">
<stop stop-color="#FFA6F4"/>
<stop offset="1" stop-color="#8299F8"/>
</linearGradient>
<linearGradient id="paint6_linear_415_1049" x1="279.211" y1="90.1064" x2="312.375" y2="90.1064" gradientUnits="userSpaceOnUse">
<stop offset="0.01" stop-color="#4258A2"/>
<stop offset="1" stop-color="#3B2862"/>
</linearGradient>
<linearGradient id="paint7_linear_415_1049" x1="168.549" y1="37.8886" x2="177.386" y2="37.8886" gradientUnits="userSpaceOnUse">
<stop offset="0.01" stop-color="#F4ED79"/>
<stop offset="1" stop-color="#FFA100"/>
</linearGradient>
<linearGradient id="paint8_linear_415_1049" x1="182.024" y1="39.3222" x2="211.749" y2="39.3222" gradientUnits="userSpaceOnUse">
<stop stop-color="#FFA6F4"/>
<stop offset="1" stop-color="#8299F8"/>
</linearGradient>
<linearGradient id="paint9_linear_415_1049" x1="181.66" y1="43.4811" x2="201.685" y2="43.4811" gradientUnits="userSpaceOnUse">
<stop stop-color="#FFA6F4"/>
<stop offset="1" stop-color="#8299F8"/>
</linearGradient>
<linearGradient id="paint10_linear_415_1049" x1="167.177" y1="53.5693" x2="176.014" y2="53.5693" gradientUnits="userSpaceOnUse">
<stop offset="0.01" stop-color="#FF9917"/>
<stop offset="1" stop-color="#FF592E"/>
</linearGradient>
<linearGradient id="paint11_linear_415_1049" x1="180.652" y1="55.0034" x2="200.677" y2="55.0034" gradientUnits="userSpaceOnUse">
<stop stop-color="#FFA6F4"/>
<stop offset="1" stop-color="#8299F8"/>
</linearGradient>
<linearGradient id="paint12_linear_415_1049" x1="180.288" y1="59.162" x2="200.313" y2="59.162" gradientUnits="userSpaceOnUse">
<stop stop-color="#FFA6F4"/>
<stop offset="1" stop-color="#8299F8"/>
</linearGradient>
<linearGradient id="paint13_linear_415_1049" x1="165.806" y1="69.2503" x2="174.642" y2="69.2503" gradientUnits="userSpaceOnUse">
<stop stop-color="#FFA6F4"/>
<stop offset="1" stop-color="#8299F8"/>
</linearGradient>
<linearGradient id="paint14_linear_415_1049" x1="179.325" y1="70.1723" x2="199.349" y2="70.1723" gradientUnits="userSpaceOnUse">
<stop stop-color="white"/>
<stop offset="1" stop-color="#FABEF7"/>
</linearGradient>
<linearGradient id="paint15_linear_415_1049" x1="178.961" y1="74.3307" x2="198.986" y2="74.3307" gradientUnits="userSpaceOnUse">
<stop stop-color="white"/>
<stop offset="1" stop-color="#FABEF7"/>
</linearGradient>
<linearGradient id="paint16_linear_415_1049" x1="441.297" y1="241.785" x2="415.376" y2="280.772" gradientUnits="userSpaceOnUse">
<stop offset="0.01" stop-color="#F4ED79"/>
<stop offset="1" stop-color="#FFA100"/>
</linearGradient>
<linearGradient id="paint17_linear_415_1049" x1="117.175" y1="182.78" x2="106.34" y2="160.663" gradientUnits="userSpaceOnUse">
<stop offset="0.01" stop-color="#FF9917"/>
<stop offset="1" stop-color="#FF592E"/>
</linearGradient>
<linearGradient id="paint18_linear_415_1049" x1="178.889" y1="102.819" x2="182.718" y2="102.819" gradientUnits="userSpaceOnUse">
<stop offset="0.01" stop-color="#4258A2"/>
<stop offset="1" stop-color="#3B2862"/>
</linearGradient>
<linearGradient id="paint19_linear_415_1049" x1="229.476" y1="151.209" x2="217.041" y2="169.913" gradientUnits="userSpaceOnUse">
<stop stop-color="white"/>
<stop offset="1" stop-color="#FABEF7"/>
</linearGradient>
<linearGradient id="paint20_linear_415_1049" x1="-33.6615" y1="248.212" x2="-50.4942" y2="213.85" gradientUnits="userSpaceOnUse">
<stop stop-color="#FFA6F4"/>
<stop offset="1" stop-color="#8299F8"/>
</linearGradient>
<linearGradient id="paint21_linear_415_1049" x1="153.388" y1="194.927" x2="303.204" y2="194.927" gradientUnits="userSpaceOnUse">
<stop stop-color="#FFA6F4"/>
<stop offset="1" stop-color="#8299F8"/>
</linearGradient>
<linearGradient id="paint22_linear_415_1049" x1="156.429" y1="204.757" x2="278.949" y2="204.757" gradientUnits="userSpaceOnUse">
<stop offset="0.01" stop-color="#F4ED79"/>
<stop offset="1" stop-color="#FFA100"/>
</linearGradient>
<linearGradient id="paint23_linear_415_1049" x1="172.335" y1="218.082" x2="301.021" y2="218.082" gradientUnits="userSpaceOnUse">
<stop offset="0.01" stop-color="#4258A2"/>
<stop offset="1" stop-color="#3B2862"/>
</linearGradient>
<linearGradient id="paint24_linear_415_1049" x1="160.004" y1="156.82" x2="303.831" y2="156.82" gradientUnits="userSpaceOnUse">
<stop stop-color="#FFA6F4"/>
<stop offset="1" stop-color="#8299F8"/>
</linearGradient>
<linearGradient id="paint25_linear_415_1049" x1="143.532" y1="257.213" x2="220.85" y2="257.213" gradientUnits="userSpaceOnUse">
<stop stop-color="#FFA6F4"/>
<stop offset="1" stop-color="#8299F8"/>
</linearGradient>
<linearGradient id="paint26_linear_415_1049" x1="202.162" y1="0.0517578" x2="291.478" y2="0.0517578" gradientUnits="userSpaceOnUse">
<stop offset="0.01" stop-color="#F4ED79"/>
<stop offset="1" stop-color="#FFA100"/>
</linearGradient>
<linearGradient id="paint27_linear_415_1049" x1="150.802" y1="-40.2994" x2="44.122" y2="144.475" gradientUnits="userSpaceOnUse">
<stop offset="0.01" stop-color="#4258A2"/>
<stop offset="1" stop-color="#3B2862"/>
</linearGradient>
<linearGradient id="paint28_linear_415_1049" x1="153.699" y1="-72.219" x2="10.2079" y2="176.313" gradientUnits="userSpaceOnUse">
<stop offset="0.01" stop-color="#4258A2"/>
<stop offset="1" stop-color="#3B2862"/>
</linearGradient>
<linearGradient id="paint29_linear_415_1049" x1="226.617" y1="-26.1132" x2="106.327" y2="182.235" gradientUnits="userSpaceOnUse">
<stop offset="0.01" stop-color="#4258A2"/>
<stop offset="1" stop-color="#3B2862"/>
</linearGradient>
<linearGradient id="paint30_linear_415_1049" x1="358.995" y1="347.825" x2="335.548" y2="335.309" gradientUnits="userSpaceOnUse">
<stop stop-color="#0171E3"/>
<stop offset="1" stop-color="#8299F8"/>
</linearGradient>
<linearGradient id="paint31_linear_415_1049" x1="334.712" y1="332.207" x2="377.564" y2="332.207" gradientUnits="userSpaceOnUse">
<stop stop-color="#0171E3"/>
<stop offset="1" stop-color="#8299F8"/>
</linearGradient>
<linearGradient id="paint32_linear_415_1049" x1="448.335" y1="347.825" x2="424.888" y2="335.309" gradientUnits="userSpaceOnUse">
<stop stop-color="#0171E3"/>
<stop offset="1" stop-color="#8299F8"/>
</linearGradient>
<linearGradient id="paint33_linear_415_1049" x1="424.052" y1="332.207" x2="466.904" y2="332.207" gradientUnits="userSpaceOnUse">
<stop stop-color="#0171E3"/>
<stop offset="1" stop-color="#8299F8"/>
</linearGradient>
<linearGradient id="paint34_linear_415_1049" x1="378.559" y1="49.14" x2="411.083" y2="49.14" gradientUnits="userSpaceOnUse">
<stop offset="0.01" stop-color="#FF9EB1"/>
<stop offset="1" stop-color="#FBD2E3"/>
</linearGradient>
<linearGradient id="paint35_linear_415_1049" x1="400.362" y1="41.7008" x2="400.481" y2="41.7008" gradientUnits="userSpaceOnUse">
<stop offset="0.01" stop-color="#4258A2"/>
<stop offset="1" stop-color="#3B2862"/>
</linearGradient>
<linearGradient id="paint36_linear_415_1049" x1="406.357" y1="44.1869" x2="378.35" y2="44.1869" gradientUnits="userSpaceOnUse">
<stop offset="0.01" stop-color="#4258A2"/>
<stop offset="1" stop-color="#3B2862"/>
</linearGradient>
<linearGradient id="paint37_linear_415_1049" x1="378.28" y1="27.2303" x2="406.357" y2="27.2303" gradientUnits="userSpaceOnUse">
<stop offset="0.01" stop-color="#FF9EB1"/>
<stop offset="1" stop-color="#FBD2E3"/>
</linearGradient>
<linearGradient id="paint38_linear_415_1049" x1="408.276" y1="9.85828" x2="375.752" y2="9.85828" gradientUnits="userSpaceOnUse">
<stop offset="0.01" stop-color="#4258A2"/>
<stop offset="1" stop-color="#3B2862"/>
</linearGradient>
<linearGradient id="paint39_linear_415_1049" x1="254.031" y1="107.371" x2="330.76" y2="147.456" gradientUnits="userSpaceOnUse">
<stop offset="0.01" stop-color="#FF9EB1"/>
<stop offset="1" stop-color="#FBD2E3"/>
</linearGradient>
<linearGradient id="paint40_linear_415_1049" x1="469.256" y1="174.464" x2="407.384" y2="122.706" gradientUnits="userSpaceOnUse">
<stop offset="0.01" stop-color="#FF9EB1"/>
<stop offset="1" stop-color="#FBD2E3"/>
</linearGradient>
<linearGradient id="paint41_linear_415_1049" x1="307.971" y1="68.9396" x2="391.137" y2="50.2105" gradientUnits="userSpaceOnUse">
<stop stop-color="#1D1D1F"/>
<stop offset="1" stop-color="#0171E3"/>
</linearGradient>
<linearGradient id="paint42_linear_415_1049" x1="301.347" y1="99.1223" x2="349.466" y2="182.468" gradientUnits="userSpaceOnUse">
<stop stop-color="#1D1D1F"/>
<stop offset="1" stop-color="#0171E3"/>
</linearGradient>
<linearGradient id="paint43_linear_415_1049" x1="630.636" y1="-73.002" x2="357.814" y2="84.5117" gradientUnits="userSpaceOnUse">
<stop stop-color="#1D1D1F"/>
<stop offset="1" stop-color="#0171E3"/>
</linearGradient>
<linearGradient id="paint44_linear_415_1049" x1="45.2539" y1="331.198" x2="32.2102" y2="353.79" gradientUnits="userSpaceOnUse">
<stop offset="0.01" stop-color="#FFA1B4"/>
<stop offset="1" stop-color="#FBD2E3"/>
</linearGradient>
<linearGradient id="paint45_linear_415_1049" x1="118.349" y1="327.879" x2="104.468" y2="351.921" gradientUnits="userSpaceOnUse">
<stop offset="0.01" stop-color="#FFA1B4"/>
<stop offset="1" stop-color="#FBD2E3"/>
</linearGradient>
<linearGradient id="paint46_linear_415_1049" x1="41.8961" y1="331.314" x2="21.4659" y2="331.314" gradientUnits="userSpaceOnUse">
<stop offset="0.01" stop-color="#F3CA8E"/>
<stop offset="1" stop-color="#FF8000"/>
</linearGradient>
<linearGradient id="paint47_linear_415_1049" x1="8.38402" y1="333.389" x2="45.0615" y2="333.389" gradientUnits="userSpaceOnUse">
<stop offset="0.01" stop-color="#FF8417"/>
<stop offset="1" stop-color="#FF592E"/>
</linearGradient>
<linearGradient id="paint48_linear_415_1049" x1="118.86" y1="331.314" x2="98.4294" y2="331.314" gradientUnits="userSpaceOnUse">
<stop offset="0.01" stop-color="#F3CA8E"/>
<stop offset="1" stop-color="#FF8000"/>
</linearGradient>
<linearGradient id="paint49_linear_415_1049" x1="85.3474" y1="333.389" x2="122.025" y2="333.389" gradientUnits="userSpaceOnUse">
<stop offset="0.01" stop-color="#FF8417"/>
<stop offset="1" stop-color="#FF592E"/>
</linearGradient>
<linearGradient id="paint50_linear_415_1049" x1="-371.68" y1="-58.3811" x2="-233.933" y2="-196.128" gradientUnits="userSpaceOnUse">
<stop offset="0.01" stop-color="#4258A2"/>
<stop offset="1" stop-color="#3B2862"/>
</linearGradient>
<linearGradient id="paint51_linear_415_1049" x1="-238.562" y1="74.7929" x2="-85.0161" y2="-78.7531" gradientUnits="userSpaceOnUse">
<stop offset="0.01" stop-color="#4258A2"/>
<stop offset="1" stop-color="#3B2862"/>
</linearGradient>
<linearGradient id="paint52_linear_415_1049" x1="-263.641" y1="116.643" x2="-62.3053" y2="-84.6923" gradientUnits="userSpaceOnUse">
<stop offset="0.01" stop-color="#4258A2"/>
<stop offset="1" stop-color="#3B2862"/>
</linearGradient>
<linearGradient id="paint53_linear_415_1049" x1="37.7254" y1="42.6075" x2="66.0862" y2="42.6075" gradientUnits="userSpaceOnUse">
<stop offset="0.01" stop-color="#FFA1B4"/>
<stop offset="1" stop-color="#FBD2E3"/>
</linearGradient>
<linearGradient id="paint54_linear_415_1049" x1="43.7895" y1="35.0565" x2="43.0869" y2="35.0565" gradientUnits="userSpaceOnUse">
<stop stop-color="#5E463D"/>
<stop offset="1" stop-color="#B3756D"/>
</linearGradient>
<linearGradient id="paint55_linear_415_1049" x1="65.8438" y1="13.8589" x2="66.4541" y2="13.8589" gradientUnits="userSpaceOnUse">
<stop offset="0.01" stop-color="#FFA1B4"/>
<stop offset="1" stop-color="#FBD2E3"/>
</linearGradient>
<linearGradient id="paint56_linear_415_1049" x1="43.7895" y1="16.1901" x2="66.6701" y2="16.1901" gradientUnits="userSpaceOnUse">
<stop offset="0.01" stop-color="#FFA1B4"/>
<stop offset="1" stop-color="#FBD2E3"/>
</linearGradient>
<linearGradient id="paint57_linear_415_1049" x1="27.5173" y1="7.76475" x2="71.5848" y2="7.76475" gradientUnits="userSpaceOnUse">
<stop offset="0.01" stop-color="#4258A2"/>
<stop offset="1" stop-color="#3B2862"/>
</linearGradient>
<linearGradient id="paint58_linear_415_1049" x1="36.8742" y1="19.1122" x2="66.6702" y2="19.1122" gradientUnits="userSpaceOnUse">
<stop offset="0.01" stop-color="#FFA1B4"/>
<stop offset="1" stop-color="#FBD2E3"/>
</linearGradient>
<linearGradient id="paint59_linear_415_1049" x1="119.169" y1="54.9807" x2="132.85" y2="41.2997" gradientUnits="userSpaceOnUse">
<stop offset="0.01" stop-color="#FFA1B4"/>
<stop offset="1" stop-color="#FBD2E3"/>
</linearGradient>
<linearGradient id="paint60_linear_415_1049" x1="14.7458" y1="172.693" x2="11.4067" y2="191.75" gradientUnits="userSpaceOnUse">
<stop offset="0.01" stop-color="#FFA1B4"/>
<stop offset="1" stop-color="#FBD2E3"/>
</linearGradient>
<linearGradient id="paint61_linear_415_1049" x1="-135.401" y1="36.9157" x2="-67.2151" y2="-31.2706" gradientUnits="userSpaceOnUse">
<stop offset="0.01" stop-color="#FF9917"/>
<stop offset="1" stop-color="#FF592E"/>
</linearGradient>
<linearGradient id="paint62_linear_415_1049" x1="41.4666" y1="94.4781" x2="102.863" y2="33.0821" gradientUnits="userSpaceOnUse">
<stop offset="0.01" stop-color="#FF9917"/>
<stop offset="1" stop-color="#FF592E"/>
</linearGradient>
<linearGradient id="paint63_linear_415_1049" x1="-58.4654" y1="121.147" x2="44.8185" y2="17.863" gradientUnits="userSpaceOnUse">
<stop offset="0.01" stop-color="#FF9917"/>
<stop offset="1" stop-color="#FF592E"/>
</linearGradient>
<linearGradient id="paint64_linear_415_1049" x1="-34.0336" y1="89.488" x2="83.8256" y2="-28.3713" gradientUnits="userSpaceOnUse">
<stop offset="0.01" stop-color="#FF9917"/>
<stop offset="1" stop-color="#FF592E"/>
</linearGradient>
</defs>
</svg>
