<svg width="614" height="359" viewBox="0 0 614 359" fill="none" xmlns="http://www.w3.org/2000/svg">
<path fill-rule="evenodd" clip-rule="evenodd" d="M182.91 0C84.8089 0 5.28247 79.5264 5.28247 177.628C5.28247 275.729 84.8089 355.256 182.91 355.256H469.399V354.885C539.229 349.757 594.291 291.482 594.291 220.341C594.291 145.83 533.888 85.4266 459.377 85.4266C437.556 85.4266 416.949 90.6136 398.711 99.8119C383.595 92.9731 366.815 89.1645 349.145 89.1645C345.148 89.1645 341.197 89.3643 337.301 89.7447C306.723 36.1403 249.04 0 182.91 0Z" fill="#ECF5FF"/>
<path d="M613.77 355.156H0.229736V356.127H613.77V355.156Z" fill="#000446"/>
<path fill-rule="evenodd" clip-rule="evenodd" d="M534.947 88.1732L532.415 87.6564C531.356 87.4396 530.56 86.5463 530.489 85.4696C530.348 83.3853 529.947 81.3564 529.312 79.4142C528.979 78.3851 529.381 77.2586 530.284 76.6648L532.438 75.2354C533.557 74.4978 533.867 72.9915 533.129 71.8729L530.397 67.7434C529.657 66.6242 528.149 66.3191 527.032 67.0584L524.874 68.4838C523.97 69.081 522.778 69.0102 521.964 68.2992C520.426 66.9542 518.714 65.7915 516.852 64.8467C515.888 64.3582 515.381 63.2781 515.599 62.2167L516.113 59.6846C516.383 58.3708 515.533 57.0903 514.22 56.8203L509.368 55.8313C508.055 55.5613 506.774 56.4104 506.504 57.7237L505.988 60.2558C505.771 61.3144 504.88 62.112 503.802 62.1844C501.719 62.3243 499.69 62.725 497.749 63.3574C496.719 63.6959 495.593 63.2906 494.997 62.3877L493.571 60.2315C492.831 59.1129 491.325 58.8044 490.209 59.5471L486.077 62.2756C484.958 63.0149 484.654 64.5218 485.392 65.6409L486.818 67.7977C487.415 68.7006 487.344 69.8956 486.631 70.7073C485.289 72.2471 484.125 73.9595 483.178 75.8191C482.693 76.7842 481.61 77.2909 480.551 77.0769L478.019 76.5595C476.705 76.29 475.424 77.1386 475.155 78.453L474.166 83.3038C473.898 84.6188 474.746 85.8992 476.059 86.1681L478.59 86.6844C479.649 86.9018 480.444 87.7905 480.519 88.8723C480.656 90.9521 481.059 92.982 481.692 94.9231C482.031 95.954 481.626 97.0793 480.725 97.6777L478.567 99.1019C477.447 99.8407 477.142 101.349 477.882 102.466L480.608 106.595C481.349 107.714 482.857 108.019 483.976 107.281L486.129 105.854C487.036 105.257 488.227 105.327 489.042 106.042C490.581 107.384 492.292 108.55 494.152 109.491C495.117 109.979 495.628 111.063 495.411 112.122L494.895 114.653C494.624 115.967 495.473 117.25 496.787 117.518L501.638 118.509C502.948 118.775 504.232 117.927 504.503 116.613L505.017 114.081C505.233 113.022 506.125 112.228 507.207 112.153C509.287 112.014 511.316 111.612 513.257 110.98C514.286 110.644 515.411 111.046 516.009 111.949L517.434 114.105C518.175 115.224 519.682 115.532 520.801 114.794L524.93 112.061C526.049 111.322 526.357 109.816 525.616 108.696L524.189 106.539C523.593 105.636 523.663 104.445 524.374 103.628C525.722 102.092 526.884 100.38 527.827 98.5183C528.318 97.5543 529.394 97.0454 530.455 97.2633L532.99 97.7784C534.303 98.0479 535.587 97.1999 535.854 95.8855L536.842 91.0342C537.11 89.7214 536.261 88.4393 534.947 88.1732ZM496.92 78.8861C501.495 74.1463 509.045 74.0121 513.785 78.5866C518.526 83.1611 518.659 90.7115 514.085 95.4519C509.51 100.192 501.96 100.326 497.22 95.7519C492.48 91.1774 492.346 83.6264 496.92 78.8861Z" fill="#C3DCFA"/>
<path fill-rule="evenodd" clip-rule="evenodd" d="M474.203 105.879L472.642 104.891C471.99 104.478 471.683 103.679 471.909 102.942C472.343 101.514 472.59 100.056 472.658 98.5977C472.697 97.8256 473.25 97.1746 474.004 97.007L475.806 96.5972C476.74 96.3877 477.329 95.4605 477.12 94.5259L476.342 91.0739C476.131 90.1393 475.2 89.5523 474.266 89.7635L472.463 90.1694C471.708 90.3392 470.929 89.9893 470.566 89.3078C469.879 88.0194 469.03 86.8085 468.025 85.7052C467.505 85.1341 467.439 84.2838 467.854 83.63L468.84 82.0682C469.353 81.2587 469.11 80.1871 468.301 79.6742L465.31 77.7835C464.501 77.2706 463.43 77.5129 462.917 78.3219L461.93 79.8831C461.517 80.5352 460.719 80.8426 459.981 80.6179C458.554 80.1831 457.096 79.9363 455.639 79.8667C454.864 79.831 454.215 79.2757 454.045 78.5205L453.64 76.7182C453.429 75.7836 452.501 75.196 451.566 75.4088L448.113 76.1849C447.178 76.3955 446.593 77.325 446.802 78.2596L447.208 80.062C447.378 80.8171 447.028 81.5972 446.346 81.9589C445.059 82.6473 443.847 83.497 442.742 84.4989C442.174 85.0209 441.322 85.0848 440.668 84.6733L439.108 83.6855C438.298 83.1726 437.227 83.4149 436.714 84.2244L434.823 87.215C434.311 88.0256 434.552 89.0961 435.362 89.6089L436.922 90.5956C437.575 91.0094 437.88 91.8053 437.656 92.5463C437.22 93.9711 436.975 95.4294 436.906 96.887C436.871 97.6614 436.315 98.3107 435.561 98.4822L433.757 98.8864C432.822 99.0964 432.235 100.027 432.447 100.961L433.222 104.411C433.433 105.347 434.363 105.933 435.299 105.724L437.099 105.316C437.856 105.147 438.634 105.495 438.998 106.18C439.686 107.467 440.534 108.68 441.537 109.78C442.058 110.35 442.125 111.205 441.712 111.857L440.725 113.418C440.212 114.227 440.453 115.3 441.263 115.812L444.253 117.704C445.062 118.214 446.135 117.973 446.648 117.164L447.634 115.602C448.047 114.95 448.844 114.645 449.586 114.869C451.011 115.303 452.469 115.55 453.926 115.619C454.698 115.655 455.349 116.209 455.519 116.964L455.924 118.767C456.135 119.702 457.064 120.29 457.999 120.08L461.451 119.301C462.386 119.092 462.974 118.163 462.762 117.226L462.356 115.423C462.186 114.669 462.535 113.891 463.217 113.525C464.507 112.84 465.718 111.992 466.82 110.986C467.392 110.466 468.241 110.399 468.894 110.813L470.458 111.8C471.267 112.313 472.34 112.072 472.852 111.262L474.742 108.27C475.256 107.462 475.014 106.39 474.203 105.879ZM451.148 90.0318C455.406 88.0245 460.486 89.8489 462.493 94.1076C464.5 98.3656 462.676 103.445 458.417 105.453C454.159 107.46 449.079 105.636 447.072 101.377C445.065 97.1191 446.889 92.0397 451.148 90.0318Z" fill="#C3DCFA"/>
<mask id="mask0_2228_2059" style="mask-type:luminance" maskUnits="userSpaceOnUse" x="4" y="172" width="113" height="73">
<path d="M18.2106 172.682C47.4707 234.812 76.7218 228.116 116.093 228.347L116.528 228.349L116.467 244.003L116.032 244C72.6438 243.745 37.4839 250.407 4.03027 179.373L18.2106 172.682Z" fill="white"/>
</mask>
<g mask="url(#mask0_2228_2059)">
<path d="M116.528 172.682H4.03101V250.407H116.528V172.682Z" fill="url(#paint0_linear_2228_2059)"/>
</g>
<mask id="mask1_2228_2059" style="mask-type:luminance" maskUnits="userSpaceOnUse" x="67" y="207" width="138" height="152">
<path d="M170.875 233.927C174.053 247.875 191.881 280.343 191.995 296.33C192.113 312.925 190.888 323.16 189.847 338.941C189.659 341.789 190.133 345.277 193.204 346.95C196.01 348.483 201.615 349.741 203.276 351.328C204.472 352.473 209.055 358.958 192.656 358.526C181.005 358.22 178.229 357.408 176.982 355.518C176.886 355.373 173.502 330.448 172.051 304.893C171.525 295.625 149.459 265.418 147.927 262.881C146.912 267.413 132.838 304.073 120.258 316.327C101.847 334.26 83.9828 347.989 83.9856 348.013C84.1787 349.416 83.1405 350.503 85.2163 352.821C85.852 355.095 87.3731 359.096 76.0781 358.997C64.7825 358.9 67.9305 351.323 67.8914 350.635C69.9701 336.242 86.9904 319.518 103.382 304.178C114.376 293.89 116.464 247.201 117.637 231.686C117.639 231.688 132.664 231.471 140.857 226.844C153.308 219.811 160.999 191.197 158.671 220.646C158.234 226.165 168.936 226.317 170.875 233.927Z" fill="white"/>
</mask>
<g mask="url(#mask1_2228_2059)">
<path d="M209.054 191.199H64.782V359.098H209.054V191.199Z" fill="url(#paint1_linear_2228_2059)"/>
</g>
<mask id="mask2_2228_2059" style="mask-type:luminance" maskUnits="userSpaceOnUse" x="148" y="156" width="49" height="47">
<path d="M149.959 174.83C154.274 182.83 161.494 190.534 166.687 200.247C170.371 207.139 185.46 194.419 189.277 195.777C192.429 196.897 196.282 189.623 196.103 184.335C196.881 182.437 178.974 194.395 176.188 187.034C169.971 170.608 161.991 159.269 151.481 156.942C150.292 156.265 146.327 169.958 149.959 174.83Z" fill="white"/>
</mask>
<g mask="url(#mask2_2228_2059)">
<path d="M196.882 156.264H146.328V207.138H196.882V156.264Z" fill="url(#paint2_linear_2228_2059)"/>
</g>
<mask id="mask3_2228_2059" style="mask-type:luminance" maskUnits="userSpaceOnUse" x="76" y="155" width="98" height="93">
<path d="M113.159 192.112C115.491 202.38 119.246 228.564 119.234 246.273C140.683 248.766 160.91 246.509 173.381 241.777C172.024 227.785 172.507 160.27 151.481 156.943C137.208 153.768 118.421 156.039 111.05 164.144C100.342 172.65 87.3705 192.18 82.0443 204.688C77.0911 216.32 76.3156 230.17 76.4429 231.83C76.8386 236.983 81.5252 237.291 84.0386 236.079C86.8701 234.714 86.3527 223.894 94.8626 210.637C99.5922 203.269 109.741 196.168 113.159 192.112Z" fill="white"/>
</mask>
<g mask="url(#mask3_2228_2059)">
<path d="M173.381 153.768H76.3152V248.766H173.381V153.768Z" fill="url(#paint3_linear_2228_2059)"/>
</g>
<path fill-rule="evenodd" clip-rule="evenodd" d="M113.158 192.111C115.387 202.56 117.861 223.653 118.188 236.901C123.007 222.783 118.406 192.156 117.021 186.646C115.263 189.482 114.474 188.92 113.158 192.111Z" fill="#0C53B5"/>
<path fill-rule="evenodd" clip-rule="evenodd" d="M146.924 145.247C145.592 148.303 143.623 150.711 141.35 151.956L141.664 156.274L142.323 156.775C144.93 159.28 142.558 164.843 139.744 164.829C132.67 165.565 126.908 160.044 128.869 156.772L129.739 155.689L129.61 149.561C129.243 149.56 126.497 148.191 125.691 147.991C124.886 147.789 123.639 146.326 123.473 144.716C123.308 143.108 125.828 143.494 125.828 143.494C122.584 139.527 118.982 136.338 123.212 132.377C127.443 128.415 137.508 125.69 137.508 125.69L143.521 123.232C142.856 125.39 144.283 132.388 146.096 136.707C147.72 140.583 148.712 141.144 146.924 145.247Z" fill="#F7AAAC"/>
<path fill-rule="evenodd" clip-rule="evenodd" d="M132.544 150.254C132.544 150.254 136.334 156.01 139.211 156.394C142.087 156.778 140.611 156.459 141.665 156.275L141.35 151.957C139.405 152.378 137.476 152.328 132.544 150.254Z" fill="#EA8287"/>
<mask id="mask4_2228_2059" style="mask-type:luminance" maskUnits="userSpaceOnUse" x="117" y="117" width="30" height="32">
<path d="M142.942 132.436C137.989 135.324 131.953 132.547 129.176 136.202C127.8 138.013 128.084 140.501 129.939 144.265C130.486 145.373 131.179 146.175 129.213 145.39C128.311 145.031 126.83 144.54 126.356 144.966C125.302 145.917 125.96 147.759 126.873 148.314C127.28 148.562 128.045 148.923 128.045 148.923C121.121 147.997 117.928 141.969 117.754 136.985C117.695 135.296 117.802 133.785 118.049 132.433C117.883 131.982 117.78 131.497 117.753 130.989C117.635 128.827 118.914 126.928 120.767 126.251C120.995 123.974 122.768 122.15 125.019 122.028C125.696 121.99 126.347 122.112 126.94 122.361L127.163 122.289C127.909 120.831 129.401 119.796 131.169 119.699C132.408 119.632 133.563 120.038 134.452 120.759C135.609 118.992 137.438 117.808 139.551 117.693C143.312 117.488 146.547 120.75 146.777 124.979C146.922 127.625 145.854 130.023 144.113 131.497C143.764 131.838 143.375 132.154 142.942 132.436Z" fill="white"/>
</mask>
<g mask="url(#mask4_2228_2059)">
<path d="M146.921 117.488H117.635V148.923H146.921V117.488Z" fill="url(#paint4_linear_2228_2059)"/>
</g>
<mask id="mask5_2228_2059" style="mask-type:luminance" maskUnits="userSpaceOnUse" x="114" y="170" width="133" height="133">
<path d="M180.75 170.365H246.735V302.335H180.75C144.458 302.335 114.765 272.642 114.765 236.35V236.349C114.765 200.058 144.458 170.365 180.75 170.365Z" fill="white"/>
</mask>
<g mask="url(#mask5_2228_2059)">
<path d="M246.735 170.365H114.765V302.335H246.735V170.365Z" fill="url(#paint5_linear_2228_2059)"/>
</g>
<mask id="mask6_2228_2059" style="mask-type:luminance" maskUnits="userSpaceOnUse" x="173" y="162" width="75" height="149">
<path d="M198.249 310.013C184.688 310.013 173.695 277.033 173.695 236.35C173.695 195.667 184.688 162.688 198.249 162.688H247.358V310.013H198.249Z" fill="white"/>
</mask>
<g mask="url(#mask6_2228_2059)">
<path d="M247.358 162.688H173.695V310.013H247.358V162.688Z" fill="url(#paint6_linear_2228_2059)"/>
</g>
<mask id="mask7_2228_2059" style="mask-type:luminance" maskUnits="userSpaceOnUse" x="222" y="162" width="50" height="149">
<path d="M247.358 162.688C260.919 162.688 271.912 195.667 271.912 236.35C271.912 277.033 260.919 310.013 247.358 310.013C233.797 310.013 222.803 277.033 222.803 236.35C222.803 195.667 233.797 162.688 247.358 162.688Z" fill="white"/>
</mask>
<g mask="url(#mask7_2228_2059)">
<path d="M271.912 162.688H222.803V310.013H271.912V162.688Z" fill="url(#paint7_linear_2228_2059)"/>
</g>
<mask id="mask8_2228_2059" style="mask-type:luminance" maskUnits="userSpaceOnUse" x="242" y="198" width="75" height="21">
<path d="M245.589 198.33H309.204C313.349 198.33 316.74 202.809 316.74 208.283C316.74 213.757 313.349 218.235 309.204 218.235H245.589C241.779 218.235 241.417 198.33 245.589 198.33Z" fill="white"/>
</mask>
<g mask="url(#mask8_2228_2059)">
<path d="M316.741 198.33H241.417V218.235H316.741V198.33Z" fill="url(#paint8_linear_2228_2059)"/>
</g>
<mask id="mask9_2228_2059" style="mask-type:luminance" maskUnits="userSpaceOnUse" x="242" y="254" width="75" height="21">
<path d="M245.589 254.463H309.204C313.349 254.463 316.74 258.941 316.74 264.415C316.74 269.89 313.349 274.368 309.204 274.368H245.589C241.779 274.368 241.417 254.463 245.589 254.463Z" fill="white"/>
</mask>
<g mask="url(#mask9_2228_2059)">
<path d="M316.741 254.463H241.417V274.368H316.741V254.463Z" fill="url(#paint9_linear_2228_2059)"/>
</g>
<path fill-rule="evenodd" clip-rule="evenodd" d="M84.6961 234.403L84.6061 235.075L87.1251 241.477C87.5118 242.228 88.1322 245.835 86.3326 244.699C83.3788 242.833 85.9318 243.657 82.7629 244.473C78.3033 245.621 69.0055 244.644 77.5318 233.17C78.4069 229.338 84.6038 232.933 84.6961 234.403Z" fill="#F7AAAC"/>
<mask id="mask10_2228_2059" style="mask-type:luminance" maskUnits="userSpaceOnUse" x="489" y="174" width="120" height="71">
<path d="M593.989 174.24C564.729 236.37 529.587 228.115 490.217 228.347L489.782 228.349L489.843 244.002L490.279 244C533.667 243.745 574.716 251.965 608.17 180.931L593.989 174.24Z" fill="white"/>
</mask>
<g mask="url(#mask10_2228_2059)">
<path d="M608.17 174.24H489.782V251.965H608.17V174.24Z" fill="url(#paint10_linear_2228_2059)"/>
</g>
<mask id="mask11_2228_2059" style="mask-type:luminance" maskUnits="userSpaceOnUse" x="358" y="170" width="133" height="133">
<path d="M424.782 170.365H358.797V302.335H424.782C461.073 302.335 490.767 272.642 490.767 236.35V236.349C490.767 200.058 461.074 170.365 424.782 170.365Z" fill="white"/>
</mask>
<g mask="url(#mask11_2228_2059)">
<path d="M490.767 170.365H358.797V302.335H490.767V170.365Z" fill="url(#paint11_linear_2228_2059)"/>
</g>
<mask id="mask12_2228_2059" style="mask-type:luminance" maskUnits="userSpaceOnUse" x="358" y="162" width="74" height="149">
<path d="M407.282 310.013C420.843 310.013 431.836 277.033 431.836 236.35C431.836 195.667 420.843 162.688 407.282 162.688H358.174V310.013H407.282Z" fill="white"/>
</mask>
<g mask="url(#mask12_2228_2059)">
<path d="M431.837 162.688H358.174V310.013H431.837V162.688Z" fill="url(#paint12_linear_2228_2059)"/>
</g>
<mask id="mask13_2228_2059" style="mask-type:luminance" maskUnits="userSpaceOnUse" x="333" y="162" width="50" height="149">
<path d="M358.175 162.688C344.613 162.688 333.62 195.667 333.62 236.35C333.62 277.033 344.613 310.013 358.175 310.013C371.736 310.013 382.728 277.033 382.728 236.35C382.729 195.667 371.736 162.688 358.175 162.688Z" fill="white"/>
</mask>
<g mask="url(#mask13_2228_2059)">
<path d="M382.728 162.688H333.62V310.013H382.728V162.688Z" fill="url(#paint13_linear_2228_2059)"/>
</g>
<path fill-rule="evenodd" clip-rule="evenodd" d="M355.76 196.016C358.352 196.016 360.452 201.537 360.452 208.348C360.452 215.158 358.352 220.68 355.76 220.68C353.169 220.68 351.067 215.158 351.067 208.348C351.067 201.537 353.169 196.016 355.76 196.016Z" fill="#000446"/>
<path fill-rule="evenodd" clip-rule="evenodd" d="M355.76 251.977C358.352 251.977 360.452 257.498 360.452 264.309C360.452 271.119 358.352 276.641 355.76 276.641C353.169 276.641 351.067 271.119 351.067 264.309C351.068 257.498 353.169 251.977 355.76 251.977Z" fill="#000446"/>
<mask id="mask14_2228_2059" style="mask-type:luminance" maskUnits="userSpaceOnUse" x="441" y="212" width="110" height="146">
<path d="M474.262 237.845C471.206 251.257 454.061 282.482 453.952 297.856C453.838 313.814 455.016 323.657 456.018 338.833C456.198 341.572 455.742 344.925 452.789 346.535C450.09 348.009 444.7 349.218 443.104 350.745C441.953 351.846 437.546 358.082 453.317 357.667C464.521 357.373 467.19 356.593 468.389 354.774C468.482 354.635 471.736 330.665 473.13 306.091C473.636 297.178 497.215 270.916 498.689 268.477C499.665 272.835 508.596 291.553 517.383 305.975C529.532 325.919 535.046 345.471 535.042 345.494C534.858 346.843 535.855 347.888 533.859 350.117C533.247 352.303 531.785 356.152 542.647 356.057C553.51 355.964 550.483 348.677 550.52 348.015C548.521 334.174 544.772 316.98 533.611 294.292C527.22 281.3 529.488 248.89 528.36 233.97C528.358 233.971 511.007 235.484 503.129 231.033C491.155 224.271 483.76 196.754 485.998 225.073C486.418 230.38 476.128 230.526 474.262 237.845Z" fill="white"/>
</mask>
<g mask="url(#mask14_2228_2059)">
<path d="M553.511 196.754H437.547V358.082H553.511V196.754Z" fill="url(#paint14_linear_2228_2059)"/>
</g>
<path d="M563.3 215.17C563.578 216.749 563.221 217.632 564.025 219.003C564.613 220.003 564.626 221.746 564.88 222.889C565.08 223.782 564.39 225.593 562.854 225.993C562.683 226.039 562.54 226.018 562.379 225.923C562.301 226.676 561.084 226.374 560.653 226.261C560.494 226.999 559.209 226.889 558.772 226.592C558.669 227.78 554.802 227.307 555.179 226C554.117 225.473 554.895 222.902 554.82 221.974C554.644 221.91 556.166 218.961 556.28 218.365C556.453 217.467 556.888 216.623 556.573 215.731L563.3 215.17Z" fill="#F7AAAC"/>
<mask id="mask15_2228_2059" style="mask-type:luminance" maskUnits="userSpaceOnUse" x="518" y="154" width="46" height="69">
<path d="M521.019 173.645C514.154 167.754 523.167 153.95 524.579 154.089C533.708 154.982 553.512 178.996 558.865 188.084C563.256 195.539 564.409 211.276 563.361 219.43C563.039 221.939 557.333 223.075 556.489 222.092C553.262 220.3 557.852 211.251 545.482 196.646C535.283 184.602 524.477 176.613 521.019 173.645Z" fill="white"/>
</mask>
<g mask="url(#mask15_2228_2059)">
<path d="M564.41 153.951H514.154V223.075H564.41V153.951Z" fill="url(#paint15_linear_2228_2059)"/>
</g>
<path d="M511.152 118.291C511.152 118.291 500.218 114.207 495.174 122.53C493.912 124.613 491.945 124.938 491.984 127.764C491.997 128.705 491.981 130.818 491.672 132.619C491.414 134.126 490.253 136.356 490.005 137.573C489.697 139.09 491.958 139.901 492.006 140.567C492.388 145.856 491.623 148.912 494.056 149.815C500.203 150.677 509.924 150.539 512.746 145.331C515.568 140.125 518.116 132.596 517.993 127.565C517.87 122.534 514.023 119.743 511.152 118.291Z" fill="#F7AAAC"/>
<path d="M497.966 149.048C497.966 149.048 498.408 151.915 497.678 153.325C496.948 154.738 511.432 154.775 511.432 154.775C511.432 154.775 512.608 147.096 514.837 140.609C517.067 134.121 497.966 149.048 497.966 149.048Z" fill="#F7AAAC"/>
<mask id="mask16_2228_2059" style="mask-type:luminance" maskUnits="userSpaceOnUse" x="488" y="115" width="34" height="33">
<path d="M509.039 147.669C506.334 146.875 503.778 146.055 501.524 143.573C500.724 142.691 499.44 135.111 498.993 134.954C497.29 134.358 496.476 140.219 496.476 140.219C496.223 139.913 495.321 139.661 495.116 138.69C495.026 138.259 495.599 135.84 495.227 135.227C494.953 134.777 493.097 133.177 492.694 132.577C489.409 127.698 485.65 122.42 490.091 118.65C490.271 118.497 491.498 117.628 492.908 117.61C494.861 117.585 496.405 116.883 497.187 116.514C507.956 111.422 529.06 119.2 517.929 140.956C516.372 144.003 511.595 147.406 509.039 147.669Z" fill="white"/>
</mask>
<g mask="url(#mask16_2228_2059)">
<path d="M529.061 111.424H485.651V147.671H529.061V111.424Z" fill="url(#paint16_linear_2228_2059)"/>
</g>
<path d="M496.818 153.157C496.818 153.157 496.864 150.46 498.086 150.2C499.31 149.942 512.37 149.093 513.872 149.682L514.037 153.115C514.037 153.115 510.194 154.273 496.818 153.157Z" fill="#D0D2D3"/>
<path d="M497.338 136.64C497.567 135.682 499.921 131.76 500.854 134.694C501.789 137.627 499.445 141.572 498.137 141.234C496.829 140.897 496.758 139.07 497.338 136.64Z" fill="#F7AAAC"/>
<mask id="mask17_2228_2059" style="mask-type:luminance" maskUnits="userSpaceOnUse" x="436" y="152" width="102" height="98">
<path d="M476.023 204.658C474.761 206.08 470.261 212.126 468.636 213.221C461.738 216.632 438.814 231.226 437.108 225.355C435.401 219.484 437.272 217.659 437.272 217.659C437.272 217.659 458.708 198.449 461.468 196.72C463.724 193.544 472.912 168.547 477.954 161.948L477.958 161.945C486.623 150.124 501.267 152.432 514.176 152.432C519.78 152.432 528.514 153.617 531.169 158.117C545.944 183.169 532.025 235.5 530.542 244.377C525.147 253.104 487.388 250.289 474.927 243.243L476.023 204.658Z" fill="white"/>
</mask>
<g mask="url(#mask17_2228_2059)">
<path d="M545.944 150.123H435.401V253.104H545.944V150.123Z" fill="url(#paint17_linear_2228_2059)"/>
</g>
<path fill-rule="evenodd" clip-rule="evenodd" d="M437.329 219.197L436.647 219.411L429.262 219.016C428.412 218.75 423.001 218.156 424.608 219.723C425.738 220.824 429.007 222.467 428.948 222.611C428.192 224.492 418.713 228.316 418.636 228.487C417.544 230.881 423.703 228.805 424.763 228.5C425.042 228.42 420.842 230.874 421.066 231.034C421.337 231.228 422.034 231.77 423.198 231.404C424.622 230.957 426.935 229.796 427.251 229.971C427.58 230.153 423.487 232.503 423.806 232.648C424.052 232.761 424.545 233.008 425.431 232.703C426.894 232.199 428.966 230.991 429.352 231.094C429.75 231.201 426.72 232.708 427.092 232.774C427.383 232.825 427.517 233.321 427.794 233.25C435.24 231.339 433.067 229.669 439.903 226.419C443.727 224.819 438.873 219.028 437.329 219.197Z" fill="#F7AAAC"/>
<path fill-rule="evenodd" clip-rule="evenodd" d="M186.878 75.8906L184.885 75.4842C184.053 75.3138 183.426 74.6107 183.37 73.7638C183.259 72.1239 182.944 70.5281 182.445 68.9997C182.183 68.1896 182.498 67.3037 183.209 66.8367L184.903 65.7125C185.783 65.1317 186.028 63.9469 185.447 63.0672L183.298 59.8184C182.716 58.9382 181.53 58.6976 180.651 59.2795L178.954 60.4009C178.243 60.8702 177.305 60.8153 176.664 60.2555C175.454 59.1969 174.107 58.2827 172.643 57.5394C171.884 57.155 171.485 56.3053 171.657 55.4704L172.062 53.4783C172.274 52.4447 171.605 51.4371 170.572 51.2253L166.756 50.4476C165.723 50.2353 164.714 50.9032 164.503 51.9363L164.096 53.9284C163.925 54.7611 163.224 55.3889 162.377 55.446C160.738 55.5559 159.142 55.8717 157.615 56.3688C156.803 56.6348 155.919 56.3161 155.449 55.6057L154.327 53.9086C153.746 53.0289 152.561 52.7866 151.682 53.3702L148.432 55.5174C147.551 56.0993 147.312 57.2847 147.893 58.1644L149.014 59.8609C149.484 60.5713 149.428 61.5116 148.867 62.1501C147.811 63.3615 146.896 64.7082 146.15 66.1716C145.768 66.9307 144.917 67.3292 144.084 67.1605L142.092 66.7535C141.059 66.5418 140.051 67.2092 139.839 68.2428L139.061 72.0588C138.851 73.093 139.518 74.1007 140.551 74.3124L142.543 74.7183C143.376 74.8892 144.001 75.5889 144.06 76.4391C144.168 78.0751 144.485 79.672 144.982 81.1993C145.249 82.0099 144.93 82.8958 144.222 83.3662L142.523 84.4865C141.643 85.0679 141.403 86.2538 141.984 87.1335L144.129 90.3817C144.712 91.2625 145.898 91.502 146.779 90.9212L148.473 89.7986C149.186 89.3288 150.123 89.3843 150.764 89.9464C151.975 91.0021 153.321 91.9197 154.784 92.6602C155.543 93.044 155.945 93.897 155.775 94.7298L155.369 96.7212C155.157 97.7549 155.823 98.7648 156.858 98.9742L160.674 99.7543C161.705 99.9632 162.716 99.2958 162.928 98.2627L163.332 96.2701C163.502 95.4368 164.204 94.8124 165.055 94.7535C166.691 94.6437 168.287 94.3273 169.814 93.8308C170.623 93.5665 171.508 93.8823 171.979 94.5933L173.099 96.2899C173.683 97.1707 174.868 97.413 175.748 96.831L178.997 94.6811C179.877 94.1003 180.12 92.9149 179.537 92.0341L178.414 90.337C177.945 89.6265 178 88.6897 178.56 88.0472C179.62 86.8386 180.534 85.4919 181.276 84.0269C181.662 83.2683 182.509 82.8681 183.342 83.0391L185.337 83.4444C186.37 83.6567 187.38 82.9892 187.59 81.9556L188.367 78.1391C188.579 77.1088 187.911 76.1 186.878 75.8906ZM156.961 68.5848C160.56 64.856 166.501 64.7501 170.23 68.3487C173.958 71.9473 174.064 77.8883 170.466 81.6171C166.867 85.3464 160.927 85.4517 157.197 81.8531C153.468 78.254 153.362 72.3135 156.961 68.5848Z" fill="#C3DCFA"/>
<path fill-rule="evenodd" clip-rule="evenodd" d="M139.089 89.8209L137.861 89.0442C137.348 88.7187 137.107 88.0904 137.285 87.5102C137.626 86.3865 137.821 85.2402 137.874 84.0922C137.905 83.4848 138.34 82.973 138.933 82.8406L140.35 82.5185C141.085 82.3532 141.549 81.6241 141.384 80.8887L140.772 78.1732C140.606 77.4373 139.875 76.976 139.139 77.1418L137.721 77.4605C137.127 77.5941 136.514 77.3196 136.228 76.7829C135.687 75.7691 135.019 74.8164 134.229 73.9486C133.82 73.4997 133.768 72.8306 134.095 72.316L134.87 71.087C135.275 70.4502 135.083 69.6073 134.446 69.2037L132.093 67.716C131.457 67.3124 130.614 67.5032 130.21 68.1394L129.434 69.3673C129.109 69.8807 128.481 70.1219 127.9 69.9452C126.778 69.6033 125.631 69.4092 124.485 69.3543C123.875 69.3265 123.365 68.8895 123.231 68.2951L122.911 66.8771C122.746 66.1417 122.015 65.6793 121.28 65.8468L118.564 66.4576C117.829 66.6229 117.368 67.3543 117.533 68.0896L117.852 69.5077C117.986 70.1015 117.711 70.7151 117.174 70.9999C116.161 71.5416 115.208 72.2096 114.339 72.9981C113.891 73.4085 113.221 73.4589 112.707 73.1351L111.479 72.3579C110.843 71.9543 110 72.145 109.596 72.7819L108.109 75.1345C107.706 75.7725 107.896 76.6142 108.533 77.0184L109.761 77.7945C110.274 78.12 110.515 78.7461 110.339 79.3292C109.996 80.45 109.803 81.5974 109.748 82.7443C109.721 83.3534 109.284 83.8646 108.69 83.9993L107.272 84.3175C106.536 84.4828 106.074 85.2141 106.24 85.9495L106.851 88.6638C107.017 89.4003 107.748 89.8611 108.484 89.6964L109.901 89.3759C110.496 89.2429 111.108 89.5175 111.394 90.0558C111.936 91.0685 112.602 92.0224 113.392 92.8885C113.802 93.3368 113.855 94.0093 113.529 94.5222L112.753 95.75C112.349 96.3869 112.539 97.2309 113.176 97.6334L115.529 99.1222C116.165 99.5229 117.009 99.3333 117.414 98.697L118.189 97.4681C118.514 96.9546 119.141 96.7152 119.725 96.8912C120.846 97.2331 121.993 97.4268 123.139 97.4811C123.747 97.51 124.258 97.9453 124.392 98.5397L124.711 99.9571C124.877 100.694 125.608 101.156 126.344 100.991L129.059 100.378C129.794 100.212 130.257 99.4822 130.091 98.7457L129.771 97.3277C129.638 96.7339 129.912 96.1219 130.449 95.8344C131.464 95.2954 132.416 94.6275 133.283 93.8367C133.733 93.4274 134.401 93.3753 134.915 93.7008L136.145 94.4775C136.781 94.8811 137.625 94.6909 138.028 94.0535L139.515 91.7003C139.918 91.0663 139.727 90.2228 139.089 89.8209ZM120.952 77.3541C124.302 75.7747 128.298 77.2103 129.878 80.5604C131.457 83.9104 130.021 87.9064 126.671 89.4863C123.321 91.0657 119.325 89.6301 117.745 86.2795C116.166 82.9294 117.601 78.9335 120.952 77.3541Z" fill="#C3DCFA"/>
<mask id="mask18_2228_2059" style="mask-type:luminance" maskUnits="userSpaceOnUse" x="204" y="37" width="205" height="97">
<path d="M305.471 118.742C308.726 118.742 312.288 118.098 314.585 115.585C316.872 113.082 317.476 109.501 317.476 106.225V64.8731C317.476 61.5848 316.884 58.0309 314.602 55.509C312.321 52.9882 308.713 52.3774 305.471 52.3774C302.24 52.3774 298.631 52.9877 296.363 55.5067C294.081 58.0405 293.466 61.5712 293.466 64.8731V106.225C293.466 109.511 294.077 113.078 296.377 115.583C298.681 118.093 302.207 118.742 305.471 118.742ZM305.471 133.245C298.065 133.245 290.588 131.566 285.275 126.073C280.075 120.695 278.344 113.528 278.344 106.225V64.8731C278.344 57.569 280.067 50.3594 285.301 45.0003C290.627 39.5455 298.076 37.8535 305.471 37.8535C312.866 37.8535 320.353 39.5195 325.684 44.9788C330.916 50.3379 332.618 57.5746 332.618 64.8731V106.225C332.618 113.534 330.904 120.729 325.662 126.098C320.331 131.559 312.873 133.245 305.471 133.245ZM221.138 104.161H243.44V76.4511H258.263V104.161H265.073V118.365H258.263V132.369H243.44V118.365H204.223V105.835L235.18 39.0491H250.919L221.138 104.161ZM401.809 104.161H408.619V118.365H401.809V132.369H386.986V118.365H347.769V105.835L378.726 39.0491H394.464L364.684 104.161H386.986V76.4511H401.809V104.161Z" fill="white"/>
</mask>
<g mask="url(#mask18_2228_2059)">
<path d="M408.618 37.8535H204.223V133.245H408.618V37.8535Z" fill="url(#paint18_linear_2228_2059)"/>
</g>
<path fill-rule="evenodd" clip-rule="evenodd" d="M199.745 168.057H219.813C222.079 168.057 223.934 169.911 223.934 172.178C223.934 174.444 222.08 176.299 219.813 176.299H199.745C197.479 176.299 195.624 174.444 195.624 172.178C195.624 169.911 197.479 168.057 199.745 168.057Z" fill="#89CCFB"/>
<path fill-rule="evenodd" clip-rule="evenodd" d="M384.399 168.057H404.467C406.734 168.057 408.588 169.911 408.588 172.178C408.588 174.444 406.734 176.299 404.467 176.299H384.399C382.133 176.299 380.278 174.444 380.278 172.178C380.278 169.911 382.133 168.057 384.399 168.057Z" fill="#89CCFB"/>
<path fill-rule="evenodd" clip-rule="evenodd" d="M347.733 329.342H352.685C353.323 329.342 353.874 329.039 354.336 328.434C354.798 327.829 355.029 327.053 355.029 326.107C355.029 325.138 354.765 324.368 354.237 323.795C353.708 323.223 353.136 322.937 352.52 322.937H347.733V329.342ZM342.318 341.623V318.182H352.883C353.983 318.182 355.001 318.414 355.937 318.876C356.873 319.339 357.682 319.943 358.364 320.692C359.046 321.44 359.58 322.287 359.965 323.234C360.35 324.18 360.543 325.138 360.543 326.106C360.543 326.832 360.455 327.531 360.279 328.202C360.103 328.874 359.85 329.507 359.52 330.101C359.19 330.695 358.788 331.229 358.315 331.702C357.841 332.175 357.308 332.577 356.713 332.907L361.863 341.623H355.755L351.265 334.062H347.733V341.623L342.318 341.623ZM321.387 329.936C321.387 330.839 321.519 331.713 321.783 332.561C322.047 333.408 322.438 334.162 322.955 334.822C323.472 335.483 324.116 336.011 324.886 336.407C325.656 336.803 326.537 337.001 327.527 337.001C328.561 337.001 329.464 336.793 330.235 336.374C331.005 335.956 331.643 335.411 332.149 334.74C332.656 334.069 333.035 333.309 333.289 332.462C333.542 331.615 333.668 330.751 333.668 329.871C333.668 328.968 333.536 328.093 333.272 327.246C333.007 326.398 332.612 325.65 332.083 325.001C331.555 324.351 330.911 323.834 330.152 323.449C329.392 323.063 328.517 322.871 327.527 322.871C326.492 322.871 325.595 323.074 324.836 323.482C324.077 323.889 323.438 324.423 322.922 325.083C322.404 325.743 322.019 326.497 321.766 327.344C321.513 328.191 321.387 329.055 321.387 329.936ZM327.494 341.821C325.755 341.821 324.171 341.48 322.74 340.798C321.31 340.115 320.088 339.218 319.076 338.106C318.063 336.995 317.277 335.724 316.715 334.294C316.154 332.863 315.873 331.388 315.873 329.87C315.873 328.329 316.165 326.843 316.748 325.413C317.331 323.982 318.146 322.722 319.191 321.632C320.237 320.543 321.475 319.674 322.906 319.024C324.336 318.376 325.899 318.051 327.594 318.051C329.333 318.051 330.917 318.392 332.348 319.074C333.778 319.756 335 320.659 336.013 321.781C337.025 322.903 337.807 324.18 338.357 325.611C338.908 327.042 339.182 328.494 339.182 329.969C339.182 331.51 338.891 332.995 338.308 334.426C337.724 335.857 336.915 337.117 335.881 338.207C334.846 339.296 333.614 340.171 332.183 340.832C330.752 341.491 329.189 341.821 327.494 341.821ZM300.521 329.342H305.473C306.111 329.342 306.662 329.039 307.124 328.434C307.586 327.829 307.817 327.053 307.817 326.107C307.817 325.138 307.554 324.368 307.025 323.795C306.497 323.223 305.925 322.937 305.309 322.937H300.521V329.342ZM295.107 341.623V318.182H305.672C306.772 318.182 307.79 318.414 308.725 318.876C309.661 319.338 310.469 319.943 311.152 320.692C311.835 321.44 312.368 322.287 312.754 323.234C313.139 324.18 313.332 325.138 313.332 326.106C313.332 326.832 313.243 327.531 313.067 328.202C312.891 328.874 312.638 329.507 312.308 330.101C311.978 330.695 311.577 331.229 311.103 331.702C310.63 332.175 310.096 332.577 309.501 332.907L314.652 341.623H308.544L304.054 334.062H300.522V341.623L295.107 341.623ZM278.401 329.342H283.353C283.992 329.342 284.542 329.039 285.004 328.434C285.466 327.829 285.697 327.053 285.697 326.107C285.697 325.138 285.433 324.368 284.905 323.795C284.377 323.223 283.804 322.937 283.188 322.937H278.401V329.342ZM272.986 341.623V318.182H283.551C284.652 318.182 285.67 318.414 286.605 318.876C287.541 319.338 288.35 319.943 289.032 320.692C289.715 321.44 290.248 322.287 290.633 323.234C291.019 324.18 291.211 325.138 291.211 326.106C291.211 326.832 291.124 327.531 290.947 328.202C290.771 328.874 290.518 329.507 290.188 330.101C289.858 330.695 289.457 331.229 288.983 331.702C288.51 332.175 287.976 332.577 287.382 332.907L292.532 341.623H286.425L281.935 334.062H278.402V341.623L272.986 341.623ZM269.685 336.869V341.623H253.21V318.182H269.388V322.936H258.625V327.492H267.869V331.884H258.625V336.869H269.685Z" fill="#7BA9E3"/>
<defs>
<linearGradient id="paint0_linear_2228_2059" x1="60.277" y1="240.829" x2="60.2827" y2="173.346" gradientUnits="userSpaceOnUse">
<stop stop-color="#022FA0"/>
<stop offset="0.6782" stop-color="#197BDD"/>
<stop offset="1" stop-color="#24A1FB"/>
</linearGradient>
<linearGradient id="paint1_linear_2228_2059" x1="134.942" y1="337.508" x2="141.611" y2="127.045" gradientUnits="userSpaceOnUse">
<stop stop-color="#031542"/>
<stop offset="0.1083" stop-color="#051C4C"/>
<stop offset="0.2906" stop-color="#093066"/>
<stop offset="0.5245" stop-color="#115191"/>
<stop offset="0.7981" stop-color="#1B7DCB"/>
<stop offset="1" stop-color="#24A1FB"/>
</linearGradient>
<linearGradient id="paint2_linear_2228_2059" x1="144.943" y1="200.328" x2="174.153" y2="179.921" gradientUnits="userSpaceOnUse">
<stop stop-color="#002990"/>
<stop offset="0.2247" stop-color="#0A4BAE"/>
<stop offset="0.5757" stop-color="#1879D8"/>
<stop offset="0.8457" stop-color="#2196F1"/>
<stop offset="1" stop-color="#24A1FB"/>
</linearGradient>
<linearGradient id="paint3_linear_2228_2059" x1="65.9196" y1="243.961" x2="124.645" y2="201.414" gradientUnits="userSpaceOnUse">
<stop stop-color="#002990"/>
<stop offset="0.2247" stop-color="#0A4BAE"/>
<stop offset="0.5757" stop-color="#1879D8"/>
<stop offset="0.8457" stop-color="#2196F1"/>
<stop offset="1" stop-color="#24A1FB"/>
</linearGradient>
<linearGradient id="paint4_linear_2228_2059" x1="133.621" y1="145.65" x2="129.557" y2="107.995" gradientUnits="userSpaceOnUse">
<stop stop-color="#031542"/>
<stop offset="0.1083" stop-color="#051C4C"/>
<stop offset="0.2906" stop-color="#093066"/>
<stop offset="0.5245" stop-color="#115191"/>
<stop offset="0.7981" stop-color="#1B7DCB"/>
<stop offset="1" stop-color="#24A1FB"/>
</linearGradient>
<linearGradient id="paint5_linear_2228_2059" x1="180.751" y1="221.616" x2="180.756" y2="93.9371" gradientUnits="userSpaceOnUse">
<stop stop-color="#2BC5FF"/>
<stop offset="0.1362" stop-color="#53D0FF"/>
<stop offset="0.3626" stop-color="#90E1FF"/>
<stop offset="0.5704" stop-color="#C0EEFF"/>
<stop offset="0.7525" stop-color="#E2F7FF"/>
<stop offset="0.9019" stop-color="#F7FDFF"/>
<stop offset="1" stop-color="white"/>
</linearGradient>
<linearGradient id="paint6_linear_2228_2059" x1="210.529" y1="260.598" x2="210.518" y2="144.704" gradientUnits="userSpaceOnUse">
<stop stop-color="#E91515"/>
<stop offset="0.6782" stop-color="#197BDD"/>
<stop offset="1" stop-color="#24A1FB"/>
</linearGradient>
<linearGradient id="paint7_linear_2228_2059" x1="247.356" y1="258.588" x2="247.368" y2="94.7417" gradientUnits="userSpaceOnUse">
<stop stop-color="#FF8888"/>
<stop offset="0.0384" stop-color="#FFA1A1"/>
<stop offset="0.2903" stop-color="#FF9D9D"/>
<stop offset="0.5213" stop-color="#FFB3B3"/>
<stop offset="0.7239" stop-color="#FFCECE"/>
<stop offset="0.8904" stop-color="#F7FDFF"/>
<stop offset="1" stop-color="white"/>
</linearGradient>
<linearGradient id="paint8_linear_2228_2059" x1="279.079" y1="218.235" x2="279.079" y2="198.33" gradientUnits="userSpaceOnUse">
<stop stop-color="#022FA0"/>
<stop offset="0.6782" stop-color="#197BDD"/>
<stop offset="1" stop-color="#24A1FB"/>
</linearGradient>
<linearGradient id="paint9_linear_2228_2059" x1="279.079" y1="274.368" x2="279.079" y2="254.463" gradientUnits="userSpaceOnUse">
<stop stop-color="#022FA0"/>
<stop offset="0.6782" stop-color="#197BDD"/>
<stop offset="1" stop-color="#24A1FB"/>
</linearGradient>
<linearGradient id="paint10_linear_2228_2059" x1="548.978" y1="241.003" x2="548.972" y2="174.891" gradientUnits="userSpaceOnUse">
<stop stop-color="#022FA0"/>
<stop offset="0.6782" stop-color="#197BDD"/>
<stop offset="1" stop-color="#24A1FB"/>
</linearGradient>
<linearGradient id="paint11_linear_2228_2059" x1="424.781" y1="221.617" x2="424.776" y2="93.9376" gradientUnits="userSpaceOnUse">
<stop stop-color="#2BC5FF"/>
<stop offset="0.1362" stop-color="#53D0FF"/>
<stop offset="0.3626" stop-color="#90E1FF"/>
<stop offset="0.5704" stop-color="#C0EEFF"/>
<stop offset="0.7525" stop-color="#E2F7FF"/>
<stop offset="0.9019" stop-color="#F7FDFF"/>
<stop offset="1" stop-color="white"/>
</linearGradient>
<linearGradient id="paint12_linear_2228_2059" x1="395.003" y1="260.598" x2="395.014" y2="144.704" gradientUnits="userSpaceOnUse">
<stop stop-color="#E91515"/>
<stop offset="0.6782" stop-color="#197BDD"/>
<stop offset="1" stop-color="#24A1FB"/>
</linearGradient>
<linearGradient id="paint13_linear_2228_2059" x1="358.172" y1="258.588" x2="358.184" y2="94.7417" gradientUnits="userSpaceOnUse">
<stop stop-color="#FF8888"/>
<stop offset="0.0384" stop-color="#FFA1A1"/>
<stop offset="0.2903" stop-color="#FF9D9D"/>
<stop offset="0.5213" stop-color="#FFB3B3"/>
<stop offset="0.7239" stop-color="#FFCECE"/>
<stop offset="0.8904" stop-color="#F7FDFF"/>
<stop offset="1" stop-color="white"/>
</linearGradient>
<linearGradient id="paint14_linear_2228_2059" x1="497.806" y1="337.056" x2="490.107" y2="135.361" gradientUnits="userSpaceOnUse">
<stop stop-color="#031542"/>
<stop offset="0.1083" stop-color="#051C4C"/>
<stop offset="0.2906" stop-color="#093066"/>
<stop offset="0.5245" stop-color="#115191"/>
<stop offset="0.7981" stop-color="#1B7DCB"/>
<stop offset="1" stop-color="#24A1FB"/>
</linearGradient>
<linearGradient id="paint15_linear_2228_2059" x1="553.836" y1="203.757" x2="530.434" y2="179.246" gradientUnits="userSpaceOnUse">
<stop stop-color="#FF9152"/>
<stop offset="1" stop-color="#FE6A14"/>
</linearGradient>
<linearGradient id="paint16_linear_2228_2059" x1="506.339" y1="145.102" x2="509.283" y2="100.087" gradientUnits="userSpaceOnUse">
<stop stop-color="#031542"/>
<stop offset="0.1083" stop-color="#051C4C"/>
<stop offset="0.2906" stop-color="#093066"/>
<stop offset="0.5245" stop-color="#115191"/>
<stop offset="0.7981" stop-color="#1B7DCB"/>
<stop offset="1" stop-color="#24A1FB"/>
</linearGradient>
<linearGradient id="paint17_linear_2228_2059" x1="474.733" y1="231.31" x2="502.018" y2="180.476" gradientUnits="userSpaceOnUse">
<stop stop-color="#FF9152"/>
<stop offset="1" stop-color="#FE6A14"/>
</linearGradient>
<linearGradient id="paint18_linear_2228_2059" x1="306.421" y1="101.249" x2="306.421" y2="26.2093" gradientUnits="userSpaceOnUse">
<stop stop-color="#E91515"/>
<stop offset="0.9999" stop-color="#0071E3"/>
<stop offset="1" stop-color="#0071E3"/>
</linearGradient>
</defs>
</svg>
