<svg width="1440" height="178" viewBox="0 0 1440 178" fill="none" xmlns="http://www.w3.org/2000/svg">
<rect width="1440" height="178" fill="url(#paint0_linear_954_8532)"/>
<mask id="mask0_954_8532" style="mask-type:luminance" maskUnits="userSpaceOnUse" x="0" y="0" width="1440" height="178">
<rect width="1440" height="178" fill="white"/>
</mask>
<g mask="url(#mask0_954_8532)">
<g opacity="0.8">
<path d="M296.966 32.8846C295.448 31.6868 292.757 31.2815 290.954 31.9792C289.152 32.677 288.92 34.2136 290.437 35.4114L393.588 116.842C395.105 118.04 397.797 118.445 399.599 117.747C401.402 117.05 401.633 115.513 400.116 114.315L296.966 32.8846Z" fill="url(#paint1_linear_954_8532)"/>
<path d="M666.231 22.4298C665.093 21.5315 663.074 21.2275 661.722 21.7508C660.37 22.2741 660.197 23.4266 661.335 24.3249L760.637 102.718C761.775 103.616 763.793 103.92 765.145 103.397C766.498 102.873 766.671 101.721 765.533 100.823L666.231 22.4298Z" fill="url(#paint2_linear_954_8532)"/>
<path d="M971.56 111.901C969.853 110.554 966.825 110.098 964.797 110.883C962.769 111.668 962.509 113.396 964.216 114.744L998.032 141.44C999.739 142.788 1002.77 143.244 1004.79 142.459C1006.82 141.674 1007.08 139.945 1005.38 138.597L971.56 111.901Z" fill="url(#paint3_linear_954_8532)"/>
<path d="M339.409 28.3859C333.719 23.8942 323.626 22.3741 316.866 24.9907C310.106 27.6073 309.238 33.3697 314.928 37.8614L463.431 155.095C469.121 159.587 479.214 161.107 485.974 158.49C492.734 155.874 493.602 150.111 487.912 145.62L339.409 28.3859Z" fill="url(#paint4_linear_954_8532)"/>
<path d="M383.096 -34.0856C378.733 -37.5292 370.996 -38.6946 365.813 -36.6885C360.63 -34.6824 359.965 -30.2646 364.327 -26.821L519.95 96.0333C524.312 99.477 532.05 100.642 537.232 98.6363C542.415 96.6302 543.081 92.2124 538.719 88.7688L383.096 -34.0856Z" fill="url(#paint5_linear_954_8532)"/>
<path d="M1294.97 -19.751C1291.36 -22.5957 1284.97 -23.5584 1280.69 -21.9013C1276.41 -20.2441 1275.86 -16.5946 1279.46 -13.7498L1494.97 156.382C1498.57 159.226 1504.97 160.189 1509.25 158.532C1513.53 156.875 1514.08 153.225 1510.48 150.38L1294.97 -19.751Z" fill="url(#paint6_linear_954_8532)"/>
<path d="M19.8881 115.51C18.5807 114.515 16.2849 114.205 14.7604 114.817C13.2359 115.429 13.0599 116.732 14.3674 117.727L53.5492 147.537C54.8566 148.532 57.1524 148.842 58.6769 148.23C60.2014 147.617 60.3774 146.315 59.0699 145.32L19.8881 115.51Z" fill="url(#paint7_linear_954_8532)"/>
</g>
</g>
<defs>
<linearGradient id="paint0_linear_954_8532" x1="1295.91" y1="6.86727e-06" x2="1136.99" y2="496.074" gradientUnits="userSpaceOnUse">
<stop offset="0.725" stop-color="#FFF4CC"/>
<stop offset="1" stop-color="#FFE9A6"/>
</linearGradient>
<linearGradient id="paint1_linear_954_8532" x1="292.247" y1="32.8673" x2="304.069" y2="21.1262" gradientUnits="userSpaceOnUse">
<stop stop-color="#E91515"/>
<stop offset="0.425" stop-color="#FFD846"/>
</linearGradient>
<linearGradient id="paint2_linear_954_8532" x1="662.93" y1="22.605" x2="671.453" y2="13.674" gradientUnits="userSpaceOnUse">
<stop stop-color="#E91515"/>
<stop offset="0.425" stop-color="#FFD846"/>
</linearGradient>
<linearGradient id="paint3_linear_954_8532" x1="965.358" y1="111.177" x2="983.245" y2="101.565" gradientUnits="userSpaceOnUse">
<stop stop-color="#E91515"/>
<stop offset="0.425" stop-color="#FFD846"/>
</linearGradient>
<linearGradient id="paint4_linear_954_8532" x1="319.126" y1="26.2772" x2="374.491" y2="-10.6885" gradientUnits="userSpaceOnUse">
<stop stop-color="#E91515"/>
<stop offset="0.425" stop-color="#FFD846"/>
</linearGradient>
<linearGradient id="paint5_linear_954_8532" x1="367.999" y1="-35.3439" x2="407.054" y2="-66.4232" gradientUnits="userSpaceOnUse">
<stop stop-color="#E6B400"/>
<stop offset="0.425" stop-color="#FFD846"/>
</linearGradient>
<linearGradient id="paint6_linear_954_8532" x1="1283.44" y1="-20.0448" x2="1312.18" y2="-47.6553" gradientUnits="userSpaceOnUse">
<stop stop-color="#E91515"/>
<stop offset="0.425" stop-color="#FFD846"/>
</linearGradient>
<linearGradient id="paint7_linear_954_8532" x1="15.3329" y1="115.142" x2="27.2368" y2="106.15" gradientUnits="userSpaceOnUse">
<stop stop-color="#E91515"/>
<stop offset="0.425" stop-color="#FFD846"/>
</linearGradient>
</defs>
</svg>
