<svg width="554" height="457" viewBox="0 0 554 457" fill="none" xmlns="http://www.w3.org/2000/svg">
<g opacity="0.2">
<path d="M124.294 106.375C117.348 103.108 105.861 108.419 102.198 116.191C95.2065 131.027 117.82 152.513 126.044 150.207C135.233 147.63 137.048 112.372 124.294 106.375Z" stroke="#0F31AC" stroke-width="2.51198" stroke-miterlimit="10" stroke-linecap="round" stroke-dasharray="6.28 6.28 6.28 6.28 6.28 6.28"/>
<path d="M89.552 139.977C87.073 138.543 60.8143 123.353 45.9539 135.375C35.5196 143.815 35.4198 161.858 43.2609 171.998C58.791 192.082 106.948 183.078 111.945 168.707C115.31 159.029 99.5119 145.738 89.552 139.977Z" stroke="#0F31AC" stroke-width="2.51198" stroke-miterlimit="10" stroke-linecap="round" stroke-dasharray="6.28 6.28 6.28 6.28 6.28 6.28"/>
<path d="M123.34 387.975C187.255 372.111 259.88 355.96 372.653 358.711C435.722 360.249 450.014 340.677 497.813 316.343C540.418 294.654 561.343 251.526 548.491 227.083C535.517 202.407 495.999 212.231 463.634 175.499C448.895 158.769 451.489 147.043 442.98 128.491C416.032 69.7471 315.035 23.832 265.231 48.1316C199.434 80.2334 255.684 218.941 182.135 256.831C135.612 280.801 100.448 234.788 54.5114 269.913C31.7504 287.317 3.91285 311.73 1.75996 338.238C1.75996 338.238 -1.25441 403.047 123.34 387.975Z" stroke="#0F31AC" stroke-width="2.51198" stroke-miterlimit="10" stroke-linecap="round" stroke-dasharray="6.28 6.28 6.28 6.28 6.28 6.28"/>
<path d="M476.468 315.793C476.468 315.793 464.891 331.144 453.31 352.205C442.871 371.198 434.931 396.79 433.178 418.157C428.261 417.925 422.86 417.706 417.021 417.499C382.439 416.272 332.513 415.503 277 415.503C213.889 415.503 158.001 416.498 123.669 418.028C122.487 418.08 121.33 418.133 120.2 418.187C77.3368 365.06 -8.97593 272.503 70.4552 234.426C70.4552 234.426 76.2742 232.654 84.9983 228.847C112.61 216.796 169.35 184.368 163.039 123.225C163.039 123.225 160.889 111.815 160.889 95.9398C160.889 58.8178 172.641 -2.71551 251.1 0.0928794C298.613 1.796 342.37 25.9738 368.825 64.6732C394.774 102.63 436.264 149.332 470.053 122.67C477.852 116.513 488.165 114.232 497.794 116.939C522.115 123.77 549.744 159.135 476.468 315.793Z" fill="#0071E3"/>
</g>
<path opacity="0.1" d="M539.561 420.225C539.561 422.737 422.008 424.774 277 424.774C195.181 424.774 122.103 424.126 73.9495 423.109C62.8583 422.875 53.0909 422.621 44.8434 422.351C39.4109 422.174 34.6379 421.989 30.5803 421.798C20.1407 421.309 14.4388 420.779 14.4388 420.225C14.4388 419.52 23.6932 418.852 40.2106 418.257C46.975 418.013 54.9565 417.781 64.0197 417.565C111.708 416.421 189.337 415.676 277 415.676C354.11 415.676 423.456 416.251 471.492 417.169C513.788 417.976 539.561 419.049 539.561 420.225Z" fill="#040C2B"/>
<path d="M400.206 123.22L383.006 155.452C382.354 156.673 380.836 157.135 379.615 156.483L351.114 141.274C349.893 140.622 349.431 139.104 350.083 137.883L370.449 99.7192C371.1 98.4983 372.618 98.0366 373.839 98.6882L396.26 110.653L396.331 110.877L400.206 123.22Z" fill="#E3E9F7"/>
<path opacity="0.1" d="M400.206 123.22L393.863 119.835C392.869 119.305 392.493 118.069 393.023 117.075L396.331 110.877L400.206 123.22Z" fill="black"/>
<path d="M372.341 129.515L372.881 128.503C373.348 127.627 373.941 126.966 374.661 126.518C375.38 126.07 376.431 125.746 377.815 125.547C379.137 125.374 380.065 125.155 380.6 124.889C381.134 124.624 381.542 124.227 381.824 123.698C382.14 123.105 382.162 122.537 381.89 121.993C381.618 121.45 381.09 120.968 380.306 120.55C378.938 119.82 377.14 119.435 374.912 119.394L375.02 115.603C377.661 115.548 380.122 116.129 382.402 117.346C384.281 118.348 385.533 119.596 386.159 121.09C386.785 122.584 386.697 124.084 385.894 125.588C385.359 126.591 384.668 127.336 383.823 127.822C382.978 128.308 381.674 128.667 379.911 128.897C378.69 129.078 377.873 129.275 377.46 129.488C377.048 129.701 376.696 130.081 376.404 130.628L375.966 131.449L372.341 129.515ZM369.407 133.959C369.816 133.193 370.33 132.724 370.949 132.551C371.569 132.378 372.271 132.5 373.055 132.919C373.812 133.322 374.291 133.836 374.492 134.458C374.692 135.081 374.593 135.766 374.194 136.514C373.81 137.234 373.297 137.69 372.657 137.881C372.016 138.072 371.321 137.968 370.574 137.569C369.808 137.16 369.323 136.641 369.12 136.012C368.917 135.382 369.013 134.698 369.407 133.959Z" fill="#0071E3"/>
<path d="M165.914 294.401L145.582 325.599C144.812 326.781 143.229 327.115 142.048 326.345L114.46 308.365C113.278 307.595 112.944 306.013 113.715 304.831L137.789 267.89C138.559 266.709 140.142 266.375 141.324 267.145L163.026 281.289L163.078 281.523L165.914 294.401Z" fill="#E3E9F7"/>
<path opacity="0.1" d="M165.915 294.4L159.775 290.398C158.812 289.771 158.541 288.483 159.168 287.521L163.078 281.521L165.915 294.4Z" fill="black"/>
<path d="M143.832 308.967L140.154 306.569L140.366 298.521L133.088 301.965L129.638 299.716L139.784 295.166L139.861 284.734L143.415 287.05L143.126 294.649L149.899 291.276L153.37 293.538L143.69 297.963L143.832 308.967Z" fill="#0071E3"/>
<path d="M519.34 195.601L532.677 230.369C533.183 231.686 532.525 233.164 531.208 233.669L500.463 245.463C499.146 245.969 497.669 245.311 497.163 243.994L481.37 202.826C480.865 201.509 481.523 200.032 482.84 199.526L507.026 190.248L507.246 190.344L519.34 195.601Z" fill="#E3E9F7"/>
<path opacity="0.1" d="M519.34 195.599L512.497 198.224C511.425 198.636 510.222 198.1 509.811 197.028L507.246 190.342L519.34 195.599Z" fill="black"/>
<path d="M516.221 225.553L513.618 226.552L509.98 224.543L508.618 228.47L506.177 229.407L508.191 223.991L503.394 221.472L505.909 220.507L509.308 222.442L510.498 218.747L512.953 217.805L511.071 222.991L516.221 225.553Z" fill="#0071E3"/>
<path d="M515.1 202.192L491.336 211.309C491.051 211.418 490.733 211.276 490.624 210.992C490.515 210.708 490.657 210.389 490.941 210.28L514.706 201.164C514.99 201.055 515.308 201.197 515.417 201.481C515.526 201.765 515.384 202.083 515.1 202.192Z" fill="#0071E3"/>
<path d="M516.126 204.761L492.362 213.877C492.078 213.986 491.759 213.844 491.65 213.56C491.541 213.276 491.683 212.958 491.967 212.849L515.732 203.732C516.016 203.623 516.335 203.765 516.443 204.049C516.552 204.333 516.41 204.652 516.126 204.761Z" fill="#0071E3"/>
<path d="M517.153 207.331L493.388 216.448C493.104 216.557 492.785 216.415 492.676 216.131C492.567 215.847 492.709 215.528 492.993 215.419L516.758 206.302C517.042 206.193 517.361 206.335 517.47 206.619C517.578 206.903 517.437 207.222 517.153 207.331Z" fill="#0071E3"/>
<path d="M518.179 209.899L494.414 219.016C494.13 219.125 493.811 218.983 493.702 218.699C493.593 218.415 493.735 218.096 494.019 217.987L517.784 208.871C518.068 208.762 518.387 208.904 518.496 209.188C518.605 209.472 518.463 209.79 518.179 209.899Z" fill="#0071E3"/>
<path d="M519.011 212.554L495.246 221.67C494.962 221.779 494.644 221.637 494.535 221.353C494.426 221.069 494.568 220.751 494.852 220.642L518.616 211.525C518.9 211.416 519.219 211.558 519.328 211.842C519.437 212.126 519.295 212.445 519.011 212.554Z" fill="#0071E3"/>
<path d="M171.401 385.649L186.401 419.733C186.969 421.024 186.383 422.531 185.092 423.099L154.953 436.364C153.662 436.932 152.154 436.346 151.586 435.055L133.825 394.698C133.256 393.407 133.842 391.899 135.134 391.331L158.843 380.896L159.067 380.981L171.401 385.649Z" fill="#E3E9F7"/>
<path opacity="0.1" d="M171.401 385.65L164.693 388.602C163.642 389.065 162.414 388.588 161.952 387.537L159.067 380.982L171.401 385.65Z" fill="black"/>
<path d="M169.732 415.719L167.18 416.842L163.449 415.011L162.279 418.999L159.886 420.053L161.636 414.546L156.723 412.261L159.189 411.176L162.677 412.945L163.687 409.196L166.094 408.137L164.465 413.408L169.732 415.719Z" fill="#0071E3"/>
<path d="M167.485 392.438L144.188 402.691C143.909 402.814 143.584 402.687 143.462 402.409C143.339 402.13 143.466 401.805 143.744 401.683L167.041 391.43C167.319 391.307 167.644 391.434 167.767 391.712C167.889 391.99 167.763 392.315 167.485 392.438Z" fill="#0071E3"/>
<path d="M168.634 394.956L145.337 405.209C145.058 405.331 144.733 405.205 144.611 404.926C144.488 404.648 144.615 404.323 144.893 404.2L168.19 393.947C168.468 393.825 168.794 393.951 168.916 394.23C169.038 394.508 168.912 394.833 168.634 394.956Z" fill="#0071E3"/>
<path d="M169.783 397.471L146.486 407.724C146.207 407.847 145.882 407.72 145.76 407.442C145.637 407.164 145.764 406.839 146.042 406.716L169.339 396.463C169.617 396.34 169.942 396.467 170.065 396.745C170.188 397.024 170.061 397.349 169.783 397.471Z" fill="#0071E3"/>
<path d="M170.932 399.989L147.635 410.242C147.356 410.365 147.031 410.238 146.909 409.96C146.786 409.681 146.912 409.356 147.191 409.234L170.488 398.98C170.766 398.858 171.091 398.984 171.214 399.263C171.336 399.541 171.21 399.866 170.932 399.989Z" fill="#0071E3"/>
<path d="M171.891 402.598L148.594 412.851C148.315 412.974 147.99 412.847 147.868 412.569C147.745 412.291 147.872 411.965 148.15 411.843L171.447 401.59C171.725 401.467 172.051 401.594 172.173 401.872C172.296 402.15 172.169 402.476 171.891 402.598Z" fill="#0071E3"/>
<path d="M275.522 139.602L290.523 173.686C291.091 174.977 290.505 176.484 289.214 177.053L259.074 190.317C257.783 190.885 256.276 190.299 255.708 189.008L237.946 148.651C237.378 147.36 237.964 145.853 239.255 145.284L262.965 134.85L263.189 134.934L275.522 139.602Z" fill="#E3E9F7"/>
<path opacity="0.1" d="M275.522 139.601L268.814 142.553C267.763 143.016 266.536 142.539 266.073 141.488L263.189 134.934L275.522 139.601Z" fill="black"/>
<path d="M273.854 169.672L271.302 170.795L267.57 168.964L266.4 172.952L264.007 174.006L265.757 168.499L260.844 166.214L263.31 165.129L266.799 166.898L267.808 163.15L270.216 162.09L268.586 167.361L273.854 169.672Z" fill="#0071E3"/>
<path d="M271.606 146.391L248.309 156.644C248.031 156.767 247.706 156.64 247.583 156.362C247.46 156.084 247.587 155.758 247.865 155.636L271.162 145.383C271.441 145.26 271.766 145.387 271.888 145.665C272.011 145.944 271.885 146.269 271.606 146.391Z" fill="#0071E3"/>
<path d="M272.755 148.907L249.458 159.16C249.18 159.283 248.854 159.156 248.732 158.878C248.609 158.599 248.736 158.274 249.014 158.152L272.311 147.898C272.59 147.776 272.915 147.902 273.037 148.181C273.16 148.459 273.033 148.784 272.755 148.907Z" fill="#0071E3"/>
<path d="M273.904 151.424L250.607 161.678C250.329 161.8 250.004 161.674 249.881 161.395C249.758 161.117 249.885 160.792 250.163 160.669L273.46 150.416C273.739 150.293 274.064 150.42 274.186 150.698C274.309 150.977 274.183 151.302 273.904 151.424Z" fill="#0071E3"/>
<path d="M275.053 153.94L251.756 164.193C251.478 164.316 251.152 164.189 251.03 163.911C250.907 163.632 251.034 163.307 251.312 163.185L274.609 152.932C274.888 152.809 275.213 152.935 275.335 153.214C275.458 153.492 275.331 153.817 275.053 153.94Z" fill="#0071E3"/>
<path d="M276.012 156.551L252.715 166.804C252.437 166.927 252.112 166.801 251.989 166.522C251.867 166.244 251.993 165.918 252.272 165.796L275.568 155.543C275.847 155.42 276.172 155.547 276.295 155.825C276.417 156.104 276.291 156.429 276.012 156.551Z" fill="#0071E3"/>
<path d="M432.25 234.727H199.25V403.799H432.25V234.727Z" fill="#E3E9F7"/>
<path d="M432.247 213.502H199.337V234.773H432.247V213.502Z" fill="#0071E3"/>
<path d="M210.109 226.549C212.086 226.549 213.689 225.025 213.689 223.146C213.689 221.266 212.086 219.742 210.109 219.742C208.133 219.742 206.53 221.266 206.53 223.146C206.53 225.025 208.133 226.549 210.109 226.549Z" fill="#E3E9F7"/>
<path d="M220.549 226.549C222.526 226.549 224.128 225.025 224.128 223.146C224.128 221.266 222.526 219.742 220.549 219.742C218.572 219.742 216.97 221.266 216.97 223.146C216.97 225.025 218.572 226.549 220.549 226.549Z" fill="#E3E9F7"/>
<path d="M230.989 226.549C232.966 226.549 234.568 225.025 234.568 223.146C234.568 221.266 232.966 219.742 230.989 219.742C229.012 219.742 227.41 221.266 227.41 223.146C227.41 225.025 229.012 226.549 230.989 226.549Z" fill="#E3E9F7"/>
<path d="M425.239 243.629H206.261V394.901H425.239V243.629Z" fill="#F4F6FC"/>
<path d="M349.719 280.821V347.332C349.719 349.851 347.676 351.894 345.157 351.894H286.344C283.824 351.894 281.782 349.851 281.782 347.332V268.58C281.782 266.06 283.824 264.018 286.344 264.018H332.61L332.915 264.318L349.719 280.821Z" fill="#0071E3" fill-opacity="0.3"/>
<path opacity="0.15" d="M349.719 280.822H336.629C334.578 280.822 332.915 279.159 332.915 277.108V264.318L349.719 280.822Z" fill="black"/>
<path d="M332.064 319.193C331.548 319.193 331.096 318.86 330.931 318.372C330.5 317.101 329.092 315.846 326.923 314.836C323.959 313.455 319.991 312.695 315.75 312.695C311.51 312.695 307.542 313.455 304.577 314.836C302.408 315.846 301 317.101 300.57 318.372C300.404 318.86 299.952 319.193 299.436 319.193C298.623 319.193 298.044 318.396 298.301 317.625C298.94 315.706 300.755 313.985 303.57 312.674C306.844 311.15 311.169 310.311 315.75 310.311C320.331 310.311 324.657 311.15 327.93 312.674C330.745 313.985 332.561 315.705 333.199 317.625C333.456 318.397 332.878 319.193 332.064 319.193Z" fill="white"/>
<path d="M306.987 306.615C309.72 306.615 311.935 304.399 311.935 301.667C311.935 298.934 309.72 296.719 306.987 296.719C304.254 296.719 302.039 298.934 302.039 301.667C302.039 304.399 304.254 306.615 306.987 306.615Z" fill="white"/>
<path d="M324.513 306.615C327.246 306.615 329.461 304.399 329.461 301.667C329.461 298.934 327.246 296.719 324.513 296.719C321.781 296.719 319.565 298.934 319.565 301.667C319.565 304.399 321.781 306.615 324.513 306.615Z" fill="white"/>
<path d="M464.19 329.04H471.266C476.594 329.04 480.913 324.721 480.913 319.393C480.913 314.065 476.594 309.746 471.266 309.746H464.19C458.862 309.746 454.543 314.065 454.543 319.393C454.543 324.721 458.862 329.04 464.19 329.04Z" fill="white"/>
<path d="M464.668 327.484H470.787C470.787 327.484 470.24 332.412 464.668 334.859C464.668 334.859 467.599 330.544 464.668 327.484Z" fill="white"/>
<path d="M466.22 321.31V320.726C466.22 320.221 466.328 319.782 466.544 319.408C466.759 319.034 467.154 318.637 467.728 318.216C468.28 317.821 468.645 317.5 468.821 317.253C468.997 317.005 469.085 316.729 469.085 316.424C469.085 316.082 468.959 315.821 468.707 315.642C468.454 315.463 468.101 315.374 467.649 315.374C466.859 315.374 465.959 315.631 464.949 316.147L464.088 314.418C465.262 313.761 466.507 313.432 467.822 313.432C468.907 313.432 469.768 313.692 470.408 314.213C471.047 314.734 471.367 315.429 471.367 316.297C471.367 316.876 471.235 317.376 470.972 317.797C470.709 318.218 470.209 318.692 469.472 319.218C468.967 319.592 468.647 319.876 468.513 320.071C468.379 320.266 468.312 320.521 468.312 320.837V321.31H466.22ZM465.967 324.01C465.967 323.568 466.086 323.234 466.322 323.008C466.559 322.781 466.904 322.668 467.357 322.668C467.793 322.668 468.131 322.784 468.371 323.016C468.61 323.247 468.73 323.579 468.73 324.01C468.73 324.426 468.609 324.754 468.367 324.993C468.125 325.232 467.788 325.352 467.357 325.352C466.915 325.352 466.573 325.235 466.33 325.001C466.088 324.767 465.967 324.436 465.967 324.01Z" fill="#0071E3"/>
<path opacity="0.67" d="M445.042 450.078L448.351 451.366L447.386 456.034L441.733 454.263L445.042 450.078Z" fill="#050505"/>
<path d="M398.922 439.737C398.922 439.737 390.097 438.69 388.167 443.439C388.167 443.439 388.029 455.27 393.544 456.075C393.544 456.075 398.232 456.558 401.265 454.465L418.914 452.453L430.909 451.648L398.922 439.737Z" fill="#040C2B"/>
<path d="M451.936 445.412C451.936 445.412 456.567 452.861 453.826 455.822C453.402 456.28 453.994 456.836 454.886 456.835L473.514 456.8C473.514 456.8 484.131 458.732 486.199 450.603C486.199 450.603 487.44 441.991 473.928 440.542C460.415 439.094 473.79 440.059 473.79 440.059C473.79 440.059 458.072 441.186 451.936 445.412Z" fill="#040C2B"/>
<path d="M459.312 445.773L459.261 446.25L458.209 456.075L438.562 454.345L445.028 445.882L445.111 445.773C459.312 446.095 459.312 445.773 459.312 445.773Z" fill="#DE995F"/>
<path opacity="0.38" d="M459.312 445.773L459.261 446.25L448.903 446.538L445.028 445.882L445.111 445.774C459.312 446.095 459.312 445.773 459.312 445.773Z" fill="#050505"/>
<path d="M489.461 428.817L466.581 433.262L436.562 439.094L412.718 433.544L375.066 424.779C373.345 411.85 400.438 419.295 400.438 419.295L418.077 421.273H418.08L428.428 422.434L451.867 425.653L459.313 422.707L468.137 419.214C491.921 417.162 489.461 428.817 489.461 428.817Z" fill="#081956"/>
<path opacity="0.3" d="M466.581 433.26L436.563 439.092L412.718 433.542L406.229 429.675L418.077 421.271H418.08L428.428 422.432L451.867 425.651L459.312 422.705L466.581 433.26Z" fill="black"/>
<path d="M403.058 443.519L435.459 435.068C435.459 435.068 458.623 426.456 462.622 426.939C462.622 426.939 491.3 412.211 489.37 430.239C489.37 430.239 492.679 444.404 441.526 446.577L403.058 443.519Z" fill="#081956"/>
<path opacity="0.13" d="M425.325 437.685L428.91 436.639C431.623 438.447 436.722 439.951 440.078 441.468C443.876 443.183 448.489 444.768 452.901 445.814C450.006 446.163 447.11 446.511 444.215 446.86L425.325 437.685Z" fill="black"/>
<path d="M450.419 446.056C450.419 446.056 440.975 453.581 447.317 456.076C447.317 456.076 410.664 451.962 381.344 435.583C379.123 434.342 377.546 432.758 376.805 431.016C374.12 424.7 370.41 410.333 399.335 422.595C399.335 422.595 421.804 430.229 429.209 436.797C430.627 438.054 432.31 439.202 434.263 440.186C438.898 442.52 446.755 446.166 450.419 446.056Z" fill="#081956"/>
<path d="M428.014 362.523L445.111 362.554L450.626 372.936C450.626 372.936 439.872 389.194 424.429 374.707C425.116 372.374 427.397 368.952 428.083 366.618C429.186 364.204 429.048 364.365 428.014 362.523Z" fill="#CC8B5B"/>
<path d="M472.373 379.506L468.551 410.118L409.676 409.556C409.676 409.556 413.718 393.966 412.912 391.436C412.863 391.281 412.796 391.176 412.71 391.124L396.439 390.561C396.439 390.561 396.564 388.328 397.095 385.382C397.994 380.409 400.055 373.406 404.644 371.688C405.4 371.405 407.608 370.521 407.608 370.521C407.608 370.521 427.67 365.249 428.083 366.617C428.083 366.617 426.98 382.634 448.765 369.354C448.765 369.354 473.989 375.614 472.373 379.506Z" fill="#FF9917"/>
<path d="M460.415 411.648L461.621 421.792L475.213 417.667C478.295 416.732 480.405 414.968 480.786 412.953C481.124 411.16 480.909 408.606 479.305 405.048L476.272 391.607C476.272 391.607 477.719 382.312 470.687 377.08C470.687 377.08 468.137 392.493 463.587 395.068L462.622 407.945L460.415 411.648Z" fill="#FF9917"/>
<path opacity="0.1" d="M422.296 374.143L412.912 391.436C412.863 391.281 412.796 391.176 412.71 391.124L396.439 390.562C396.439 390.562 396.564 388.328 397.095 385.382L413.61 369.957C413.61 369.957 420.642 374.062 422.296 374.143Z" fill="black"/>
<path d="M425.352 363.86C424.95 366.551 424.473 367.377 423.05 371.648L420.844 375.834L414.64 371.648L416.294 369.958L415.467 362.312L417.561 357.19C418.305 355.37 420.152 354.209 422.107 354.419C424.299 354.655 426.441 356.58 425.352 363.86Z" fill="#DE995F"/>
<path opacity="0.13" d="M408.711 389.838L413.017 392.63L411.675 401.226L423.05 375.673L418.983 374.578L408.711 389.838Z" fill="black"/>
<path d="M414.364 369.957C414.364 369.957 421.396 374.062 423.051 374.142L409.814 398.529C409.814 398.529 401.306 409.067 392.57 401.142C387.189 396.259 388.923 389.752 396.793 386.203C396.903 386.153 397.016 386.103 397.129 386.054L414.364 369.957Z" fill="#FF9917"/>
<path opacity="0.13" d="M427.945 366.377C427.945 366.377 436.128 378.187 446.858 365.843L443.525 360.984L429.944 362.527L427.945 366.377Z" fill="black"/>
<path d="M424.429 345.814C424.429 345.814 440.147 337.202 446.49 344.767C446.49 344.767 459.588 358.047 439.182 369.959C439.182 369.959 425.946 375.834 424.429 345.814Z" fill="#DE995F"/>
<path d="M426.134 358.363L422.036 351.508C421.096 349.935 420.671 348.273 420.792 346.609C421.173 341.397 424.354 331.388 443.87 335.751C443.87 335.751 460.967 343.236 451.453 352.814L448.282 359.735C448.282 359.735 448.696 347.26 443.87 346.616C443.87 346.616 432.839 349.031 425.67 348.87C425.67 348.87 425.463 357.441 426.134 358.363Z" fill="black"/>
<path d="M429.944 356.92C432 356.92 433.667 355.948 433.667 354.747C433.667 353.547 432 352.574 429.944 352.574C427.888 352.574 426.221 353.547 426.221 354.747C426.221 355.948 427.888 356.92 429.944 356.92Z" stroke="black" stroke-width="0.259148" stroke-miterlimit="10"/>
<path d="M441.25 356.598C443.306 356.598 444.973 355.625 444.973 354.425C444.973 353.225 443.306 352.252 441.25 352.252C439.194 352.252 437.528 353.225 437.528 354.425C437.528 355.625 439.194 356.598 441.25 356.598Z" stroke="black" stroke-width="0.259148" stroke-miterlimit="10"/>
<path d="M433.626 354.426C433.626 354.426 435.321 355.553 437.528 354.426" stroke="black" stroke-width="0.259148" stroke-miterlimit="10"/>
<path d="M426.221 354.748L424.36 353.5" stroke="black" stroke-width="0.259148" stroke-miterlimit="10"/>
<path d="M444.973 354.425L449.661 353.861" stroke="black" stroke-width="0.259148" stroke-miterlimit="10"/>
<path opacity="0.13" d="M461.587 411.287C461.587 411.287 465.724 408.068 470.687 407.746C470.687 407.746 469.584 407.022 466.551 407.746C466.551 407.746 469.309 406.056 472.48 406.7C472.48 406.7 465.862 404.205 461.587 411.287Z" fill="black"/>
<path d="M406.885 401.329L462.137 400.641C462.935 400.631 463.587 401.275 463.587 402.072V425.052C463.587 425.837 462.956 426.475 462.171 426.484L408.022 427.086C407.252 427.095 406.614 426.493 406.577 425.724L405.473 402.829C405.434 402.019 406.075 401.339 406.885 401.329Z" fill="#0071E3"/>
<path opacity="0.13" d="M407.953 425.773C407.953 425.773 398.718 420.011 381.894 418.288C381.894 418.288 390.304 417.725 408.78 424.083L407.953 425.773Z" fill="black"/>
<path opacity="0.13" d="M463.656 426.498C463.656 426.498 480.347 417.954 486.996 422.528C486.996 422.528 483.51 417.484 461.588 426.015L463.656 426.498Z" fill="black"/>
<path opacity="0.13" d="M463.518 395.029C463.518 395.029 472.756 388.107 472.48 384.566C472.48 384.566 469.998 387.705 469.309 388.268C469.309 388.268 472.755 384.003 471.377 382.312C471.377 382.312 469.453 387.67 468.002 387.768L463.518 395.029Z" fill="black"/>
<path opacity="0.13" d="M463.449 394.988C463.449 394.988 470.343 381.467 468.964 380.742C468.964 380.742 468.688 383.398 463.449 394.988Z" fill="black"/>
</svg>
