<svg width="138" height="121" viewBox="0 0 138 121" fill="none" xmlns="http://www.w3.org/2000/svg">
<path d="M123.507 51.2465C120.278 52.4797 116.772 53.1533 113.107 53.1533C96.9961 53.1533 83.9361 40.0933 83.9361 23.9824H25.946C20.0078 23.9824 15.1938 28.7914 15.1938 34.7296V93.0713C15.1938 99.0095 20.0078 103.818 25.946 103.818H112.755C118.693 103.818 123.507 99.0095 123.507 93.0713V51.2465Z" fill="white"/>
<path d="M85.9478 12.0684L61.4175 18.2245H84.0806C84.4768 16.08 85.1108 14.0197 85.9478 12.0684Z" fill="white"/>
<path d="M83.5903 23.5488H40.2154L15.9228 29.6455C15.2493 31.052 14.8679 32.6319 14.8679 34.3009V92.6823C14.8679 98.6205 19.6819 103.434 25.6151 103.434H97.6062L122.112 97.2833C122.77 95.8916 123.142 94.3315 123.142 92.6823V50.8426C119.918 52.0709 116.416 52.7445 112.761 52.7445C96.6503 52.7445 83.5903 39.6844 83.5903 23.5736C83.5903 23.5637 83.5903 23.5554 83.5903 23.5488Z" fill="white"/>
<path d="M128.461 48.1641V92.6831C128.461 93.738 128.357 94.7682 128.169 95.7637L128.337 95.724C134.929 94.0649 138.936 87.3789 137.282 80.787L129.001 47.8125C128.823 47.9314 128.643 48.0486 128.461 48.1641Z" fill="white"/>
<path d="M9.66286 31.2164C3.07094 32.8706 -0.935726 39.5616 0.718445 46.1535L9.54894 81.322V34.3019C9.54894 33.2272 9.65295 32.1822 9.856 31.1719L9.66286 31.2164Z" fill="white"/>
<path d="M25.6153 108.759H76.4043L31.9299 119.922C25.3379 121.581 18.6519 117.575 16.9928 110.983L15.5466 105.213C18.3003 107.432 21.8018 108.759 25.6153 108.759Z" fill="white"/>
<path d="M123.498 79.5947L97.2587 53.3557C93.5839 49.6809 87.6308 49.6809 83.956 53.3557L33.479 103.833H112.75C118.684 103.833 123.498 99.0188 123.498 93.0856V79.5947Z" fill="#4EAC92"/>
<path opacity="0.4" d="M109.308 65.4074L97.2584 53.3577C93.5836 49.6829 87.6306 49.6829 83.9557 53.3577L33.4788 103.835H70.8809L109.308 65.4074Z" fill="white"/>
<path d="M83.9312 103.834L54.5177 74.4206C51.0509 70.9588 45.4396 70.9588 41.9728 74.4206L17.1404 99.2579C19.0818 102.026 22.301 103.834 25.9412 103.834H83.9312Z" fill="#71BDA8"/>
<path opacity="0.4" d="M33.687 103.832L58.8116 78.7126L54.5177 74.4187C51.0509 70.9568 45.4396 70.9568 41.9728 74.4187L17.1404 99.256C19.0818 102.025 22.301 103.832 25.9412 103.832H33.687Z" fill="white"/>
<path d="M50.5556 48.3247C50.5556 54.2727 45.7317 59.0966 39.7836 59.0966C33.8356 59.0966 29.0117 54.2727 29.0117 48.3247C29.0117 42.3766 33.8356 37.5527 39.7836 37.5527C45.7317 37.5527 50.5556 42.3766 50.5556 48.3247Z" fill="#FFD03A"/>
<path d="M47.4552 40.762L32.221 55.9962C30.24 54.04 29.0117 51.3259 29.0117 48.3247C29.0117 42.3766 33.8356 37.5527 39.7836 37.5527C42.7849 37.5527 45.499 38.781 47.4552 40.762Z" fill="#FFDF76"/>
<path d="M113.553 24.4281C113.553 37.5277 113.553 38.9541 113.553 48.1511C100.453 48.1511 89.8298 37.5277 89.8298 24.4281C89.8298 11.3284 100.453 0.705078 113.553 0.705078C113.553 9.61977 113.553 11.3284 113.553 24.4281Z" fill="#B3C5FF"/>
<path d="M113.553 24.4281C113.553 37.5277 113.553 38.9541 113.553 48.1511C126.652 48.1511 137.276 37.5277 137.276 24.4281C137.276 11.3284 126.652 0.705078 113.553 0.705078C113.553 9.61977 113.553 11.3284 113.553 24.4281Z" fill="#86A4FF"/>
<path d="M113.553 24.429C113.553 34.4283 113.553 35.5179 113.553 42.5357C103.553 42.5357 95.446 34.4283 95.446 24.429C95.446 14.4297 103.553 6.32227 113.553 6.32227C113.553 13.1271 113.553 14.4297 113.553 24.429Z" fill="#85A3FF"/>
<path d="M113.553 24.429C113.553 34.4283 113.553 35.5179 113.553 42.5357C123.552 42.5357 131.659 34.4283 131.659 24.429C131.659 14.4297 123.552 6.32227 113.553 6.32227C113.553 13.1271 113.553 14.4297 113.553 24.429Z" fill="#4D75F2"/>
<path d="M111.418 18.5105L105.237 24.4041C104.848 24.7772 104.351 24.9637 103.747 24.9637C103.142 24.9637 102.644 24.7772 102.251 24.4041C101.861 24.031 101.667 23.5572 101.667 22.9827C101.667 22.4049 101.861 21.9311 102.251 21.5613L112.062 12.2107C112.488 11.8046 112.985 11.6016 113.553 11.6016C114.121 11.6016 114.618 11.8046 115.044 12.2107L124.855 21.5613C125.244 21.9311 125.439 22.4049 125.439 22.9827C125.439 23.5572 125.244 24.031 124.855 24.4041C124.462 24.7772 123.963 24.9637 123.359 24.9637C122.755 24.9637 122.258 24.7772 121.868 24.4041L115.687 18.5105V35.176C115.684 35.7505 115.479 36.2325 115.073 36.6221C114.664 37.0117 114.157 37.2065 113.553 37.2065C112.949 37.2065 112.442 37.0117 112.032 36.6221C111.626 36.2325 111.421 35.7505 111.418 35.176V18.5105Z" fill="white"/>
</svg>
