<svg width="120" height="121" viewBox="0 0 120 121" fill="none" xmlns="http://www.w3.org/2000/svg">
<path d="M24.6901 25.1891C24.0034 25.8758 23.1034 26.2203 22.2057 26.2203C21.3057 26.2203 20.4057 25.8758 19.719 25.1891L12.0831 17.5531C10.7096 16.1797 10.7096 13.9555 12.0831 12.582L19.3438 17.1683L24.6901 25.1891ZM13.952 40.5437C13.6459 40.5436 13.3411 40.5035 13.0454 40.4244L2.61221 37.6473C0.736036 37.1478 -0.380292 35.2219 0.119161 33.3455C0.618614 31.4691 2.54471 30.3523 4.42088 30.8525L14.8541 33.6296C16.7302 34.1291 17.8466 36.0549 17.3471 37.9313C16.9283 39.5047 15.5063 40.5437 13.952 40.5437Z" fill="#0071E3"/>
<path d="M36.5253 17.9662C34.9707 17.9662 33.549 16.9272 33.1304 15.3539L30.3533 4.92065C29.8539 3.04425 30.9699 1.11839 32.8464 0.618937C34.7223 0.120187 36.6486 1.23558 37.1481 3.11198L39.9252 13.5452C40.4246 15.4216 39.3085 17.3475 37.4321 17.8469C37.1363 17.9259 36.8315 17.966 36.5253 17.9662Z" fill="#0071E3"/>
<path d="M112.144 112.643C108.388 116.399 102.399 116.767 98.2115 113.5L89.482 106.687L82.0993 118.909C80.6806 121.433 76.6044 120.82 75.985 118.002L63.2248 67.799C63.0818 67.2363 63.0875 66.6461 63.2414 66.0862C63.3952 65.5264 63.692 65.0162 64.1025 64.6056L64.1048 64.6035L92.1152 82.118L112.144 112.643Z" fill="#0071E3"/>
<path d="M118.41 82.5987L106.188 89.9815L113.001 98.7109C116.269 102.898 115.9 108.887 112.144 112.643L64.1045 64.604C64.515 64.1941 65.0248 63.8977 65.5842 63.7439C66.1436 63.59 66.7333 63.584 67.2957 63.7263L117.504 76.4842C120.325 77.1029 120.931 81.1887 118.41 82.5987ZM24.6899 25.1897L12.083 12.5828C13.4564 11.2094 15.6806 11.2094 17.0541 12.5828L24.6899 20.2187C26.0634 21.5921 26.0634 23.8163 24.6899 25.1897Z" fill="#0071E3"/>
<path d="M48.7578 49.2566L39.0477 58.9644C38.3609 59.6512 37.4609 59.9934 36.5609 59.9934C35.6609 59.9934 34.7609 59.6512 34.0742 58.9644C32.7031 57.591 32.7031 55.3668 34.0742 53.9934L43.7844 44.2832H48.7578V49.2566Z" fill="#0071E3"/>
<path d="M33.8169 78.2721C28.728 78.2724 23.9439 76.291 20.3456 72.6926C16.7477 69.0948 14.7664 64.3103 14.7664 59.2204C14.7687 54.1298 16.7501 49.3474 20.3456 45.7519L27.3063 38.7913C28.679 37.4185 30.9051 37.4185 32.278 38.7913C33.651 40.164 33.651 42.3901 32.278 43.763L25.3174 50.7237C23.0491 52.9919 21.7992 56.0102 21.7976 59.222C21.7976 62.4322 23.0475 65.4512 25.3174 67.7211C30.0039 72.4074 37.6285 72.4069 42.3148 67.7211L49.2755 60.7607C50.6484 59.388 52.874 59.3875 54.2472 60.7607C55.6199 62.1334 55.6199 64.3595 54.2472 65.7325L47.2866 72.6929C43.6889 76.2905 38.9054 78.2719 33.8169 78.2721Z" fill="#BED2FD"/>
<path d="M77.7707 34.3174C77.7684 39.408 75.7879 44.1892 72.1926 47.7845L65.2318 54.7454C64.545 55.4321 63.645 55.7766 62.7451 55.7766C61.8474 55.7766 60.9474 55.4321 60.2607 54.7454C58.8873 53.3743 58.8873 51.1478 60.2607 49.7743L67.2216 42.8134C69.488 40.5447 70.7395 37.5283 70.7395 34.3151C70.7395 31.1042 69.4903 28.0854 67.2216 25.8167C62.5341 21.1293 54.91 21.1316 50.2225 25.8167L43.2616 32.7776C41.8905 34.151 39.664 34.151 38.2906 32.7776C36.9171 31.4042 36.9171 29.1776 38.2906 27.8042L45.2515 20.8457C52.6787 13.416 64.7654 13.416 72.1926 20.8457C75.7903 24.4433 77.7707 29.2268 77.7707 34.3174Z" fill="#0071E3"/>
<path d="M58.4607 39.552L48.7576 49.2574L43.7842 44.284L53.4873 34.5809C54.8607 33.2074 57.0873 33.2074 58.4607 34.5809C59.8342 35.952 59.8342 38.1785 58.4607 39.552Z" fill="#0071E3"/>
</svg>
