<svg width="266" height="184" viewBox="0 0 266 184" fill="none" xmlns="http://www.w3.org/2000/svg">
<path d="M237.808 22.5273C232.785 18.3048 227.299 14.9221 221.35 12.3791C215.307 9.78909 208.902 8.15659 202.137 7.48161C188.386 6.11596 176.189 7.51301 165.547 11.6728C154.904 15.8011 142.024 29.4184 126.908 52.5246C111.776 75.5994 97.1305 78.9508 82.9717 62.5786C70.1314 46.7559 53.4532 44.8408 32.937 56.8335C32.5446 57.0846 32.1522 57.3279 31.7597 57.5634C24.5547 62.147 18.425 67.7979 13.3705 74.5163C5.23939 85.316 0.89128 96.3118 0.326183 107.504C-0.144732 116.891 2.04502 126.27 6.89544 135.641C7.1466 136.143 7.42915 136.693 7.74309 137.289C8.48085 138.608 9.23432 139.871 10.0035 141.08C11.2279 143.011 12.5386 144.91 13.9356 146.778C14.1554 147.076 14.3987 147.406 14.6655 147.767L15.3719 148.638V148.662L15.6074 148.944C16.4393 149.996 17.2948 151.024 18.1738 152.029L18.786 152.735C19.7436 153.818 20.6775 154.831 21.588 155.773L22.3414 156.573C23.0792 157.342 23.919 158.174 24.8608 159.069L24.9079 159.14C25.4102 159.611 25.8576 160.027 26.25 160.388C27.443 161.518 28.7145 162.672 30.0644 163.849L31.5714 165.12C32.0737 165.544 32.6702 166.039 33.3608 166.604L33.5728 166.792C35.9116 168.66 38.2741 170.418 40.66 172.066L41.5783 172.702C42.2062 173.126 42.7791 173.51 43.2971 173.856C43.8779 174.232 44.3253 174.507 44.6393 174.68L235.195 175.057L235.642 174.444C236.631 173.047 237.589 171.682 238.515 170.347C239.472 168.95 240.438 167.491 241.411 165.968C243.483 162.719 245.453 159.407 247.321 156.032C249.44 152.217 251.363 148.403 253.09 144.588L253.655 143.388C255.02 140.264 256.276 137.132 257.422 133.993C258.191 131.952 258.882 129.951 259.494 127.989C260.499 124.881 261.37 121.812 262.108 118.782C262.265 118.154 262.414 117.527 262.555 116.899C263.167 114.277 263.677 111.664 264.085 109.058C264.195 108.446 264.297 107.802 264.392 107.127C265.318 101.005 265.765 94.9697 265.734 89.0205C265.702 78.315 264.18 68.2061 261.166 58.6936C258.215 49.4009 253.984 41.1206 248.475 33.8528C247.69 32.8011 246.866 31.7651 246.002 30.7448C245.202 29.803 244.37 28.8768 243.507 27.9664C241.701 26.0513 239.802 24.2462 237.808 22.5509V22.5273Z" fill="url(#paint0_linear_559_5553)"/>
<path d="M40.8028 23.4161C38.4325 23.165 35.8896 23.2906 33.174 23.7929C30.3642 24.3109 27.5701 25.1978 24.7917 26.4535C22.029 27.6936 19.5253 29.1848 17.2806 30.9272C15.0987 32.6225 13.3092 34.4277 11.9122 36.3427C10.5151 38.2735 9.6204 40.1728 9.22797 42.0408C8.78845 43.9873 8.92973 45.7532 9.65179 47.3386C10.3739 48.9397 11.5904 50.219 13.3014 51.1766C14.9653 52.1341 16.9824 52.7306 19.3526 52.966C21.7229 53.2015 24.258 53.0681 26.9579 52.5658C29.7677 52.0478 32.5618 51.1687 35.3402 49.9286C38.1029 48.6886 40.6144 47.1895 42.8748 45.4314C45.0567 43.7518 46.8462 41.9466 48.2432 40.0159C49.6246 38.0851 50.5193 36.1858 50.9275 34.3178C51.3513 32.3871 51.21 30.6211 50.5036 29.02C49.7816 27.4346 48.5572 26.1553 46.8305 25.1821C45.1666 24.2402 43.1574 23.6516 40.8028 23.4161Z" fill="url(#paint1_linear_559_5553)"/>
<path d="M262.884 64.8309C262.775 65.1292 262.657 65.4353 262.531 65.7492C257.037 88.8397 248.231 95.4325 236.113 85.5276C212.175 57.3669 188.197 57.3277 164.181 85.4099C128.831 135.107 87.3432 146.197 39.718 118.68C23.911 109.952 11.5024 112.017 2.49219 124.873C3.57529 128.467 5.04297 132.054 6.89524 135.633C7.14639 136.135 7.42894 136.685 7.74289 137.281C8.48065 138.6 9.23411 139.863 10.0033 141.072C11.2277 143.003 12.5384 144.902 13.9354 146.77C14.1552 147.068 14.3985 147.398 14.6653 147.759L15.3717 148.63L15.6072 148.936C16.4391 149.988 17.2946 151.016 18.1736 152.021L18.7858 152.727C19.7434 153.81 20.6773 154.823 21.5878 155.765L22.3412 156.542C23.079 157.311 23.9188 158.151 24.8606 159.061L24.9077 159.108C25.41 159.595 25.8574 160.018 26.2498 160.379C27.3643 161.447 28.5495 162.522 29.8052 163.605L261.872 119.74C261.95 119.41 262.029 119.088 262.107 118.774C262.264 118.146 262.414 117.518 262.555 116.891C263.167 114.269 263.677 111.656 264.085 109.05C264.195 108.438 264.297 107.794 264.391 107.119C265.318 100.997 265.765 94.9616 265.733 89.0124C265.718 80.583 264.768 72.5147 262.884 64.8074V64.8309Z" fill="url(#paint2_linear_559_5553)"/>
<g opacity="0.4">
<path fill-rule="evenodd" clip-rule="evenodd" d="M105.293 181.951C105.089 181.872 104.885 181.857 104.681 181.904C104.398 181.967 104.171 182.124 103.998 182.375C103.841 182.61 103.786 182.869 103.833 183.152C103.88 183.34 103.967 183.505 104.092 183.646C104.187 183.772 104.32 183.866 104.493 183.929C104.697 184.007 104.901 184.023 105.105 183.976C105.403 183.929 105.631 183.78 105.788 183.529C105.945 183.277 105.992 183.011 105.929 182.728C105.898 182.555 105.819 182.398 105.693 182.257C105.599 182.116 105.466 182.014 105.293 181.951ZM75.3901 81.293C75.186 81.0732 74.9427 80.9084 74.6602 80.7985C74.4404 80.7043 74.2128 80.6494 73.9774 80.6337C73.6791 80.6337 73.4044 80.6808 73.1533 80.775C72.9021 80.8691 72.6823 81.0104 72.494 81.1988C72.2899 81.3872 72.1329 81.5991 72.0231 81.8345C71.9132 82.0857 71.8504 82.3525 71.8347 82.6351C71.819 82.9176 71.8661 83.1845 71.976 83.4356C72.0702 83.6868 72.2036 83.9066 72.3763 84.0949C72.596 84.3304 72.8393 84.4952 73.1062 84.5894C73.3259 84.6836 73.5614 84.7385 73.8125 84.7542C74.0951 84.7542 74.3619 84.7071 74.6131 84.6129C74.8643 84.5344 75.0919 84.401 75.2959 84.2126C75.4843 84.0243 75.6334 83.8124 75.7433 83.5769C75.8689 83.3258 75.9395 83.0589 75.9552 82.7764C75.9552 82.4938 75.9081 82.227 75.8139 81.9758C75.7197 81.7246 75.5863 81.5049 75.4137 81.3165L75.3901 81.293ZM74.5189 81.1282C74.7387 81.238 74.9349 81.3793 75.1076 81.552C75.2645 81.7089 75.3744 81.8895 75.4372 82.0935C75.5157 82.3133 75.5549 82.5331 75.5549 82.7528C75.5392 82.9726 75.4843 83.1845 75.3901 83.3885C75.2959 83.5926 75.1703 83.7653 75.0134 83.9065C74.8564 84.0635 74.6759 84.1813 74.4718 84.2597C74.2678 84.3382 74.048 84.3775 73.8125 84.3775C73.6085 84.3618 73.4201 84.3147 73.2474 84.2362C73.012 84.1577 72.8158 84.0243 72.6588 83.8359C72.5018 83.6789 72.3841 83.4984 72.3056 83.2944C72.2271 83.0903 72.1957 82.8705 72.2114 82.6351C72.2114 82.3996 72.2585 82.1799 72.3527 81.9758C72.4469 81.7874 72.5725 81.6148 72.7294 81.4578C72.8864 81.3165 73.0669 81.2066 73.271 81.1282C73.4751 81.0497 73.6948 81.0104 73.9303 81.0104C74.1343 81.0261 74.3305 81.0654 74.5189 81.1282ZM98.512 93.7958C98.9986 93.4347 99.3518 92.9717 99.5716 92.4066C99.807 91.8572 99.8855 91.2842 99.807 90.6877C99.7285 90.0755 99.5009 89.534 99.1242 89.0631C98.7475 88.5765 98.2844 88.2154 97.735 87.98C97.1856 87.7602 96.6127 87.6817 96.0162 87.7445C95.4197 87.823 94.8703 88.0506 94.368 88.4273C93.8971 88.8041 93.536 89.275 93.2849 89.8401C93.0808 90.3895 93.018 90.9546 93.0965 91.5354C93.175 92.1476 93.3947 92.697 93.7558 93.1836C94.1325 93.6702 94.5956 94.0234 95.145 94.2431C95.6944 94.4786 96.2673 94.5571 96.8638 94.4786C97.476 94.4001 98.0254 94.1725 98.512 93.7958ZM99.2655 92.2653C99.0614 92.7676 98.7396 93.1914 98.3001 93.5368C97.8606 93.8821 97.3661 94.0862 96.8167 94.1489C96.283 94.2117 95.7729 94.1411 95.2862 93.937C94.7839 93.733 94.3601 93.4112 94.0148 92.9717C93.6694 92.5321 93.4654 92.0377 93.4026 91.4883C93.3398 90.9546 93.4104 90.4444 93.6145 89.9578C93.8186 89.4555 94.1404 89.0317 94.5799 88.6863C95.0194 88.3567 95.5139 88.1605 96.0633 88.0977C96.5813 88.0192 97.0914 88.082 97.5937 88.2861C98.096 88.4901 98.5199 88.8119 98.8652 89.2514C99.2105 89.691 99.4146 90.1854 99.4774 90.7348C99.5402 91.2685 99.4695 91.7787 99.2655 92.2653ZM129.263 82.1406C129.231 82.0778 129.184 82.0307 129.121 81.9994C129.043 81.968 128.972 81.968 128.91 81.9994C128.847 82.0307 128.8 82.0778 128.768 82.1406L128.533 82.7293L127.944 82.4938C127.881 82.4624 127.811 82.4624 127.732 82.4938C127.654 82.5252 127.599 82.5723 127.567 82.6351C127.552 82.7136 127.56 82.7842 127.591 82.847C127.622 82.9098 127.662 82.9569 127.709 82.9883C127.724 82.9883 127.732 82.9883 127.732 82.9883L128.321 83.2237L128.085 83.8359C128.054 83.8987 128.054 83.9615 128.085 84.0243C128.117 84.1028 128.164 84.1577 128.227 84.1891C128.305 84.2048 128.376 84.1969 128.439 84.1656C128.501 84.1499 128.549 84.1028 128.58 84.0243L128.839 83.4356L129.404 83.6946C129.483 83.726 129.553 83.726 129.616 83.6946C129.679 83.6475 129.726 83.5926 129.757 83.5298C129.789 83.467 129.789 83.3964 129.757 83.3179C129.726 83.2551 129.679 83.208 129.616 83.1766L129.027 82.9412L129.286 82.3525C129.302 82.2897 129.294 82.2191 129.263 82.1406ZM32.3485 141.806C32.3799 141.884 32.4348 141.939 32.5133 141.97L33.102 142.206L32.8665 142.794C32.8351 142.857 32.8351 142.928 32.8665 143.006C32.8979 143.069 32.9372 143.116 32.9842 143.148C33.0627 143.179 33.1334 143.179 33.1962 143.148C33.2746 143.116 33.3296 143.061 33.361 142.983L33.5964 142.394L34.1851 142.653C34.2636 142.669 34.3342 142.669 34.397 142.653C34.4598 142.622 34.5069 142.567 34.5383 142.488C34.554 142.426 34.5461 142.355 34.5147 142.276C34.499 142.214 34.4598 142.167 34.397 142.135L33.7848 141.9L34.0438 141.311C34.0595 141.248 34.0595 141.178 34.0438 141.099C34.0124 141.036 33.9575 140.989 33.879 140.958C33.8162 140.926 33.7534 140.926 33.6906 140.958C33.6121 140.989 33.565 141.036 33.5493 141.099L33.2903 141.688L32.7017 141.452C32.6389 141.421 32.5683 141.421 32.4898 141.452C32.427 141.484 32.3799 141.531 32.3485 141.594C32.3171 141.672 32.3171 141.743 32.3485 141.806ZM58.6491 121.792C58.759 121.839 58.8767 121.87 59.0023 121.886C59.3005 121.902 59.5517 121.807 59.7557 121.603C59.9912 121.399 60.1089 121.148 60.1089 120.85C60.1089 120.63 60.0461 120.418 59.9206 120.214C59.8107 120.041 59.6537 119.908 59.4496 119.814C59.3241 119.767 59.1985 119.743 59.0729 119.743C58.7904 119.727 58.5392 119.822 58.3195 120.026C58.0997 120.23 57.982 120.481 57.9663 120.779C57.9663 120.999 58.0291 121.211 58.1546 121.415C58.2645 121.588 58.4293 121.713 58.6491 121.792ZM52.2682 108.747C52.692 108.92 53.1158 108.912 53.5397 108.724C53.9635 108.567 54.2617 108.269 54.4344 107.829C54.6071 107.405 54.5992 106.981 54.4109 106.558C54.2539 106.134 53.9556 105.835 53.5161 105.663C53.0923 105.49 52.6685 105.498 52.2446 105.686C51.8208 105.843 51.5304 106.134 51.3735 106.558C51.1851 106.997 51.1851 107.429 51.3735 107.853C51.5461 108.276 51.8444 108.575 52.2682 108.747ZM22.577 105.545C22.8596 105.561 23.1107 105.467 23.3305 105.263C23.5503 105.058 23.668 104.807 23.6837 104.509C23.6837 104.289 23.6209 104.085 23.4953 103.897C23.3854 103.709 23.2206 103.575 23.0009 103.497C22.891 103.434 22.7732 103.41 22.6477 103.426C22.3494 103.41 22.0983 103.497 21.8942 103.685C21.6744 103.889 21.5567 104.14 21.541 104.438C21.541 104.674 21.6038 104.886 21.7294 105.074C21.855 105.247 22.0198 105.38 22.2238 105.474C22.3337 105.522 22.4514 105.545 22.577 105.545ZM57.7779 88.8041C57.7936 88.5843 57.7387 88.3802 57.6131 88.1919C57.4875 88.0192 57.3227 87.8858 57.1186 87.7916C57.0087 87.7445 56.891 87.721 56.7654 87.721C56.4672 87.7053 56.2082 87.7994 55.9884 88.0035C55.7687 88.2076 55.6588 88.4509 55.6588 88.7334C55.6588 88.9689 55.7137 89.1808 55.8236 89.3692C55.9492 89.5418 56.114 89.6753 56.3181 89.7694C56.4436 89.8165 56.5692 89.8401 56.6948 89.8401C56.9773 89.8558 57.2285 89.7616 57.4483 89.5575C57.668 89.3692 57.7779 89.118 57.7779 88.8041ZM42.897 84.3539C42.6615 84.2597 42.4182 84.2048 42.1671 84.1891C41.9002 84.1891 41.6334 84.2362 41.3665 84.3304C41.1311 84.4246 40.9035 84.558 40.6837 84.7307C40.4953 84.919 40.3462 85.1309 40.2363 85.3664C40.1264 85.6332 40.0637 85.9001 40.048 86.1669C40.0323 86.4495 40.0794 86.7163 40.1892 86.9675C40.2834 87.2187 40.4168 87.4463 40.5895 87.6503C40.8093 87.8701 41.0526 88.0349 41.3194 88.1448C41.5549 88.239 41.7903 88.2939 42.0258 88.3096C42.3084 88.3096 42.5752 88.2625 42.8264 88.1683C43.0775 88.0584 43.3051 87.9172 43.5092 87.7445C43.6976 87.5561 43.8467 87.3442 43.9566 87.1088C44.0821 86.8576 44.1449 86.5986 44.1449 86.3318C44.1606 86.0335 44.1214 85.7588 44.0272 85.5077C43.933 85.2722 43.7996 85.0524 43.6269 84.8484H43.6034C43.3993 84.6286 43.1639 84.4638 42.897 84.3539ZM41.5078 84.6836C41.7276 84.5894 41.9395 84.5501 42.1435 84.5658C42.3633 84.5658 42.5595 84.6051 42.7322 84.6836C42.9519 84.7777 43.1481 84.919 43.3208 85.1074H43.3444C43.4856 85.2644 43.5955 85.4449 43.674 85.6489C43.7525 85.853 43.7917 86.0728 43.7917 86.3082C43.776 86.528 43.7211 86.7399 43.6269 86.944C43.5327 87.148 43.4072 87.3207 43.2502 87.462C43.0932 87.6189 42.9127 87.7367 42.7086 87.8151C42.4889 87.8936 42.2691 87.925 42.0494 87.9093C41.8453 87.9093 41.6491 87.8701 41.4607 87.7916C41.2409 87.6974 41.0447 87.564 40.8721 87.3913C40.7151 87.2344 40.6052 87.0538 40.5424 86.8498C40.4482 86.6457 40.409 86.4259 40.4247 86.1905C40.4404 85.9707 40.4875 85.751 40.566 85.5312C40.6759 85.3428 40.8093 85.1702 40.9662 85.0132C41.1075 84.8719 41.288 84.762 41.5078 84.6836ZM41.0369 55.0159C40.8014 55.22 40.6837 55.4633 40.6837 55.7459C40.668 55.9813 40.7229 56.1932 40.8485 56.3816C40.9741 56.5543 41.1389 56.6877 41.343 56.7819C41.4686 56.829 41.5941 56.8525 41.7197 56.8525C42.0023 56.8682 42.2534 56.774 42.4732 56.57C42.6772 56.3816 42.7871 56.1304 42.8028 55.8165C42.8185 55.5967 42.7636 55.3927 42.638 55.2043C42.5124 55.0316 42.3476 54.8982 42.1435 54.804C42.0337 54.7569 41.9159 54.7334 41.7903 54.7334C41.4921 54.7177 41.2409 54.8119 41.0369 55.0159ZM99.8306 37.6156C99.8463 37.5372 99.8463 37.4665 99.8306 37.4037C99.7992 37.3252 99.7442 37.2703 99.6658 37.2389L99.0771 37.027L99.3361 36.4384C99.3675 36.3599 99.3675 36.2814 99.3361 36.2029C99.3047 36.1401 99.2576 36.093 99.1948 36.0616C99.1007 36.0459 99.0222 36.0459 98.9594 36.0616C98.8966 36.093 98.8495 36.148 98.8181 36.2264L98.5826 36.7915L97.994 36.5561C97.9312 36.5404 97.8606 36.5404 97.7821 36.5561C97.7193 36.5875 97.6722 36.6346 97.6408 36.6974C97.6094 36.7758 97.6094 36.8543 97.6408 36.9328C97.6722 36.9956 97.7193 37.0427 97.7821 37.0741L98.3708 37.3095L98.1353 37.8982C98.1039 37.961 98.1039 38.0238 98.1353 38.0866C98.1667 38.165 98.2216 38.22 98.3001 38.2514C98.3629 38.2828 98.4257 38.2828 98.4885 38.2514C98.5513 38.22 98.5984 38.165 98.6297 38.0866L98.8652 37.4979L99.4538 37.7569C99.5323 37.7883 99.603 37.7883 99.6658 37.7569C99.7442 37.7255 99.7992 37.6784 99.8306 37.6156ZM78.8749 51.8844C78.9848 51.6489 79.0397 51.3899 79.0397 51.1073C79.0554 50.8248 79.0161 50.5579 78.922 50.3068C78.8278 50.0713 78.6944 49.8516 78.5217 49.6475L78.4981 49.624C78.2941 49.4042 78.0508 49.2394 77.7682 49.1295C77.5485 49.0353 77.313 48.9804 77.0619 48.9647C76.795 48.9647 76.536 49.0118 76.2848 49.106C76.0337 49.2001 75.8061 49.3414 75.602 49.5298C75.4137 49.7181 75.2645 49.9301 75.1547 50.1655C75.0291 50.4167 74.9584 50.6835 74.9427 50.9661C74.927 51.2329 74.9741 51.4998 75.084 51.7666C75.1782 52.0178 75.3116 52.2375 75.4843 52.4259C75.7041 52.6614 75.9474 52.834 76.2142 52.9439C76.4497 53.0224 76.6851 53.0695 76.9206 53.0852C77.2031 53.1009 77.4778 53.0616 77.7447 52.9675C77.9801 52.8576 78.1999 52.7163 78.404 52.5436C78.5923 52.3553 78.7493 52.1355 78.8749 51.8844ZM77.6269 49.4827C77.8467 49.5612 78.0508 49.6946 78.2391 49.883C78.3804 50.0556 78.4903 50.244 78.5688 50.4481C78.6473 50.6678 78.6865 50.8797 78.6865 51.0838C78.6708 51.3193 78.6159 51.539 78.5217 51.7431C78.4118 51.9471 78.2862 52.1277 78.145 52.2846C77.988 52.4102 77.7996 52.5122 77.5799 52.5907C77.3758 52.6692 77.156 52.7085 76.9206 52.7085C76.7322 52.6928 76.5439 52.6535 76.3555 52.5907C76.12 52.4965 75.9238 52.3553 75.7668 52.1669C75.6099 52.0099 75.5 51.8294 75.4372 51.6254C75.3587 51.4213 75.3195 51.2015 75.3195 50.9661C75.3352 50.7463 75.3901 50.5344 75.4843 50.3303C75.5785 50.1263 75.7041 49.9536 75.861 49.8123C76.018 49.6554 76.1985 49.5376 76.4026 49.4591C76.6223 49.3807 76.8421 49.3493 77.0619 49.365C77.2659 49.365 77.4543 49.4042 77.6269 49.4827ZM219.16 134.506C219.003 134.365 218.823 134.247 218.619 134.153C218.415 134.09 218.195 134.059 217.96 134.059C217.771 134.059 217.583 134.098 217.394 134.177C217.175 134.271 216.986 134.404 216.829 134.577H216.806C216.664 134.734 216.562 134.914 216.5 135.119C216.406 135.323 216.366 135.542 216.382 135.778C216.382 135.982 216.429 136.194 216.523 136.414C216.617 136.602 216.751 136.767 216.923 136.908C217.065 137.065 217.237 137.183 217.442 137.261C217.646 137.34 217.857 137.371 218.077 137.355C218.281 137.34 218.47 137.3 218.642 137.238C218.878 137.143 219.074 137.01 219.231 136.837C219.388 136.68 219.498 136.5 219.561 136.296C219.655 136.092 219.694 135.872 219.678 135.637C219.678 135.417 219.631 135.213 219.537 135.024C219.443 134.82 219.317 134.648 219.16 134.506ZM218.501 134.459C218.658 134.506 218.807 134.593 218.948 134.718C219.074 134.844 219.176 134.985 219.255 135.142C219.333 135.299 219.372 135.472 219.372 135.66C219.388 135.848 219.364 136.021 219.302 136.178C219.239 136.351 219.145 136.5 219.019 136.625C218.878 136.767 218.721 136.877 218.548 136.955C218.391 137.018 218.234 137.049 218.077 137.049C217.905 137.065 217.732 137.041 217.559 136.979C217.387 136.9 217.237 136.806 217.112 136.696C216.986 136.586 216.884 136.445 216.806 136.272C216.727 136.115 216.688 135.943 216.688 135.754C216.672 135.566 216.696 135.393 216.759 135.236C216.821 135.079 216.916 134.93 217.041 134.789C217.182 134.632 217.339 134.522 217.512 134.459C217.669 134.396 217.818 134.365 217.96 134.365C218.148 134.365 218.328 134.396 218.501 134.459ZM211.437 125.159L211.178 125.747L210.59 125.535C210.527 125.504 210.464 125.496 210.401 125.512C210.323 125.543 210.268 125.59 210.237 125.653C210.221 125.732 210.221 125.802 210.237 125.865C210.284 125.944 210.339 125.991 210.401 126.006L210.99 126.265L210.731 126.854C210.7 126.932 210.707 126.995 210.755 127.042C210.77 127.121 210.817 127.176 210.896 127.207C210.974 127.223 211.037 127.223 211.084 127.207C211.163 127.176 211.218 127.121 211.249 127.042L211.484 126.477L212.073 126.713C212.152 126.728 212.222 126.728 212.285 126.713C212.348 126.681 212.395 126.626 212.426 126.548C212.458 126.485 212.458 126.414 212.426 126.336C212.395 126.273 212.348 126.234 212.285 126.218L211.696 125.959L211.932 125.371C211.948 125.308 211.948 125.237 211.932 125.159C211.9 125.096 211.845 125.049 211.767 125.017C211.704 124.986 211.641 124.986 211.579 125.017C211.5 125.049 211.453 125.096 211.437 125.159ZM235.43 125.253C235.258 125.127 235.062 125.041 234.842 124.994C234.512 124.915 234.19 124.939 233.876 125.064C233.782 125.112 233.688 125.167 233.594 125.229C233.406 125.355 233.249 125.496 233.123 125.653C232.997 125.841 232.919 126.046 232.888 126.265C232.84 126.485 232.833 126.705 232.864 126.925C232.911 127.129 232.997 127.325 233.123 127.513C233.233 127.686 233.374 127.835 233.547 127.961C233.735 128.102 233.939 128.188 234.159 128.22C234.489 128.298 234.81 128.275 235.124 128.149C235.219 128.102 235.313 128.047 235.407 127.984C235.58 127.874 235.729 127.725 235.854 127.537C235.98 127.364 236.066 127.168 236.113 126.948C236.16 126.728 236.16 126.516 236.113 126.312C236.082 126.093 236.003 125.889 235.878 125.7C235.768 125.528 235.619 125.378 235.43 125.253ZM234.771 125.276C234.944 125.323 235.109 125.402 235.266 125.512C235.407 125.59 235.532 125.708 235.642 125.865L235.619 125.889C235.713 126.03 235.776 126.179 235.807 126.336C235.854 126.509 235.854 126.689 235.807 126.878C235.776 127.066 235.713 127.231 235.619 127.372C235.509 127.513 235.376 127.631 235.219 127.725C235.156 127.772 235.085 127.819 235.007 127.866C234.74 127.961 234.481 127.976 234.23 127.914C234.041 127.882 233.876 127.819 233.735 127.725C233.594 127.615 233.468 127.49 233.358 127.348C233.264 127.191 233.201 127.034 233.17 126.878C233.139 126.689 233.139 126.509 233.17 126.336C233.201 126.163 233.272 125.998 233.382 125.842C233.476 125.7 233.594 125.583 233.735 125.488C233.814 125.441 233.892 125.394 233.971 125.347C234.237 125.253 234.504 125.229 234.771 125.276ZM230.91 115.905C230.863 115.89 230.808 115.89 230.745 115.905L230.274 116.094L230.086 115.623C230.054 115.576 230.015 115.544 229.968 115.528C229.905 115.497 229.85 115.497 229.803 115.528C229.74 115.544 229.693 115.576 229.662 115.623C229.646 115.685 229.646 115.748 229.662 115.811L229.874 116.258L229.403 116.47C229.34 116.502 229.301 116.541 229.285 116.588C229.254 116.635 229.254 116.69 229.285 116.753C229.301 116.8 229.332 116.839 229.379 116.871C229.442 116.886 229.505 116.886 229.568 116.871L230.038 116.682L230.227 117.153C230.258 117.2 230.29 117.239 230.321 117.271C230.384 117.287 230.447 117.287 230.509 117.271C230.572 117.239 230.611 117.2 230.627 117.153C230.643 117.09 230.643 117.035 230.627 116.988L230.439 116.517L230.91 116.305C230.957 116.29 230.996 116.251 231.027 116.188C231.043 116.141 231.043 116.094 231.027 116.046C230.996 115.984 230.957 115.937 230.91 115.905ZM221.209 102.79C221.005 102.727 220.793 102.696 220.573 102.696C220.369 102.696 220.181 102.735 220.008 102.814C219.788 102.908 219.592 103.041 219.419 103.214H219.396C219.27 103.371 219.168 103.552 219.09 103.756C219.011 103.96 218.972 104.172 218.972 104.391C218.972 104.627 219.027 104.839 219.137 105.027C219.215 105.231 219.333 105.404 219.49 105.545C219.647 105.686 219.827 105.796 220.032 105.875C220.236 105.969 220.455 106.008 220.691 105.992C220.879 105.977 221.068 105.938 221.256 105.875C221.476 105.781 221.672 105.647 221.845 105.474C221.986 105.317 222.096 105.137 222.174 104.933C222.253 104.729 222.284 104.509 222.268 104.274C222.253 104.054 222.206 103.842 222.127 103.638C222.033 103.45 221.907 103.277 221.75 103.12C221.593 102.979 221.413 102.869 221.209 102.79ZM221.091 103.073C221.264 103.136 221.413 103.23 221.538 103.355C221.664 103.481 221.766 103.622 221.845 103.779C221.923 103.936 221.962 104.109 221.962 104.297C221.978 104.486 221.954 104.666 221.892 104.839C221.829 104.996 221.735 105.137 221.609 105.263C221.484 105.404 221.327 105.514 221.138 105.592C220.981 105.655 220.824 105.686 220.667 105.686C220.479 105.702 220.306 105.671 220.149 105.592C219.992 105.529 219.843 105.443 219.702 105.333C219.576 105.208 219.474 105.066 219.396 104.909C219.333 104.737 219.294 104.564 219.278 104.391C219.278 104.219 219.309 104.046 219.372 103.873C219.419 103.716 219.506 103.567 219.631 103.426C219.773 103.285 219.93 103.175 220.102 103.096C220.259 103.034 220.416 103.002 220.573 103.002C220.761 102.986 220.934 103.01 221.091 103.073ZM185.608 131.916C185.561 132.183 185.561 132.45 185.608 132.717C185.686 132.999 185.796 133.251 185.937 133.47C186.094 133.69 186.283 133.871 186.502 134.012C186.612 134.09 186.73 134.153 186.856 134.2C187.248 134.357 187.648 134.396 188.056 134.318C188.323 134.255 188.567 134.145 188.786 133.988C189.022 133.831 189.21 133.643 189.351 133.423C189.493 133.203 189.587 132.96 189.634 132.693C189.697 132.442 189.697 132.175 189.634 131.893C189.587 131.61 189.485 131.359 189.328 131.139C189.171 130.92 188.975 130.731 188.739 130.574C188.614 130.496 188.504 130.441 188.41 130.409C188.017 130.252 187.617 130.213 187.209 130.292C186.942 130.354 186.691 130.464 186.455 130.621C186.251 130.763 186.071 130.943 185.914 131.163V131.186C185.772 131.406 185.67 131.649 185.608 131.916ZM186.243 133.258C186.118 133.07 186.032 132.866 185.984 132.646C185.937 132.426 185.937 132.207 185.984 131.987C186.032 131.767 186.11 131.571 186.22 131.398L186.243 131.375C186.353 131.202 186.502 131.053 186.691 130.927C186.863 130.802 187.06 130.708 187.279 130.645C187.625 130.582 187.954 130.613 188.268 130.739C188.363 130.786 188.457 130.841 188.551 130.904C188.724 131.029 188.881 131.179 189.022 131.351C189.132 131.524 189.21 131.728 189.257 131.963C189.304 132.183 189.304 132.403 189.257 132.623C189.226 132.842 189.147 133.039 189.022 133.211C188.912 133.4 188.763 133.557 188.574 133.682C188.386 133.808 188.19 133.894 187.986 133.941C187.64 134.02 187.311 133.988 186.997 133.847C186.887 133.816 186.793 133.769 186.714 133.706C186.526 133.58 186.369 133.431 186.243 133.258ZM191.329 142.677C191.392 142.645 191.439 142.59 191.471 142.512C191.502 142.449 191.502 142.378 191.471 142.3C191.439 142.237 191.392 142.19 191.329 142.159L190.741 141.923L190.976 141.335C191.007 141.272 191.007 141.201 190.976 141.123C190.945 141.06 190.89 141.013 190.811 140.981C190.749 140.95 190.686 140.95 190.623 140.981C190.56 141.013 190.513 141.06 190.482 141.123L190.246 141.711L189.658 141.476C189.579 141.444 189.508 141.444 189.446 141.476C189.367 141.507 189.312 141.554 189.281 141.617C189.265 141.696 189.265 141.766 189.281 141.829C189.328 141.908 189.383 141.955 189.446 141.97L190.034 142.206L189.799 142.818C189.767 142.881 189.767 142.944 189.799 143.006C189.83 143.085 189.877 143.14 189.94 143.171C190.019 143.187 190.089 143.187 190.152 143.171C190.215 143.14 190.262 143.085 190.293 143.006L190.529 142.441L191.117 142.677C191.196 142.692 191.267 142.692 191.329 142.677ZM155.822 90.2168C155.712 90.0912 155.579 89.997 155.422 89.9343C155.218 89.8558 155.006 89.8322 154.786 89.8636C154.504 89.9264 154.284 90.0834 154.127 90.3345C153.954 90.57 153.899 90.8368 153.962 91.1351C154.009 91.3078 154.096 91.4647 154.221 91.606C154.315 91.7316 154.441 91.8336 154.598 91.9121C154.802 91.9906 155.014 92.0063 155.234 91.9592C155.516 91.8964 155.736 91.7394 155.893 91.4883C156.066 91.2528 156.121 90.986 156.058 90.6877C156.026 90.5151 155.948 90.3581 155.822 90.2168ZM185.49 85.9786C185.584 86.0257 185.686 86.0492 185.796 86.0492C185.922 86.0649 186.039 86.0335 186.149 85.955C186.306 85.8765 186.4 85.751 186.432 85.5783C186.479 85.4056 186.463 85.2408 186.385 85.0838C186.338 84.9897 186.259 84.919 186.149 84.8719C186.071 84.8091 185.977 84.7777 185.867 84.7777C185.741 84.762 185.616 84.7934 185.49 84.8719C185.333 84.9504 185.239 85.076 185.207 85.2487C185.16 85.437 185.176 85.6018 185.255 85.7431C185.317 85.8373 185.396 85.9158 185.49 85.9786ZM200.041 86.9675C199.759 86.2768 199.28 85.7981 198.605 85.5312C197.914 85.2487 197.231 85.2487 196.556 85.5312C195.881 85.8138 195.403 86.3004 195.12 86.991C194.853 87.6503 194.861 88.3253 195.144 89.016C195.411 89.691 195.889 90.1697 196.58 90.4523C197.255 90.7191 197.93 90.7113 198.605 90.4287C199.28 90.1462 199.759 89.6674 200.041 88.9924C200.308 88.3175 200.308 87.6425 200.041 86.9675ZM196.062 68.7431C196.031 68.6803 195.984 68.6411 195.921 68.6254C195.842 68.594 195.772 68.594 195.709 68.6254C195.646 68.6411 195.599 68.6803 195.568 68.7431L195.332 69.3553L194.72 69.0963C194.657 69.0806 194.594 69.0884 194.532 69.1198C194.453 69.1355 194.406 69.1748 194.39 69.2376C194.359 69.3317 194.359 69.4102 194.39 69.473C194.422 69.5358 194.469 69.5829 194.532 69.6143L195.12 69.8498L194.885 70.4384C194.853 70.5012 194.853 70.5718 194.885 70.6503C194.9 70.7131 194.948 70.7602 195.026 70.7916C195.104 70.823 195.175 70.823 195.238 70.7916C195.301 70.7602 195.348 70.7131 195.379 70.6503L195.615 70.0617L196.203 70.2971C196.282 70.3128 196.352 70.3128 196.415 70.2971C196.494 70.2657 196.541 70.2186 196.556 70.1558C196.588 70.0774 196.588 70.0067 196.556 69.9439C196.541 69.8654 196.494 69.8184 196.415 69.8027L195.827 69.5437L196.062 68.955C196.093 68.8922 196.093 68.8216 196.062 68.7431ZM188.928 70.9093C188.928 70.8622 188.912 70.823 188.881 70.7916C188.849 70.7602 188.81 70.7445 188.763 70.7445C188.716 70.7602 188.676 70.7759 188.645 70.7916C188.614 70.8073 188.598 70.8387 188.598 70.8858L188.574 71.286L188.198 71.2625C188.151 71.2625 188.111 71.2782 188.08 71.3096C188.049 71.341 188.033 71.3802 188.033 71.4273C188.017 71.4744 188.025 71.5136 188.056 71.545C188.088 71.5607 188.127 71.5686 188.174 71.5686L188.551 71.5921L188.527 71.9924C188.543 72.0395 188.559 72.0788 188.574 72.1101C188.606 72.1415 188.645 72.1651 188.692 72.1808C188.739 72.1808 188.779 72.1651 188.81 72.1337C188.841 72.1023 188.857 72.063 188.857 72.016L188.881 71.6157L189.257 71.6392C189.304 71.6392 189.344 71.6235 189.375 71.5921C189.406 71.5607 189.43 71.5293 189.446 71.498C189.446 71.4509 189.43 71.4116 189.399 71.3802C189.367 71.3488 189.328 71.3253 189.281 71.3096H188.881L188.928 70.9093ZM179.133 70.25C179.29 69.9989 179.337 69.7399 179.274 69.473C179.242 69.269 179.164 69.1041 179.038 68.9786C178.929 68.853 178.795 68.751 178.638 68.6725C178.45 68.594 178.246 68.5783 178.026 68.6254C177.728 68.6882 177.5 68.8373 177.343 69.0727C177.186 69.3239 177.139 69.5908 177.202 69.8733C177.233 70.0617 177.304 70.2265 177.414 70.3678C177.524 70.4933 177.665 70.5875 177.838 70.6503C178.026 70.7288 178.23 70.7523 178.45 70.7209C178.748 70.6581 178.976 70.5012 179.133 70.25ZM189.705 61.7736C189.752 61.6009 189.728 61.4439 189.634 61.3026C189.571 61.1928 189.493 61.1064 189.399 61.0436C189.304 60.9966 189.21 60.9652 189.116 60.9495C188.975 60.9495 188.849 60.9887 188.739 61.0672C188.598 61.1614 188.504 61.2948 188.457 61.4675C188.41 61.6401 188.433 61.7971 188.527 61.9384C188.574 62.0326 188.645 62.1111 188.739 62.1738C188.833 62.2209 188.935 62.2445 189.045 62.2445C189.171 62.2445 189.289 62.2209 189.399 62.1738C189.556 62.0797 189.658 61.9462 189.705 61.7736ZM183.559 50.3068C183.638 50.1341 183.653 49.9693 183.606 49.8123C183.559 49.6868 183.481 49.5769 183.371 49.4827C183.261 49.4042 183.143 49.3571 183.018 49.3414C182.955 49.3571 182.884 49.3728 182.806 49.3885C182.633 49.4356 182.5 49.5455 182.405 49.7182C182.327 49.8594 182.311 50.0164 182.358 50.1891C182.405 50.3303 182.484 50.4402 182.594 50.5187C182.704 50.5972 182.821 50.6364 182.947 50.6364C183.025 50.6521 183.096 50.6443 183.159 50.6129C183.347 50.5658 183.481 50.4638 183.559 50.3068ZM181.016 37.4508L181.252 36.8622C181.283 36.7994 181.283 36.7288 181.252 36.6503C181.22 36.5875 181.173 36.5404 181.11 36.509C181.032 36.4776 180.961 36.4776 180.899 36.509C180.836 36.5404 180.789 36.5953 180.757 36.6738L180.522 37.2625L179.933 37.0035C179.855 36.9721 179.784 36.9721 179.721 37.0035C179.658 37.0349 179.611 37.0819 179.58 37.1447C179.549 37.2232 179.549 37.2939 179.58 37.3566C179.611 37.4351 179.658 37.4901 179.721 37.5215L180.31 37.7569L180.074 38.322C180.043 38.4005 180.043 38.4711 180.074 38.5339C180.106 38.6124 180.153 38.6674 180.216 38.6987C180.279 38.7301 180.349 38.7223 180.428 38.6752C180.49 38.6595 180.538 38.6203 180.569 38.5575L180.828 37.9453L181.417 38.2043C181.479 38.22 181.55 38.22 181.628 38.2043C181.691 38.1729 181.73 38.118 181.746 38.0395C181.778 37.9767 181.778 37.9139 181.746 37.8511C181.715 37.7726 181.668 37.7177 181.605 37.6863L181.016 37.4508ZM177.249 33.6129C177.406 33.3774 177.453 33.1184 177.39 32.8359C177.359 32.6318 177.288 32.467 177.178 32.3414C177.053 32.2158 176.911 32.1216 176.754 32.0589C176.55 31.9647 176.346 31.9411 176.142 31.9882C175.844 32.051 175.616 32.208 175.459 32.4591C175.302 32.7103 175.255 32.9771 175.318 33.2597C175.35 33.4324 175.42 33.5893 175.53 33.7306C175.656 33.8562 175.797 33.9582 175.954 34.0367C176.158 34.0995 176.362 34.1152 176.566 34.0838C176.849 34.021 177.076 33.864 177.249 33.6129ZM171.739 53.509C171.645 53.6346 171.582 53.7759 171.551 53.9328C171.519 54.0898 171.512 54.2468 171.527 54.4038C171.543 54.5764 171.598 54.7334 171.692 54.8747C171.786 55.0159 171.896 55.1337 172.022 55.2279C172.147 55.3377 172.289 55.4084 172.446 55.4398C172.524 55.4555 172.603 55.4633 172.681 55.4633C172.932 55.479 173.168 55.4241 173.387 55.2985C173.529 55.22 173.654 55.1101 173.764 54.9688C173.858 54.8276 173.921 54.6785 173.953 54.5215C174 54.3645 174.007 54.2075 173.976 54.0506C173.96 53.8936 173.905 53.7366 173.811 53.5796C173.733 53.4541 173.623 53.3363 173.482 53.2265C173.356 53.1323 173.215 53.0695 173.058 53.0381C172.979 53.0067 172.901 52.991 172.822 52.991C172.571 52.9753 172.336 53.0303 172.116 53.1558C171.975 53.25 171.849 53.3677 171.739 53.509ZM171.739 54.3802C171.724 54.2546 171.731 54.129 171.763 54.0035C171.794 53.8622 171.857 53.7445 171.951 53.6503C172.03 53.5247 172.124 53.4305 172.234 53.3677C172.406 53.2579 172.603 53.2108 172.822 53.2265C172.869 53.2265 172.932 53.2343 173.011 53.25C173.136 53.2814 173.246 53.3363 173.34 53.4148C173.466 53.4933 173.56 53.5953 173.623 53.7209C173.686 53.8308 173.733 53.9485 173.764 54.0741C173.78 54.2154 173.764 54.3488 173.717 54.4744C173.701 54.6 173.654 54.7177 173.576 54.8276C173.497 54.9375 173.395 55.0238 173.27 55.0866C173.097 55.1965 172.909 55.2435 172.705 55.2279C172.626 55.2279 172.563 55.22 172.516 55.2043C172.391 55.1729 172.273 55.118 172.163 55.0395C172.053 54.9767 171.959 54.8825 171.881 54.7569C171.818 54.6314 171.771 54.5058 171.739 54.3802ZM190.011 22.6877C190.215 22.7661 190.427 22.7818 190.646 22.7347C190.929 22.672 191.149 22.515 191.306 22.2638C191.463 22.0284 191.518 21.7694 191.471 21.4868C191.423 21.3141 191.345 21.1493 191.235 20.9924C191.11 20.8668 190.968 20.7726 190.811 20.7098C190.623 20.6156 190.419 20.5921 190.199 20.6392C189.917 20.702 189.689 20.8589 189.516 21.1101C189.359 21.3612 189.312 21.6281 189.375 21.9106C189.406 22.0833 189.485 22.2324 189.61 22.358C189.72 22.515 189.854 22.6249 190.011 22.6877ZM177.602 1.26103C177.492 1.18255 177.375 1.11976 177.249 1.07267C176.857 0.915696 176.456 0.884301 176.048 0.978484C175.766 1.02558 175.514 1.13546 175.295 1.30812C175.075 1.4494 174.894 1.62992 174.753 1.84968V1.87322C174.596 2.09298 174.494 2.32844 174.447 2.57959C174.4 2.86214 174.4 3.13684 174.447 3.4037C174.51 3.67055 174.62 3.9217 174.777 4.15716C174.918 4.37692 175.106 4.55744 175.342 4.69871C175.436 4.7615 175.554 4.82429 175.695 4.88708C176.087 5.04405 176.488 5.08329 176.896 5.0048C177.163 4.94202 177.414 4.83214 177.649 4.67517C177.869 4.51819 178.05 4.32983 178.191 4.11007C178.332 3.87461 178.426 3.6313 178.473 3.38015C178.52 3.1133 178.52 2.84645 178.473 2.57959C178.426 2.29705 178.324 2.04589 178.167 1.82613C178.01 1.60637 177.822 1.41801 177.602 1.26103ZM176.119 1.35522C176.464 1.27673 176.786 1.30812 177.084 1.4494C177.178 1.48079 177.28 1.52788 177.39 1.59067C177.563 1.70055 177.72 1.84968 177.861 2.03804C177.971 2.22641 178.05 2.43047 178.097 2.65023C178.159 2.86999 178.159 3.08975 178.097 3.30951C178.065 3.52927 177.987 3.72549 177.861 3.89816C177.736 4.08652 177.586 4.24349 177.414 4.36907C177.225 4.49465 177.029 4.58098 176.825 4.62807C176.48 4.70656 176.15 4.67516 175.836 4.53389C175.711 4.4868 175.616 4.43971 175.554 4.39262C175.365 4.26704 175.208 4.11791 175.083 3.94525C174.957 3.75688 174.871 3.55282 174.824 3.33306C174.777 3.1133 174.777 2.89354 174.824 2.67378C174.871 2.45402 174.949 2.24995 175.059 2.06159C175.185 1.87322 175.334 1.7241 175.507 1.61422C175.695 1.48864 175.899 1.40231 176.119 1.35522Z" fill="white"/>
</g>
<path fill-rule="evenodd" clip-rule="evenodd" d="M172.446 55.4418C172.289 55.4104 172.148 55.3476 172.022 55.2534C171.896 55.1593 171.787 55.0337 171.692 54.8767C171.598 54.7354 171.543 54.5863 171.528 54.4293C171.496 54.2724 171.504 54.1154 171.551 53.9584V53.9349C171.582 53.7779 171.645 53.6366 171.739 53.5111C171.849 53.3698 171.975 53.2599 172.116 53.1814C172.336 53.0558 172.564 53.0009 172.799 53.0166C172.893 53.0166 172.98 53.0244 173.058 53.0401C173.215 53.0872 173.356 53.1579 173.482 53.252C173.623 53.3462 173.733 53.464 173.811 53.6052C173.89 53.7465 173.945 53.9035 173.976 54.0761C173.992 54.2331 173.984 54.3901 173.953 54.5471C173.921 54.704 173.859 54.8532 173.764 54.9944C173.654 55.12 173.529 55.222 173.388 55.3005C173.168 55.4418 172.932 55.5046 172.681 55.4889C172.587 55.4732 172.509 55.4575 172.446 55.4418ZM172.234 53.3698C172.124 53.4483 172.022 53.5424 171.928 53.6523C171.849 53.7465 171.794 53.8642 171.763 54.0055C171.732 54.1311 171.724 54.2645 171.739 54.4058C171.771 54.5314 171.818 54.6569 171.881 54.7825C171.944 54.8924 172.03 54.9866 172.14 55.0651C172.265 55.1279 172.391 55.1749 172.516 55.2063C172.564 55.222 172.626 55.2377 172.705 55.2534C172.909 55.2534 173.097 55.2063 173.27 55.1122C173.38 55.0337 173.482 54.9395 173.576 54.8296C173.654 54.7354 173.702 54.6255 173.717 54.5C173.764 54.3587 173.78 54.2253 173.764 54.0997C173.733 53.9584 173.686 53.8328 173.623 53.723C173.545 53.5974 173.45 53.5032 173.341 53.4404C173.246 53.3462 173.136 53.2913 173.011 53.2756C172.932 53.2442 172.862 53.2285 172.799 53.2285C172.595 53.2285 172.407 53.2756 172.234 53.3698ZM175.53 33.7326C175.42 33.6071 175.342 33.4501 175.295 33.2617C175.248 32.9792 175.303 32.7123 175.46 32.4612C175.617 32.21 175.836 32.0609 176.119 32.0138C176.339 31.9667 176.551 31.9824 176.755 32.0609C176.912 32.1394 177.053 32.2414 177.179 32.367C177.288 32.4926 177.359 32.6495 177.39 32.8379C177.437 33.1204 177.39 33.3873 177.249 33.6385C177.076 33.8896 176.849 34.0387 176.566 34.0858C176.362 34.1329 176.158 34.1172 175.954 34.0387C175.797 33.9602 175.656 33.8582 175.53 33.7326ZM188.551 71.6177L188.198 71.5942C188.151 71.5942 188.112 71.5863 188.08 71.5706C188.049 71.5235 188.033 71.4764 188.033 71.4294C188.049 71.3823 188.072 71.343 188.104 71.3116C188.119 71.2959 188.151 71.2802 188.198 71.2645L188.598 71.2881L188.622 70.9113C188.606 70.8643 188.614 70.825 188.645 70.7936C188.692 70.7779 188.739 70.7701 188.787 70.7701C188.834 70.7701 188.873 70.7858 188.904 70.8172C188.936 70.8486 188.944 70.8878 188.928 70.9349L188.904 71.3352H189.281C189.344 71.3352 189.391 71.3587 189.422 71.4058C189.438 71.4372 189.454 71.4764 189.469 71.5235C189.454 71.5549 189.43 71.5863 189.399 71.6177C189.367 71.6491 189.328 71.6648 189.281 71.6648L188.904 71.6413L188.881 72.018C188.881 72.0651 188.865 72.1043 188.834 72.1357C188.802 72.1671 188.763 72.1828 188.716 72.1828C188.669 72.1828 188.622 72.1671 188.575 72.1357C188.559 72.1043 188.551 72.0651 188.551 72.018V71.6177ZM190.034 142.231L189.446 141.972C189.383 141.957 189.328 141.91 189.281 141.831C189.265 141.768 189.265 141.706 189.281 141.643C189.312 141.564 189.367 141.509 189.446 141.478C189.509 141.462 189.579 141.47 189.658 141.501L190.246 141.737L190.482 141.125C190.498 141.062 190.545 141.015 190.623 140.983C190.686 140.968 190.749 140.968 190.811 140.983C190.89 141.015 190.945 141.062 190.976 141.125C191.008 141.203 191.008 141.274 190.976 141.337L190.741 141.925L191.329 142.184C191.392 142.2 191.439 142.247 191.471 142.326C191.502 142.388 191.502 142.451 191.471 142.514C191.439 142.592 191.392 142.647 191.329 142.679C191.267 142.694 191.196 142.694 191.118 142.679L190.529 142.443L190.293 143.032C190.262 143.095 190.215 143.142 190.152 143.173C190.089 143.189 190.019 143.189 189.94 143.173C189.862 143.142 189.815 143.095 189.799 143.032C189.752 142.969 189.744 142.898 189.775 142.82L190.034 142.231ZM186.526 134.037C186.291 133.896 186.094 133.716 185.938 133.496C185.796 133.26 185.694 133.009 185.631 132.742C185.584 132.46 185.584 132.193 185.631 131.942C185.679 131.675 185.773 131.432 185.914 131.212V131.188C186.071 130.969 186.259 130.788 186.479 130.647C186.699 130.474 186.942 130.356 187.209 130.294C187.633 130.231 188.041 130.27 188.433 130.411C188.528 130.458 188.637 130.521 188.763 130.6C188.998 130.757 189.187 130.945 189.328 131.165C189.485 131.385 189.595 131.636 189.658 131.918C189.721 132.185 189.721 132.452 189.658 132.719C189.595 132.986 189.493 133.229 189.352 133.449C189.226 133.669 189.046 133.857 188.81 134.014C188.59 134.171 188.339 134.281 188.057 134.344C187.648 134.422 187.256 134.383 186.879 134.226C186.738 134.179 186.62 134.116 186.526 134.037ZM187.303 130.67C187.083 130.733 186.879 130.827 186.691 130.953C186.518 131.063 186.369 131.212 186.244 131.4V131.424C186.118 131.597 186.032 131.793 185.985 132.013C185.953 132.217 185.961 132.436 186.008 132.672C186.055 132.876 186.142 133.08 186.267 133.284C186.393 133.457 186.542 133.606 186.715 133.731C186.793 133.778 186.895 133.826 187.021 133.873C187.319 134.014 187.641 134.045 187.986 133.967C188.206 133.92 188.41 133.833 188.598 133.708C188.771 133.582 188.92 133.425 189.046 133.237C189.171 133.064 189.25 132.868 189.281 132.648C189.328 132.413 189.328 132.193 189.281 131.989C189.234 131.754 189.148 131.549 189.022 131.377C188.896 131.188 188.739 131.039 188.551 130.929C188.457 130.867 188.363 130.812 188.269 130.765C187.97 130.639 187.649 130.608 187.303 130.67ZM230.627 117.014C230.659 117.061 230.659 117.116 230.627 117.179C230.612 117.226 230.572 117.265 230.51 117.296C230.462 117.312 230.408 117.312 230.345 117.296C230.298 117.265 230.266 117.226 230.251 117.179L230.039 116.684L229.568 116.896C229.521 116.912 229.466 116.912 229.403 116.896C229.34 116.865 229.301 116.826 229.285 116.778C229.254 116.716 229.254 116.661 229.285 116.614C229.317 116.567 229.356 116.527 229.403 116.496L229.874 116.284L229.685 115.837C229.67 115.774 229.67 115.711 229.685 115.648C229.701 115.601 229.74 115.57 229.803 115.554C229.866 115.523 229.921 115.523 229.968 115.554C230.015 115.57 230.054 115.601 230.086 115.648L230.298 116.119L230.769 115.931C230.816 115.915 230.871 115.915 230.933 115.931C230.98 115.946 231.02 115.994 231.051 116.072C231.067 116.119 231.067 116.166 231.051 116.213C231.02 116.276 230.98 116.315 230.933 116.331L230.439 116.543L230.627 117.014ZM210.99 126.267L210.425 126.032C210.347 126.001 210.292 125.953 210.26 125.891C210.229 125.828 210.229 125.757 210.26 125.679C210.292 125.616 210.339 125.569 210.402 125.537C210.48 125.506 210.551 125.506 210.613 125.537L211.202 125.773L211.438 125.184C211.469 125.121 211.516 125.074 211.579 125.043C211.657 125.012 211.728 125.012 211.791 125.043C211.869 125.074 211.924 125.121 211.956 125.184C211.971 125.247 211.971 125.318 211.956 125.396L211.697 125.985L212.309 126.22C212.372 126.252 212.411 126.299 212.426 126.362C212.474 126.44 212.481 126.511 212.45 126.573C212.403 126.636 212.348 126.683 212.285 126.715C212.222 126.746 212.152 126.746 212.073 126.715L211.508 126.503L211.273 127.068C211.241 127.146 211.186 127.201 211.108 127.233C211.045 127.248 210.974 127.248 210.896 127.233C210.833 127.201 210.786 127.146 210.755 127.068C210.723 127.005 210.723 126.942 210.755 126.88L210.99 126.267ZM218.666 137.24C218.478 137.318 218.289 137.365 218.101 137.381C217.881 137.381 217.661 137.342 217.442 137.263C217.238 137.185 217.065 137.075 216.924 136.934C216.751 136.777 216.618 136.604 216.523 136.416C216.429 136.212 216.382 136 216.382 135.78C216.382 135.56 216.421 135.34 216.5 135.121C216.563 134.932 216.673 134.76 216.83 134.603C216.986 134.414 217.175 134.281 217.395 134.202C217.599 134.108 217.787 134.061 217.96 134.061C218.195 134.061 218.415 134.1 218.619 134.179C218.823 134.257 219.004 134.367 219.161 134.508C219.317 134.65 219.443 134.822 219.537 135.026C219.631 135.23 219.686 135.435 219.702 135.639C219.702 135.874 219.663 136.094 219.584 136.298C219.506 136.502 219.388 136.682 219.231 136.839C219.074 137.012 218.886 137.145 218.666 137.24ZM217.536 134.461C217.348 134.54 217.183 134.65 217.041 134.791V134.814C216.932 134.94 216.845 135.081 216.782 135.238C216.72 135.411 216.688 135.584 216.688 135.756C216.704 135.945 216.751 136.117 216.83 136.274C216.892 136.447 216.986 136.588 217.112 136.698C217.238 136.824 217.387 136.918 217.559 136.981C217.732 137.043 217.913 137.067 218.101 137.051C218.258 137.051 218.407 137.02 218.548 136.957C218.721 136.894 218.878 136.784 219.019 136.627C219.145 136.502 219.239 136.361 219.302 136.204C219.365 136.031 219.396 135.85 219.396 135.662C219.38 135.489 219.333 135.317 219.255 135.144C219.176 134.987 219.074 134.846 218.949 134.72C218.823 134.61 218.674 134.524 218.501 134.461C218.344 134.398 218.172 134.367 217.983 134.367C217.842 134.367 217.693 134.398 217.536 134.461ZM75.508 52.4515C75.3354 52.2474 75.2019 52.0198 75.1077 51.7687C74.9979 51.5018 74.9429 51.235 74.9429 50.9681C74.9586 50.7013 75.0293 50.4344 75.1548 50.1676C75.2647 49.9321 75.4217 49.7202 75.6257 49.5318C75.8141 49.3435 76.0339 49.21 76.285 49.1315C76.5362 49.0217 76.803 48.9746 77.0856 48.9903C77.321 48.9903 77.5565 49.0374 77.792 49.1315C78.0588 49.2414 78.3021 49.4141 78.5219 49.6495C78.6945 49.8536 78.8358 50.0734 78.9457 50.3088C79.0399 50.56 79.0791 50.8268 79.0634 51.1094C79.0477 51.3919 78.9849 51.6588 78.8751 51.9099C78.7495 52.1454 78.5925 52.3573 78.4041 52.5457C78.2001 52.7183 77.9803 52.8596 77.7449 52.9695C77.478 53.0637 77.2112 53.1029 76.9443 53.0872C76.7089 53.0872 76.4655 53.0401 76.2144 52.9459C75.9475 52.8361 75.7121 52.6713 75.508 52.4515ZM77.0856 49.367C76.8501 49.3513 76.6304 49.3827 76.4263 49.4612C76.2065 49.5397 76.026 49.6574 75.8848 49.8144C75.7121 49.9556 75.5787 50.1283 75.4845 50.3324C75.3903 50.5364 75.3353 50.7483 75.3196 50.9681C75.3196 51.2036 75.3589 51.4312 75.4374 51.6509C75.5159 51.855 75.6336 52.0277 75.7906 52.1689C75.9318 52.3573 76.1281 52.4986 76.3792 52.5928C76.5519 52.6556 76.7402 52.6948 76.9443 52.7105C77.1798 52.7105 77.3995 52.6791 77.6036 52.6163C77.8077 52.5378 77.9882 52.4279 78.1451 52.2867C78.3021 52.1297 78.4277 51.957 78.5219 51.7687C78.6161 51.5489 78.671 51.3291 78.6867 51.1094C78.6867 50.8896 78.6553 50.6699 78.5925 50.4501C78.4983 50.246 78.3806 50.0655 78.2393 49.9085C78.0667 49.7202 77.8704 49.5789 77.6507 49.4847C77.4623 49.4062 77.2739 49.367 77.0856 49.367ZM51.3736 107.855C51.201 107.431 51.201 107.007 51.3736 106.583C51.5463 106.159 51.8446 105.861 52.2684 105.688C52.6922 105.516 53.116 105.508 53.5398 105.665C53.9637 105.853 54.2619 106.159 54.4346 106.583C54.6073 107.007 54.6073 107.431 54.4346 107.855C54.2619 108.278 53.9637 108.577 53.5398 108.749C53.116 108.922 52.6922 108.93 52.2684 108.773C51.8446 108.585 51.5463 108.278 51.3736 107.855ZM72.3764 84.097C72.2038 83.9086 72.0625 83.6888 71.9526 83.4377C71.8584 83.1708 71.8113 82.904 71.8113 82.6371C71.827 82.3546 71.8977 82.0877 72.0232 81.8366C72.1331 81.5854 72.2901 81.3735 72.4942 81.2008C72.6825 81.0125 72.9023 80.8712 73.1534 80.777C73.4046 80.6828 73.6715 80.6357 73.954 80.6357C74.2052 80.6514 74.4406 80.7064 74.6604 80.8006C74.9429 80.9104 75.1862 81.0753 75.3903 81.295V81.3186C75.5787 81.5069 75.7199 81.7267 75.8141 81.9778C75.8926 82.229 75.9318 82.4958 75.9318 82.7784C75.9318 83.0609 75.8691 83.3199 75.7435 83.5554C75.6336 83.8066 75.4766 84.0185 75.2726 84.1911C75.0842 84.3795 74.8644 84.5208 74.6133 84.615C74.3621 84.7091 74.0953 84.7562 73.8127 84.7562C73.5616 84.7405 73.3261 84.6856 73.1064 84.5914C72.8238 84.4815 72.5805 84.3167 72.3764 84.097ZM73.9305 81.0125C73.7107 81.0125 73.4909 81.0517 73.2712 81.1302C73.0828 81.2087 72.9023 81.3186 72.7296 81.4598C72.5726 81.6168 72.4549 81.7973 72.3764 82.0014C72.2666 82.1898 72.2116 82.4017 72.2116 82.6371C72.1959 82.8726 72.2352 83.0923 72.3293 83.2964C72.4078 83.5005 72.5177 83.681 72.659 83.838C72.816 84.0263 73.0122 84.1597 73.2476 84.2382C73.436 84.3167 73.6322 84.3638 73.8363 84.3795C74.056 84.3795 74.2758 84.3403 74.4955 84.2618C74.6996 84.1833 74.8801 84.0734 75.0371 83.9321C75.1784 83.7752 75.2961 83.6025 75.3903 83.4141C75.5002 83.1944 75.5551 82.9746 75.5551 82.7548C75.5551 82.5351 75.5159 82.3232 75.4374 82.1191C75.3746 81.9151 75.2726 81.7267 75.1313 81.554H75.1077C74.9508 81.3813 74.7546 81.2479 74.5191 81.1537C74.3464 81.0753 74.1502 81.0282 73.9305 81.0125Z" stroke="#FEFDF8" stroke-width="0.235457" stroke-miterlimit="10"/>
<path d="M25.0742 175.054H255.092" stroke="#534E64" stroke-width="0.470915" stroke-linecap="round" stroke-linejoin="round"/>
<path opacity="0.2" d="M63.9718 175.121C43.1416 175.388 32.7266 175.702 32.7266 176.063C32.7266 176.44 43.1416 176.761 63.9718 177.028C84.8176 177.279 109.98 177.405 139.459 177.405C168.939 177.405 194.093 177.279 214.923 177.028C235.754 176.761 246.169 176.44 246.169 176.063C246.169 175.702 235.754 175.388 214.923 175.121C194.093 174.87 168.939 174.744 139.459 174.744C109.98 174.744 84.8176 174.87 63.9718 175.121Z" fill="black"/>
<path d="M76.4729 36.8673C73.3648 36.8045 70.7984 36.7496 68.7734 36.7025C65.1631 36.6083 63.2323 36.5377 62.9812 36.4906C62.1649 36.3179 61.2545 36.4356 60.2499 36.8438C58.947 37.3775 58.1386 38.2722 57.8247 39.528C57.495 40.8622 58.013 44.9592 59.3787 51.8188C60.6658 58.1605 62.3768 65.3969 64.5116 73.528C66.7092 81.8946 68.7734 88.9426 70.7042 94.6721C72.9018 101.139 74.5186 104.71 75.5546 105.385C76.1354 105.385 77.5403 105.33 79.7693 105.221C80.9466 105.158 82.3279 105.087 83.9133 105.009C85.3889 104.977 86.833 104.962 88.2457 104.962C89.0463 104.993 89.8312 105.024 90.6003 105.056H90.6474H91.2361C93.7162 105.181 96.11 105.401 98.4175 105.715C98.1664 105.495 97.9309 105.276 97.7111 105.056H119.821C120.527 100.566 117.898 98.2824 111.933 98.2039C105.968 98.1568 100.38 98.1568 95.1682 98.2039L93.52 98.2746C93.2688 97.3327 93.1354 96.3674 93.1197 95.3785C92.8529 93.4477 92.7508 89.2644 92.8136 82.8286C92.9078 74.6661 92.9627 68.4421 92.9784 64.1568C93.0569 47.7219 92.1936 38.9707 90.3884 37.9033C89.8861 37.5737 87.3275 37.3068 82.7125 37.1028C80.923 37.0086 78.8432 36.9301 76.4729 36.8673Z" fill="url(#paint3_linear_559_5553)"/>
<path opacity="0.1" d="M59.9205 36.6049C58.6176 37.1386 57.8014 38.0334 57.4717 39.2891C57.1264 40.6391 57.6366 44.7439 59.0022 51.6035C60.2894 57.9766 62.0082 65.2365 64.1587 73.3834C66.3406 81.7813 68.4127 88.8764 70.3748 94.6687C71.0027 96.4896 72.0858 99.1659 73.6241 102.698C74.0636 103.687 74.4561 104.581 74.8014 105.382L101.149 105.523C101.149 105.366 101.149 105.209 101.149 105.052C101.149 103.498 100.608 102.172 99.5244 101.073C98.4413 99.99 97.1227 99.4485 95.5687 99.4485H76.3319C76.3319 99.4485 76.324 99.4485 76.3083 99.4485C75.131 98.7264 73.8753 95.0062 72.541 88.2878C71.662 83.9868 70.5004 76.8681 69.0562 66.9318C67.5179 56.3676 66.4348 49.3902 65.8069 45.9997C64.6453 39.6737 63.6015 36.4166 62.6753 36.2282C61.8591 36.0712 60.9408 36.1968 59.9205 36.6049Z" fill="black"/>
<g opacity="0.1">
<path d="M81.7899 36.4169C81.837 36.5268 81.8762 36.6288 81.9076 36.723C85.3924 46.832 87.276 66.681 87.5586 96.2702C87.5743 97.1963 87.5821 98.1381 87.5821 99.0957C87.5821 99.1271 87.5821 99.1585 87.5821 99.1899H88.053C88.053 99.1428 88.053 99.0957 88.053 99.0486C88.053 98.1381 88.053 97.2199 88.053 96.2937C87.7548 66.8302 85.8711 46.9733 82.4021 36.723C82.3707 36.6288 82.3393 36.5268 82.3079 36.4169H81.7899ZM67.168 36.4405C68.3923 36.4248 69.5461 37.3588 70.6292 39.2424C71.9634 41.5499 73.1957 45.2387 74.3259 50.3089C76.5863 60.4807 78.4385 76.2092 79.8827 97.4946C79.9298 98.0911 79.9611 98.6797 79.9768 99.2605H80.4948C80.4478 98.6483 80.4085 98.044 80.3771 97.4475C78.933 76.1621 77.0729 60.4179 74.7968 50.2147C73.6509 45.0818 72.403 41.3458 71.053 39.007C70.3309 37.7669 69.5853 36.9035 68.8162 36.4169H67.1915L67.168 36.4405Z" fill="black"/>
</g>
<path d="M74.2142 106.089C74.4183 106.293 74.6616 106.395 74.9441 106.395H90.6256V112.658C90.6256 112.894 90.7197 113.098 90.9081 113.27C91.0651 113.443 91.2613 113.529 91.4968 113.529H91.9912V116.943C91.9912 117.163 92.0697 117.344 92.2267 117.485C92.3679 117.642 92.5406 117.72 92.7447 117.72H93.2156V171.569C93.1057 171.585 92.9958 171.601 92.886 171.617L88.8125 172.229C88.7184 172.26 88.632 172.292 88.5535 172.323C87.7216 172.574 87.0859 172.849 86.6463 173.147H83.0438C82.7927 173.147 82.5808 173.233 82.4081 173.406C82.2197 173.61 82.1256 173.83 82.1256 174.065V174.089C82.1256 174.34 82.2197 174.552 82.4081 174.725C82.5808 174.913 82.7927 175.007 83.0438 175.007H106.707C106.958 175.007 107.17 174.913 107.343 174.725C107.531 174.552 107.626 174.34 107.626 174.089V174.065C107.626 173.83 107.531 173.61 107.343 173.406C107.17 173.233 106.958 173.147 106.707 173.147H102.987C102.548 172.849 101.904 172.574 101.056 172.323C100.978 172.292 100.899 172.26 100.821 172.229C100.554 172.166 100.279 172.103 99.9968 172.04C99.9811 172.04 99.9575 172.033 99.9261 172.017C99.8947 172.017 99.8555 172.009 99.8084 171.993C99.7927 171.993 99.7692 171.993 99.7378 171.993C99.7221 171.993 99.7064 171.985 99.6907 171.97L96.5826 171.593C96.4257 171.593 96.2687 171.585 96.1117 171.569V117.72H96.7475C96.9515 117.72 97.1163 117.642 97.2419 117.485C97.3989 117.344 97.4774 117.163 97.4774 116.943V113.529H97.9718C98.2073 113.529 98.4192 113.443 98.6076 113.27C98.7645 113.098 98.843 112.894 98.843 112.658V106.395H119.092C119.375 106.395 119.618 106.293 119.822 106.089C120.026 105.9 120.128 105.657 120.128 105.359C120.128 105.076 120.026 104.833 119.822 104.629C119.618 104.425 119.375 104.323 119.092 104.323H74.9441C74.6616 104.323 74.4183 104.425 74.2142 104.629C74.0258 104.833 73.9316 105.076 73.9316 105.359C73.9316 105.657 74.0258 105.9 74.2142 106.089Z" fill="url(#paint4_linear_559_5553)"/>
<path d="M138.235 175.01C138.377 174.492 138.29 173.998 137.976 173.527C137.364 172.585 135.92 172.24 133.644 172.491C131.368 172.726 129.351 171.996 127.593 170.301C127.043 169.767 126.557 169.171 126.133 168.512L125.638 167.664C125.34 167.114 124.964 166.651 124.508 166.275C123.598 165.537 122.766 165.631 122.012 166.557C121.259 167.483 120.749 169.171 120.482 171.62C120.341 172.844 120.286 173.974 120.317 175.01H122.366L122.978 172.326L124.061 175.01H138.235Z" fill="url(#paint5_linear_559_5553)"/>
<path d="M171.595 175.01C171.752 174.492 171.673 173.998 171.359 173.527C170.747 172.585 169.303 172.24 167.027 172.491C164.751 172.726 162.734 171.996 160.976 170.301C160.426 169.767 159.932 169.171 159.492 168.512L159.021 167.664C158.707 167.114 158.323 166.651 157.868 166.275C156.973 165.537 156.141 165.631 155.372 166.557C154.618 167.483 154.108 169.171 153.841 171.62C153.716 172.844 153.661 173.974 153.676 175.01H155.725L156.337 172.326L157.444 175.01H171.595Z" fill="url(#paint6_linear_559_5553)"/>
<path d="M166.015 105.684C163.503 103.518 161.368 102.152 159.61 101.587L120.359 80.7256C117.393 78.9989 114.693 77.7902 112.26 77.0995C109.827 76.4402 108.139 77.3507 107.197 79.8308C106.271 82.311 105.58 84.9167 105.125 87.648C104.701 90.3636 105.29 92.8359 106.891 95.0649C107.849 96.4149 109.026 97.4273 110.423 98.1023C121.851 104.334 132.988 109.145 143.834 112.536C147.005 113.525 150.239 114.404 153.535 115.173C152.719 117.323 152.083 119.419 151.628 121.46C150.922 124.709 150.702 127.825 150.969 130.807C151.204 140.932 152.562 153.741 155.042 169.234H159.94L168.369 114.019C168.793 110.644 168.008 107.866 166.015 105.684Z" fill="url(#paint7_linear_559_5553)"/>
<path d="M159.731 79.8079C160.186 79.9178 160.618 79.9257 161.026 79.8315C159.44 79.1094 158.31 78.615 157.635 78.3481C156.945 78.0812 156.34 77.9164 155.822 77.8536C154.833 78.1048 153.413 78.4737 151.56 78.9603L151.16 81.2678L152.055 81.4561C152.494 81.5032 153.585 81.1186 155.328 80.3024C155.673 80.1297 156.325 80.1925 157.282 80.4908C157.973 80.7105 158.632 80.632 159.26 80.2553C159.433 80.114 159.59 79.9649 159.731 79.8079Z" fill="url(#paint8_linear_559_5553)"/>
<path d="M150.875 81.1051L151.652 78.0206C145.656 75.4149 140.444 71.2473 136.017 65.5179C132.564 61.0442 129.676 55.7542 127.353 49.648C125.846 45.6924 124.794 41.9878 124.198 38.5345C123.632 35.0654 122.306 33.4878 120.218 33.8018C114.128 32.4832 111.899 38.2833 113.531 51.2021L113.625 52.0968C113.767 53.3212 114.002 54.4828 114.332 55.5816C115.478 59.6628 117.817 63.4144 121.348 66.8364C124.252 69.6305 127.902 72.1735 132.297 74.4652C136.174 76.4745 140.436 78.1776 145.083 79.5747C147.406 80.281 149.337 80.7912 150.875 81.1051Z" fill="url(#paint9_linear_559_5553)"/>
<path d="M119.516 45.7376C119.689 44.2777 119.908 43.0769 120.175 42.1351L118.127 43.3359L113.512 51.4592L113.606 52.3539C114.171 57.2828 116.345 61.7879 120.128 65.8692C123.205 69.1499 127.255 72.0931 132.278 74.6988C128.165 72.1559 125.002 68.9144 122.789 64.9744C121.046 61.8036 119.94 58.2561 119.469 54.3318C119.139 51.522 119.155 48.6572 119.516 45.7376Z" fill="url(#paint10_linear_559_5553)"/>
<path d="M118.314 85.5268C120.025 81.32 118.432 78.259 113.534 76.344C108.637 74.4603 104.03 73.5342 99.713 73.5656C96.5265 73.597 93.6853 74.9077 91.1895 77.4977V92.8731L103.127 92.308C111.557 91.9941 116.619 89.7337 118.314 85.5268Z" fill="url(#paint11_linear_559_5553)"/>
<path fill-rule="evenodd" clip-rule="evenodd" d="M106.401 84.1225C111.597 88.2979 120.654 95.8247 133.573 106.703C134.986 108.712 135.512 111.161 135.151 114.049L126.698 169.24H121.8C119.32 153.763 117.962 140.954 117.727 130.814C117.476 127.831 117.703 124.723 118.41 121.49C118.849 119.433 119.477 117.338 120.293 115.203C117.499 113.539 113.92 111.749 109.556 109.834C105.177 107.935 99.0472 104.599 91.1672 99.8275C85.8772 94.6003 85.422 89.4281 89.8015 84.3109C92.0305 82.2074 97.5638 82.1447 106.401 84.1225ZM132.772 105.714C132.867 105.808 132.953 105.902 133.032 105.996C131.744 104.835 131.658 104.741 132.772 105.714Z" fill="url(#paint12_linear_559_5553)"/>
<path d="M112.448 17.2507C112.746 15.7124 112.48 14.4645 111.648 13.5069C110.878 12.6122 109.866 12.1962 108.61 12.259C107.276 12.3218 106.114 12.8947 105.125 13.9779C103.98 15.2022 103.281 16.8975 103.03 19.0637L101.193 31.4488L112.66 31.4252C112.519 30.3264 112.393 29.1492 112.283 27.8934C111.875 23.4825 111.93 19.9349 112.448 17.2507Z" fill="url(#paint13_linear_559_5553)"/>
<path d="M105.905 18.994C105.623 18.2249 105.387 16.8514 105.199 14.8735C104.241 14.4026 103.629 14.0102 103.362 13.6962C103.111 13.3823 103.119 12.8172 103.386 12.001C103.637 11.2946 103.959 10.7766 104.351 10.4469C104.728 10.1173 104.963 10.0624 105.058 10.2821C105.183 7.0642 106.831 5.14129 110.002 4.51341C111.807 4.13668 113.636 4.32504 115.488 5.07851C115.583 6.72671 115.897 8.7124 116.43 11.0356L115.889 12.519C116.124 13.0527 116.281 13.6962 116.36 14.4497C116.312 16.2706 116.022 18.1071 115.488 19.9594C114.939 21.8274 114.146 22.7064 113.11 22.5965C110.253 22.2355 107.852 21.0347 105.905 18.994Z" fill="url(#paint14_linear_559_5553)"/>
<path fill-rule="evenodd" clip-rule="evenodd" d="M102.135 7.44874C102.449 7.16619 102.676 6.98568 102.818 6.90719C102.206 4.50553 103.642 2.99075 107.127 2.36287C107.99 2.03322 108.822 1.60155 109.622 1.06785C110.439 0.549844 111.004 0.267295 111.318 0.220204C111.412 0.204507 111.498 0.188809 111.577 0.173112C111.655 0.157415 111.726 0.149566 111.789 0.149566C111.836 0.149566 111.883 0.149566 111.93 0.149566C111.977 0.118172 112.024 0.102475 112.071 0.102475C112.731 -0.00740494 113.351 -0.0309514 113.931 0.0318372C114.292 0.0632316 114.646 0.126021 114.991 0.220204C116.011 0.502753 116.788 1.03645 117.322 1.82131C117.667 2.37071 117.879 3.02215 117.958 3.77561C118.162 3.807 118.382 3.85409 118.617 3.91688C118.915 4.01107 119.182 4.13664 119.418 4.29361C119.574 4.3878 119.724 4.50553 119.865 4.6468C119.99 4.74098 120.092 4.84302 120.171 4.9529C120.312 5.09417 120.43 5.25114 120.524 5.42381C120.681 5.72206 120.783 6.0517 120.83 6.41273C120.83 6.50691 120.83 6.6011 120.83 6.69528C120.846 7.08771 120.783 7.48799 120.642 7.89611C120.611 7.9746 120.548 7.99815 120.454 7.96675C120.391 7.93536 120.367 7.88826 120.383 7.82547C120.54 7.41735 120.603 7.04847 120.571 6.71883C120.571 6.62464 120.563 6.52261 120.548 6.41273C120.548 6.25576 120.516 6.10664 120.454 5.96536C120.375 5.777 120.281 5.59648 120.171 5.42381L120.265 5.61218L119.983 5.14126C119.983 5.14126 119.983 5.13341 119.983 5.11772C119.936 5.07062 119.896 5.03138 119.865 4.99999C119.724 4.85871 119.567 4.72529 119.394 4.59971C119.19 4.44274 118.962 4.32501 118.711 4.24652C118.962 4.4035 119.19 4.59971 119.394 4.83517C119.441 4.88226 119.48 4.92935 119.512 4.97644C119.543 5.02353 119.582 5.07847 119.629 5.14126C119.677 5.23545 119.731 5.32963 119.794 5.42381C119.81 5.4709 119.826 5.51799 119.841 5.56508C119.904 5.69066 119.959 5.82409 120.006 5.96536C120.053 6.10664 120.085 6.25576 120.1 6.41273C120.132 6.64819 120.155 6.8758 120.171 7.09556C120.171 7.9432 119.888 8.69667 119.323 9.35595C118.743 10.0152 118.107 10.4861 117.416 10.7687C116.741 11.0512 116.349 11.012 116.239 10.651C116.757 10.5097 117.039 10.078 117.086 9.35595C117.118 8.63388 116.867 8.09233 116.333 7.73129C116.427 7.85687 116.506 7.9903 116.568 8.13157C116.678 8.44551 116.733 8.7673 116.733 9.09694C116.718 9.42659 116.623 9.72483 116.451 9.99168C116.231 10.2899 115.941 10.4626 115.58 10.5097C115.564 10.5097 115.548 10.5097 115.532 10.5097C115.454 10.5254 115.407 10.5018 115.391 10.4391C115.391 10.4234 115.391 10.4155 115.391 10.4155C115.376 10.337 115.415 10.2899 115.509 10.2742C115.823 10.2271 116.066 10.0859 116.239 9.85041C116.396 9.64635 116.451 9.37165 116.404 9.02631C116.372 8.68097 116.215 8.30424 115.933 7.89611C115.65 7.48799 115.478 7.26823 115.415 7.23683C115.352 8.4926 114.002 8.62603 111.365 7.63711C109.654 7.26038 108.508 7.55862 107.927 8.53185C107.786 9.3481 107.284 10.18 106.42 11.0277C105.965 11.5457 105.675 12.1971 105.549 12.982C105.298 11.3181 104.992 10.4469 104.631 10.3684C104.207 10.5411 103.877 10.9963 103.642 11.7341C103.406 12.566 103.516 13.3038 103.972 13.9474C104.081 14.12 104.199 14.2692 104.325 14.3947C104.325 14.3947 104.474 14.4732 104.772 14.6302L104.513 16.1842C104.278 16.7022 104.003 16.9063 103.689 16.7964C103.202 15.7761 102.637 14.693 101.994 13.5471C101.366 12.4012 101.02 11.2945 100.958 10.2271C100.895 9.14404 101.287 8.2179 102.135 7.44874ZM113.719 0.243749C114.269 0.369326 114.771 0.557693 115.226 0.808847C116.388 1.43673 117.181 2.40996 117.605 3.72852C117.636 3.72852 117.675 3.73637 117.722 3.75206C117.644 3.06139 117.44 2.4649 117.11 1.96259C116.608 1.22482 115.878 0.714664 114.92 0.432115C114.544 0.337932 114.143 0.275144 113.719 0.243749Z" fill="#4B005E"/>
<path d="M87.2103 32.1476L88.2698 36.7861C89.1175 40.5535 89.8082 44.2344 90.3419 47.8291C92.0842 59.288 92.0529 67.6075 90.2477 72.7876C89.5884 74.6241 88.4818 76.704 86.9277 79.0272C96.8012 83.7206 106.345 84.2857 115.559 80.7225C116.768 80.2516 117.317 79.5766 117.208 78.6976C118.134 78.3522 118.769 74.7183 119.115 67.7959C119.444 60.8577 120.143 52.9542 121.21 44.0853C122.278 35.2321 119.523 30.0442 112.946 28.5216C111.517 29.2437 110.505 30.0128 109.908 30.8291L100.702 28.239C100.828 28.2704 99.7602 28.5451 97.4998 29.0631C92.9633 30.0678 89.5335 31.0959 87.2103 32.1476Z" fill="url(#paint15_linear_559_5553)"/>
<path d="M111.744 30.5556L112.027 31.3326L110.92 35.2177L110.991 35.0764C114.774 47.9167 115.99 60.3488 114.64 72.3729L110.284 77.5058L107.035 71.1956C109.358 63.4255 110.151 51.3387 109.413 34.9351H109.39L107.082 31.3326L107.647 31.0736L108.778 31.9213L111.038 31.8271L111.744 30.5556Z" fill="url(#paint16_linear_559_5553)"/>
<path d="M102.775 24.406L102.54 25.5833L108.944 29.3506L109.886 31.5875L108.52 30.1276L106.943 33.8008L100.303 27.6318L102.775 24.406Z" fill="url(#paint17_linear_559_5553)"/>
<path d="M110.498 29.1382L112.57 27.0426L112.782 25.9595L114.242 28.4789L112.217 33.8002C112.547 31.2573 112.052 29.8916 110.734 29.7033L110.004 31.4928L110.498 29.1382Z" fill="url(#paint18_linear_559_5553)"/>
<path d="M89.7497 30.8376C88.5724 31.2772 87.7091 31.6931 87.1597 32.0856C85.0877 34.393 85.6057 41.394 88.7137 53.0884L90.6209 59.5634C87.0263 74.0833 85.4644 85.3931 85.9353 93.4928C93.4386 92.8963 97.8652 86.3035 99.2151 73.7144C101.381 64.4688 102.566 55.7176 102.771 47.4609C102.99 39.2199 102.033 32.7213 99.898 27.9651C95.7382 28.8598 92.3555 29.8173 89.7497 30.8376Z" fill="url(#paint19_linear_559_5553)"/>
<path d="M123.495 34.8316C121.361 32.0846 118.3 30.146 114.312 29.0158C117.656 35.122 119.273 44.556 119.163 57.3177C119.069 70.0795 118.441 77.622 117.279 79.9452L123.001 82.2527C121.714 74.9849 122.012 65.9512 123.896 55.1515C125.764 44.3676 125.63 37.5943 123.495 34.8316Z" fill="url(#paint20_linear_559_5553)"/>
<path d="M133.029 77.0298C133.249 77.0455 133.257 77.0455 133.053 77.0298H133.029Z" fill="url(#paint21_linear_559_5553)"/>
<path d="M134.748 80.0205C134.936 79.8792 135.109 79.7222 135.266 79.5496C135.768 79.6752 136.239 79.683 136.678 79.5731C134.967 78.7726 133.735 78.231 132.982 77.9485C132.228 77.6502 131.569 77.4697 131.004 77.4069C129.921 77.6738 128.375 78.0662 126.365 78.5842L125.918 81.1036L126.907 81.3155C127.378 81.3783 128.563 80.9623 130.462 80.0676C130.839 79.8792 131.553 79.9499 132.605 80.2795C133.343 80.5307 134.057 80.4443 134.748 80.0205Z" fill="url(#paint22_linear_559_5553)"/>
<path d="M87.3029 32.2971C85.5762 33.7256 84.3911 35.3895 83.7475 37.2888C81.6127 42.0294 83.6376 52.8761 89.8223 69.829C90.6071 71.7755 93.1108 73.7769 97.3334 75.8332C101.556 77.8895 111.021 79.7575 125.73 81.4371L126.318 78.2349C121.201 76.0844 117.025 74.0202 113.792 72.0423C110.558 70.0802 106.108 67.0663 100.441 63.0008L97.8749 52.3346C96.2581 40.2792 92.7341 33.6 87.3029 32.2971Z" fill="url(#paint23_linear_559_5553)"/>
<path d="M69.7361 85.506L64.2734 85.718L55.7734 175.239H56.8095L69.7361 85.506Z" fill="url(#paint24_linear_559_5553)"/>
<path d="M204.162 84.7069H198.676L212.945 174.911H214.122L204.162 84.7069Z" fill="url(#paint25_linear_559_5553)"/>
<path d="M188.693 85.4844H183.207L197.476 175.712H198.653L188.693 85.4844Z" fill="url(#paint26_linear_559_5553)"/>
<path d="M85.6561 84.7069L80.1699 84.9188L71.6699 174.44H72.7059L85.6561 84.7069Z" fill="url(#paint27_linear_559_5553)"/>
<path d="M214.099 85.0086V80.9822H56.1543L56.2956 85.0086H214.099Z" fill="url(#paint28_linear_559_5553)"/>
<path d="M212.427 87.2017L214.099 84.6353H56.1543L57.9673 87.2017H212.427Z" fill="url(#paint29_linear_559_5553)"/>
<path opacity="0.3" d="M214.148 85.033V81.0067H56.1797L56.321 85.033H214.148Z" fill="black"/>
<path d="M133.193 81.5762V80.4695H127.684V81.5762H133.193Z" fill="url(#paint30_linear_559_5553)"/>
<path d="M122.67 69.7802C121.822 69.7802 121.092 69.4506 120.48 68.7913C119.883 68.1163 119.632 67.355 119.726 66.5073L124.365 26.7621C124.443 26.1186 124.718 25.5927 125.189 25.1846C125.66 24.7764 126.217 24.5724 126.861 24.5724H184.948C185.827 24.5724 186.565 24.9099 187.161 25.5849C187.758 26.2598 188.001 27.029 187.891 27.8923L182.758 67.5904C182.68 68.234 182.397 68.752 181.911 69.1445C181.455 69.5683 180.898 69.7802 180.239 69.7802H122.67Z" fill="url(#paint31_linear_559_5553)"/>
<path opacity="0.1" d="M122.671 69.7808C121.824 69.7808 121.094 69.4511 120.482 68.7919C119.885 68.1169 119.634 67.3556 119.728 66.5079L124.367 26.7627C124.445 26.1191 124.72 25.5933 125.191 25.1852C125.662 24.777 126.219 24.573 126.863 24.573H184.95C185.829 24.573 186.567 24.9105 187.163 25.5854C187.76 26.2604 188.003 27.0296 187.893 27.8929L182.76 67.591C182.682 68.2346 182.399 68.7526 181.913 69.145C181.457 69.5689 180.9 69.7808 180.241 69.7808H122.671Z" fill="black"/>
<path d="M189.301 29.3029C189.411 28.4553 189.176 27.6939 188.595 27.019C187.999 26.344 187.253 26.0065 186.358 26.0065H129.095C128.467 26.0065 127.918 26.2106 127.447 26.6187C126.976 27.0425 126.701 27.5684 126.623 28.1963L122.055 67.3764C121.961 68.2083 122.204 68.9618 122.785 69.6367C123.397 70.3117 124.127 70.6492 124.975 70.6492H181.767C182.41 70.6492 182.96 70.4451 183.415 70.037C183.87 69.6446 184.137 69.1344 184.216 68.5065L189.301 29.3029Z" fill="url(#paint32_linear_559_5553)"/>
<g opacity="0.4">
<path fill-rule="evenodd" clip-rule="evenodd" d="M158.813 39.9048C159.99 39.9362 160.955 40.36 161.709 41.1763C161.944 41.4588 162.148 41.7649 162.321 42.0945C162.651 42.7381 162.776 43.4602 162.698 44.2607C162.651 44.8101 162.525 45.3203 162.321 45.7912C162.07 46.372 161.693 46.8979 161.191 47.3688C160.265 48.2164 159.213 48.6403 158.036 48.6403C156.905 48.6403 155.964 48.2321 155.21 47.4159C154.41 46.5682 154.064 45.5087 154.174 44.2372C154.268 43.0442 154.755 42.0239 155.634 41.1763C156.544 40.3286 157.58 39.9048 158.742 39.9048H158.813ZM154.433 44.2607C154.323 45.438 154.645 46.4348 155.399 47.2511H155.422C156.113 48.0045 156.992 48.3812 158.059 48.3812C159.158 48.3812 160.147 47.981 161.026 47.1804C161.685 46.5682 162.117 45.8619 162.321 45.0613C162.384 44.7945 162.431 44.5198 162.462 44.2372C162.509 43.7035 162.462 43.2012 162.321 42.7303C162.164 42.228 161.897 41.7649 161.52 41.3411C160.814 40.5719 159.912 40.1716 158.813 40.1402H158.766C157.667 40.1402 156.694 40.5405 155.846 41.3411C154.983 42.1573 154.512 43.1306 154.433 44.2607ZM160.696 42.3065C161.183 42.8716 161.395 43.5387 161.332 44.3078C161.269 45.077 160.94 45.7363 160.343 46.2857C159.762 46.8351 159.103 47.1098 158.365 47.1098C157.612 47.1098 156.992 46.8272 156.505 46.2621C156.003 45.7127 155.783 45.0456 155.846 44.2607C155.909 43.4916 156.223 42.8323 156.788 42.2829C157.369 41.7335 158.044 41.4667 158.813 41.4824C159.582 41.498 160.21 41.7727 160.696 42.3065Z" fill="white"/>
</g>
<path fill-rule="evenodd" clip-rule="evenodd" d="M162.106 59.6118L165.897 81.4152H158.551L154.783 59.6118H162.106ZM157.774 62.0606L157.491 62.1077C157.287 62.1705 157.13 62.296 157.02 62.4844C156.91 62.6728 156.871 62.8768 156.902 63.0966L159.445 77.483C159.508 77.7656 159.649 78.0089 159.869 78.2129C160.105 78.417 160.379 78.519 160.693 78.519H162.883C163.181 78.519 163.417 78.417 163.589 78.2129C163.746 78.0089 163.793 77.7656 163.731 77.483L161.258 63.0966C161.164 62.7669 160.968 62.5001 160.67 62.296C160.45 62.1391 160.222 62.0606 159.987 62.0606H157.774Z" fill="url(#paint33_linear_559_5553)"/>
<path d="M160.67 66.1816V62.2495C161 62.4535 161.204 62.7282 161.282 63.0736L163.754 77.4364C163.817 77.7347 163.77 77.9859 163.613 78.1899C163.44 78.3783 163.205 78.4725 162.907 78.4725H161.847C162.114 78.4725 162.334 78.3783 162.506 78.1899C162.663 77.9859 162.711 77.7347 162.648 77.4364L160.67 66.1816Z" fill="url(#paint34_linear_559_5553)"/>
<path d="M158.574 81.3583H157.467L154.807 66.0065V59.5785L158.574 81.3583Z" fill="url(#paint35_linear_559_5553)"/>
<path opacity="0.3" d="M160.668 66.1835V62.2513C160.998 62.4554 161.202 62.7301 161.28 63.0754L163.752 77.4383C163.815 77.7366 163.768 77.9877 163.611 78.1918C163.439 78.3802 163.203 78.4744 162.905 78.4744H161.845C162.112 78.4744 162.332 78.3802 162.505 78.1918C162.662 77.9877 162.709 77.7366 162.646 77.4383L160.668 66.1835Z" fill="black"/>
<path opacity="0.3" d="M158.574 81.3565H157.467L154.807 66.0046V59.5767L158.574 81.3565Z" fill="black"/>
<path d="M181.935 81.5713V80.1115H132.865V81.5713H181.935Z" fill="url(#paint36_linear_559_5553)"/>
<path d="M119.703 81.5713V80.1115H132.865V81.5713H119.703Z" fill="url(#paint37_linear_559_5553)"/>
<path opacity="0.2" d="M119.703 81.57V80.1102H132.865V81.57H119.703Z" fill="black"/>
<path d="M196.035 64.4053V73.3056C196.035 74.6241 196.412 75.7465 197.165 76.6726C197.762 77.4104 198.453 77.8577 199.237 78.0147C199.457 78.0618 199.685 78.0853 199.92 78.0853C200.988 78.0853 201.898 77.6144 202.652 76.6726C203.421 75.7465 203.805 74.6241 203.805 73.3056V64.4053C203.805 63.0867 203.421 61.9644 202.652 61.0382C202.51 60.8656 202.369 60.7086 202.228 60.5673C201.568 59.9394 200.799 59.6255 199.92 59.6255C198.837 59.6255 197.919 60.0964 197.165 61.0382C196.412 61.9644 196.035 63.0867 196.035 64.4053Z" fill="url(#paint38_linear_559_5553)"/>
<path opacity="0.1" d="M196.035 64.4035V73.3038C196.035 74.6223 196.412 75.7447 197.165 76.6708C197.762 77.4086 198.453 77.856 199.237 78.0129C199.457 78.06 199.685 78.0836 199.92 78.0836C200.988 78.0836 201.898 77.6127 202.652 76.6708C203.421 75.7447 203.805 74.6223 203.805 73.3038V64.4035C203.805 63.0849 203.421 61.9626 202.652 61.0365C202.51 60.8638 202.369 60.7068 202.228 60.5655C201.568 59.9377 200.799 59.6237 199.92 59.6237C198.837 59.6237 197.919 60.0946 197.165 61.0365C196.412 61.9626 196.035 63.0849 196.035 64.4035Z" fill="black"/>
<path d="M197.471 54.5692C197.534 54.4593 197.566 54.3415 197.566 54.216C197.55 54.0904 197.503 53.9884 197.424 53.9099C197.33 53.8314 197.236 53.8 197.142 53.8157C197.032 53.8314 196.946 53.8863 196.883 53.9805L196.742 54.1924V53.7921C196.742 53.6666 196.702 53.5567 196.624 53.4625C196.561 53.3683 196.475 53.3212 196.365 53.3212C196.255 53.3212 196.169 53.3683 196.106 53.4625C196.027 53.5567 195.988 53.6666 195.988 53.7921V54.1689L195.87 53.9805C195.808 53.8863 195.721 53.8314 195.611 53.8157C195.517 53.8 195.423 53.8314 195.329 53.9099C195.25 53.9884 195.203 54.0904 195.188 54.216C195.188 54.3415 195.219 54.4593 195.282 54.5692L195.917 55.5816C195.902 55.6444 195.894 55.7072 195.894 55.77C195.91 55.8956 195.957 56.0054 196.035 56.0996C196.114 56.1781 196.208 56.2095 196.318 56.1938C196.333 56.1781 196.349 56.1703 196.365 56.1703C196.396 56.1703 196.42 56.1781 196.435 56.1938C196.545 56.2095 196.639 56.1781 196.718 56.0996C196.796 56.0054 196.844 55.8956 196.859 55.77C196.859 55.7072 196.851 55.6444 196.836 55.5816L197.471 54.5692Z" fill="#FFCE00"/>
<path d="M195.683 64.1029C195.762 64.1343 195.848 64.1579 195.942 64.1736C196.068 64.1893 196.201 64.1971 196.343 64.1971C196.986 64.1971 197.536 63.9146 197.991 63.3495C198.446 62.8001 198.674 62.1251 198.674 61.3245V57.6749C198.674 56.8901 198.446 56.2151 197.991 55.65C197.928 55.5558 197.858 55.4773 197.779 55.4146C197.763 55.3989 197.748 55.3832 197.732 55.3675C197.339 54.9907 196.876 54.8024 196.343 54.8024C195.699 54.8024 195.15 55.0849 194.695 55.65C194.239 56.2151 194.012 56.8901 194.012 57.6749V61.3245C194.012 62.1251 194.239 62.8001 194.695 63.3495C194.993 63.7262 195.322 63.9774 195.683 64.1029Z" fill="url(#paint39_linear_559_5553)"/>
<g opacity="0.6">
<path d="M200.463 68.7568C200.479 68.7411 200.487 68.7097 200.487 68.6626C200.487 68.6312 200.479 68.5998 200.463 68.5684C200.432 68.537 200.401 68.5213 200.369 68.5213C200.338 68.5213 200.314 68.537 200.299 68.5684L200.157 68.7568V68.4742C200.157 68.4428 200.149 68.4114 200.134 68.38C200.102 68.3487 200.071 68.333 200.04 68.333C200.008 68.333 199.985 68.3487 199.969 68.38C199.938 68.4114 199.922 68.4428 199.922 68.4742V68.7568L199.781 68.5684C199.749 68.537 199.726 68.5213 199.71 68.5213C199.679 68.5213 199.647 68.537 199.616 68.5684C199.6 68.5998 199.592 68.6312 199.592 68.6626C199.592 68.7097 199.6 68.7411 199.616 68.7568L199.945 69.1571C199.961 69.1885 199.985 69.2041 200.016 69.2041C200.032 69.2041 200.04 69.2041 200.04 69.2041H200.063C200.094 69.2041 200.118 69.1885 200.134 69.1571L200.463 68.7568ZM201.523 68.0504C201.523 68.0818 201.531 68.1132 201.546 68.1446L201.876 68.5449C201.892 68.5763 201.915 68.592 201.947 68.592H201.97C202.002 68.592 202.025 68.5763 202.041 68.5449L202.371 68.1446C202.386 68.1132 202.394 68.0818 202.394 68.0504C202.394 68.019 202.386 67.9876 202.371 67.9562C202.339 67.9248 202.308 67.9091 202.276 67.9091C202.261 67.9091 202.237 67.9248 202.206 67.9562L202.064 68.121V67.862C202.064 67.815 202.057 67.7836 202.041 67.7679C202.01 67.7365 201.978 67.7208 201.947 67.7208C201.915 67.7208 201.892 67.7365 201.876 67.7679C201.86 67.7836 201.853 67.815 201.853 67.862V68.121L201.711 67.9562C201.68 67.9248 201.656 67.9091 201.641 67.9091C201.609 67.9091 201.578 67.9248 201.546 67.9562C201.531 67.9876 201.523 68.019 201.523 68.0504ZM202.159 63.9299C202.159 63.9613 202.167 63.9927 202.182 64.0241L202.512 64.4244C202.528 64.4401 202.551 64.4479 202.582 64.4479H202.606C202.637 64.4479 202.661 64.4401 202.677 64.4244L203.006 64.0241C203.022 63.9927 203.03 63.9613 203.03 63.9299C203.03 63.8828 203.022 63.8514 203.006 63.8357C202.975 63.8043 202.944 63.7886 202.912 63.7886C202.896 63.7886 202.873 63.8043 202.841 63.8357L202.7 64.0241V63.6944C202.7 63.6631 202.685 63.6317 202.653 63.6003C202.637 63.5846 202.614 63.5767 202.582 63.5767C202.551 63.5767 202.52 63.5846 202.488 63.6003C202.473 63.6317 202.465 63.6631 202.465 63.6944V63.977L202.347 63.8357C202.316 63.8043 202.292 63.7886 202.276 63.7886C202.245 63.7886 202.214 63.8043 202.182 63.8357C202.167 63.8514 202.159 63.8828 202.159 63.9299ZM201.005 65.0601C200.989 65.0287 200.966 65.013 200.934 65.013C200.903 65.013 200.879 65.0287 200.864 65.0601C200.832 65.0758 200.817 65.1072 200.817 65.1543V65.4604L200.652 65.2485C200.636 65.2171 200.613 65.2014 200.581 65.2014C200.55 65.2014 200.518 65.2171 200.487 65.2485C200.471 65.2799 200.463 65.3113 200.463 65.3426C200.463 65.374 200.471 65.4054 200.487 65.4368L200.817 65.8371C200.848 65.8685 200.871 65.8842 200.887 65.8842H200.911C200.942 65.8842 200.974 65.8685 201.005 65.8371L201.311 65.4368C201.342 65.4054 201.358 65.374 201.358 65.3426C201.358 65.3113 201.342 65.2799 201.311 65.2485C201.295 65.2171 201.272 65.2014 201.24 65.2014C201.209 65.2014 201.185 65.2171 201.17 65.2485L201.052 65.3897V65.1543C201.052 65.1072 201.036 65.0758 201.005 65.0601ZM198.156 66.3316C198.156 66.3787 198.164 66.4179 198.179 66.4493L198.509 66.826C198.525 66.8574 198.548 66.8731 198.58 66.8731H198.603C198.635 66.8731 198.658 66.8574 198.674 66.826H198.697C198.713 66.8103 198.721 66.8025 198.721 66.8025C198.737 66.7868 198.752 66.7711 198.768 66.7554L199.004 66.4493C199.019 66.4179 199.027 66.3787 199.027 66.3316C199.027 66.3002 199.019 66.2688 199.004 66.2374C198.988 66.2217 198.964 66.2138 198.933 66.2138C198.902 66.2138 198.87 66.2217 198.839 66.2374L198.768 66.3551V66.1432C198.768 66.0961 198.752 66.0647 198.721 66.049C198.705 66.0176 198.682 66.0019 198.65 66.0019C198.619 66.0019 198.595 66.0176 198.58 66.049C198.548 66.0647 198.533 66.0961 198.533 66.1432V66.4964L198.344 66.2374C198.313 66.2217 198.281 66.2138 198.25 66.2138C198.234 66.2138 198.211 66.2217 198.179 66.2374C198.164 66.2688 198.156 66.3002 198.156 66.3316ZM200.463 62.9174C200.479 62.886 200.487 62.8546 200.487 62.8233C200.487 62.7919 200.479 62.7605 200.463 62.7291C200.448 62.6977 200.424 62.682 200.393 62.682C200.361 62.682 200.33 62.6977 200.299 62.7291L200.157 62.9174V62.6349C200.157 62.5878 200.149 62.5564 200.134 62.5407C200.102 62.5093 200.071 62.4936 200.04 62.4936C200.024 62.4936 200 62.5093 199.969 62.5407C199.953 62.5564 199.945 62.5878 199.945 62.6349V62.9174L199.781 62.7291C199.765 62.6977 199.741 62.682 199.71 62.682C199.679 62.682 199.655 62.6977 199.639 62.7291C199.608 62.7605 199.592 62.7919 199.592 62.8233C199.592 62.8546 199.608 62.886 199.639 62.9174L199.945 63.3177C199.977 63.3491 200.008 63.3648 200.04 63.3648H200.063C200.094 63.3648 200.118 63.3491 200.134 63.3177L200.463 62.9174ZM197.685 60.398C197.654 60.398 197.622 60.4059 197.591 60.4216C197.575 60.453 197.567 60.4844 197.567 60.5158V60.8454L197.402 60.6335C197.371 60.6021 197.347 60.5864 197.332 60.5864C197.3 60.5864 197.269 60.6021 197.238 60.6335C197.222 60.6649 197.214 60.6963 197.214 60.7277C197.214 60.7748 197.222 60.8062 197.238 60.8219L197.567 61.2221C197.583 61.2535 197.606 61.2692 197.638 61.2692H197.661C197.693 61.2692 197.716 61.2535 197.732 61.2221L198.062 60.8219C198.093 60.8062 198.109 60.7748 198.109 60.7277C198.109 60.6963 198.093 60.6649 198.062 60.6335C198.046 60.6021 198.022 60.5864 197.991 60.5864C197.96 60.5864 197.936 60.6021 197.92 60.6335L197.779 60.7983V60.5158C197.779 60.4844 197.771 60.453 197.756 60.4216C197.74 60.4059 197.716 60.398 197.685 60.398ZM197.685 57.8551C197.654 57.8551 197.622 57.8629 197.591 57.8786C197.575 57.91 197.567 57.9414 197.567 57.9728V58.2789L197.402 58.067C197.371 58.0513 197.347 58.0435 197.332 58.0435C197.3 58.0435 197.269 58.0513 197.238 58.067C197.222 58.0984 197.214 58.1377 197.214 58.1847C197.214 58.2161 197.222 58.2475 197.238 58.2789L197.567 58.6792C197.583 58.6949 197.606 58.7027 197.638 58.7027H197.661C197.693 58.7027 197.716 58.6949 197.732 58.6792L198.062 58.2789C198.093 58.2475 198.109 58.2161 198.109 58.1847C198.109 58.1377 198.093 58.0984 198.062 58.067C198.046 58.0513 198.022 58.0435 197.991 58.0435C197.96 58.0435 197.936 58.0513 197.92 58.067L197.779 58.2318V57.9728C197.779 57.9414 197.771 57.91 197.756 57.8786C197.74 57.8629 197.716 57.8551 197.685 57.8551ZM201.523 61.1986C201.523 61.23 201.539 61.2614 201.57 61.2928L201.876 61.6931C201.908 61.7245 201.939 61.7402 201.97 61.7402C202.002 61.7402 202.025 61.7245 202.041 61.6931L202.371 61.2928C202.402 61.2614 202.418 61.23 202.418 61.1986C202.418 61.1672 202.402 61.1358 202.371 61.1044C202.355 61.073 202.331 61.0573 202.3 61.0573C202.269 61.0573 202.237 61.073 202.206 61.1044L202.064 61.2928V61.0102C202.064 60.9788 202.057 60.9474 202.041 60.9161C202.01 60.8847 201.986 60.869 201.97 60.869C201.939 60.869 201.908 60.8847 201.876 60.9161C201.86 60.9474 201.853 60.9788 201.853 61.0102V61.2692L201.711 61.1044C201.696 61.073 201.672 61.0573 201.641 61.0573C201.609 61.0573 201.586 61.073 201.57 61.1044C201.539 61.1358 201.523 61.1672 201.523 61.1986ZM196.649 62.7762C196.618 62.7448 196.586 62.7291 196.555 62.7291C196.523 62.7291 196.5 62.7448 196.484 62.7762C196.468 62.7919 196.461 62.8233 196.461 62.8703V63.1293L196.319 62.9645C196.304 62.9331 196.28 62.9174 196.249 62.9174C196.217 62.9174 196.186 62.9331 196.155 62.9645C196.139 62.9959 196.131 63.0273 196.131 63.0587C196.131 63.0901 196.139 63.1215 196.155 63.1529L196.484 63.5532C196.5 63.5846 196.523 63.6003 196.555 63.6003H196.578C196.61 63.6003 196.633 63.5846 196.649 63.5532L196.979 63.1529C196.994 63.1215 197.002 63.0901 197.002 63.0587C197.002 63.0273 196.994 62.9959 196.979 62.9645C196.947 62.9331 196.924 62.9174 196.908 62.9174C196.877 62.9174 196.845 62.9331 196.814 62.9645L196.673 63.1293V62.8703C196.673 62.8233 196.665 62.7919 196.649 62.7762ZM195.613 60.5158V60.8454L195.448 60.6335C195.417 60.6021 195.385 60.5864 195.354 60.5864C195.323 60.5864 195.299 60.6021 195.283 60.6335C195.268 60.6649 195.26 60.6963 195.26 60.7277C195.26 60.7748 195.268 60.8062 195.283 60.8219L195.613 61.2221C195.629 61.2535 195.652 61.2692 195.684 61.2692H195.707C195.739 61.2692 195.762 61.2535 195.778 61.2221L196.107 60.8219C196.123 60.8062 196.131 60.7748 196.131 60.7277C196.131 60.6963 196.123 60.6649 196.107 60.6335C196.092 60.6021 196.068 60.5864 196.037 60.5864C196.005 60.5864 195.974 60.6021 195.943 60.6335L195.848 60.7748V60.5158C195.848 60.4844 195.833 60.453 195.801 60.4216C195.786 60.4059 195.762 60.398 195.731 60.398C195.699 60.398 195.676 60.4059 195.66 60.4216C195.629 60.453 195.613 60.4844 195.613 60.5158ZM195.613 57.4548L195.448 57.2194C195.417 57.2037 195.385 57.1958 195.354 57.1958C195.323 57.1958 195.299 57.2037 195.283 57.2194C195.268 57.2508 195.26 57.2822 195.26 57.3136C195.26 57.3606 195.268 57.392 195.283 57.4077L195.613 57.808C195.629 57.8394 195.652 57.8551 195.684 57.8551C195.699 57.8708 195.715 57.8786 195.731 57.8786C195.762 57.8786 195.786 57.863 195.801 57.8316C195.833 57.8002 195.848 57.7688 195.848 57.7374L196.107 57.4077C196.123 57.392 196.131 57.3606 196.131 57.3136C196.131 57.2822 196.123 57.2508 196.107 57.2194C196.092 57.2037 196.068 57.1958 196.037 57.1958C196.005 57.1958 195.974 57.2037 195.943 57.2194L195.848 57.3606V57.1723C195.848 57.1409 195.833 57.1095 195.801 57.0781C195.786 57.0467 195.762 57.031 195.731 57.031C195.699 57.031 195.676 57.0467 195.66 57.0781C195.629 57.1095 195.613 57.1409 195.613 57.1723V57.4548Z" fill="white"/>
</g>
<path d="M195.753 80.9647C195.941 81.1845 196.169 81.2944 196.436 81.2944H203.947C204.214 81.2944 204.449 81.1845 204.653 80.9647C204.841 80.7293 204.951 80.4546 204.983 80.1406L205.76 71.6642C205.807 71.3502 205.744 71.0755 205.571 70.8401C205.399 70.6046 205.187 70.4869 204.936 70.4869H195.447C195.18 70.4869 194.968 70.6046 194.811 70.8401C194.638 71.0755 194.575 71.3502 194.623 71.6642L195.376 80.1406C195.407 80.4546 195.533 80.7293 195.753 80.9647Z" fill="url(#paint40_linear_559_5553)"/>
<path d="M194.811 69.5222C194.183 69.5222 193.869 69.9146 193.869 70.6994V72.6066C193.869 73.3915 194.183 73.7839 194.811 73.7839H205.524C206.152 73.7839 206.466 73.3915 206.466 72.6066V70.6994C206.466 69.9146 206.152 69.5222 205.524 69.5222H194.811Z" fill="url(#paint41_linear_559_5553)"/>
<path d="M208.022 143.459L190.174 142.824V150.076H192.081V152.642H190.786V161.684H189.279V176.306H205.997V161.684H207.362L207.975 151.653H209.034V149.016H208.022V143.459Z" fill="url(#paint42_linear_559_5553)"/>
<path d="M192.082 150.076H190.175V142.824L174.635 143.459V149.558H176.589V151.112H174.635V161.684H172.492L172.916 176.306H189.28V161.684H190.787V152.642H192.082V150.076Z" fill="url(#paint43_linear_559_5553)"/>
<path opacity="0.2" d="M190.813 161.605V160.945L174.637 161.252L172.494 161.605H190.813Z" fill="black"/>
<path opacity="0.2" d="M192.086 152.569V151.886L174.639 151.062L190.815 152.569H192.086Z" fill="black"/>
<path opacity="0.2" d="M190.179 149.997V149.196L174.639 149.502L190.179 149.997Z" fill="black"/>
<path opacity="0.2" d="M189.279 168.342V169.142L205.997 167.73V167.118L189.279 168.342Z" fill="black"/>
<path opacity="0.2" d="M190.814 156.552V156.976L207.72 155.846V155.587L190.814 156.552Z" fill="black"/>
<path opacity="0.2" d="M190.176 145.927V147.01L201.784 145.927H190.176Z" fill="black"/>
<path d="M175.976 156.402L165.192 156.025V160.405H166.346V161.959H165.569V167.445H164.65V176.298H174.752V167.445H175.576L175.952 161.37H176.588V159.769H175.976V156.402Z" fill="url(#paint44_linear_559_5553)"/>
<path d="M166.346 160.405H165.192V156.025L155.774 156.402V160.099H156.951V161.041H155.774V167.445H154.479L154.738 176.298H164.65V167.445H165.569V161.959H166.346V160.405Z" fill="url(#paint45_linear_559_5553)"/>
<path opacity="0.2" d="M165.475 167.445V167.045L155.703 167.233L154.408 167.445H165.475Z" fill="black"/>
<path opacity="0.2" d="M166.252 161.984V161.56L155.703 161.066L165.475 161.984H166.252Z" fill="black"/>
<path opacity="0.2" d="M165.098 160.424V159.929L155.703 160.117L165.098 160.424Z" fill="black"/>
<path opacity="0.2" d="M164.555 171.525V171.996L174.679 171.148V170.772L164.555 171.525Z" fill="black"/>
<path opacity="0.2" d="M165.475 164.385V164.644L175.717 163.962V163.797L165.475 164.385Z" fill="black"/>
<path opacity="0.2" d="M165.1 157.959V158.618L172.14 157.959H165.1Z" fill="black"/>
<defs>
<linearGradient id="paint0_linear_559_5553" x1="1.14581" y1="175.057" x2="265.787" y2="175.057" gradientUnits="userSpaceOnUse">
<stop stop-color="#D1E8FF"/>
<stop offset="1" stop-color="#EAEFFF"/>
</linearGradient>
<linearGradient id="paint1_linear_559_5553" x1="8.97933" y1="53.0779" x2="51.169" y2="53.0779" gradientUnits="userSpaceOnUse">
<stop stop-color="#D1E8FF"/>
<stop offset="1" stop-color="#EAEFFF"/>
</linearGradient>
<linearGradient id="paint2_linear_559_5553" x1="88.214" y1="19.3684" x2="118.762" y2="181.309" gradientUnits="userSpaceOnUse">
<stop stop-color="white"/>
<stop offset="1" stop-color="white"/>
</linearGradient>
<linearGradient id="paint3_linear_559_5553" x1="165.053" y1="76.6264" x2="106.216" y2="13.7076" gradientUnits="userSpaceOnUse">
<stop stop-color="#F74400"/>
<stop offset="1" stop-color="#FFE754"/>
</linearGradient>
<linearGradient id="paint4_linear_559_5553" x1="73.9255" y1="175.009" x2="120.122" y2="175.009" gradientUnits="userSpaceOnUse">
<stop stop-color="#3A407F"/>
<stop offset="1" stop-color="#1B2153"/>
</linearGradient>
<linearGradient id="paint5_linear_559_5553" x1="120.308" y1="175.008" x2="138.299" y2="175.008" gradientUnits="userSpaceOnUse">
<stop stop-color="#8A412D"/>
<stop offset="1" stop-color="#DB7424"/>
</linearGradient>
<linearGradient id="paint6_linear_559_5553" x1="153.679" y1="175.008" x2="171.67" y2="175.008" gradientUnits="userSpaceOnUse">
<stop stop-color="#8A412D"/>
<stop offset="1" stop-color="#DB7424"/>
</linearGradient>
<linearGradient id="paint7_linear_559_5553" x1="104.999" y1="169.231" x2="168.491" y2="169.231" gradientUnits="userSpaceOnUse">
<stop stop-color="#262626"/>
<stop offset="1" stop-color="#808080"/>
</linearGradient>
<linearGradient id="paint8_linear_559_5553" x1="161.057" y1="81.6904" x2="152.592" y2="74.1773" gradientUnits="userSpaceOnUse">
<stop stop-color="#FFFAC0"/>
<stop offset="0.545" stop-color="#FFC880"/>
<stop offset="1" stop-color="#EF6262"/>
</linearGradient>
<linearGradient id="paint9_linear_559_5553" x1="93.2589" y1="73.8512" x2="135.722" y2="106.075" gradientUnits="userSpaceOnUse">
<stop stop-color="#562818"/>
<stop offset="1" stop-color="#A0622F"/>
</linearGradient>
<linearGradient id="paint10_linear_559_5553" x1="104.555" y1="54.7123" x2="128.657" y2="72.9615" gradientUnits="userSpaceOnUse">
<stop stop-color="#562818"/>
<stop offset="1" stop-color="#A0622F"/>
</linearGradient>
<linearGradient id="paint11_linear_559_5553" x1="142.696" y1="90.0836" x2="90.7329" y2="62.3241" gradientUnits="userSpaceOnUse">
<stop stop-color="#262626"/>
<stop offset="1" stop-color="#808080"/>
</linearGradient>
<linearGradient id="paint12_linear_559_5553" x1="71.7587" y1="169.252" x2="135.245" y2="169.252" gradientUnits="userSpaceOnUse">
<stop stop-color="#262626"/>
<stop offset="1" stop-color="#808080"/>
</linearGradient>
<linearGradient id="paint13_linear_559_5553" x1="115.47" y1="42.1506" x2="126.494" y2="27.1257" gradientUnits="userSpaceOnUse">
<stop stop-color="#FFFAC0"/>
<stop offset="0.545" stop-color="#FFC880"/>
<stop offset="1" stop-color="#EF6262"/>
</linearGradient>
<linearGradient id="paint14_linear_559_5553" x1="90.4574" y1="23.1301" x2="97.9863" y2="1.73946" gradientUnits="userSpaceOnUse">
<stop stop-color="#FFFAC0"/>
<stop offset="0.545" stop-color="#FFC880"/>
<stop offset="1" stop-color="#EF6262"/>
</linearGradient>
<linearGradient id="paint15_linear_559_5553" x1="90.3981" y1="98.5525" x2="130.329" y2="87.7304" gradientUnits="userSpaceOnUse">
<stop stop-color="#F1C5FF"/>
<stop offset="1" stop-color="#C6FFF9"/>
</linearGradient>
<linearGradient id="paint16_linear_559_5553" x1="18.6125" y1="104.135" x2="-5.45726" y2="65.2787" gradientUnits="userSpaceOnUse">
<stop stop-color="#FA1E58"/>
<stop offset="1" stop-color="#FECD85"/>
</linearGradient>
<linearGradient id="paint17_linear_559_5553" x1="109.347" y1="34.1358" x2="99.2312" y2="32.7254" gradientUnits="userSpaceOnUse">
<stop stop-color="#77FFD2"/>
<stop offset="1" stop-color="#3CACFF"/>
</linearGradient>
<linearGradient id="paint18_linear_559_5553" x1="113.1" y1="33.9356" x2="109.583" y2="33.4452" gradientUnits="userSpaceOnUse">
<stop stop-color="#77FFD2"/>
<stop offset="1" stop-color="#3CACFF"/>
</linearGradient>
<linearGradient id="paint19_linear_559_5553" x1="67.2348" y1="104.291" x2="91.2819" y2="111.315" gradientUnits="userSpaceOnUse">
<stop stop-color="#562818"/>
<stop offset="1" stop-color="#A0622F"/>
</linearGradient>
<linearGradient id="paint20_linear_559_5553" x1="100.985" y1="97.8364" x2="118.308" y2="100.262" gradientUnits="userSpaceOnUse">
<stop stop-color="#562818"/>
<stop offset="1" stop-color="#A0622F"/>
</linearGradient>
<linearGradient id="paint21_linear_559_5553" x1="132.817" y1="77.0437" x2="132.825" y2="77.0437" gradientUnits="userSpaceOnUse">
<stop stop-color="#FFFAC0"/>
<stop offset="0.545" stop-color="#FFC880"/>
<stop offset="1" stop-color="#EF6262"/>
</linearGradient>
<linearGradient id="paint22_linear_559_5553" x1="136.682" y1="81.5757" x2="127.469" y2="73.3446" gradientUnits="userSpaceOnUse">
<stop stop-color="#FFFAC0"/>
<stop offset="0.545" stop-color="#FFC880"/>
<stop offset="1" stop-color="#EF6262"/>
</linearGradient>
<linearGradient id="paint23_linear_559_5553" x1="64.8631" y1="73.5841" x2="113.554" y2="105.705" gradientUnits="userSpaceOnUse">
<stop stop-color="#562818"/>
<stop offset="1" stop-color="#A0622F"/>
</linearGradient>
<linearGradient id="paint24_linear_559_5553" x1="55.7643" y1="175.232" x2="77.3618" y2="175.232" gradientUnits="userSpaceOnUse">
<stop stop-color="#3A407F"/>
<stop offset="1" stop-color="#1B2153"/>
</linearGradient>
<linearGradient id="paint25_linear_559_5553" x1="198.672" y1="174.916" x2="214.124" y2="174.916" gradientUnits="userSpaceOnUse">
<stop stop-color="#3A407F"/>
<stop offset="1" stop-color="#1B2153"/>
</linearGradient>
<linearGradient id="paint26_linear_559_5553" x1="183.203" y1="175.706" x2="198.655" y2="175.706" gradientUnits="userSpaceOnUse">
<stop stop-color="#3A407F"/>
<stop offset="1" stop-color="#1B2153"/>
</linearGradient>
<linearGradient id="paint27_linear_559_5553" x1="71.6723" y1="174.433" x2="93.2698" y2="174.433" gradientUnits="userSpaceOnUse">
<stop stop-color="#3A407F"/>
<stop offset="1" stop-color="#1B2153"/>
</linearGradient>
<linearGradient id="paint28_linear_559_5553" x1="56.1658" y1="84.9975" x2="214.091" y2="84.9975" gradientUnits="userSpaceOnUse">
<stop offset="0.008" stop-color="#AC6C62"/>
<stop offset="1" stop-color="#E7C3A6"/>
</linearGradient>
<linearGradient id="paint29_linear_559_5553" x1="56.1658" y1="87.1963" x2="214.091" y2="87.1963" gradientUnits="userSpaceOnUse">
<stop offset="0.008" stop-color="#AC6C62"/>
<stop offset="1" stop-color="#E7C3A6"/>
</linearGradient>
<linearGradient id="paint30_linear_559_5553" x1="119.911" y1="81.5762" x2="132.984" y2="81.5762" gradientUnits="userSpaceOnUse">
<stop stop-color="#BAE3D6"/>
<stop offset="1" stop-color="#FFFF84"/>
</linearGradient>
<linearGradient id="paint31_linear_559_5553" x1="117.952" y1="19.8691" x2="194.043" y2="26.8977" gradientUnits="userSpaceOnUse">
<stop stop-color="#7CB8FD"/>
<stop offset="1" stop-color="#CBD9F9"/>
</linearGradient>
<linearGradient id="paint32_linear_559_5553" x1="189.323" y1="26.0091" x2="122.042" y2="26.0091" gradientUnits="userSpaceOnUse">
<stop stop-color="#7CB8FD"/>
<stop offset="1" stop-color="#CBD9F9"/>
</linearGradient>
<linearGradient id="paint33_linear_559_5553" x1="165.909" y1="52.4878" x2="146.576" y2="57.599" gradientUnits="userSpaceOnUse">
<stop stop-color="#7CB8FD"/>
<stop offset="1" stop-color="#CBD9F9"/>
</linearGradient>
<linearGradient id="paint34_linear_559_5553" x1="163.788" y1="78.472" x2="160.681" y2="78.472" gradientUnits="userSpaceOnUse">
<stop stop-color="#7CB8FD"/>
<stop offset="1" stop-color="#CBD9F9"/>
</linearGradient>
<linearGradient id="paint35_linear_559_5553" x1="158.582" y1="81.3647" x2="154.802" y2="81.3647" gradientUnits="userSpaceOnUse">
<stop stop-color="#7CB8FD"/>
<stop offset="1" stop-color="#CBD9F9"/>
</linearGradient>
<linearGradient id="paint36_linear_559_5553" x1="132.695" y1="81.5723" x2="181.666" y2="81.5723" gradientUnits="userSpaceOnUse">
<stop stop-color="#7CB8FD"/>
<stop offset="1" stop-color="#CBD9F9"/>
</linearGradient>
<linearGradient id="paint37_linear_559_5553" x1="132.873" y1="81.5728" x2="119.712" y2="81.5728" gradientUnits="userSpaceOnUse">
<stop stop-color="#7CB8FD"/>
<stop offset="1" stop-color="#CBD9F9"/>
</linearGradient>
<linearGradient id="paint38_linear_559_5553" x1="214.288" y1="80.3151" x2="214.288" y2="57.4233" gradientUnits="userSpaceOnUse">
<stop stop-color="#02A562"/>
<stop offset="1" stop-color="#E3FF00"/>
</linearGradient>
<linearGradient id="paint39_linear_559_5553" x1="202.577" y1="64.483" x2="202.577" y2="54.1172" gradientUnits="userSpaceOnUse">
<stop stop-color="#02A562"/>
<stop offset="1" stop-color="#E3FF00"/>
</linearGradient>
<linearGradient id="paint40_linear_559_5553" x1="203.616" y1="82.7994" x2="203.616" y2="68.9997" gradientUnits="userSpaceOnUse">
<stop stop-color="#F74400"/>
<stop offset="1" stop-color="#FFE754"/>
</linearGradient>
<linearGradient id="paint41_linear_559_5553" x1="200.637" y1="74.9346" x2="200.637" y2="68.3715" gradientUnits="userSpaceOnUse">
<stop stop-color="#F74400"/>
<stop offset="1" stop-color="#FFE754"/>
</linearGradient>
<linearGradient id="paint42_linear_559_5553" x1="189.279" y1="176.313" x2="209.023" y2="176.313" gradientUnits="userSpaceOnUse">
<stop stop-color="#BAE3D6"/>
<stop offset="1" stop-color="#FFFF84"/>
</linearGradient>
<linearGradient id="paint43_linear_559_5553" x1="172.497" y1="176.313" x2="192.091" y2="176.313" gradientUnits="userSpaceOnUse">
<stop stop-color="#BAE3D6"/>
<stop offset="1" stop-color="#FFFF84"/>
</linearGradient>
<linearGradient id="paint44_linear_559_5553" x1="164.643" y1="176.296" x2="176.592" y2="176.296" gradientUnits="userSpaceOnUse">
<stop stop-color="#BAE3D6"/>
<stop offset="1" stop-color="#FFFF84"/>
</linearGradient>
<linearGradient id="paint45_linear_559_5553" x1="154.486" y1="176.296" x2="166.344" y2="176.296" gradientUnits="userSpaceOnUse">
<stop stop-color="#BAE3D6"/>
<stop offset="1" stop-color="#FFFF84"/>
</linearGradient>
</defs>
</svg>
