<svg width="704" height="354" viewBox="0 0 704 354" fill="none" xmlns="http://www.w3.org/2000/svg">
<g opacity="0.4">
<path d="M582.65 36.4956C576.371 36.4956 571.271 31.2604 571.271 24.8274C571.271 18.3752 576.371 13.14 582.65 13.14C588.928 13.14 594.028 18.3752 594.028 24.8274C594.028 31.2604 588.928 36.4956 582.65 36.4956Z" fill="#ABE9FF"/>
</g>
<path d="M572.083 94.0198C572.083 94.0005 572.083 93.5755 572.006 92.8414L573.223 92.7448C573.3 93.5368 573.3 93.9811 573.3 93.9811L572.083 94.0198Z" fill="#92BFF7"/>
<path d="M571.735 90.4286C571.638 89.6366 571.503 88.8252 571.348 88.0139L572.546 87.782C572.701 88.6127 572.836 89.4434 572.952 90.2548L571.735 90.4286ZM570.846 85.6377C570.672 84.8457 570.46 84.0343 570.247 83.2616L571.426 82.9332C571.638 83.7252 571.851 84.5559 572.044 85.348L570.846 85.6377ZM569.532 80.9434C569.281 80.1707 568.991 79.398 568.702 78.6446L569.841 78.2196C570.131 78.973 570.421 79.765 570.691 80.5571L569.532 80.9434ZM567.774 76.4037C567.427 75.6696 567.079 74.9355 566.712 74.2207L567.774 73.6605C568.161 74.3752 568.528 75.148 568.876 75.9014L567.774 76.4037ZM565.514 72.115C565.089 71.4196 564.645 70.7241 564.201 70.0673L565.186 69.3718C565.669 70.048 566.132 70.7628 566.557 71.4775L565.514 72.115ZM562.732 68.1548C562.211 67.5173 561.689 66.9184 561.129 66.3389L562.018 65.5082C562.578 66.0878 563.138 66.7253 563.679 67.3821L562.732 68.1548ZM559.39 64.6582C558.791 64.1173 558.173 63.615 557.536 63.1321L558.27 62.1662C558.927 62.6684 559.584 63.19 560.202 63.7503L559.39 64.6582ZM555.546 61.7605C554.87 61.3355 554.174 60.9298 553.46 60.5628L554.02 59.4809C554.754 59.8673 555.488 60.2923 556.203 60.7366L555.546 61.7605ZM515.364 59.5775H515.036V58.3605H515.364C516.04 58.3605 516.755 58.3412 517.47 58.3025L517.528 59.5196C516.794 59.5582 516.06 59.5775 515.364 59.5775ZM551.257 59.5582C550.523 59.2491 549.77 58.9594 548.997 58.7082L549.364 57.5491C550.156 57.8196 550.968 58.1094 551.721 58.4184L551.257 59.5582ZM512.525 59.4809C511.694 59.423 510.844 59.3264 510.032 59.2105L510.206 58.0128C510.998 58.1287 511.81 58.2253 512.621 58.2832L512.525 59.4809ZM520.02 59.3264L519.885 58.1094C520.677 58.0321 521.488 57.9355 522.299 57.8003L522.493 59.0173C521.662 59.1332 520.812 59.2491 520.02 59.3264ZM507.56 58.7469C506.729 58.5537 505.918 58.3412 505.126 58.09L505.493 56.9309C506.246 57.1628 507.038 57.3753 507.83 57.5685L507.56 58.7469ZM524.946 58.573L524.714 57.3753C525.023 57.3109 525.339 57.2465 525.661 57.1821C526.15 57.0791 526.64 56.9825 527.129 56.8923L527.361 58.09C526.884 58.1802 526.401 58.2768 525.912 58.3798C525.577 58.4442 525.255 58.5086 524.946 58.573ZM546.66 58.0514C545.887 57.8582 545.095 57.7037 544.284 57.5685L544.496 56.3707C545.327 56.506 546.138 56.6798 546.949 56.873L546.66 58.0514ZM529.756 57.665L529.582 56.4673C530.394 56.3321 531.224 56.2355 532.036 56.1389L532.171 57.3366C531.379 57.4332 530.568 57.5491 529.756 57.665ZM541.888 57.24C541.096 57.1628 540.285 57.1048 539.473 57.0662L539.512 55.8491C540.362 55.8878 541.193 55.9457 542.004 56.023L541.888 57.24ZM502.769 57.2014C501.996 56.873 501.223 56.4866 500.509 56.1003L501.088 55.0378C501.784 55.4048 502.498 55.7719 503.252 56.081L502.769 57.2014ZM534.605 57.1435L534.528 55.9264C535.378 55.8685 536.209 55.8491 537.02 55.8298L537.039 57.0469C536.247 57.0662 535.436 57.0855 534.605 57.1435ZM498.364 54.748C497.669 54.265 496.993 53.7241 496.375 53.1639L497.186 52.256C497.765 52.7969 498.403 53.2991 499.06 53.7628L498.364 54.748ZM494.597 51.3673C494.037 50.7298 493.515 50.0537 493.032 49.3582L494.037 48.6821C494.481 49.3389 494.984 49.9571 495.505 50.556L494.597 51.3673ZM491.719 47.2139C491.332 46.4605 490.985 45.6878 490.676 44.8957L491.815 44.4514C492.105 45.2048 492.434 45.9389 492.801 46.6344L491.719 47.2139ZM489.884 42.5003C489.671 41.6889 489.497 40.8582 489.362 40.0276L490.56 39.8537C490.695 40.6457 490.85 41.4185 491.062 42.1912L489.884 42.5003ZM489.111 37.5162C489.085 37.0912 489.072 36.6726 489.072 36.2605C489.072 35.8355 489.085 35.4105 489.111 34.9855L490.328 35.0435C490.302 35.4556 490.289 35.8613 490.289 36.2605C490.289 36.6598 490.302 37.059 490.328 37.4582L489.111 37.5162ZM490.56 32.648L489.343 32.4742C489.478 31.6628 489.632 30.8128 489.826 30.0014L491.004 30.2912C490.811 31.0639 490.676 31.856 490.56 32.648ZM491.68 27.973L490.521 27.5867C490.792 26.7946 491.101 26.0026 491.429 25.2299L492.55 25.7321C492.221 26.4662 491.931 27.2196 491.68 27.973ZM493.612 23.5492L492.55 22.9696C492.955 22.2355 493.38 21.5208 493.844 20.8253L494.868 21.4821C494.423 22.1583 493.998 22.8537 493.612 23.5492ZM496.278 19.531L495.312 18.7776C495.814 18.1208 496.375 17.4833 496.935 16.8651L497.843 17.6958C497.282 18.2753 496.761 18.8935 496.278 19.531ZM499.543 15.9765L498.712 15.0878C499.311 14.5276 499.968 13.9674 500.625 13.4458L501.378 14.3924C500.74 14.8946 500.122 15.4356 499.543 15.9765ZM503.329 12.9628L502.634 11.9583C503.329 11.4946 504.025 11.0503 504.759 10.6253L505.377 11.6685C504.662 12.0742 503.986 12.5185 503.329 12.9628ZM507.502 10.5287L506.961 9.42761C507.714 9.06057 508.468 8.71284 509.24 8.40374L509.704 9.5242C508.97 9.83329 508.217 10.181 507.502 10.5287ZM511.984 8.65488L511.578 7.51511C512.37 7.24465 513.162 6.99352 513.973 6.78102L514.302 7.94011C513.51 8.17193 512.737 8.40375 511.984 8.65488Z" fill="#92BFF7"/>
<path d="M516.796 7.28213L516.545 6.10372C516.944 6.01357 517.35 5.92986 517.762 5.85258L517.974 7.05031C517.588 7.12758 517.195 7.20485 516.796 7.28213Z" fill="#92BFF7"/>
<path d="M524.426 9.96817L534.413 0.965908L513.434 0L518.147 2.41477L520.581 4.90681L524.426 9.96817Z" fill="url(#paint0_radial_559_4942)"/>
<path d="M531.111 1.67636L518.149 2.41045L516.584 7.7809L520.583 4.90249L531.111 1.67636Z" fill="#3885C6"/>
<path d="M653.357 107.193L654.072 107.753C654.072 107.753 654.265 107.502 654.632 107.019L653.898 106.478C653.551 106.941 653.357 107.193 653.357 107.193Z" fill="#B7D8F9"/>
<path d="M656.062 103.527L656.816 104.048C656.416 104.602 656.049 105.098 655.715 105.536L654.98 105.014C655.302 104.563 655.663 104.068 656.062 103.527ZM658.187 100.513L658.941 101.035C658.567 101.563 658.213 102.065 657.878 102.542L657.125 102.02C657.473 101.543 657.827 101.041 658.187 100.513ZM660.254 97.4802L661.027 97.9824C660.666 98.5104 660.319 99.0192 659.984 99.5086L659.23 99.0063C659.565 98.504 659.907 97.9953 660.254 97.4802ZM663.326 68.3677C663.287 68.9279 663.345 69.5075 663.48 70.0484L662.592 70.2802C662.437 69.6427 662.379 68.9859 662.399 68.329L663.326 68.3677ZM663.751 64.6586L664.466 65.2188C664.118 65.6631 663.848 66.1461 663.654 66.687L662.804 66.3972C663.017 65.7404 663.345 65.1609 663.751 64.6586ZM662.302 94.4086L663.055 94.8915C662.721 95.4195 662.386 95.9347 662.051 96.437L661.297 95.9347C661.619 95.4324 661.954 94.9237 662.302 94.4086ZM664.137 71.6325C664.427 72.1154 664.794 72.5597 665.219 72.9268L664.62 73.6029C664.118 73.1779 663.693 72.6563 663.365 72.0961L664.137 71.6325ZM667.17 62.7268L667.286 63.6347C666.726 63.712 666.185 63.8859 665.721 64.1563L665.277 63.3643C665.837 63.0359 666.475 62.8234 667.17 62.7268ZM664.234 91.2983L665.007 91.7813C664.685 92.3093 664.363 92.8309 664.041 93.3461L663.268 92.8631C663.59 92.348 663.912 91.8264 664.234 91.2983ZM666.629 73.854C667.132 74.0859 667.692 74.279 668.271 74.395L668.098 75.2836C667.441 75.1484 666.822 74.9552 666.243 74.6847L666.629 73.854ZM666.127 88.1495L666.919 88.5938C666.61 89.1347 666.294 89.6692 665.973 90.1972L665.2 89.7142C665.509 89.1991 665.818 88.6775 666.127 88.1495ZM667.904 84.9427L668.716 85.3677C668.419 85.9086 668.123 86.4495 667.827 86.9904L667.035 86.5461C667.331 86.0052 667.621 85.4707 667.904 84.9427ZM669.121 62.7461C669.604 62.8041 670.107 62.9393 670.628 63.0938C670.757 63.1325 670.879 63.1775 670.995 63.2291L670.667 64.0791C670.564 64.0404 670.454 64.0018 670.338 63.9632C669.875 63.8086 669.43 63.712 669.005 63.6541L669.121 62.7461ZM669.566 81.6779L670.396 82.0836C670.126 82.6245 669.849 83.1718 669.566 83.7256L668.754 83.3199C669.038 82.7662 669.308 82.2188 669.566 81.6779ZM671.768 74.4143L671.903 75.3222C671.246 75.4188 670.609 75.4575 670.01 75.4575V74.5495C670.57 74.5495 671.169 74.5109 671.768 74.4143ZM671.092 78.3552L671.942 78.7029C671.697 79.2696 671.446 79.8362 671.188 80.4029L670.358 80.0165C670.615 79.4627 670.86 78.909 671.092 78.3552ZM672.695 64.2722C673.178 64.7166 673.565 65.2768 673.854 65.9143L673.024 66.2813C672.792 65.7597 672.463 65.3154 672.077 64.9484L672.695 64.2722ZM672.386 74.9359L673.255 75.2256C673.062 75.7859 672.85 76.3847 672.618 76.9643L671.768 76.6552C672 76.0563 672.193 75.4961 672.386 74.9359ZM673.294 71.4393L674.183 71.5938C674.086 72.1734 673.951 72.7915 673.777 73.429L672.908 73.1972C673.062 72.579 673.197 71.9995 673.294 71.4393ZM674.376 67.8075C674.434 68.387 674.453 69.0245 674.415 69.72L673.507 69.662C673.545 69.0438 673.526 68.445 673.468 67.9041L674.376 67.8075ZM675.245 73.545L675.554 74.4143C674.936 74.6268 674.337 74.82 673.758 74.9552L673.526 74.0859C674.086 73.9313 674.666 73.7575 675.245 73.545ZM678.568 72.1154L678.974 72.9461C678.413 73.2165 677.834 73.487 677.293 73.7381L676.926 72.8881C677.467 72.6563 678.008 72.4052 678.568 72.1154ZM681.736 70.3381L682.219 71.1302C681.678 71.4586 681.137 71.7677 680.616 72.0575L680.171 71.2654C680.693 70.9756 681.215 70.6666 681.736 70.3381ZM684.769 68.329L685.31 69.0631C684.795 69.4366 684.286 69.7908 683.784 70.1256L683.282 69.3529C683.771 69.031 684.267 68.6897 684.769 68.329ZM687.686 66.1268L688.266 66.8416C687.763 67.2279 687.274 67.6014 686.797 67.962L686.257 67.2472C686.72 66.8866 687.197 66.5131 687.686 66.1268ZM690.507 63.7893L691.105 64.4847C690.629 64.8969 690.159 65.2897 689.695 65.6631L689.116 64.9677C689.566 64.5813 690.03 64.1885 690.507 63.7893Z" fill="#B7D8F9"/>
<path d="M691.898 62.5708L692.497 63.247C692.729 63.0409 692.954 62.8348 693.173 62.6288L692.575 61.9527C692.343 62.1587 692.117 62.3648 691.898 62.5708Z" fill="#B7D8F9"/>
<path d="M699.142 62.2057L703.836 52.1023L687.57 58.1682L691.936 58.4773L694.602 59.5785L699.142 62.2057Z" fill="url(#paint1_radial_559_4942)"/>
<path d="M701.558 53.7248L691.938 58.477L692.478 63.0748L694.603 59.5782L701.558 53.7248Z" fill="#3885C6"/>
<path d="M410.288 43.8168C409.573 43.5657 409.148 43.4111 409.148 43.4111L409.535 42.2327C409.535 42.2327 409.979 42.3679 410.733 42.6577L410.288 43.8168Z" fill="#B7D8F9"/>
<path d="M428.429 102.294C427.617 102.05 426.832 101.799 426.072 101.541L426.477 100.363C427.224 100.607 427.997 100.852 428.796 101.097L428.429 102.294ZM423.734 100.71C422.942 100.401 422.169 100.092 421.435 99.7638L421.938 98.624C422.652 98.9331 423.406 99.2422 424.179 99.532L423.734 100.71ZM419.175 98.7399C418.422 98.3536 417.668 97.9479 416.992 97.5422L417.61 96.4604C418.287 96.8468 419.001 97.2331 419.735 97.6195L419.175 98.7399ZM414.867 96.1899C414.152 95.6683 413.496 95.1467 412.897 94.6058L413.727 93.6786C414.288 94.1808 414.925 94.6831 415.601 95.1661L414.867 96.1899ZM411.119 92.7706C410.559 92.0945 410.076 91.3797 409.69 90.6456L410.791 90.0468C411.139 90.7036 411.583 91.3604 412.085 91.9786L411.119 92.7706ZM408.724 88.2502C408.608 87.8509 408.518 87.4517 408.454 87.0524C408.396 86.6081 408.338 86.1445 408.318 85.6809L409.574 85.6422C409.587 86.0543 409.626 86.46 409.69 86.8593C409.754 87.207 409.832 87.5547 409.922 87.9024L408.724 88.2502ZM409.748 83.3434L408.512 83.1309C408.647 82.3195 408.879 81.4888 409.149 80.6581L410.347 81.0638C410.076 81.8365 409.883 82.5899 409.748 83.3434ZM411.255 78.8615L410.134 78.3206C410.482 77.5865 410.888 76.8525 411.332 76.099L412.394 76.7559C411.969 77.4706 411.583 78.1661 411.255 78.8615ZM413.727 74.7275L412.704 74.0127C413.148 73.3559 413.65 72.6991 414.191 72.0036L415.176 72.7763C414.655 73.4525 414.172 74.1093 413.727 74.7275ZM416.702 70.9025L415.756 70.0911C416.297 69.46 416.844 68.8419 417.398 68.2366L418.325 69.0672C417.771 69.6726 417.23 70.2843 416.702 70.9025ZM419.987 67.29L419.079 66.4207C419.658 65.8154 420.231 65.2229 420.798 64.6434L421.687 65.532C421.12 66.0987 420.553 66.6847 419.987 67.29ZM423.425 63.7934L422.537 62.9048L422.768 62.6536C423.29 62.1513 423.734 61.6491 424.121 61.1275L425.125 61.8809C424.7 62.4411 424.217 63.0013 423.657 63.5422L423.425 63.7934ZM426.419 59.64L425.26 59.1764C425.569 58.4423 425.724 57.7082 425.743 56.9934L426.999 57.032C426.96 57.9013 426.787 58.79 426.419 59.64ZM425.396 54.8298C425.144 54.1536 424.797 53.4775 424.314 52.8014L425.338 52.0866C425.879 52.84 426.284 53.632 426.574 54.4048L425.396 54.8298ZM422.788 51.0434C422.266 50.5218 421.648 50.0002 420.972 49.4979L421.744 48.4934C422.459 49.0343 423.097 49.5945 423.657 50.1548L422.788 51.0434ZM419.021 48.1071C418.364 47.7014 417.668 47.2764 416.934 46.89L417.533 45.7889C418.287 46.1946 419.021 46.6389 419.677 47.0639L419.021 48.1071ZM414.79 45.7695C414.075 45.4218 413.322 45.0934 412.568 44.765L413.071 43.6059C413.843 43.9343 414.597 44.2821 415.331 44.6298L414.79 45.7695Z" fill="#B7D8F9"/>
<path d="M432.063 103.318C431.651 103.215 431.245 103.106 430.846 102.99L431.174 101.792C431.573 101.908 431.973 102.017 432.372 102.121L432.063 103.318Z" fill="#B7D8F9"/>
<path d="M400.674 43.415L392 33.1184L412.922 35.0502L407.918 36.7888L405.175 38.9138L400.674 43.415Z" fill="url(#paint2_radial_559_4942)"/>
<path d="M395.188 34.2794L407.918 36.7908L408.749 42.3351L405.175 38.9158L395.188 34.2794Z" fill="#3885C6"/>
<path d="M618.352 164.379L618.14 167.856L613.639 167.625L613.098 163.761L618.352 164.379Z" fill="#22313B"/>
<path d="M594.515 107.777H617.195C617.233 110.732 617.252 116.412 616.885 120.121C616.364 125.337 615.417 138.338 616.171 142.202C616.885 145.775 619.049 161.346 619.435 165.847C619.493 166.349 619.088 166.774 618.566 166.774C616.576 166.794 613.408 167.122 612.867 166.137C612.172 164.862 607.014 145.08 606.241 141.197C605.468 137.333 604.058 134.127 604.058 134.127C604.058 134.127 603.556 139.323 603.652 143.225L604.29 166.156C604.309 166.716 603.826 167.18 603.247 167.122C601.45 166.948 599.248 166.929 597.78 166.484C597.78 166.484 595.404 151.242 594.554 144.114C593.684 137.005 592.351 111.119 594.167 108.144C594.257 108.015 594.373 107.892 594.515 107.777Z" fill="#3F4752"/>
<path d="M619.436 165.847C619.494 166.349 619.088 166.774 618.567 166.774C618.142 166.794 617.581 166.774 616.983 166.755C615.959 159.472 612.366 138.686 611.67 134.223C611.11 130.669 612.617 116.315 613.602 107.777H617.195C617.195 107.867 617.195 107.957 617.195 108.047C617.195 108.047 617.195 108.053 617.195 108.066C617.195 108.247 617.195 108.44 617.195 108.646C617.195 108.659 617.195 108.672 617.195 108.685C617.195 108.891 617.202 109.097 617.214 109.303C617.214 109.328 617.214 109.354 617.214 109.38C617.214 109.483 617.214 109.586 617.214 109.689C617.214 109.805 617.214 109.914 617.214 110.017C617.214 110.043 617.214 110.069 617.214 110.095C617.214 110.198 617.214 110.301 617.214 110.404C617.214 110.417 617.214 110.43 617.214 110.442C617.214 110.558 617.214 110.681 617.214 110.81C617.214 110.81 617.214 110.816 617.214 110.829C617.214 110.932 617.214 111.041 617.214 111.157C617.214 111.183 617.214 111.209 617.214 111.235C617.214 111.479 617.214 111.724 617.214 111.969C617.214 111.994 617.214 112.02 617.214 112.046C617.214 112.162 617.214 112.271 617.214 112.374C617.214 112.387 617.214 112.4 617.214 112.413C617.214 112.542 617.208 112.67 617.195 112.799C617.195 112.825 617.195 112.851 617.195 112.877C617.195 112.98 617.195 113.083 617.195 113.186C617.195 113.211 617.195 113.237 617.195 113.263C617.195 113.392 617.195 113.52 617.195 113.649C617.195 113.662 617.195 113.681 617.195 113.707C617.195 113.81 617.195 113.92 617.195 114.036C617.195 114.061 617.189 114.094 617.176 114.132C617.176 114.39 617.176 114.647 617.176 114.905C617.176 114.931 617.176 114.956 617.176 114.982C617.163 115.098 617.157 115.214 617.157 115.33C617.157 115.343 617.157 115.356 617.157 115.369C617.157 115.497 617.15 115.626 617.137 115.755C617.137 115.781 617.137 115.806 617.137 115.832C617.137 115.948 617.137 116.058 617.137 116.161C617.137 116.186 617.137 116.212 617.137 116.238C617.124 116.367 617.118 116.489 617.118 116.605C617.118 116.631 617.118 116.65 617.118 116.663C617.105 116.779 617.099 116.888 617.099 116.991C617.099 117.017 617.099 117.049 617.099 117.088C617.086 117.333 617.073 117.577 617.06 117.822C617.06 117.848 617.06 117.873 617.06 117.899C617.047 118.015 617.041 118.125 617.041 118.228C617.041 118.241 617.041 118.253 617.041 118.266C617.028 118.382 617.015 118.498 617.002 118.614C617.002 118.64 617.002 118.666 617.002 118.691C617.002 118.794 616.996 118.891 616.983 118.981C616.983 119.007 616.983 119.033 616.983 119.058C616.97 119.174 616.957 119.284 616.944 119.387C616.944 119.413 616.944 119.432 616.944 119.445C616.944 119.535 616.938 119.631 616.925 119.734C616.925 119.76 616.925 119.786 616.925 119.812C616.912 119.915 616.899 120.018 616.886 120.121C616.654 122.478 616.326 126.438 616.113 130.437C616.1 130.707 616.088 130.978 616.075 131.248C616.062 131.531 616.049 131.808 616.036 132.079C616.023 132.22 616.017 132.356 616.017 132.484C616.004 132.755 615.991 133.025 615.978 133.296C615.965 133.566 615.959 133.837 615.959 134.107C615.843 137.565 615.862 140.637 616.171 142.202C616.307 142.82 616.461 143.766 616.654 144.945C616.654 144.97 616.654 145.003 616.654 145.041C616.693 145.247 616.732 145.46 616.77 145.679C617.195 148.499 617.755 152.363 618.238 156.014C618.799 160.109 619.282 163.954 619.436 165.847Z" fill="#2F3740"/>
<path d="M602.01 119.582C602.744 122.171 604.367 134.882 604.367 134.882C604.174 134.399 604.058 134.129 604.058 134.129C604.058 134.129 603.555 139.326 603.652 143.228L604.289 166.159C604.309 166.719 603.826 167.182 603.246 167.124C601.739 166.989 600.02 166.873 598.301 166.545C599.537 166.294 601.43 165.405 601.933 164.362C602.551 163.048 600.561 139.094 600.561 139.094C601.759 134.515 602.01 119.582 602.01 119.582Z" fill="#2F3740"/>
<path d="M594.166 108.144C594.256 108.015 594.372 107.893 594.513 107.777H613.6H617.193C617.193 107.829 617.193 107.88 617.193 107.932C617.193 107.97 617.193 108.009 617.193 108.048C617.193 108.048 617.193 108.054 617.193 108.067C617.193 108.157 617.193 108.254 617.193 108.357C617.193 108.37 617.193 108.389 617.193 108.415C617.193 108.492 617.193 108.569 617.193 108.647C617.193 108.647 617.193 108.653 617.193 108.666C617.206 108.988 617.212 109.329 617.212 109.69C617.212 109.767 617.212 109.844 617.212 109.922C608.712 113.07 598.416 110.868 593.779 109.361C593.895 108.801 594.03 108.395 594.166 108.144Z" fill="#2F3740"/>
<path d="M595.459 99.9935C595.633 99.356 595.768 98.9503 595.768 98.9503L615.395 99.7617C615.395 99.7617 615.453 100.167 615.569 100.844C615.473 100.979 615.395 101.095 615.395 101.095C606.625 104.669 600.289 104.669 595.459 99.9935Z" fill="#330E00"/>
<path d="M619.705 83.303L616.267 95.9371L618.024 107.74C618.024 107.74 603.439 113.864 593.684 107.509L594.746 80.9076L619.705 83.303Z" fill="#286BCE"/>
<path d="M622.582 77.2552C620.804 74.0291 617.617 72.3677 615.878 71.6723C610.353 69.9916 602.742 69.5666 596.869 72.0393C594.783 72.9279 592.175 74.8404 594.744 80.9063L595.633 99.5677C595.633 99.5677 594.628 102.446 595.266 103.045C600.095 107.739 606.451 107.739 615.202 104.165C615.202 104.165 615.666 103.567 615.724 103.335C616.052 102.079 614.99 98.5245 614.99 98.5245L619.877 83.3018C619.877 83.3018 622.292 80.0177 622.582 77.2552Z" fill="#68A9EA"/>
<path d="M593.684 107.855L594.456 92.2456C596.697 94.8922 597.953 97.674 599.17 100.939C604.347 98.2536 608.887 94.332 612.268 89.599C610.993 93.0119 609.718 96.4248 608.443 99.8377C611.765 95.9547 616.981 85.4456 620.285 81.5627L616.267 95.9354L618.024 107.739C618.024 107.739 603.439 114.21 593.684 107.855Z" fill="#286BCE"/>
<path d="M602.898 69.9517C602.898 69.9517 600.966 69.8744 600.618 70.0869C600.251 70.2994 599.382 72.8494 599.208 73.2358C599.034 73.6415 601.545 75.9983 601.545 75.9983C601.545 75.9983 599.459 79.4176 599.556 79.7074C599.652 79.9778 603.342 94.9301 603.342 94.9301C603.342 94.9301 612.306 81.5619 612.479 80.9051C612.673 80.2483 611.629 76.8096 611.629 76.8096C611.629 76.8096 614.276 74.8392 614.45 74.4142C614.604 73.9892 614.933 71.2653 614.45 70.9176C614.141 70.7051 612.344 70.2994 612.344 70.2994L602.898 69.9517Z" fill="#5696E2"/>
<path d="M612.344 70.959C612.344 70.959 609.6 78.0488 607.186 84.2885C605.273 89.1953 603.187 84.0567 603.187 84.0567L602.588 69.9931C602.723 69.9738 602.994 69.9351 603.129 69.9351L612.344 70.959Z" fill="#F8E8D8"/>
<path d="M603.264 74.4749C602.723 74.359 602.704 72.6204 602.704 72.6204L602.588 70.0317C602.588 70.0188 602.594 70.006 602.607 69.9931C602.742 69.9738 602.994 69.9351 603.129 69.9351L611.629 70.8817C611.59 70.9783 611.938 71.6931 611.88 71.8863C611.378 73.3351 609.794 75.4215 609.484 75.4794C609.098 75.5374 608.152 74.4363 608.016 74.0885C607.823 74.2624 607.495 74.784 607.302 74.9579C607.186 77.5079 607.282 80.8306 607.321 83.9215C605.853 87.7078 604.481 91.2624 603.882 92.7885C603.779 92.9302 603.67 93.0654 603.554 93.1942L603.245 85.6601C604.211 82.0412 605.17 78.4158 606.123 74.784C605.814 74.3783 605.428 74.0692 605.119 73.6442C604.616 74.1465 603.979 74.4749 603.264 74.4749Z" fill="url(#paint3_linear_559_4942)"/>
<path d="M605.232 71.363C606.063 71.846 607.763 72.0971 608.69 72.1164C610.062 72.1551 609.521 71.3437 609.965 71.2278L612.341 65.2585L606.372 64.563L606.353 64.8914L605.232 71.363Z" fill="#D38753"/>
<path d="M603.188 84.0539L606.047 74.3562L604.791 72.9459L606.935 71.6323L608.558 73.1391L607.051 74.4914C607.051 74.4914 607.399 78.9925 607.186 84.2857C605.274 89.1925 603.574 93.5777 603.574 93.5777L603.188 84.0539Z" fill="#DE3D73"/>
<path d="M611.108 68.6237C611.108 68.6237 607.862 71.734 607.031 71.5987C606.201 71.4635 605.756 68.3147 605.756 68.3147C605.756 68.3147 602.955 69.5703 602.588 69.9953C602.221 70.401 602.955 74.0521 603.342 74.2646C604.172 74.6703 606.645 71.9078 607.089 72.2556C607.534 72.6226 608.809 74.9794 609.234 74.9215C609.659 74.8828 613.001 71.5794 612.807 70.3624C612.614 69.1453 611.108 68.6237 611.108 68.6237Z" fill="#F8E8D8"/>
<path d="M612.362 63.0963C612.362 63.0963 614.816 62.8644 614.758 60.6235C614.681 58.4406 611.918 58.9235 611.358 61.2031C611.338 61.2417 611.281 61.2417 611.261 61.2031C611.145 60.5463 610.701 58.5758 610.083 58.0735C610.083 58.0735 611.049 54.8474 608.789 53.8622C606.528 52.8963 601.119 52.819 601.023 56.3349C600.907 59.8701 601.312 60.952 601.409 62.594C601.486 64.2167 604.056 69.0656 605.118 69.4133C606.2 69.7417 611.493 66.4769 612.324 65.6463C613.135 64.8156 612.362 63.0963 612.362 63.0963Z" fill="#F4BE84"/>
<path d="M597.275 52.1048C597.275 52.1048 598.241 52.3173 598.82 51.9696C598.82 51.9696 597.623 49.0332 598.415 47.8161C598.415 47.8161 600.192 49.9411 605.485 48.9173C610.778 47.9127 615.569 49.5934 616.902 54.0945C618.254 58.615 614.912 64.7775 612.594 65.1638C612.903 64.2945 612.362 63.0968 612.362 63.0968C612.362 63.0968 614.816 62.865 614.758 60.6241C614.68 58.4411 611.918 58.9241 611.358 61.2036C611.338 61.2423 611.28 61.2423 611.261 61.2036C611.145 60.5468 610.701 58.5764 610.083 58.0741C610.083 58.0741 611.049 54.848 608.788 53.8627C606.528 52.8968 601.119 52.8195 601.023 56.3354C601.003 56.7025 601.003 57.0309 601.003 57.34C601.003 57.34 596.946 55.9877 597.275 52.1048Z" fill="#221E52"/>
<path d="M684.108 89.8282H425.361C422.405 89.8282 420.029 92.1657 420.029 95.0827V163.353C420.029 166.251 422.405 168.608 425.361 168.608H445.858V188.042C445.858 190.418 449.084 191.828 451.46 190.476L490.019 168.608H684.108C687.064 168.608 689.44 166.251 689.44 163.353V95.0827C689.44 92.1657 687.064 89.8282 684.108 89.8282Z" fill="#4597ED"/>
<g opacity="0.1">
<path d="M471.243 122.241L464.288 121.237L456.696 105.859L449.104 121.237L432.143 123.69L444.429 135.667L442.42 147.394L441.531 152.571L449.104 148.572L456.696 144.592L461.583 147.142L471.88 152.571L468.982 135.667L481.249 123.69L471.243 122.241Z" fill="black"/>
</g>
<g opacity="0.1">
<path d="M520.969 122.241L514.015 121.237L506.423 105.859L498.83 121.237L481.869 123.69L494.155 135.667L492.127 147.394L491.258 152.571L498.83 148.572L506.423 144.592L511.31 147.142L521.607 152.571L518.709 135.667L530.976 123.69L520.969 122.241Z" fill="black"/>
</g>
<g opacity="0.2">
<path d="M571.198 122.241L564.243 121.237L556.651 105.859L549.059 121.237L532.098 123.69L544.365 135.667L542.356 147.394L541.467 152.571L549.059 148.572L556.651 144.592L561.539 147.142L571.835 152.571L568.918 135.667L581.204 123.69L571.198 122.241Z" fill="black"/>
</g>
<g opacity="0.2">
<path d="M621.424 122.241L614.47 121.237L606.878 105.859L599.286 121.237L582.324 123.69L594.591 135.667L592.582 147.394L591.694 152.571L599.286 148.572L606.878 144.592L611.746 147.142L622.042 152.571L619.145 135.667L631.431 123.69L621.424 122.241Z" fill="black"/>
</g>
<g opacity="0.1">
<path d="M671.649 122.241L664.675 121.237L657.102 105.859L649.51 121.237L632.529 123.69L644.816 135.667L642.807 147.394L641.918 152.571L649.51 148.572L657.102 144.592L661.97 147.142L672.267 152.571L669.369 135.667L681.655 123.69L671.649 122.241Z" fill="black"/>
</g>
<path d="M456.696 107.913L463.632 121.938L479.105 124.179L467.901 135.093L470.548 150.509L456.696 143.246L442.865 150.509L445.511 135.093L434.307 124.179L449.78 121.938L456.696 107.913Z" fill="#FFE007"/>
<path d="M469.969 122.861C462.531 136.596 449.607 141.445 444.16 142.933L442.865 150.505L456.697 143.242L470.548 150.505L467.902 135.089L479.106 124.175L469.969 122.861Z" fill="#FEC106"/>
<path d="M506.671 107.913L513.587 121.938L529.061 124.179L517.876 135.093L520.522 150.509L506.671 143.246L492.82 150.509L495.466 135.093L484.281 124.179L499.755 121.938L506.671 107.913Z" fill="#FFE007"/>
<path d="M519.943 122.861C512.506 136.596 499.562 141.445 494.134 142.933L492.82 150.505L506.671 143.242L520.523 150.505L517.876 135.089L529.061 124.175L519.943 122.861Z" fill="#FEC106"/>
<path d="M545.095 114.404L554.232 127.096L569.861 126.748L560.626 139.363L565.784 154.141L550.929 149.254L538.488 158.719L538.546 143.072L525.699 134.166L540.574 129.394L545.095 114.404Z" fill="#FFE007"/>
<path d="M560.646 126.961C555.585 141.74 543.627 148.675 538.508 151.032L538.488 158.72L550.929 149.255L565.785 154.142L560.627 139.364L569.861 126.749L560.646 126.961Z" fill="#FEC106"/>
<path d="M605.679 96.0702L613.213 109.786L628.764 111.351L618.062 122.749L621.385 138.029L607.225 131.364L593.721 139.246L595.692 123.734L584.023 113.321L599.381 110.385L605.679 96.0702Z" fill="#FFE007"/>
<path d="M619.588 110.421C612.749 124.485 600.057 129.894 594.687 131.613L593.721 139.244L607.224 131.362L621.384 138.027L618.062 122.746L628.764 111.349L619.588 110.421Z" fill="#FEC106"/>
<path d="M657.083 107.913L663.999 121.938L679.473 124.179L668.288 135.093L670.934 150.509L657.083 143.246L643.232 150.509L645.879 135.093L634.693 124.179L650.167 121.938L657.083 107.913Z" fill="#FFE007"/>
<path d="M670.355 122.861C662.918 136.596 649.974 141.445 644.546 142.933L643.232 150.505L657.084 143.242L670.935 150.505L668.288 135.089L679.473 124.175L670.355 122.861Z" fill="#FEC106"/>
<path d="M620.42 106.752C620.42 106.752 619.473 108.046 618.643 108.22C617.909 108.394 618.16 108.336 617.851 108.394C617.735 108.413 617.522 108.452 617.522 108.452C617.522 108.452 615.494 108.877 615.223 109.418C614.953 109.94 615.378 110.171 616.441 109.785C617.503 109.399 618.083 110.596 616.498 111.543C614.914 112.49 613.369 113.938 613.987 114.093C614.625 114.267 615.822 113.32 615.822 113.32C615.822 113.32 615.861 113.359 615.552 113.591C615.223 113.803 614.258 114.132 614.451 114.267C614.625 114.383 615.764 115.271 617.986 114.17C620.227 113.088 620.748 111.698 621.058 111.157C621.367 110.596 622.873 108.8 623.608 108.433C623.608 108.433 621.637 106.057 620.42 106.752Z" fill="#F7CBA1"/>
<path d="M619.897 106.347L623.954 108.414L623.143 109.573L619.453 107.236L619.897 106.347Z" fill="white"/>
<path d="M623.801 108.799L619.687 106.674C620.633 104.742 621.638 102.328 621.831 99.43C622.159 94.7357 620.923 88.013 614.722 79.8414C614.722 79.8414 612.964 76.0937 616.248 74.355C618.334 73.2346 620.788 74.2005 622.043 76.113C625.772 81.8118 633.654 96.2425 623.801 108.799Z" fill="#68A9EA"/>
<path d="M589.605 107.832C589.605 107.832 590.32 109.378 591.112 109.687C591.826 109.977 591.575 109.88 591.884 109.996C591.981 110.035 592.193 110.112 592.193 110.112C592.193 110.112 594.125 110.885 594.299 111.483C594.492 112.102 594.029 112.275 593.043 111.696C592.039 111.116 591.286 112.314 592.676 113.55C594.087 114.787 595.362 116.583 594.724 116.661C594.087 116.738 593.043 115.54 593.043 115.54C593.043 115.54 592.986 115.579 593.275 115.869C593.546 116.158 594.454 116.661 594.241 116.757C594.048 116.854 592.773 117.627 590.764 116.1C588.736 114.594 588.446 113.048 588.253 112.411C588.04 111.773 586.842 109.629 586.186 109.127C586.186 109.127 588.523 106.905 589.605 107.832Z" fill="#F7CBA1"/>
<path d="M590.204 107.503L585.857 109.048L586.437 110.42L590.494 108.508L590.204 107.503Z" fill="white"/>
<path d="M585.935 109.494L590.359 107.872C589.741 105.689 589.161 102.965 589.451 99.8545C589.934 94.8318 592.986 88.7852 598.724 79.9182C598.724 79.9182 602.819 75.108 597.236 73.0602C596.038 72.6159 594.667 72.9443 593.817 73.8909C589.702 78.4693 577.841 93.6534 585.935 109.494Z" fill="#68A9EA"/>
<path d="M446.594 26.6211C446.594 26.6211 444.237 25.4041 442.459 30.1563C440.663 34.9086 440.566 42.3268 441.204 44.8381C441.204 44.8381 436.007 50.4597 440.257 54.1302C440.257 54.1302 446.13 60.2927 446.516 61.8767C446.671 61.5097 449.182 56.9699 453.258 56.7188C457.334 56.4677 467.399 45.9006 462.029 44.2779C462.029 44.2779 462.434 45.9779 460.599 45.5722C458.764 45.1472 459.923 38.8495 459.904 36.6279C459.884 34.4063 458.551 28.92 454.649 26.5825C450.747 24.245 446.246 24.4188 446.594 26.6211Z" fill="#1C1715"/>
<path d="M467.649 48.2384C467.494 47.8134 467.32 46.577 467.243 45.8816C467.185 45.1668 467.997 44.0463 469.078 44.51C470.16 44.9736 471.725 46.1327 471.223 46.8475C470.74 47.5622 469.716 48.7213 469.523 48.9725C469.33 49.2236 467.803 48.6827 467.649 48.2384Z" fill="#F49C76"/>
<path d="M466.566 41.1123L470.082 48.8009C470.082 48.8009 470.372 49.6896 472.207 48.0089C472.4 47.8157 472.458 47.5259 472.343 47.2748C472.149 46.8305 471.628 46.4827 471.57 45.9998C471.435 45.0918 471.377 44.86 470.372 43.3146C470.005 42.7543 469.966 41.7498 469.368 40.6873C469.329 40.6873 469.29 40.668 466.566 41.1123Z" fill="#0F2652"/>
<path d="M467.686 35.7227C467.686 35.7227 467.222 38.9681 469.56 41.0158C469.56 41.0158 476.669 38.2727 483.063 41.3636C483.063 41.3636 478.176 35.7806 477.113 26.4886C477.113 26.4886 476.553 31.6079 467.686 35.7227Z" fill="#ED3B84"/>
<path d="M482.309 33.0593C483.893 37.3286 484.338 41.057 483.314 41.4048C482.27 41.7525 480.126 38.565 478.542 34.2957C476.958 30.0457 476.514 26.298 477.557 25.9696C478.581 25.6218 480.725 28.79 482.309 33.0593Z" fill="#EA1768"/>
<path d="M482.116 33.1356C483.661 37.3083 484.125 40.9401 483.14 41.2685C482.154 41.597 480.107 38.4674 478.542 34.314C476.996 30.1413 476.533 26.4902 477.518 26.1811C478.503 25.8527 480.551 28.9822 482.116 33.1356Z" fill="#F785B4"/>
<path d="M481.633 33.304C483.043 37.0711 483.604 40.2972 482.908 40.529C482.232 40.7415 480.513 37.8824 479.122 34.1154C477.712 30.3484 477.132 27.1029 477.827 26.8904C478.523 26.6586 480.223 29.537 481.633 33.304Z" fill="white"/>
<path d="M477.752 28.3432C477.675 28.369 477.623 28.4398 477.598 28.5557C477.752 29.908 478.293 31.9171 479.124 34.1193C479.993 36.4762 480.998 38.4852 481.79 39.6057C481.854 39.6315 481.912 39.6379 481.964 39.625C482.485 39.4512 481.964 36.7853 480.804 33.675C479.645 30.5648 478.274 28.1693 477.752 28.3432Z" fill="#E7E7E7"/>
<path d="M478.371 31.9182C478.584 32.6137 478.835 33.3478 479.124 34.1205C479.376 34.8353 479.665 35.5114 479.936 36.1489L480.902 35.7239C481.056 33.9467 479.569 31.8603 479.569 31.8603L478.371 31.9182Z" fill="#EA1768"/>
<path d="M467.686 35.7229L464.731 37.1524C464.576 37.3263 464.364 37.6354 464.248 38.0604C463.977 39.0456 464.344 39.8956 464.46 40.1468C464.924 41.1706 465.774 41.6149 466.044 41.7502C467.216 41.5055 468.388 41.2608 469.56 41.0161C469.058 40.4365 468.517 39.6445 468.073 38.1763C467.764 37.1524 467.686 36.3604 467.686 35.7229Z" fill="#191740"/>
<path d="M466.256 41.6097C466.256 41.6097 467.299 43.9472 467.879 43.1938C468.439 42.4403 469.559 41.0108 469.559 41.0108L466.256 41.6097Z" fill="#191740"/>
<path d="M469.039 35.5085C469.039 35.5085 472.188 34.871 475.124 30.2153C475.124 30.2153 474.062 34.4073 469.039 35.5085Z" fill="#F785B4"/>
<path d="M471.474 43.5423C471.339 43.2332 471.03 43.1173 470.759 43.156C470.527 43.1753 469.677 45.0685 469.388 45.6287C469.117 46.073 469.697 46.6912 470.122 45.9957C470.547 45.3003 471.551 43.7355 471.474 43.5423Z" fill="#FEB48C"/>
<path d="M470.778 43.0201C470.643 42.711 470.334 42.6144 470.083 42.6338C469.851 42.6724 468.982 44.5656 468.692 45.1065C468.441 45.5508 469.02 46.1883 469.426 45.4929C469.851 44.7974 470.875 43.2326 470.778 43.0201Z" fill="#FEB48C"/>
<path d="M471.994 44.2962C472.052 43.9871 471.511 43.7553 471.299 43.9098C471.106 44.0257 470.043 45.9768 469.773 46.4212C469.638 46.653 470.082 47.2905 470.488 46.6143C470.913 45.9189 471.975 44.4893 471.994 44.2962Z" fill="#FEB48C"/>
<path d="M472.343 45.2238C472.382 44.8954 472.034 44.6829 471.783 44.7988C471.609 44.8954 470.662 46.3249 470.45 46.7692C470.295 47.001 470.527 47.5226 471.01 46.9431C471.493 46.3829 472.324 45.3976 472.343 45.2238Z" fill="#FEB48C"/>
<path d="M467.244 45.9767C467.244 45.9767 467.225 45.3972 467.186 44.9722C467.167 44.7597 467.263 44.6631 467.611 44.0256C467.959 43.3881 468.229 43.0017 468.229 43.0017C468.229 43.0017 469.794 43.6006 470.064 43.6972C470.315 43.8131 469.968 44.6438 469.118 44.4699L468.654 44.4119C468.654 44.4119 468.828 45.2426 468.519 45.9188C468.21 46.6142 467.321 46.6142 467.244 45.9767Z" fill="#F49C76"/>
<path d="M469.328 44.4882C469.328 44.4689 469.308 44.4496 469.289 44.4496L468.574 44.3723V44.4303C468.787 45.7246 468.246 46.1882 468.246 46.1882C468.227 46.2075 468.227 46.2462 468.227 46.2655C468.239 46.2655 468.246 46.2655 468.246 46.2655C468.259 46.2784 468.272 46.2784 468.285 46.2655C468.323 46.2462 468.864 45.7825 468.671 44.4689L469.289 44.5269C469.308 44.5269 469.328 44.5075 469.328 44.4882Z" fill="#BA6549"/>
<path d="M467.126 47.1919L466.721 48.409L469.522 50.6113L470.024 49.1624C469.309 48.0613 467.126 47.1919 467.126 47.1919Z" fill="white"/>
<path d="M459.033 46.9016C460.578 49.2004 462.529 55.8072 462.529 55.8072C462.529 55.8072 463.147 54.2811 463.321 55.5368L466.876 47.4811C466.876 47.4811 469.542 48.6788 470.025 49.6447C470.025 49.6447 466.277 63.322 464.152 64.3652C462.008 65.389 458.608 60.5981 458.608 60.5981L457.255 47.8288C457.14 46.7663 458.917 46.7277 459.033 46.9016Z" fill="#FF77C4"/>
<path d="M460.307 52.1174C460.403 50.5719 458.858 47.7128 457.506 47.1719C457.332 47.3265 457.235 47.539 457.254 47.8287L458.607 60.598C458.607 60.598 460.229 62.8776 461.929 63.9594C461.195 60.9651 460.094 55.556 460.307 52.1174Z" fill="#DB52A3"/>
<path d="M482.834 26.618L487.934 21.2862L489.286 22.9862L483.529 27.1396L482.834 26.618Z" fill="#ED3B84"/>
<path d="M486.465 35.0011L493.651 35.3488L493.361 37.5511L486.581 35.8897L486.465 35.0011Z" fill="#ED3B84"/>
<path d="M484.688 31.1384L491.43 28.5111L491.99 30.6747L485.112 31.9111L484.688 31.1384Z" fill="#ED3B84"/>
<path d="M464.192 122.433C464.192 122.433 463.883 123.592 463.921 124.848L462.279 124.481L462.357 122.433H464.192Z" fill="#E2A36A"/>
<path d="M467.477 125.639C467.457 125.968 462.184 125.775 462.184 125.775L462.28 124.48H463.942C463.942 124.48 467.496 125.311 467.477 125.639Z" fill="#E2A36A"/>
<path d="M462.164 125.777L462.241 125.062C462.241 125.062 462.55 125.448 464.154 125.448C465.583 125.448 465.738 124.946 465.738 124.946C467.071 125.333 467.805 125.39 467.612 125.661C467.38 126.009 462.164 125.777 462.164 125.777Z" fill="#2D313D"/>
<path d="M462.359 122.433L462.301 124.153C462.301 124.153 463.074 123.67 463.943 124.153C463.943 124.153 464.059 122.878 464.194 122.433H462.359Z" fill="#D38753"/>
<path d="M471.881 122.433C471.881 122.433 471.572 123.592 471.611 124.848L469.969 124.481L470.046 122.433H471.881Z" fill="#E2A36A"/>
<path d="M475.147 125.639C475.128 125.968 469.873 125.775 469.873 125.775L469.97 124.48H471.631C471.631 124.48 475.186 125.311 475.147 125.639Z" fill="#E2A36A"/>
<path d="M469.854 125.777L469.931 125.062C469.931 125.062 470.24 125.448 471.843 125.448C473.254 125.448 473.427 124.946 473.427 124.946C474.741 125.333 475.494 125.39 475.301 125.661C475.05 126.009 469.854 125.777 469.854 125.777Z" fill="#2D313D"/>
<path d="M470.048 122.433L469.99 124.153C469.99 124.153 470.744 123.67 471.613 124.153C471.613 124.153 471.729 122.878 471.883 122.433H470.048Z" fill="#D38753"/>
<path d="M461.449 77.1942C461.449 77.1942 451.171 80.2657 452.698 89.7316H479.26C479.26 89.7316 480.033 85.6362 478.333 83.801C476.671 81.9851 461.449 77.1942 461.449 77.1942Z" fill="#476291"/>
<path d="M479.185 89.7317C479.185 89.7317 475.688 100.183 472.095 123.345H469.429C469.429 123.345 467.536 106.056 467.942 101.4C468.347 96.7249 471.767 89.3647 471.767 89.3647C471.767 89.3647 476.828 88.2056 479.185 89.7317Z" fill="#476291"/>
<path d="M461.622 89.7318L471.649 89.6738C471.649 89.6738 468.113 97.0533 467.94 101.4C467.746 105.747 469.427 123.345 469.427 123.345H470.528C470.528 123.345 469.659 104.665 469.949 101.651C470.258 98.6567 474.179 88.7465 473.986 88.0897C473.774 87.4136 461.217 83.8977 461.217 83.8977L461.622 89.7318Z" fill="#3E5C87"/>
<path d="M461.448 77.1942H440.469L455.46 84.7669L461.448 77.1942Z" fill="#3E5C87"/>
<path d="M440.468 77.1942C440.468 77.1942 437.474 82.1976 439.792 89.7316H470.894C470.894 89.7316 471.532 85.5782 469.774 83.801C467.301 81.3476 449.258 79.2805 440.468 77.1942Z" fill="#5775AA"/>
<path d="M470.896 89.7301C470.896 89.7301 467.612 97.2449 464.598 123.344H461.913C461.913 123.344 459.711 106.054 460.02 101.398C460.348 96.7233 463.285 89.7301 463.285 89.7301C463.285 89.7301 468.501 88.204 470.896 89.7301Z" fill="#5775AA"/>
<path d="M439.793 89.7315H463.284C463.284 89.7315 460.231 97.4201 460.019 101.4C459.768 106.422 461.912 123.345 461.912 123.345H462.897C462.897 123.345 461.468 105.978 461.931 101.612C462.376 97.2462 466.123 88.8042 465.486 87.9155C464.848 87.0076 448.428 86.119 438.962 82.9315C438.962 82.9315 438.653 86.8917 439.793 89.7315Z" fill="#476291"/>
<path d="M456.831 64.6748C456.831 69.2338 458.338 72.0543 461.815 77.2122C454.976 79.5304 447.771 79.3372 440.256 77.2122C441.859 72.7691 444.293 69.1566 447.017 65.9884C447.037 65.9691 447.075 65.9498 447.094 65.9304C447.12 65.8918 447.146 65.8596 447.172 65.8338C447.191 65.7952 447.23 65.7566 447.23 65.7566C448.64 63.1873 444.235 60.2316 442.497 55.2475C440.719 50.1475 441.492 47.4816 441.492 47.4816C447.925 44.6032 451.692 43.9464 458.994 46.9214L459.284 51.3645C459.284 51.3645 461.255 54.8225 461.042 56.3679C460.81 57.9134 456.831 62.2213 456.831 64.6748Z" fill="#FF77C4"/>
<path d="M461.815 77.2118C461.158 75.0289 456.831 71.7255 456.831 64.6743C456.831 61.8346 460.81 58.4925 461.042 56.3289C459.535 56.9857 453.276 58.9175 443.347 57.1403C445.259 62.1823 447.635 63.5346 447.23 65.7561C447.23 65.7561 447.191 65.7948 447.172 65.8334C447.146 65.8592 447.12 65.8914 447.094 65.93C447.075 65.9493 447.037 65.9686 447.017 65.988C444.293 69.1561 441.859 72.7686 440.256 77.2118C443.926 78.255 447.539 78.8152 451.055 78.8732C454.551 78.8539 458.492 78.3323 461.815 77.2118Z" fill="#ED65B2"/>
<path d="M446.768 34.9062C446.768 34.9062 448.506 41.4551 447.019 45.9948L452.66 46.0141L454.476 46.8255C454.476 46.8255 453.336 43.5414 453.568 39.7357C453.741 36.9346 446.768 34.9062 446.768 34.9062Z" fill="#F4BE84"/>
<path d="M453.722 43.4062C453.587 42.3244 453.49 41.0687 453.568 39.7357C453.741 36.9346 446.768 34.9062 446.768 34.9062C446.768 34.9062 448.429 41.2232 447.077 45.7437C450.264 45.3187 452.505 44.1982 453.722 43.4062Z" fill="#D17A4A"/>
<path d="M453.858 67.516C453.839 66.8785 454.167 65.3717 454.496 63.7683C454.979 61.4887 455.519 58.9194 455.404 57.6444C455.23 55.5001 453.047 49.3762 452.969 49.1251L452.68 49.2217C452.699 49.2797 454.921 55.5581 455.094 57.6637C455.21 58.9001 454.669 61.4501 454.206 63.7103C453.839 65.391 453.549 66.8592 453.549 67.516C453.607 71.341 454.457 74.8762 456.176 78.5467C456.273 78.5273 456.389 78.5273 456.485 78.508C454.766 74.8569 453.916 71.3217 453.858 67.516Z" fill="#DB52A3"/>
<path d="M457.877 77.8287C458.998 78.7753 460.505 79.6832 460.408 80.3787C460.195 81.8468 458.128 81.9048 457.336 81.19C456.583 80.4173 456.312 78.6014 456.312 78.6014C456.312 78.6014 456.776 76.8821 457.877 77.8287Z" fill="#F4BE84"/>
<path d="M462.146 83.334C462.359 83.276 462.011 81.6147 461.837 81.3056C461.682 81.0544 461.567 80.726 459.809 79.3737L460.079 80.8999C460.079 80.8999 461.238 81.5374 461.373 81.6919C461.509 81.8465 461.509 83.0635 462.146 83.334Z" fill="#F4BE84"/>
<path d="M459.885 85.2462C460.175 85.3428 460.329 83.7394 460.291 83.353C460.252 82.8701 460.368 82.6962 459.866 80.2428L459.209 81.5757C459.209 81.5757 459.692 83.2371 459.692 83.4689C459.711 83.7007 459.557 84.8405 459.885 85.2462Z" fill="#F4BE84"/>
<path d="M458.901 85.073C459.171 85.1503 459.307 83.6242 459.287 83.2571C459.249 82.7935 459.345 82.6196 458.862 80.2628L458.244 81.5378C458.244 81.5378 458.708 83.1412 458.708 83.3537C458.727 83.5855 458.573 84.6867 458.901 85.073Z" fill="#F4BE84"/>
<path d="M457.896 83.993C458.128 84.051 458.244 82.7567 458.225 82.4476C458.186 82.0612 458.283 81.926 457.877 79.9169L457.336 80.9987C457.336 80.9987 457.722 82.351 457.742 82.5442C457.742 82.718 457.606 83.6646 457.896 83.993Z" fill="#F4BE84"/>
<path d="M456.466 78.776L454.457 78.1578L455.152 75.9362C455.152 75.9362 456.292 76.5737 457.876 77.8294L456.466 78.776Z" fill="#F4BE84"/>
<path d="M442.788 48.1188C438.77 47.9063 432.067 71.8028 434.404 75.1835C437.399 80.071 448.796 78.2744 454.978 78.9312C454.978 78.9312 456.176 77.8108 456.446 76.5358C452.293 73.3869 440.857 72.0926 439.91 71.4744C438.944 70.8756 446.826 48.3506 442.788 48.1188Z" fill="#FF77C4"/>
<path d="M435.042 74.1597C433.207 71.5131 436.935 56.2518 440.567 49.9155C436.761 55.4598 432.473 72.3825 434.405 75.1836C437.399 80.0711 448.797 78.2745 454.978 78.9313C454.978 78.9313 455.384 78.5256 455.771 77.9461C449.55 77.3472 437.998 79.0086 435.042 74.1597Z" fill="#E55DAA"/>
<path d="M445.436 45.9187L450.226 50.6709L451.617 48.6618L452.95 49.8016L453.82 48.4687L455.404 50.1107L455.481 45.7062L452.661 46.0152L445.436 45.9187Z" fill="#DB52A3"/>
<path d="M445.436 45.9165L447.599 42.6131L452.661 46.0131L450.4 49.5097L445.436 45.9165Z" fill="#ED65B2"/>
<path d="M453.723 43.3878L452.66 46.0151L455.172 49.0287L455.481 45.706L453.723 43.3878Z" fill="#ED65B2"/>
<path d="M446.496 41.552C446.496 41.552 449.277 43.6964 451.538 42.8657C453.817 42.035 455.826 39.852 456.444 37.6498C457.063 35.4668 456.058 31.0623 454.532 29.4975C453.006 27.9327 447.326 26.8896 445.742 28.9373C444.158 30.985 443.54 39.2145 446.496 41.552Z" fill="#FDC596"/>
<path d="M443.348 48.6017C443.348 48.6017 441.088 49.471 439.794 47.713C438.499 45.9551 440.663 44.9119 440.663 44.9119C440.663 44.9119 439.253 46.6892 441.3 46.9017C443.367 47.1335 443.387 43.6755 442.653 41.7824C440.566 36.2767 441.783 32.6642 442.749 30.6937C443.715 28.7233 445.434 27.2744 445.434 27.2744L446.594 26.6176L447.424 28.6267C447.424 28.6267 445.937 30.8869 445.183 32.9733C444.43 35.0596 444.121 37.7255 445.879 41.1835C447.637 44.6414 448.062 48.0221 443.348 48.6017Z" fill="#442B19"/>
<path d="M447.424 28.6268L446.593 26.6177C446.593 26.6177 444.236 25.4007 442.459 30.1529C441.841 31.795 441.512 33.7461 441.377 35.7166C442.188 38.6722 444.468 42.0722 445.704 44.97C447.288 48.6211 442.478 47.6552 442.478 47.6552C442.478 47.6552 444.081 50.3597 446.477 48.2734C449.124 45.9745 446.825 42.1881 445.82 40.2177C444.796 38.2279 444.97 34.4802 445.936 32.3552C446.902 30.2109 447.424 28.6268 447.424 28.6268Z" fill="#513826"/>
<path d="M447.424 28.6302C447.424 28.6302 452.794 27.2007 455.48 33.7109C458.184 40.2018 454.32 43.2154 454.997 45.2052C455.673 47.2143 457.508 47.504 459.073 45.437C459.073 45.437 457.141 46.6927 456.851 45.2824C456.561 43.8722 459.787 41.8245 459.478 36.4541C459.382 34.5609 459.073 32.9381 458.725 31.6245C457.894 29.6927 456.581 27.7416 454.649 26.5825C450.747 24.245 446.245 24.4188 446.593 26.6211L447.424 28.6302Z" fill="#442B19"/>
<path d="M658.821 32.2364C658.821 37.7421 654.649 42.2046 649.491 42.2046C644.313 42.2046 640.141 37.7421 640.141 32.2364C640.141 26.7308 644.313 22.2683 649.491 22.2683C654.649 22.2683 658.821 26.7308 658.821 32.2364Z" fill="url(#paint4_radial_559_4942)"/>
<path d="M655.887 28.6485L648.527 31.3144L647.29 31.6429L646.711 31.044L645.996 32.6088L649.512 38.7326L650.343 42.1713C654.477 41.7656 657.838 38.4815 658.63 34.2122L655.887 28.6485Z" fill="#3885C6"/>
<path d="M655.578 28.2058C653.356 25.1922 649.917 28.3797 649.917 28.3797C649.917 28.3797 646.305 24.8251 643.774 28.1865C641.224 31.5478 646.131 34.716 649.512 38.7342C655.52 33.3058 657.78 31.2001 655.578 28.2058Z" fill="white"/>
<path d="M36.0089 488.199C170.291 488.199 282.348 488.199 416.63 488.199C437.4 464.372 443.824 431.792 433.691 410.724C420.012 382.313 373.753 369.732 336.826 402.045C331.648 366.854 303.801 341.558 272.986 343.161C240.836 344.837 214.532 375.325 214.102 412.579C201.506 373.96 166.567 351.246 132.651 358.041C102.727 364.035 78.7666 391.971 73.7669 427.459C56.5125 409.567 30.03 410.962 15.4313 428.706C2.53867 444.358 23.6505 469.757 36.0089 488.199Z" fill="url(#paint5_linear_559_4942)"/>
<path d="M245.579 358.118C240.876 352.584 235.951 347.184 231.203 341.695C236.885 351.635 240.876 358.489 240.876 358.489L241.396 369.082C241.485 374.408 242.256 380.016 243.487 385.61C243.576 381.901 243.873 378.206 244.318 374.527C245.149 368.637 248.947 361.902 245.579 358.118Z" fill="#E84C5F"/>
<path d="M261.323 345.624C253.86 288.134 238.653 267.334 238.653 267.334C238.653 267.334 224.485 267.809 193.67 269.04C193.67 275.004 217.393 317.465 231.205 341.693C235.953 347.182 240.878 352.582 245.582 358.116C248.949 361.9 245.151 368.635 244.32 374.525C243.875 378.204 243.579 381.899 243.49 385.608C248.549 408.797 261.189 431.778 263.192 433.617C265.684 435.902 276.678 435.071 278.132 431.956C279.586 428.84 266.1 373.027 261.323 345.624Z" fill="#EF5668"/>
<path d="M192.944 310.1C180.021 297.178 171.832 273.322 185.333 258.871H170.838C170.838 258.871 163.776 268.203 166.891 287.505C170.007 306.807 196.163 322.37 196.163 322.37C196.163 322.37 192.78 325.426 187.766 330.441C192.484 327.103 197.632 324.388 203.477 322.741C200.955 318.097 196.311 314.314 192.944 310.1Z" fill="#E64557"/>
<path d="M221.517 258.871H185.331C171.83 273.322 180.02 297.178 192.942 310.1C196.31 314.314 200.954 318.097 203.476 322.741C197.63 324.388 192.482 327.103 187.764 330.441C174.827 343.378 150.986 369.356 146.342 389.414C146.298 394.266 153.196 397.99 158.018 394.577C162.41 391.462 213.327 347.621 222.615 325.767L221.517 258.871Z" fill="#EF5668"/>
<path d="M222.615 325.777C223.565 323.566 224.069 321.593 224.069 319.902C224.069 298.627 211.206 276.521 206.014 271.64" stroke="#99112B" stroke-width="0.845659" stroke-miterlimit="10"/>
<path d="M76.3438 245.156C83.109 224.489 106.743 210.943 127.988 215.558C127.499 205.306 136.074 196.36 145.821 193.125C155.554 189.906 166.162 191.152 176.28 192.799C186.413 194.431 196.754 196.419 206.842 194.579C219.245 192.324 230.58 184.372 243.191 184.862C251.662 185.188 259.436 189.298 267.329 192.413C275.222 195.529 284.331 197.65 292.002 194.03C300.443 190.069 304.568 180.5 311.6 174.372C318.425 168.438 328.172 166.02 336.985 168.097C345.797 170.174 353.438 176.687 356.895 185.054L309.627 269.665L120.095 267.336L96.2835 295.821L76.3438 282.276V245.156Z" fill="url(#paint6_linear_559_4942)"/>
<path d="M273.164 81.8543C273.164 81.8543 287.065 57.7752 288.104 59.9561C289.143 62.1371 286.027 68.6798 284.573 71.0684C288.623 73.5609 293.712 76.7358 288.831 81.0531C283.95 85.3853 281.057 83.4417 279.588 83.7236C277.615 87.0469 277.615 87.0469 277.615 87.0469L273.164 81.8543Z" fill="#FC9590"/>
<path d="M252.732 122.306C259.898 112.202 264.942 102.529 272.108 93.2568C274.23 90.794 276.351 88.3163 278.962 86.1058C278.369 83.3907 275.758 80.0675 271.96 81.3285C266.826 83.0495 218.461 141.934 211.829 147.423C205.182 152.928 198.951 159.782 198.951 159.782L220.745 193.549C220.745 193.549 222.778 187.021 223.713 176.74C224.024 173.342 226.131 168.951 229.054 164.173C229.157 162.156 229.736 160.182 230.849 158.521C238.845 145.895 243.89 134.101 252.732 122.306Z" fill="#FFDE70"/>
<path d="M272.109 93.2593C264.943 102.532 259.899 112.205 252.733 122.308C243.891 134.103 238.847 145.898 230.85 158.523C229.737 160.185 229.159 162.158 229.055 164.176C234.974 154.532 244.247 143.257 248.92 135.038C255.938 122.739 277.569 90.6778 278.815 88.4969C279.141 87.9183 279.171 87.0578 278.963 86.1082C276.352 88.3188 274.231 90.7965 272.109 93.2593Z" fill="#EBC550"/>
<path d="M173.998 230.958C174.843 238.539 177.796 246.106 184.531 250.749C196.741 258.746 211.058 258.746 225.375 256.639C228.921 256.075 232.511 255.556 236.102 255.007C233.298 241.254 228.016 214.935 226.458 204.92C224.663 193.289 220.791 183.66 216.622 176.331L201.37 157.222C196.845 158.024 190.926 158.409 178.523 167.979C177.825 168.513 177.158 169.076 176.52 169.67C171.921 189.61 172.099 210.454 173.998 230.958Z" fill="#FFDE70"/>
<path d="M225.374 256.64C211.057 258.747 196.741 258.747 184.53 250.751C177.795 246.107 174.842 238.54 173.997 230.959C172.098 210.456 171.92 189.611 176.519 169.671C161.475 183.528 163.493 210.322 160.511 231.226C157.395 253.02 170.421 263.658 170.421 263.658H237.866C237.866 263.658 237.169 260.246 236.101 255.008C232.51 255.557 228.92 256.077 225.374 256.64Z" fill="#F5CF56"/>
<path d="M194.914 258.873C200.982 256.336 199.884 225.61 200.033 205.7C200.181 185.775 180.998 170.524 180.998 170.524C180.998 170.524 194.44 173.862 199.261 165.85C205.656 177.437 211.56 221.931 216.62 233.547C221.679 245.179 232.479 260.638 232.479 260.638L194.914 258.873Z" fill="#102140"/>
<path d="M195.745 144.12C195.745 144.12 196.68 153.036 198.549 161.448C196.264 171.715 180.998 167.665 180.998 167.665C180.998 167.665 184.944 150.766 182.882 145.158C185.048 141.019 195.745 144.12 195.745 144.12Z" fill="#FC9590"/>
<path d="M191.8 146.809C191.8 146.809 200.197 147.121 203.624 139.658C207.051 132.181 197.823 120.045 197.823 120.045C197.823 120.045 195.954 116.514 191.8 115.683C187.646 114.852 176.133 130.208 176.133 130.208L180.376 146.186" fill="#FC9590"/>
<path d="M191.637 146.832C191.637 146.832 194.663 147.915 195.761 147.618C195.494 146.446 195.494 146.446 195.494 146.446L191.637 146.832Z" fill="#DB6767"/>
<path d="M185.181 135.972C184.691 135.067 178.698 131.996 180.997 127.797C183.312 123.584 187.199 127.397 187.748 128.569C188.297 129.741 186.709 122.011 192.317 118.584C197.925 115.157 198.964 104.267 191.798 100.944C187.125 102.917 176.339 110.899 175.508 121.284C171.562 122.115 168.55 124.712 168.134 130.616C167.719 136.536 169.796 147.114 181.413 148.88C185.151 144.844 187.184 139.652 185.181 135.972Z" fill="#102140"/>
<path d="M69.3421 324.26C67.2799 314.246 54.8324 317.198 47.3995 315.611C32.5782 312.169 37.3554 295.433 20.7241 293.712C12.7275 291.932 13.6176 301.501 17.0893 305.73C19.4037 308.4 23.9139 312.525 20.6648 316.041C18.3652 318.029 15.1606 316.338 12.5198 316.219C8.32114 316.056 4.59728 319.987 4.41925 324.186C4.07802 329.942 10.5169 336.47 16.392 334.408C18.7361 333.31 19.9082 330.298 22.4155 329.631C25.0266 328.948 27.4597 331.188 28.973 333.429C38.6017 349.927 44.2987 325.521 57.2358 331.767C58.304 334.245 61.7312 333.206 63.3038 331.693C65.6479 329.601 69.98 328.073 69.3421 324.26Z" fill="#339E7E"/>
<path d="M20.4121 323.323C35.6191 318.679 52.2059 318.753 67.3684 323.546" stroke="#10663F" stroke-width="0.845659" stroke-linecap="round" stroke-linejoin="round"/>
<path d="M36.8375 311.41C30.1464 300.95 41.7928 294.274 39.968 284.66C37.7129 277.45 27.9804 277.049 23.7521 271.56C18.8858 264.082 21.7789 253.949 21.2299 245.448C21.9866 225.242 47.9646 243.238 53.2314 252.258C61.7474 264.795 68.1714 279.097 72.83 293.517C74.5806 300.238 75.5746 308.25 81.6426 312.552C79.8821 315.252 78.1265 317.947 76.3758 320.638C75.634 321.765 68.8094 321.602 67.4148 321.661C56.5399 322.003 43.7215 320.905 36.8375 311.41Z" fill="#127755"/>
<path d="M87.1366 261.326C84.7628 259.175 81.7511 256.846 82.0181 253.656C83.7539 247.395 90.6082 245.986 87.0031 237.351C80.0894 224.755 67.004 229.829 70.2382 209.637C70.8762 204.637 71.6773 199.267 69.3184 194.816C62.4938 182.532 37.5394 185.87 43.4887 202.916C48.8001 215.824 56.2033 221.017 46.6488 234.814C35.5366 258.315 51.0848 284.337 66.3364 302.126C72.6565 310.256 83.4572 313.446 89.3472 303.298C91.4539 299.841 92.077 295.835 94.0354 292.349C99.0351 282.171 95.2964 268.818 87.1366 261.326Z" fill="#339E7E"/>
<path d="M59.9102 213.545C64.3462 227.565 60.4294 277.148 91.882 298.853" stroke="#10663F" stroke-width="0.845659" stroke-linecap="round" stroke-linejoin="round"/>
<path d="M55.8906 227.177C55.8906 227.177 57.9677 235.278 63.012 235.664" stroke="#10663F" stroke-width="0.845659" stroke-linecap="round" stroke-linejoin="round"/>
<path d="M72.3583 244.919C73.5303 249.578 74.554 254.34 74.4353 259.147C74.3315 263.954 74.0644 267.5 70.9785 271.179" stroke="#10663F" stroke-width="0.845659" stroke-linecap="round" stroke-linejoin="round"/>
<path d="M55.8906 243.212C56.2022 251.283 58.0567 259.28 61.3058 266.683C62.8636 270.229 71.424 280.51 75.2814 280.154" stroke="#10663F" stroke-width="0.845659" stroke-linecap="round" stroke-linejoin="round"/>
<path d="M34.7907 201.001C34.7907 191.402 27.0017 183.613 17.4028 183.613C7.78895 183.613 0 191.402 0 201.001C0 210.614 7.78895 218.388 17.4028 218.388C27.0017 218.388 34.7907 210.614 34.7907 201.001Z" fill="#FFDE70"/>
<path d="M32.326 201.002C32.326 192.753 25.6498 186.077 17.4009 186.077C9.15202 186.077 2.46094 192.753 2.46094 201.002C2.46094 209.251 9.15202 215.942 17.4009 215.942C25.6498 215.942 32.326 209.251 32.326 201.002Z" fill="white"/>
<path d="M20.6998 205.323C20.6998 204.601 20.4476 203.993 19.9431 203.499C19.4387 203.004 18.5881 202.559 17.3913 202.163C15.7198 201.649 14.5032 200.981 13.7417 200.16C12.9801 199.349 12.5993 198.311 12.5993 197.045C12.5993 195.769 12.9702 194.716 13.712 193.885C14.4637 193.064 15.4923 192.574 16.7979 192.416V189.849H18.5486V192.431C19.864 192.609 20.8877 193.163 21.6196 194.092C22.3515 195.012 22.7175 196.278 22.7175 197.891H20.5514C20.5514 196.783 20.2893 195.902 19.7651 195.25C19.2409 194.597 18.5337 194.271 17.6435 194.271C16.7138 194.271 16.0017 194.513 15.5072 194.997C15.0126 195.472 14.7654 196.145 14.7654 197.015C14.7654 197.806 15.0274 198.439 15.5517 198.914C16.066 199.389 16.9215 199.824 18.1183 200.22C19.3151 200.606 20.2448 201.031 20.9075 201.496C21.5801 201.961 22.0746 202.505 22.3911 203.128C22.7076 203.741 22.8659 204.463 22.8659 205.294C22.8659 206.619 22.4702 207.682 21.679 208.484C20.8877 209.295 19.775 209.774 18.3409 209.923V212.163H16.605V209.923C15.1412 209.784 13.9988 209.265 13.1779 208.365C12.3471 207.465 11.9316 206.238 11.9316 204.685H14.1126C14.1126 205.773 14.3994 206.609 14.973 207.193C15.5368 207.786 16.3429 208.083 17.3913 208.083C18.42 208.083 19.2261 207.836 19.8096 207.341C20.4031 206.847 20.6998 206.174 20.6998 205.323Z" fill="#FFB114"/>
<path d="M115.219 273.086V472.008" stroke="#1A1A1A" stroke-width="0.845659" stroke-linecap="round" stroke-linejoin="round" stroke-dasharray="5.05 5.05"/>
<path d="M315.906 266.559V472.01" stroke="#1A1A1A" stroke-width="0.845659" stroke-linecap="round" stroke-linejoin="round" stroke-dasharray="5.05 5.05"/>
<path d="M388.561 124.919V472.009" stroke="#1A1A1A" stroke-width="0.845659" stroke-linecap="round" stroke-linejoin="round" stroke-dasharray="5.05 5.05"/>
<path d="M400.381 99.8706L371.421 130.374L377.905 133.712L309.911 262.163L113.777 263.157L25.25 369.443L36.1397 378.211L120.661 274.655H318.812L387.785 138.815L395.248 142.673L400.381 99.8706Z" fill="#102140"/>
<path d="M476.002 240.616C476.002 241.734 475.932 242.837 475.794 243.925L448.629 240.616L461.952 216.701C470.334 221.374 476.002 230.335 476.002 240.616Z" fill="url(#paint7_linear_559_4942)"/>
<path d="M475.793 243.923C474.161 257.468 462.619 267.972 448.629 267.972C433.511 267.972 421.256 255.732 421.256 240.614C421.256 225.496 433.511 213.242 448.629 213.242C453.465 213.242 458.005 214.503 461.951 216.699L448.629 240.614L475.793 243.923Z" fill="white"/>
<path d="M476 319.915C476 321.032 475.931 322.135 475.792 323.223L448.627 319.915L444.814 292.809C446.061 292.631 447.332 292.542 448.627 292.542C453.464 292.542 458.004 293.803 461.95 295.999C470.333 300.687 476 309.633 476 319.915Z" fill="url(#paint8_linear_559_4942)"/>
<path d="M475.793 323.224C474.161 336.784 462.619 347.288 448.629 347.288C433.511 347.288 421.256 335.034 421.256 319.916C421.256 306.088 431.508 294.664 444.816 292.81L448.629 319.916L475.793 323.224Z" fill="white"/>
<path d="M83.6289 207.207C99.8448 193.291 108.88 171.422 107.204 150.132" stroke="#10663F" stroke-width="0.845659" stroke-linecap="round" stroke-linejoin="round"/>
<path d="M122.9 159.115C125.63 167.156 124.576 176.399 120.096 183.609" stroke="#10663F" stroke-width="0.845659" stroke-linecap="round" stroke-linejoin="round"/>
<path d="M390.575 42.9663C390.575 30.2814 380.294 20 367.609 20C354.924 20 344.643 30.2814 344.643 42.9663C344.643 55.6512 354.924 65.9326 367.609 65.9326C380.294 65.9326 390.575 55.6512 390.575 42.9663Z" fill="#FFDE70"/>
<path d="M387.327 42.9666C387.327 32.0769 378.5 23.2494 367.61 23.2494C356.72 23.2494 347.893 32.0769 347.893 42.9666C347.893 53.8563 356.72 62.6838 367.61 62.6838C378.5 62.6838 387.327 53.8563 387.327 42.9666Z" fill="#FFB114"/>
<path d="M371.956 48.6598C371.956 47.7004 371.624 46.8992 370.962 46.2563C370.299 45.6035 369.176 45.0101 367.594 44.476C365.388 43.8133 363.781 42.938 362.772 41.85C361.763 40.7719 361.259 39.402 361.259 37.7404C361.259 36.0392 361.753 34.6495 362.743 33.5714C363.732 32.4835 365.087 31.8356 366.808 31.6279V28.2304H369.122V31.6427C370.863 31.8801 372.213 32.6071 373.172 33.8236C374.142 35.0501 374.626 36.7216 374.626 38.8383H371.778C371.778 37.3744 371.432 36.2123 370.739 35.3518C370.047 34.4913 369.112 34.061 367.935 34.061C366.699 34.061 365.754 34.3825 365.101 35.0254C364.449 35.6584 364.122 36.5436 364.122 37.681C364.122 38.7393 364.468 39.5801 365.161 40.2032C365.843 40.8362 366.976 41.4049 368.558 41.9093C370.131 42.4237 371.362 42.9874 372.252 43.6006C373.133 44.2238 373.781 44.9408 374.196 45.7519C374.621 46.5728 374.834 47.5322 374.834 48.6301C374.834 50.3709 374.31 51.7754 373.261 52.8436C372.213 53.9019 370.739 54.5299 368.84 54.7277V57.695H366.555V54.7277C364.627 54.5596 363.118 53.8771 362.03 52.6804C360.942 51.4836 360.398 49.8615 360.398 47.8141H363.262C363.262 49.2483 363.638 50.356 364.389 51.1374C365.151 51.9089 366.224 52.2946 367.609 52.2946C368.964 52.2946 370.027 51.9682 370.799 51.3154C371.57 50.6725 371.956 49.7873 371.956 48.6598Z" fill="#FFDE70"/>
<path d="M235.122 36.8527C235.122 28.3961 228.267 21.5418 219.811 21.5418C211.354 21.5418 204.5 28.3961 204.5 36.8527C204.5 45.3092 211.354 52.1635 219.811 52.1635C228.267 52.1635 235.122 45.3092 235.122 36.8527Z" fill="#FFDE70"/>
<path d="M232.956 36.8547C232.956 29.5998 227.08 23.7099 219.811 23.7099C212.556 23.7099 206.666 29.5998 206.666 36.8547C206.666 44.1096 212.556 49.9995 219.811 49.9995C227.08 49.9995 232.956 44.1096 232.956 36.8547Z" fill="white"/>
<path d="M222.715 40.6416C222.715 40.0086 222.492 39.4745 222.047 39.0393C221.602 38.6041 220.85 38.2085 219.792 37.8524C218.328 37.4073 217.26 36.8238 216.587 36.1018C215.915 35.3797 215.579 34.4649 215.579 33.3571C215.579 32.2295 215.905 31.3048 216.558 30.5827C217.22 29.8508 218.125 29.4206 219.273 29.292V27.0221H220.816V29.292C221.973 29.4502 222.873 29.9349 223.516 30.7459C224.169 31.5669 224.495 32.6845 224.495 34.0989H222.581C222.581 33.1197 222.354 32.3433 221.899 31.7696C221.434 31.196 220.811 30.9091 220.029 30.9091C219.208 30.9091 218.58 31.1218 218.145 31.5471C217.71 31.9724 217.492 32.5658 217.492 33.3274C217.492 34.0297 217.72 34.5885 218.175 35.0039C218.64 35.4193 219.396 35.8001 220.445 36.1463C221.493 36.4826 222.314 36.8584 222.908 37.2738C223.491 37.6793 223.921 38.1541 224.198 38.6981C224.485 39.2421 224.629 39.88 224.629 40.6119C224.629 41.7791 224.278 42.7187 223.575 43.4308C222.873 44.1331 221.894 44.5534 220.638 44.6919V46.6651H219.11V44.6919C217.824 44.5732 216.815 44.1133 216.083 43.3121C215.361 42.5209 215 41.4428 215 40.0778H216.914C216.914 41.0372 217.166 41.7741 217.671 42.2884C218.175 42.8027 218.887 43.0599 219.807 43.0599C220.707 43.0599 221.414 42.8423 221.928 42.4071C222.453 41.9818 222.715 41.3933 222.715 40.6416Z" fill="#FFB114"/>
<path d="M100.662 121.255C100.662 107.828 89.7724 96.9382 76.3457 96.9382C62.919 96.9382 52.0293 107.828 52.0293 121.255C52.0293 134.681 62.919 145.571 76.3457 145.571C89.7724 145.571 100.662 134.681 100.662 121.255Z" fill="#FFDE70"/>
<path d="M97.2195 121.254C97.2195 109.726 87.8728 100.38 76.3451 100.38C64.8175 100.38 55.4707 109.726 55.4707 121.254C55.4707 132.782 64.8175 142.129 76.3451 142.129C87.8728 142.129 97.2195 132.782 97.2195 121.254Z" fill="#FFB114"/>
<path d="M80.9617 127.275C80.9617 126.266 80.6056 125.421 79.8935 124.738C79.1912 124.046 77.9994 123.423 76.3179 122.869C73.9936 122.157 72.2974 121.227 71.2292 120.08C70.161 118.932 69.6269 117.479 69.6269 115.718C69.6269 113.928 70.1511 112.454 71.1995 111.297C72.238 110.149 73.6722 109.467 75.502 109.249V105.659H77.9499V109.264C79.7896 109.521 81.2188 110.293 82.2376 111.579C83.2662 112.874 83.7805 114.645 83.7805 116.89H80.754C80.754 115.337 80.388 114.106 79.6561 113.196C78.9242 112.286 77.9351 111.831 76.6889 111.831C75.3833 111.831 74.3843 112.167 73.692 112.84C73.0095 113.512 72.6683 114.452 72.6683 115.659C72.6683 116.776 73.0293 117.666 73.7513 118.329C74.4832 118.992 75.6849 119.595 77.3565 120.139C79.0181 120.683 80.3188 121.281 81.2584 121.934C82.198 122.587 82.8904 123.344 83.3354 124.204C83.7706 125.075 83.9882 126.088 83.9882 127.246C83.9882 129.095 83.4343 130.584 82.3266 131.711C81.2188 132.839 79.661 133.506 77.6532 133.714V136.845H75.2201V133.714C73.1826 133.526 71.5902 132.799 70.4428 131.533C69.2856 130.277 68.707 128.561 68.707 126.385H71.7484C71.7484 127.908 72.1441 129.08 72.9353 129.901C73.7365 130.722 74.8739 131.133 76.3476 131.133C77.7818 131.133 78.9093 130.791 79.7303 130.109C80.5512 129.417 80.9617 128.472 80.9617 127.275Z" fill="#FFDE70"/>
<path d="M178.523 167.975C178.523 167.975 167.514 173.064 153.924 192.47C136.982 216.652 128.881 234.782 150.008 242.037C165.185 247.259 171.016 237.364 187.825 238.224C193.196 239.708 194.679 241.577 196.697 240.568C196.697 240.568 200.718 235.376 207.779 237.245C206.637 233.922 200.094 227.127 182.039 226.919C163.983 226.711 157.975 224.189 166.06 210.807C171.505 202.558 175.452 201.49 177.944 198.997" fill="#FFDE70"/>
<path d="M207.779 237.246C206.637 233.923 200.094 227.128 182.039 226.92C163.983 226.712 157.974 224.19 166.06 210.808C171.505 202.559 175.451 201.491 177.944 198.998" stroke="#D18B0D" stroke-width="0.845659" stroke-linecap="round" stroke-linejoin="round"/>
<path d="M196.697 240.568C196.697 240.568 200.718 235.375 207.78 237.245" stroke="#D18B0D" stroke-width="0.845659" stroke-linecap="round" stroke-linejoin="round"/>
<path d="M160.422 243.491C169.012 242.794 175.436 237.601 187.824 238.224C193.195 239.708 194.678 241.577 196.696 240.568" stroke="#D18B0D" stroke-width="0.845659" stroke-linecap="round" stroke-linejoin="round"/>
<path d="M270.151 262.6H187.01V257.185H270.151V262.6Z" fill="#1A1A1A" stroke="#1A1A1A" stroke-width="0.845659" stroke-linecap="round" stroke-linejoin="round"/>
<path d="M243.711 216.961H293.635L270.149 262.597H218.193L243.711 216.961Z" fill="#203560"/>
<path d="M247.036 216.962H296.959L273.474 262.598H221.518L247.036 216.962Z" fill="white"/>
<path d="M34.7598 256.445C40.264 270.391 45.872 284.515 54.8627 296.517C63.8386 308.52 66.6426 311.383 78.3186 315.671" stroke="#3DBE88" stroke-width="0.845659" stroke-linecap="round" stroke-linejoin="round"/>
<path d="M46.127 303.117C47.4177 306.337 50.4591 308.592 53.7379 309.734C57.0018 310.876 62.6396 309.022 66.1112 309.2" stroke="#3DBE88" stroke-width="0.845659" stroke-linecap="round" stroke-linejoin="round"/>
<path d="M177.527 168.508L181.147 170.629" stroke="#D18B0D" stroke-width="0.845659" stroke-linecap="round" stroke-linejoin="round"/>
<path d="M199.679 157.502C199.679 157.502 201.86 161.182 200.614 163.778C199.783 165.529 199.264 165.855 199.264 165.855" stroke="#D18B0D" stroke-width="0.845659" stroke-linecap="round" stroke-linejoin="round"/>
<path d="M183.936 276.502C184.456 279.098 183.758 281.917 182.082 283.979C180.406 286.041 177.794 287.302 175.139 287.332" stroke="#1A1A1A" stroke-width="0.845659" stroke-linecap="round" stroke-linejoin="round"/>
<path d="M188.865 354.378C189.577 353.443 190.927 353.072 192.01 353.502C193.094 353.947 193.806 355.149 193.657 356.321C194.355 355.683 195.185 355.208 196.09 354.941" stroke="#1A1A1A" stroke-width="0.845659" stroke-linecap="round" stroke-linejoin="round"/>
<path d="M196.237 348.855C195.97 347.98 197.112 347.253 198.017 347.342C198.937 347.431 199.797 347.935 200.717 347.935C201.756 347.935 202.75 347.193 203.061 346.199" stroke="#1A1A1A" stroke-width="0.845659" stroke-linecap="round" stroke-linejoin="round"/>
<path d="M252.154 354.953C252.184 354.137 253.178 353.677 253.979 353.825C254.78 353.959 255.448 354.493 256.175 354.878C256.887 355.264 257.807 355.502 258.489 355.042C259.231 354.552 259.572 353.335 260.463 353.41" stroke="#1A1A1A" stroke-width="0.845659" stroke-linecap="round" stroke-linejoin="round"/>
<path d="M254.525 242.034C254.763 242.034 262.077 235.654 262.077 235.654L264.881 242.034L258.813 247.642L254.525 242.034Z" fill="#203560"/>
<path d="M195.539 239.781C195.539 239.781 199.634 233.342 205.034 235.375C210.42 237.392 203.521 240.464 201.755 240.612C199.99 240.775 196.726 243.104 195.539 239.781Z" fill="#1A1A1A" stroke="#1A1A1A" stroke-width="0.845659" stroke-linecap="round" stroke-linejoin="round"/>
<path d="M198.934 242.749C198.934 242.749 194.171 250.405 202.109 250.405C210.046 250.405 211.9 249.411 211.9 249.411C212.894 251.087 208.859 256.873 210.773 257.496C212.702 258.119 217.063 254.01 217.39 250.775C217.731 247.541 219.051 242.556 210.773 239.129C202.509 235.702 202.509 235.702 202.509 235.702C199.542 235.954 197.673 237.542 196.693 240.257L198.934 242.749Z" fill="#FC9590"/>
<path d="M416.421 217.112H419.477C406.614 230.138 413.453 247.644 413.453 247.644" stroke="#1A1A1A" stroke-width="0.845659" stroke-linecap="round" stroke-linejoin="round"/>
<path d="M419.92 220.168L419.475 217.112" stroke="#1A1A1A" stroke-width="0.845659" stroke-linecap="round" stroke-linejoin="round"/>
<defs>
<radialGradient id="paint0_radial_559_4942" cx="0" cy="0" r="1" gradientUnits="userSpaceOnUse" gradientTransform="translate(523.925 4.98756) scale(8.2164 8.2164)">
<stop stop-color="white"/>
<stop offset="1" stop-color="#B8E4F7"/>
</radialGradient>
<radialGradient id="paint1_radial_559_4942" cx="0" cy="0" r="1" gradientUnits="userSpaceOnUse" gradientTransform="translate(695.703 57.151) scale(6.77083)">
<stop stop-color="white"/>
<stop offset="1" stop-color="#B8E4F7"/>
</radialGradient>
<radialGradient id="paint2_radial_559_4942" cx="0" cy="0" r="1" gradientUnits="userSpaceOnUse" gradientTransform="translate(402.464 38.2699) rotate(180) scale(8.24576 8.24576)">
<stop stop-color="white"/>
<stop offset="1" stop-color="#B8E4F7"/>
</radialGradient>
<linearGradient id="paint3_linear_559_4942" x1="580.33" y1="63.8992" x2="572.848" y2="84.3358" gradientUnits="userSpaceOnUse">
<stop stop-color="#CFD4D8"/>
<stop offset="1" stop-color="#CFD4D8"/>
</linearGradient>
<radialGradient id="paint4_radial_559_4942" cx="0" cy="0" r="1" gradientUnits="userSpaceOnUse" gradientTransform="translate(649.482 32.2303) scale(9.66121 9.6612)">
<stop stop-color="white"/>
<stop offset="1" stop-color="#B8E4F7"/>
</radialGradient>
<linearGradient id="paint5_linear_559_4942" x1="11.4156" y1="343.093" x2="438.404" y2="343.093" gradientUnits="userSpaceOnUse">
<stop stop-color="#68B2FC"/>
<stop offset="1" stop-color="#529BF7"/>
</linearGradient>
<linearGradient id="paint6_linear_559_4942" x1="76.3458" y1="167.366" x2="356.892" y2="167.366" gradientUnits="userSpaceOnUse">
<stop stop-color="#68B2FC"/>
<stop offset="1" stop-color="#529BF7"/>
</linearGradient>
<linearGradient id="paint7_linear_559_4942" x1="448.63" y1="216.705" x2="475.997" y2="216.705" gradientUnits="userSpaceOnUse">
<stop stop-color="#68B2FC"/>
<stop offset="1" stop-color="#529BF7"/>
</linearGradient>
<linearGradient id="paint8_linear_559_4942" x1="444.807" y1="292.546" x2="475.995" y2="292.546" gradientUnits="userSpaceOnUse">
<stop stop-color="#68B2FC"/>
<stop offset="1" stop-color="#529BF7"/>
</linearGradient>
</defs>
</svg>
