<svg width="512" height="443" viewBox="0 0 512 443" fill="none" xmlns="http://www.w3.org/2000/svg">
<path d="M46.9004 168.553V116.905C46.9004 115.313 48.1831 114.03 49.7755 114.03H126.355C127.948 114.03 129.23 115.313 129.23 116.905V168.553C129.23 170.131 127.948 171.414 126.355 171.414H49.7755C48.1831 171.414 46.9004 170.131 46.9004 168.553Z" fill="white"/>
<path fill-rule="evenodd" clip-rule="evenodd" d="M119.396 171.783H56.7487C51.1165 171.783 46.5459 167.197 46.5459 161.58V123.88C46.5459 118.247 51.1165 113.677 56.7487 113.677H119.396C125.013 113.677 129.598 118.247 129.598 123.88V161.58C129.598 167.197 125.013 171.783 119.396 171.783ZM56.7487 114.399C51.5146 114.399 47.2684 118.645 47.2684 123.88V161.58C47.2684 166.799 51.5146 171.045 56.7487 171.045H119.396C124.615 171.045 128.861 166.799 128.861 161.58V123.88C128.861 118.645 124.615 114.399 119.396 114.399H56.7487Z" fill="#692F0A"/>
<path d="M123.731 168.495H52.3995C50.9694 168.495 49.8193 167.345 49.8193 165.93V119.53C49.8193 118.1 50.9694 116.95 52.3995 116.95H123.731C125.161 116.95 126.311 118.1 126.311 119.53V165.93C126.311 167.345 125.161 168.495 123.731 168.495Z" fill="#EBE9DA"/>
<path d="M58.9457 121.21C58.8868 121.21 58.8278 121.196 58.7688 121.166C58.6361 121.063 58.6066 120.886 58.6951 120.753L84.4822 83.746C84.5412 83.6723 84.6149 83.628 84.7034 83.6133C84.7918 83.6133 84.8803 83.6428 84.9393 83.7165L117.376 119.898C117.494 120.016 117.479 120.193 117.361 120.311C117.243 120.414 117.052 120.399 116.948 120.281L84.7476 84.38L59.1816 121.092C59.1227 121.166 59.0342 121.21 58.9457 121.21Z" fill="#0C0A0A"/>
<path d="M87.0773 83.9079C87.0773 85.2053 86.0305 86.2669 84.7183 86.2669C83.4208 86.2669 82.374 85.2053 82.374 83.9079C82.374 82.6104 83.4208 81.5488 84.7183 81.5488C86.0305 81.5488 87.0773 82.6104 87.0773 83.9079Z" fill="#050505"/>
<path d="M61.305 120.915C61.305 122.227 60.2434 123.274 58.9459 123.274C57.6337 123.274 56.5869 122.227 56.5869 120.915C56.5869 119.617 57.6337 118.57 58.9459 118.57C60.2434 118.57 61.305 119.617 61.305 120.915Z" fill="#050505"/>
<path d="M119.587 128.995H56.5571C56.4244 128.995 56.3359 128.907 56.3359 128.789V124.852C56.3359 124.734 56.4244 124.631 56.5571 124.631H119.587C119.705 124.631 119.809 124.734 119.809 124.852V128.789C119.809 128.907 119.705 128.995 119.587 128.995Z" fill="white"/>
<path d="M79.5134 139.61H56.5571C56.4244 139.61 56.3359 139.507 56.3359 139.389V135.452C56.3359 135.335 56.4244 135.246 56.5571 135.246H79.5134C79.6313 135.246 79.7198 135.335 79.7198 135.452V139.389C79.7198 139.507 79.6313 139.61 79.5134 139.61Z" fill="white"/>
<path d="M107.571 139.61H84.6146C84.4967 139.61 84.4082 139.507 84.4082 139.389V135.452C84.4082 135.335 84.4967 135.246 84.6146 135.246H107.571C107.704 135.246 107.792 135.335 107.792 135.452V139.389C107.792 139.507 107.704 139.61 107.571 139.61Z" fill="#FECD3B"/>
<path d="M102.116 150.211H56.5571C56.4244 150.211 56.3359 150.108 56.3359 149.99V146.068C56.3359 145.935 56.4244 145.847 56.5571 145.847H102.116C102.234 145.847 102.337 145.935 102.337 146.068V149.99C102.337 150.108 102.234 150.211 102.116 150.211Z" fill="white"/>
<path d="M94.3163 160.813H56.5571C56.4244 160.813 56.3359 160.725 56.3359 160.592V156.67C56.3359 156.552 56.4244 156.449 56.5571 156.449H94.3163C94.449 156.449 94.5374 156.552 94.5374 156.67V160.592C94.5374 160.725 94.449 160.813 94.3163 160.813Z" fill="#FECD3B"/>
<path d="M117.862 160.813H106.14C106.022 160.813 105.919 160.725 105.919 160.592V156.67C105.919 156.552 106.022 156.449 106.14 156.449H117.862C117.994 156.449 118.083 156.552 118.083 156.67V160.592C118.083 160.725 117.994 160.813 117.862 160.813Z" fill="white"/>
<path d="M427.529 90.0557V147.852H355.387V90.0557H427.529Z" fill="#B2B0A1"/>
<path d="M427.53 118.247V147.853H355.388V128.745C355.555 128.499 355.737 128.253 355.933 128.008C359.251 123.85 366.283 119.043 380.674 121.417C381.883 121.614 383.146 121.864 384.463 122.169C389.549 123.363 394.061 123.997 398.057 124.263C415.41 125.368 423.21 119.176 427.441 118.262C427.471 118.262 427.5 118.257 427.53 118.247Z" fill="#FFA810"/>
<path d="M500.217 348.857C496.487 363.011 489.601 374.423 480.563 383.652C451.208 413.597 399.162 420.512 358.572 423.461C316.453 427.186 274.335 430.911 232.216 434.637C216.096 436.062 199.981 437.487 183.871 438.912C173.423 439.836 162.974 440.76 152.526 441.684C136.057 443.144 116.329 443.159 106.937 429.55C97.5454 415.897 103.325 394.076 90.4094 383.682C74.8546 371.842 54.8028 385.908 37.6409 384.389C28.6176 383.579 19.152 377.032 19.093 367.979C19.0783 365.517 19.727 363.232 20.8328 361.109C23.1476 356.641 27.4676 352.941 31.7876 350.095C56.4394 336.339 361.108 263.209 396.361 250.161C411.326 223.445 476.258 217.783 493.597 276.847C500.305 299.7 503.623 325.252 500.217 348.857Z" fill="#EBE9DA"/>
<path d="M183.871 438.912C173.423 439.836 162.974 440.76 152.526 441.684C136.057 443.143 116.329 443.158 106.937 429.549C97.5454 415.897 103.325 394.076 90.4094 383.681C74.8546 371.842 54.8028 385.907 37.6409 384.389C28.6176 383.578 19.152 377.032 19.093 367.979C19.0783 365.517 19.727 363.231 20.8328 361.108C42.3589 361.034 87.0625 361.993 112.732 370.662C147.424 382.369 177.605 385.627 183.222 398.101C187.542 407.714 185.581 427.677 183.871 438.912Z" fill="#B2B0A1"/>
<path d="M480.564 383.652C451.209 413.597 399.163 420.512 358.573 423.46C316.454 427.186 274.336 430.911 232.217 434.636L230.625 426.173C230.625 426.173 255.586 404.971 307.352 408.716C359.133 412.447 360.372 388.119 375.351 381.263C390.316 374.407 457.062 366.283 475.153 379.391C477.07 380.777 478.868 382.207 480.564 383.652Z" fill="#B2B0A1"/>
<path d="M430.096 355.018C428.489 354.192 421.264 368.45 421.367 351.701C421.456 336.647 445.149 273.868 452.669 260.981C454.231 258.313 455.898 255.6 458.345 253.713C460.793 251.825 464.213 250.882 467.044 252.135C470.14 253.506 471.747 257.148 471.688 260.524C471.644 263.915 470.288 267.13 468.902 270.226C459.643 291.074 448.865 311.229 436.671 330.499C432.779 336.618 433.354 348.531 430.096 355.018Z" fill="#3A78DD"/>
<path d="M422.045 360.872C422.026 360.872 422.006 360.872 421.986 360.872C421.662 360.827 421.426 360.547 421.47 360.223C423.579 339.508 430.538 319.22 441.581 301.557C442.701 299.773 443.866 297.989 445.016 296.249C448.481 290.985 452.064 285.53 454.349 279.588C454.909 278.099 455.425 276.522 455.927 275.003C457.563 269.975 459.274 264.756 463.328 261.276C463.579 261.07 463.947 261.099 464.154 261.35C464.36 261.586 464.331 261.955 464.095 262.161C460.276 265.434 458.625 270.491 457.033 275.372C456.531 276.905 456.015 278.483 455.425 280.001C453.111 286.061 449.484 291.575 445.989 296.898C444.854 298.623 443.675 300.407 442.569 302.176C431.614 319.692 424.729 339.803 422.62 360.341C422.591 360.65 422.34 360.872 422.045 360.872Z" fill="white"/>
<path d="M410.648 354.724C404.427 329.983 404.368 303.724 410.442 278.969C411.681 273.942 413.243 268.826 416.561 264.845C419.878 260.879 425.363 258.313 430.317 259.802C434.475 261.056 437.438 264.889 438.75 269.017C440.063 273.16 439.974 277.584 439.738 281.918C438.397 307.558 432.927 332.976 423.594 356.891L410.648 354.724Z" fill="#6799FC"/>
<path d="M407.743 368.303C407.684 368.303 407.62 368.293 407.552 368.273C407.242 368.17 407.08 367.831 407.198 367.536L416.56 340.334C418.344 335.158 420.364 329.29 420.113 323.466C419.951 319.545 418.757 315.667 417.592 311.922C416.531 308.442 415.425 304.845 415.101 301.159C414.26 291.634 419.111 281.771 427.161 276.625C427.441 276.448 427.795 276.522 427.972 276.802C428.149 277.067 428.06 277.436 427.795 277.598C420.099 282.523 415.469 291.944 416.265 301.056C416.575 304.624 417.666 308.162 418.713 311.568C419.892 315.387 421.101 319.338 421.278 323.422C421.529 329.453 419.479 335.439 417.666 340.717L408.289 367.919C408.215 368.155 407.979 368.303 407.743 368.303Z" fill="white"/>
<path d="M454.481 352.012C454.481 352.012 462.738 353.516 463.372 357.733C463.991 361.935 476.155 348.68 471.172 345.878C466.173 343.062 456.192 342.134 455.572 343.696C454.953 345.245 454.481 352.012 454.481 352.012Z" fill="#1B2F58"/>
<path d="M441.434 353.219C445.061 343.105 451.577 334.038 460.011 327.373C462.562 325.368 465.496 323.496 468.739 323.54C471.983 323.584 475.345 326.356 474.858 329.555C474.607 331.221 473.457 332.578 472.337 333.831C466.193 340.771 460.045 347.71 453.892 354.65L441.434 353.219Z" fill="#174690"/>
<path d="M446.255 358.837C446.206 358.837 446.156 358.833 446.107 358.823C445.798 358.734 445.606 358.425 445.694 358.115C446.977 353.117 449.72 348.074 454.084 342.693C458.345 337.429 463.313 332.77 468.813 328.834C469.078 328.657 469.447 328.716 469.639 328.981C469.816 329.246 469.757 329.6 469.491 329.792C464.065 333.655 459.185 338.24 454.998 343.415C450.737 348.679 448.068 353.574 446.815 358.395C446.756 358.661 446.52 358.837 446.255 358.837Z" fill="white"/>
<path d="M440.106 359.118C453.051 345.347 462.561 328.362 467.515 310.109C468.813 305.362 469.447 299.435 465.628 296.339C462.738 294.009 458.33 294.466 455.219 296.486C452.108 298.521 450.044 301.779 448.245 305.023C439.797 320.15 434.828 337.194 433.811 354.489L440.106 359.118Z" fill="#6799FC"/>
<path d="M434.873 366.858C434.863 366.858 434.853 366.858 434.843 366.858C434.519 366.843 434.268 366.578 434.283 366.253C434.755 355.77 438.352 345.273 444.412 336.706C445.046 335.807 445.724 334.908 446.373 334.038C448.481 331.236 450.663 328.332 451.784 325.014C452.536 322.788 452.801 320.4 453.052 318.085C453.214 316.581 453.391 315.048 453.686 313.529C454.644 308.663 457.092 305.125 460.394 303.857C460.704 303.739 461.043 303.886 461.161 304.196C461.264 304.491 461.117 304.83 460.822 304.948C456.664 306.54 455.249 311.642 454.821 313.765C454.541 315.225 454.379 316.743 454.217 318.203C453.951 320.591 453.671 323.054 452.89 325.383C451.71 328.877 449.469 331.856 447.302 334.745C446.653 335.601 445.989 336.485 445.37 337.37C439.443 345.759 435.919 356.036 435.448 366.297C435.448 366.607 435.182 366.858 434.873 366.858Z" fill="white"/>
<path d="M424.094 358.085C423.136 347.985 425.215 337.503 429.992 328.17C431.437 325.339 433.295 322.478 436.214 321.063C439.148 319.662 443.306 320.488 444.205 323.393C444.662 324.896 444.19 326.548 443.719 328.096C441.094 336.647 438.475 345.199 435.86 353.75L424.094 358.085Z" fill="#174690"/>
<path d="M454.63 377.695C453.495 384.964 450.62 396.391 448.246 405.266C445.749 406.397 443.223 407.449 440.667 408.422C430.583 412.299 420.055 415.056 409.337 417.135C404.81 415.484 402.451 378.521 402.451 378.521L404.102 361.683L418.876 355.86L436.878 355.491L450.059 355.226C450.059 355.226 456.709 364.382 454.63 377.695Z" fill="#FECD3B"/>
<path d="M454.63 377.694C453.494 384.963 450.619 396.39 448.246 405.265C445.749 406.396 443.223 407.448 440.667 408.421C440.417 408.17 440.284 408.008 440.284 407.934C440.284 407.315 453.229 368.804 443.881 361.933C439.237 358.542 437.468 356.596 436.878 355.49L450.059 355.225C450.059 355.225 456.709 364.381 454.63 377.694Z" fill="#FFA810"/>
<path d="M457.327 358.556H409.94C409.763 358.556 409.615 358.409 409.615 358.232V352.334C409.615 352.157 409.763 352.01 409.94 352.01H457.327C457.504 352.01 457.651 352.157 457.651 352.334V358.232C457.651 358.409 457.504 358.556 457.327 358.556Z" fill="#050505"/>
<path d="M500.202 237.508C516.007 234.544 516.376 208.418 498.609 209.804C480.784 211.205 481.108 241.106 500.202 237.508Z" fill="#EBE9DA"/>
<path d="M456.088 170.247L413.419 168.315C412.52 168.271 411.827 167.519 411.871 166.62L413.183 137.471C413.228 136.586 413.98 135.893 414.879 135.938L457.563 137.869C458.447 137.898 459.14 138.665 459.111 139.55L457.784 168.699C457.74 169.598 456.988 170.291 456.088 170.247Z" fill="white"/>
<path fill-rule="evenodd" clip-rule="evenodd" d="M453.508 170.498C453.439 170.498 453.365 170.493 453.287 170.483L416.176 168.802C414.908 168.743 413.729 168.198 412.874 167.254C412.018 166.311 411.576 165.102 411.635 163.819L412.697 140.243C412.756 138.975 413.301 137.796 414.245 136.941C415.188 136.086 416.412 135.643 417.68 135.688L454.791 137.368C456.059 137.427 457.238 137.988 458.093 138.916C458.963 139.86 459.405 141.084 459.346 142.352L458.27 165.927C458.226 167.21 457.666 168.375 456.722 169.245C455.837 170.056 454.702 170.498 453.508 170.498ZM417.459 136.425C416.456 136.425 415.483 136.793 414.731 137.472C413.935 138.209 413.478 139.197 413.419 140.288L412.358 163.848C412.313 164.94 412.682 165.972 413.419 166.768C414.142 167.564 415.144 168.036 416.22 168.08L453.331 169.761C454.407 169.805 455.439 169.436 456.235 168.699C457.032 167.977 457.503 166.974 457.548 165.898L458.609 142.322C458.668 141.246 458.285 140.214 457.562 139.418C456.825 138.622 455.837 138.15 454.761 138.106L417.651 136.425C417.582 136.425 417.518 136.425 417.459 136.425Z" fill="#692F0A"/>
<path d="M453.317 144.933L453.022 151.479L452.506 162.818C452.417 164.675 450.855 166.091 449.012 166.017L420.851 164.734C419.008 164.661 417.578 163.098 417.666 161.24L417.976 154.414L418.477 143.356C418.551 141.513 420.114 140.082 421.971 140.171L450.117 141.439C451.96 141.527 453.39 143.09 453.317 144.933Z" fill="#EBE9DA"/>
<path d="M453.022 151.478L452.506 162.816C452.417 164.674 450.855 166.089 449.012 166.016L420.851 164.733C419.008 164.659 417.578 163.096 417.666 161.239L417.976 154.412C419.597 151.994 422.443 150.092 427.279 152.79C436.479 157.936 435.226 163.716 443.969 157.479C447.965 154.619 450.958 152.702 453.022 151.478Z" fill="#3A78DD"/>
<path d="M453.67 140.627C453.67 146.141 449.188 150.624 443.674 150.624C438.16 150.624 433.692 146.141 433.692 140.627C433.692 135.113 438.16 130.631 443.674 130.631C449.188 130.631 453.67 135.113 453.67 140.627Z" fill="#FFA810"/>
<path d="M98.5627 267.528C98.5627 287.108 82.6835 302.988 63.1183 302.988C43.5384 302.988 27.6592 287.108 27.6592 267.528C27.6592 247.948 43.5384 232.084 63.1183 232.084C82.6835 232.084 98.5627 247.948 98.5627 267.528Z" fill="#EBE9DA"/>
<path d="M463.372 66.4367L454.732 62.4264L444.146 81.8883L412.697 92.9758L408.186 100.761L392.837 127.285L380.924 147.853H361.551L377.666 124.808L394.489 100.761L405.561 85.8545L437.335 74.1773L446.417 57.9589L437.335 54.0666L435.388 50.7787L459.391 37.1553L461.338 40.4579L463.372 66.4367Z" fill="#050505"/>
<path d="M461.424 63.1321L452.784 59.1365L442.198 78.5985L410.749 89.6859L406.238 97.456L377.074 147.851H357.303L392.541 97.456L403.613 82.5499L435.387 70.8727L444.469 54.6691L435.387 50.7767L459.39 37.1533L461.424 63.1321Z" fill="white"/>
<path fill-rule="evenodd" clip-rule="evenodd" d="M377.075 148.22H357.303C357.17 148.22 357.038 148.146 356.979 148.028C356.92 147.896 356.935 147.763 357.008 147.645L392.231 97.2502L403.319 82.3294C403.368 82.2704 403.422 82.2311 403.481 82.2114L435.136 70.5785L443.953 54.8467L435.24 51.1018C435.122 51.0575 435.033 50.9248 435.018 50.7921C435.018 50.6595 435.092 50.5268 435.21 50.453L459.198 36.8444C459.316 36.7707 459.449 36.7707 459.552 36.8296C459.67 36.8886 459.744 37.0066 459.744 37.1245L461.779 63.1033C461.793 63.236 461.734 63.354 461.631 63.4277C461.528 63.5014 461.381 63.5162 461.263 63.4719L452.947 59.609L442.523 78.7761C442.479 78.8498 442.405 78.9088 442.331 78.9383L411.001 89.9815L406.563 97.6483L377.384 148.043C377.325 148.146 377.193 148.22 377.075 148.22ZM358.011 147.483H376.854L405.929 97.2797L410.425 89.4949C410.47 89.4212 410.543 89.3623 410.632 89.3328L441.948 78.3043L452.46 58.9603C452.564 58.7981 452.77 58.7244 452.932 58.7981L461.012 62.5431L459.066 37.7585L436.213 50.7332L444.617 54.3307C444.705 54.3749 444.779 54.4486 444.808 54.5518C444.853 54.6403 444.838 54.7583 444.794 54.8467L435.711 71.0503C435.667 71.124 435.593 71.183 435.52 71.2125L403.835 82.8602L392.821 97.6778L358.011 147.483Z" fill="#692F0A"/>
<path d="M138.858 213.595C138.858 214.893 137.796 215.954 136.499 215.954C135.201 215.954 134.14 214.893 134.14 213.595C134.14 212.298 135.201 211.236 136.499 211.236C137.796 211.236 138.858 212.298 138.858 213.595Z" fill="#050505"/>
<path d="M315.209 294.377C314.752 298.269 311.479 320.414 311.479 320.414L296.661 317.923C296.661 317.923 293.536 306.378 294.627 298.579C294.907 296.588 295.364 294.863 295.88 293.403C296.602 291.413 297.428 289.924 298.121 288.907C298.888 287.757 299.463 287.196 299.463 287.196C299.463 287.196 315.681 290.469 315.209 294.377Z" fill="#FFA99C"/>
<path d="M305.125 299.169C304.226 302.015 301.66 302.914 301.66 302.914L299.523 301.454C299.523 301.454 297.09 297.857 296.338 294.879C296.19 294.289 296.028 293.817 295.881 293.404C296.603 291.414 297.429 289.925 298.122 288.907L300.628 294.038C300.628 294.038 303.12 293.832 304.786 293.286C306.452 292.726 306.039 296.323 305.125 299.169Z" fill="#F47D65"/>
<path d="M294.79 306.541L293.831 301.808C293.831 301.808 293.301 290.367 291.266 287.875C289.246 285.383 294.819 285 297.164 289.674C299.508 294.347 301.646 298.889 301.955 300.142C302.28 301.395 304.152 303.415 304.152 303.415L294.79 306.541Z" fill="#FFA99C"/>
<path d="M238.379 184.328C238.379 184.328 236.359 175.688 238.379 171.633C240.414 167.579 245.043 157.037 245.972 157.966C246.916 158.909 244.881 164.984 245.191 167.166C245.5 169.348 246.754 168.419 249.098 164.512C251.428 160.62 253.3 153.602 256.116 152.039C258.917 150.476 256.691 161.74 255.482 167.785C253.772 178.548 247.373 188.53 247.373 188.53L238.379 184.328Z" fill="#F47D65"/>
<path d="M217.752 147.054C217.752 147.054 226.952 131.927 228.043 131.455C229.135 130.983 233.499 142.69 233.499 142.69C233.499 142.69 227.572 151.419 227.424 152.2C227.262 152.981 216.352 150.637 216.352 150.637L217.752 147.054Z" fill="#F47D65"/>
<path d="M354.827 263.858L345.951 277.172L342.973 281.639C342.973 281.639 301.144 233.279 286.076 210.293C274.458 192.601 270.462 171.605 269.239 162.877C268.87 160.267 268.752 158.749 268.752 158.749C268.752 158.749 268.752 152.659 272.173 150.477C275.932 148.089 281.8 149.519 284.1 150.993C284.1 150.993 293.242 179.891 301.395 189.047L354.827 263.858Z" fill="#FF2D60"/>
<path d="M345.952 277.172L342.974 281.639C342.974 281.639 301.145 233.279 286.077 210.293C274.459 192.601 270.463 171.605 269.239 162.877C271.421 170.337 278.764 193.205 290.78 209.689C305.347 229.652 331.96 256.678 335.484 258.978C338.374 260.836 343.726 271.643 345.952 277.172Z" fill="#B20E36"/>
<path d="M270.197 158.881C270.197 158.881 272.689 164.572 278.306 164.218C283.924 163.879 285.516 158.335 284.897 155.902C284.277 153.484 279.279 149.813 275.048 151.199C270.831 152.585 269.224 156.315 270.197 158.881Z" fill="#050505"/>
<path d="M272.482 159.882C272.482 159.882 268.531 153.704 266.791 145.05C265.066 136.41 265.553 130.719 265.553 130.719L285.088 128.492L288.288 131.22L284.808 155.621C283.702 164.01 277.967 163.715 272.482 159.882Z" fill="#FFA99C"/>
<path d="M255.01 80.0602L254.553 86.1347L254.258 89.9534C254.258 89.9534 208.788 64.2547 204.35 61.5271C199.897 58.8142 200.384 56.5879 200.384 56.5879C200.384 56.5879 200.384 56.4552 200.369 56.2046C200.118 52.8724 198.379 28.6039 197.922 21.2467C197.42 13.344 201.136 14.3318 201.136 14.3318L230.284 12.1055L230.049 21.4974L213.978 21.2467L208.051 24.9622C208.051 24.9622 209.289 49.673 210.277 52.8872C211.265 56.1013 255.01 80.0602 255.01 80.0602Z" fill="#EF9D25"/>
<path d="M254.053 87.7551L254.259 89.952C254.259 89.952 208.789 64.2533 204.351 61.5257C199.898 58.8128 200.385 56.5865 200.385 56.5865C200.385 56.5865 200.385 56.4538 200.37 56.2031C203.127 58.6211 208.892 63.0296 217.797 67.6444C229.932 73.7631 247.226 83.4499 254.053 87.7551Z" fill="#BF7E0C"/>
<path d="M293.61 127.504C289.437 121.769 271.126 110.21 271.126 110.21L272.364 74.6327C272.364 74.6327 280.532 68.2338 288.848 64.9017C297.163 61.5843 301.321 58.2522 301.321 58.2522L302.884 7.54781L302.943 5.60161C302.545 5.17403 301.881 4.74646 300.982 4.34837L264.004 6.81061V6.54522L229.253 4.23043L224.741 3.93555C223.134 4.51056 222.058 5.14455 221.586 5.80803L221.63 7.35614L223.178 57.7509C223.178 57.7509 227.336 61.083 235.652 64.4151C243.967 67.7325 252.15 74.1314 252.15 74.1314L253.389 109.723C253.389 109.723 235.062 121.282 230.889 127.018C229.887 128.418 228.751 131.456 227.793 134.405H296.559C295.63 131.618 294.568 128.831 293.61 127.504Z" fill="#FECD3B"/>
<path d="M329.438 22.7367C329.438 29.2241 328.096 42.3019 327.226 50.1604C327.138 50.8976 327.059 51.5808 326.99 52.2098C326.681 54.967 325.118 57.4292 322.759 58.9036L270.757 91.178C270.757 91.178 270.256 90.5883 269.681 89.7331C268.501 88.0228 266.968 85.2362 268.295 83.7618C270.271 81.5355 315.107 53.8759 315.107 53.8759L318.572 26.2016L292.873 25.7003C292.873 25.7003 288.671 24.7124 288.42 21.2476C288.17 17.7975 293.109 17.8565 293.109 17.8565L326.356 16.1904C326.356 16.1904 329.438 17.4584 329.438 22.7367Z" fill="#EF9D25"/>
<path d="M325.663 29.4581C325.663 32.0383 324.719 34.1319 323.555 34.1319C322.39 34.1319 321.461 32.0383 321.461 29.4581C321.461 26.8632 322.39 24.7695 323.555 24.7695C324.719 24.7695 325.663 26.8632 325.663 29.4581Z" fill="#FECD3B"/>
<path d="M303.37 6.54631C303.37 6.88542 303.193 7.22453 302.884 7.54889C299.846 10.6893 282.861 13.0926 262.353 13.0926C241.402 13.0926 224.107 10.5861 221.63 7.35722C221.433 7.09183 221.33 6.82153 221.32 6.54631C221.33 6.30057 221.419 6.05484 221.586 5.80911C222.058 5.14563 223.134 4.51164 224.741 3.93663C231.066 1.62183 245.53 0 262.353 0C280.149 0 295.305 1.8135 300.982 4.34946C301.881 4.74754 302.545 5.17512 302.943 5.60269C303.218 5.91723 303.36 6.23177 303.37 6.54631Z" fill="#FFA810"/>
<path d="M297.443 6.546C297.443 6.79664 297.295 7.03254 297.03 7.26844C294.435 9.52426 279.898 11.2493 262.352 11.2493C244.424 11.2493 229.636 9.45054 227.512 7.121C227.336 6.93425 227.247 6.74258 227.247 6.546C227.247 6.36907 227.321 6.19214 227.468 6.01521C227.866 5.5434 228.795 5.08635 230.166 4.67352C235.577 3.00745 247.948 1.85742 262.352 1.85742C277.583 1.85742 290.543 3.15489 295.393 4.96839C296.175 5.26327 296.735 5.55815 297.074 5.86777C297.32 6.09384 297.443 6.31992 297.443 6.546Z" fill="#D36909"/>
<path d="M247.064 122.714C250.883 118.895 257.355 110.55 257.355 110.55L255.011 70.4762C255.011 70.4762 253.64 65.5222 242.228 58.9317C230.816 52.3411 233.809 45.8243 232.718 36.6241C232.07 31.1689 230.816 19.3147 229.917 10.5568C225.494 9.65747 222.56 8.55168 221.631 7.35742L223.179 57.7522C223.179 57.7522 227.337 61.0843 235.652 64.4164C243.968 67.7338 252.151 74.1327 252.151 74.1327L253.389 109.724C253.389 109.724 235.063 121.284 230.89 127.019C229.887 128.42 228.752 131.457 227.794 134.406H242.228C243.526 129.614 245.236 124.542 247.064 122.714Z" fill="#FFA810"/>
<path d="M227.793 134.405V139.079H242.478V134.405H227.793Z" fill="#BF7E0C"/>
<path d="M296.191 134.405H242.479V139.079H296.191V134.405Z" fill="#FFA810"/>
<path d="M299.14 151.493L293.095 153.321L286.033 155.459C286.062 155.15 273.264 141.629 271.952 132.267C270.994 125.411 271.2 123.937 271.716 123.14C271.893 122.831 272.129 122.639 272.35 122.285C273.161 120.988 279.737 116.447 282.45 119.351C285.163 122.256 288.849 132.002 292.52 133.211C294.584 133.874 292.137 128.964 291.532 125.735C291.075 123.214 292.358 122.035 293.699 123.288C297.695 127.003 299.597 129.023 299.553 134.022C299.509 139.02 299.14 151.493 299.14 151.493Z" fill="#FFA99C"/>
<path d="M297.178 150.241L293.094 153.322L286.032 155.46C286.061 155.151 273.263 141.63 271.951 132.268C270.993 125.412 271.199 123.938 271.715 123.142C272.099 125.972 273.308 132.475 276.507 136.057C280.694 140.731 286.828 150.064 286.828 150.064C286.828 150.064 292.607 149.99 293.58 150.064C294.539 150.123 297.178 150.241 297.178 150.241Z" fill="#F47D65"/>
<path d="M327.226 50.1592C327.138 50.8964 327.059 51.5795 326.99 52.2086C326.681 54.9657 325.118 57.4279 322.759 58.9023L270.757 91.1768C270.757 91.1768 270.256 90.587 269.681 89.7319C272.438 87.9773 291.325 75.9463 300.717 70.5205C310.86 64.6672 320.061 59.8312 323.643 55.0247C325.059 53.108 326.283 51.4566 327.226 50.1592Z" fill="#BF7E0C"/>
<path d="M244.1 26.0232C244.1 30.5054 242.67 34.1324 240.901 34.1324C239.146 34.1324 237.716 30.5054 237.716 26.0232C237.716 21.5411 239.146 17.9141 240.901 17.9141C242.67 17.9141 244.1 21.5411 244.1 26.0232Z" fill="#FED762"/>
<path d="M244.101 44.1289C244.101 47.461 242.951 50.1592 241.535 50.1592C240.105 50.1592 238.955 47.461 238.955 44.1289C238.955 40.7968 240.105 38.0986 241.535 38.0986C242.951 38.0986 244.101 40.7968 244.101 44.1289Z" fill="#FED762"/>
<path d="M254.258 25.7297C254.258 28.4131 253.049 30.5804 251.575 30.5804C250.086 30.5804 248.877 28.4131 248.877 25.7297C248.877 23.0463 250.086 20.8789 251.575 20.8789C253.049 20.8789 254.258 23.0463 254.258 25.7297Z" fill="#FFEFC0"/>
<path d="M225.111 166.283C224.359 171.37 223.548 175.203 223.548 175.203C223.548 175.203 206.504 208.318 169.187 223.888L162.67 219.494L143.488 206.593C143.488 206.593 163.997 204.618 180.304 191.274C196.611 177.916 216.353 146.585 216.353 146.585C216.353 146.585 218.269 143.607 223.99 147.676C227.632 150.271 226.467 157.275 225.111 166.283Z" fill="#FECD3B"/>
<path d="M148.928 206.591C148.928 206.591 166.65 212.282 170.188 214.479C173.712 216.661 173.712 216.661 173.712 216.661C173.712 216.661 171.855 219.875 171.427 220.288C171.014 220.716 164.261 221.438 163.627 221.232C163.008 221.025 149.282 209.997 149.282 209.997L148.928 206.591Z" fill="#FFA810"/>
<path d="M199.263 419.111V437.556C196.373 437.811 193.484 438.067 190.594 438.323C188.569 438.499 186.539 438.676 184.505 438.853C184.043 438.893 183.581 438.932 183.119 438.971C172.916 439.876 162.718 440.78 152.525 441.684C151.129 441.812 149.714 441.925 148.279 442.023C145.242 428.297 145.581 415.278 151.685 393.501L192.319 415.381L192.909 415.705L199.263 419.111Z" fill="#381746"/>
<path d="M241.668 412.166L241.181 433.84C238.616 434.066 236.05 434.292 233.485 434.518C222.073 435.53 210.666 436.543 199.264 437.555C196.374 437.811 193.485 438.066 190.595 438.322L191.258 419.169L191.317 417.592L191.391 415.439L192.32 415.38L193.234 415.321L241.668 412.166Z" fill="#381746"/>
<path d="M241.668 412.166L241.181 433.84C238.616 434.066 236.05 434.292 233.485 434.518L233.809 420.747C233.809 420.747 221.645 420.747 205.737 421.057C203.157 421.101 201.033 421.071 199.264 420.953C194.104 420.659 192.069 419.848 191.258 419.169C190.639 418.668 190.772 418.241 190.772 418.241L191.317 417.592L192.91 415.705L193.234 415.321L241.668 412.166Z" fill="#050505"/>
<path d="M170.498 383.004C152.334 396.598 124.291 404.088 99.4473 402.141C98.1056 394.902 96.0268 388.208 90.4093 383.682C84.497 379.185 77.9359 378.418 71.1243 379.126C70.0774 364.78 71.0505 350.287 73.9551 336.192C76.8744 321.964 81.7546 308.134 88.5221 295.277L150.225 300.659C150.476 305.347 150.963 310.183 151.656 315.093C154.87 337.976 162.492 362.613 170.498 383.004Z" fill="#050505"/>
<path d="M245.118 287.58C231.347 301.351 231.347 301.351 231.347 301.351L212.327 291.369L223.827 276.965L227.322 272.586C227.322 272.586 220.215 264.624 228.56 256.677C241.078 244.233 262.619 239.987 266.408 259.464C270.197 278.925 258.888 273.809 245.118 287.58Z" fill="#FFA99C"/>
<path d="M230.034 275.461C227.926 276.537 225.596 278.233 224.417 277.51C224.21 277.363 224.004 277.186 223.827 276.965L227.321 272.586C227.321 272.586 228.339 274.694 230.034 275.461Z" fill="#F47D65"/>
<path d="M225.11 166.282C224.359 171.369 223.548 175.202 223.548 175.202C223.548 175.202 210.425 211.767 169.187 223.887L162.67 219.493C169.231 217.163 181.94 211.885 191.922 203.127C203.304 193.146 219.375 173.463 225.11 166.282Z" fill="#FFA810"/>
<path d="M365.531 422.916C363.653 423.073 361.8 423.22 359.972 423.358C359.51 423.387 359.043 423.422 358.571 423.461C352.644 423.982 346.717 424.508 340.79 425.039C340.731 400.524 340.672 376.015 340.613 351.511L354.458 354.636L362.626 356.494L365.531 422.916Z" fill="#050505"/>
<path d="M415.263 415.778C398.558 419.582 381.352 421.617 365.531 422.914C363.654 423.072 361.801 423.219 359.973 423.357C360.371 400.504 357.142 377.606 350.434 355.77L354.459 354.635L410.382 339.036C415.292 364.278 416.943 390.124 415.263 415.778Z" fill="#381746"/>
<path d="M349.975 365.663C349.975 365.663 387.823 362.345 391.774 351.936C395.726 341.542 339.168 344.255 339.168 344.255L341.453 354.856L349.975 365.663Z" fill="#050505"/>
<path d="M375.071 194.06C375.071 194.06 363.895 203.333 365.9 205.339C367.905 207.344 372.491 207.904 372.491 207.904L379.361 200.753L375.071 194.06Z" fill="#050505"/>
<path d="M249.614 343.402C245.294 383.417 249.098 403.749 243.481 410.443C237.863 417.151 233.057 416.164 209.791 418.876C206.901 419.201 204.011 419.378 201.107 419.392C180.701 419.466 160.679 411.696 148.456 399.326C145.95 396.79 145.891 390.598 147.424 382.37C148.22 378.065 149.444 373.214 150.978 368.025C156.624 348.916 166.459 325.252 174.347 308.253C175.762 305.201 177.133 302.385 178.475 299.775C181.497 293.936 184.328 289.159 187.026 285.326C197.804 269.948 206.12 269.432 213.374 273.634C214.833 274.474 216.75 275.713 218.932 277.335C231.553 286.771 253.3 309.285 249.614 343.402Z" fill="#3A78DD"/>
<path d="M201.372 419.081C201.372 419.125 201.283 419.228 201.106 419.39C180.701 419.464 160.679 411.694 148.456 399.324C144.637 395.461 146.495 383.179 150.977 368.022C150.682 379.478 153.454 397.628 172.061 405.973C200.34 418.668 201.372 418.447 201.372 419.081Z" fill="#2560B7"/>
<path d="M313.972 321.225C313.972 357.997 303.696 390.448 282.612 395.859C263.076 400.857 238.409 370.323 234.871 365.782C234.576 365.428 234.443 365.221 234.443 365.221L245.015 310.389C258.137 345.258 283.143 355.225 283.143 355.225C283.143 355.225 291.266 325 295.041 316.891C298.049 310.462 308.207 316.964 312.277 319.913C313.323 320.695 313.972 321.225 313.972 321.225Z" fill="#3A78DD"/>
<path d="M134.405 313.045C148.972 312.086 155.857 304.257 155.518 289.808C154.368 261.824 173.55 187.161 122.315 203.895C95.127 218.639 96.3065 254.983 88.3153 281.301C74.8394 314.327 112.318 314.77 134.405 313.045Z" fill="#FECD3B"/>
<path d="M150.654 244.145C150.654 244.145 143.458 263.208 145.641 262.899C147.823 262.589 159.986 250.883 157.642 247.919C155.298 244.955 150.654 244.145 150.654 244.145Z" fill="#EA9307"/>
<path d="M393.809 241.579C390.212 252.017 386.924 263.533 390.787 273.883L369.202 256.161C369.998 250.381 369.821 247.034 370.248 242.183C370.352 241.048 370.484 239.854 370.661 238.512C362.935 234.31 362.655 233.971 361.874 225.537C360.798 213.61 368.081 201.873 378.652 196.241C385.213 200.443 391.288 202.876 397.849 207.078C398.311 207.913 398.773 208.754 399.235 209.599C404.558 219.286 397.421 231.14 393.809 241.579Z" fill="#FFA99C"/>
<path d="M377.429 238.513C376.397 241.447 372.004 242.051 370.249 242.184C370.352 241.049 370.485 239.854 370.662 238.513C373.375 239.766 377.429 238.513 377.429 238.513Z" fill="#F47D65"/>
<path d="M369.336 246.547C369.336 246.547 394.754 243.746 395.374 246.385C395.993 249.039 392.72 256.839 392.72 257.311C392.72 257.768 388.827 258.092 385.082 257.768C381.337 257.458 372.447 256.529 372.447 256.529L369.336 246.547Z" fill="#050505"/>
<path d="M370.839 189.916C369.35 192.894 370.073 196.816 372.535 199.057C374.82 201.136 378.609 202.242 378.993 205.308C379.184 206.827 378.403 208.287 378.123 209.791C377.283 214.42 382.738 218.888 387.117 217.148C385.539 218.534 383.873 220.008 383.195 222.013C382.531 224.004 383.254 226.643 385.259 227.306C387.692 228.102 390.08 225.449 390.198 222.913C391.338 223.728 392.484 224.549 393.634 225.375C391.673 227.793 389.653 230.373 389.181 233.455C388.694 236.536 390.419 240.178 393.501 240.664C395.668 241.003 397.821 239.676 399.089 237.892C400.372 236.108 400.932 233.926 401.492 231.803C402.554 227.665 403.62 223.522 404.691 219.374C406.269 213.27 407.758 206.399 404.559 200.974C401.934 196.521 396.848 194.25 392.085 192.26C386.306 189.842 375.13 181.335 370.839 189.916Z" fill="#050505"/>
<path d="M335.114 328.126C329.114 359.25 360.769 360.518 389.136 354.001C415.572 350.61 419.376 344.757 414.363 316.331C409.719 290.676 405.664 247.948 385.951 249.865C323.304 255.984 341.1 297.149 335.114 328.126Z" fill="#FF2D60"/>
<path d="M257.959 134.921C256.927 137.162 254.804 138.681 252.887 140.243C246.901 145.094 244.174 152.732 241.092 159.779L239.072 159.307L225.699 156.093C224.196 147.409 223.119 136.307 228.073 129.023C232.334 122.595 236.168 120.059 238.998 118.732C240.09 118.216 241.018 117.892 241.785 117.582C240.989 124.187 237.642 136.027 239.352 137.472C242.345 139.978 243.849 138.99 246.783 136.41C249.703 133.815 251.133 133.727 254.671 132.061C256.072 131.397 257.414 131.795 257.974 132.739C258.298 133.314 258.357 134.066 257.959 134.921Z" fill="#FFA99C"/>
<path d="M257.96 134.922C256.928 137.163 254.805 138.682 252.888 140.245C246.902 145.096 244.175 152.733 241.093 159.781L239.073 159.309C240.223 156.537 244.823 145.435 247.816 142.398C251.207 138.918 255.439 137.06 256.338 135.674C256.84 134.893 257.488 133.684 257.975 132.74C258.299 133.315 258.358 134.067 257.96 134.922Z" fill="#F47D65"/>
<path d="M145.228 163.584C145.228 163.584 154.649 170.44 155.062 183.179C155.519 197.628 148.058 198.689 148.058 198.689L133.595 191.509L134.583 167.55L145.228 163.584Z" fill="#FFA99C"/>
<path d="M234.398 181.424C230.594 188.9 225.36 198.955 219.256 210.101C206.4 233.588 194.722 227.573 175.85 222.162C158.128 217.06 148.928 206.592 148.928 206.592L150.24 235.181L150.653 244.145C171.265 261.307 209.717 260.953 228.486 239.943C239.367 227.779 245.943 207.978 249.54 193.485C249.968 191.76 250.351 190.109 250.69 188.56C247.756 182.81 242.168 180.643 234.398 181.424Z" fill="#FECD3B"/>
<path d="M249.541 193.484C245.943 207.978 239.367 227.779 228.486 239.942C209.717 260.953 171.265 261.306 150.653 244.144L150.24 235.18C156.639 240.223 168.788 248.17 182.529 248.848C202.788 249.836 230.226 238.217 236.404 224.373C240.267 215.718 245.884 202.301 249.541 193.484Z" fill="#FFA810"/>
<path d="M218.932 277.334C219.296 278.257 219.679 279.172 220.082 280.076L186.436 296.81L178.504 300.762C178.504 300.762 178.489 300.423 178.475 299.774C178.313 292.977 177.59 252.637 183.075 230.905C189.09 207.108 224.741 153.028 224.741 153.028C224.741 153.028 225.346 152.806 226.333 152.57C230.064 151.656 239.161 150.403 241.299 158.955C243.952 169.57 199.293 227.897 218.932 277.334Z" fill="#3A78DD"/>
<path d="M313.971 321.225C313.971 357.997 303.695 390.448 282.611 395.859C263.075 400.857 238.409 370.323 234.87 365.781C235.342 364.882 235.946 364.44 236.728 365.015C239.22 366.887 243.79 368.14 247.329 371.458C250.867 374.79 268.516 389.431 282.67 386.231C293.698 383.725 300.141 382.899 306.378 355.24C310.683 336.176 311.922 325.014 312.276 319.913C313.323 320.695 313.971 321.225 313.971 321.225Z" fill="#2560B7"/>
<path d="M187.026 285.325C186.996 289.276 186.834 293.124 186.436 296.81C186.053 300.437 185.448 303.917 184.534 307.205C178.917 327.477 150.844 385.185 150.844 385.185L147.424 382.369C148.22 378.064 149.444 373.213 150.977 368.023C156.624 348.915 166.458 325.251 174.346 308.251C175.762 305.199 177.133 302.383 178.475 299.774C178.312 292.977 177.59 252.637 183.075 230.905C189.09 207.108 224.741 153.027 224.741 153.027C224.741 153.027 225.345 152.806 226.333 152.57C219.669 163.009 188.353 213.153 186.407 235.166C184.932 251.708 187.129 269.372 187.026 285.325Z" fill="#2560B7"/>
<path d="M182.971 433.059C182.971 433.059 183.089 436.081 184.505 438.853C184.043 438.892 183.581 438.932 183.119 438.971C182.573 436.966 182.249 434.666 182.971 433.059Z" fill="#050505"/>
<path d="M382.59 256.014C382.472 256.014 382.369 255.984 382.265 255.925L375.719 251.708C375.454 251.546 375.365 251.178 375.542 250.912C375.719 250.632 376.088 250.558 376.353 250.735L382.899 254.952C383.18 255.114 383.253 255.483 383.076 255.748C382.973 255.925 382.782 256.014 382.59 256.014Z" fill="#0C0A0A"/>
<path d="M239.354 137.472C235.108 135.378 237.924 122.905 239 118.732C240.091 118.216 241.02 117.892 241.787 117.582C240.99 124.187 237.644 136.027 239.354 137.472Z" fill="#F47D65"/>
<path d="M376.044 252.105L348.518 294.17C348.252 293.256 347.977 292.346 347.692 291.442C339.819 266.525 325.148 244.306 313.648 220.789C302.177 197.302 284.927 180.17 284.322 157.936C284.303 157.081 284.293 156.23 284.293 155.385L300.88 149.296C312.926 187.704 347.839 223.369 376.044 252.105Z" fill="#FF2D60"/>
<path d="M347.692 291.443C339.818 266.526 321.418 247.771 309.918 224.24C298.447 200.768 284.927 180.17 284.322 157.937L290.824 161.446C290.824 161.446 295.572 186.038 313.663 220.038C330.087 250.926 352.542 271.848 347.692 291.443Z" fill="#B20E36"/>
<path d="M284.102 165.132C284.102 165.132 304.802 163.082 305.215 159.883C305.628 156.684 300.644 149.002 300.644 149.002C300.644 149.002 283.482 154.31 283.173 155.091C282.863 155.858 284.102 165.132 284.102 165.132Z" fill="#050505"/>
<path d="M270.979 242.302C268.796 238.689 263.607 232.747 259.39 232.983C256.618 233.131 255.365 234.989 254.804 236.846C253.404 234.723 251.34 232.954 248.465 233.293C241.918 234.074 243.643 241.712 243.643 241.712C243.643 241.712 237.244 242.021 237.244 246.386C237.244 248.582 238.586 250.19 239.928 251.251C239.859 251.693 239.825 252.141 239.825 252.593C239.825 261.793 239.117 265.42 239.117 265.42L231.627 277.584C231.627 277.584 233.175 290.986 246.282 290.986C259.405 290.986 266.378 287.344 271.244 272.748C275.269 260.658 277.407 248.111 270.979 242.302Z" fill="#050505"/>
<path d="M376.147 215.247C376.088 215.276 376 215.232 375.897 215.158C375.847 215.109 375.793 215.055 375.734 214.996C375.675 214.937 375.602 214.863 375.528 214.79C375.233 214.48 374.82 214.097 374.304 213.728C373.287 212.976 372.284 212.534 372.343 212.283C372.373 212.165 372.682 212.136 373.154 212.224C373.611 212.327 374.245 212.563 374.835 213.006C375.44 213.433 375.867 213.994 376.059 214.436C376.103 214.554 376.147 214.657 376.177 214.745C376.196 214.844 376.206 214.927 376.206 214.996C376.216 215.144 376.196 215.227 376.147 215.247Z" fill="#060606"/>
<path d="M366.475 208.597C366.504 208.479 366.799 208.464 367.197 208.612C367.595 208.759 368.082 209.054 368.553 209.467C369.482 210.263 369.984 211.133 369.792 211.295C369.615 211.472 368.834 210.897 367.964 210.145C367.521 209.762 367.138 209.408 366.873 209.157C366.607 208.892 366.43 208.715 366.475 208.597Z" fill="#060606"/>
<path d="M365.221 222.353C365.147 222.353 365.073 222.324 365.029 222.279C364.926 222.176 362.567 219.95 362.154 218.741C361.992 218.269 362.257 217.517 365.545 215.512C367.3 214.436 369.128 213.492 369.143 213.492C369.29 213.418 369.467 213.463 369.541 213.61C369.615 213.757 369.556 213.934 369.408 214.008C369.393 214.008 367.624 214.922 365.914 215.984C362.626 217.974 362.7 218.534 362.7 218.549C363.009 219.449 364.764 221.233 365.427 221.852C365.545 221.955 365.545 222.147 365.442 222.265C365.383 222.324 365.295 222.353 365.221 222.353Z" fill="#050505"/>
<path d="M370.279 223.519C370.338 223.533 370.368 223.637 370.382 223.799C370.382 223.873 370.368 223.976 370.353 224.094C370.323 224.197 370.309 224.33 370.264 224.462C370.176 224.742 370.028 225.067 369.778 225.391C369.66 225.553 369.498 225.701 369.321 225.848C369.129 225.981 368.923 226.099 368.687 226.187C368.436 226.261 368.2 226.291 367.979 226.305C367.743 226.305 367.527 226.281 367.33 226.232C366.947 226.143 366.623 225.981 366.387 225.834C365.9 225.524 365.694 225.214 365.767 225.111C365.841 225.008 366.151 225.126 366.637 225.259C367.124 225.376 367.802 225.539 368.392 225.332C368.996 225.141 369.409 224.595 369.689 224.182C369.97 223.769 370.161 223.489 370.279 223.519Z" fill="#060606"/>
<path d="M373.227 216.043C372.8 216.707 372.107 217.031 371.679 216.751C371.252 216.486 371.252 215.719 371.679 215.055C372.107 214.392 372.8 214.067 373.227 214.333C373.655 214.613 373.655 215.38 373.227 216.043Z" fill="#050505"/>
<path d="M367.788 212.755C367.36 213.419 366.667 213.743 366.24 213.463C365.812 213.183 365.812 212.431 366.24 211.767C366.667 211.089 367.36 210.779 367.788 211.045C368.215 211.325 368.215 212.077 367.788 212.755Z" fill="#050505"/>
<path d="M239.53 250.028C239.53 250.028 232.674 260.836 234.547 260.526C236.404 260.216 238.498 258.034 239.53 259.7C240.577 261.366 243.481 254.496 243.378 253.567C243.275 252.623 239.53 250.028 239.53 250.028Z" fill="#050505"/>
<path d="M142.426 150.167C135.231 149.548 129.953 154.074 131.191 159.869C128.139 156.787 122.374 157.111 119.691 160.517C117.317 163.54 117.863 168.346 120.59 170.956C117.774 169.585 113.528 172.091 112.85 175.482C112.054 179.39 114.295 183.223 116.654 186.437C111.464 184.122 104.726 186.128 101.63 190.905C98.091 196.36 101.482 201.845 100.907 207.654C100.347 213.433 96.6756 219.419 102.75 223.901C107.601 227.484 115.607 225.081 117.7 219.434C118.733 224.757 124.822 228.502 130.041 226.998C135.26 225.494 138.445 219.095 136.484 214.023C140.185 216.736 145.965 215.365 148.574 211.59C151.184 207.816 150.727 202.42 148.058 198.689C147.291 197.613 146.377 196.684 145.345 195.873C145.449 195.903 145.493 195.918 145.493 195.918C145.493 195.918 144.195 191.185 145.124 188.899C146.068 186.614 143.989 182.147 143.989 182.147L143.001 181.07C143.075 179.375 142.795 177.724 142.072 176.22C143.089 175.202 144.21 173.92 145.036 172.578C149.96 170.617 152.555 169.629 153.543 163.953C154.796 156.831 149.621 150.786 142.426 150.167Z" fill="#050505"/>
<path d="M87.2249 412.314C87.2249 420.408 79.8235 426.969 70.6822 426.969C61.5557 426.969 54.1543 420.408 54.1543 412.314C54.1543 404.219 61.5557 397.644 70.6822 397.644C79.8235 397.644 87.2249 404.219 87.2249 412.314Z" fill="#EBE9DA"/>
<path d="M298.756 149.135L294.908 152.497L288.022 155.136C288.022 154.826 274.296 142.25 272.32 132.99C270.875 126.238 270.978 124.749 271.435 123.908C272.025 126.71 273.676 133.108 277.141 136.455C281.638 140.819 288.435 149.695 288.435 149.695C288.435 149.695 294.185 149.209 295.158 149.209C296.131 149.209 298.756 149.135 298.756 149.135Z" fill="#FFA99C"/>
<path d="M235.519 176.204C235.328 176.204 235.136 176.116 235.033 175.939C233.057 172.975 227.808 170.13 227.749 170.1C227.469 169.953 227.366 169.599 227.513 169.304C227.661 169.024 228.015 168.921 228.31 169.068C228.531 169.201 233.868 172.091 235.991 175.29C236.183 175.555 236.109 175.924 235.844 176.101C235.74 176.175 235.623 176.204 235.519 176.204Z" fill="#0C0A0A"/>
<path d="M231.789 163.761C231.273 164.867 230.02 165.353 228.973 164.867C227.926 164.38 227.499 163.097 228.015 162.006C228.516 160.915 229.769 160.429 230.816 160.915C231.863 161.402 232.29 162.67 231.789 163.761Z" fill="#050505"/>
<path d="M302.206 331.002C302.088 331.002 301.97 330.972 301.867 330.898C298.019 328.082 291.989 328.2 291.93 328.2C291.605 328.2 291.34 327.95 291.325 327.625C291.325 327.316 291.576 327.036 291.9 327.036C292.166 327.021 298.388 326.903 302.545 329.955C302.811 330.146 302.87 330.5 302.678 330.766C302.56 330.928 302.383 331.002 302.206 331.002Z" fill="#0C0A0A"/>
<path d="M301.234 325.294C300.733 326.385 299.465 326.886 298.433 326.399C297.386 325.913 296.958 324.63 297.459 323.539C297.975 322.448 299.229 321.947 300.276 322.433C301.308 322.92 301.75 324.203 301.234 325.294Z" fill="#050505"/>
<path d="M18.6216 298.301C18.6216 308.577 10.2765 316.908 0 316.908C10.2765 316.908 18.6216 325.253 18.6216 335.529C18.6216 325.253 26.9519 316.908 37.2284 316.908C26.9519 316.908 18.6216 308.577 18.6216 298.301Z" fill="#EBE9DA"/>
<path d="M465.877 193.499C465.877 201.372 459.492 207.742 451.619 207.742C459.492 207.742 465.877 214.126 465.877 221.999C465.877 214.126 472.261 207.742 480.119 207.742C472.261 207.742 465.877 201.372 465.877 193.499Z" fill="#EBE9DA"/>
<path d="M66.7151 248.228C66.7151 259.36 57.6918 268.383 46.5749 268.383C35.4432 268.383 26.4199 259.36 26.4199 248.228C26.4199 237.096 35.4432 228.088 46.5749 228.088C57.6918 228.088 66.7151 237.096 66.7151 248.228Z" fill="#FECD3B"/>
<path d="M46.574 247.049C44.1118 247.049 42.1361 245.014 42.2245 242.523C42.313 240.282 44.1413 238.439 46.3971 238.35C48.6234 238.277 50.4811 239.854 50.8497 241.948C50.9235 242.375 51.2921 242.7 51.7344 242.7C52.2799 242.7 52.7075 242.198 52.6043 241.653C52.103 238.719 49.508 236.493 46.4266 236.566C43.1681 236.655 40.5142 239.294 40.4405 242.552C40.3521 246.002 43.1387 248.833 46.574 248.833C49.0215 248.833 51.0119 250.868 50.9087 253.345C50.8202 255.601 48.992 257.429 46.7362 257.517C44.5246 257.606 42.6521 256.028 42.2835 253.92C42.2098 253.492 41.8412 253.183 41.4136 253.183C40.8534 253.183 40.4258 253.684 40.529 254.229C41.0303 257.163 43.6252 259.375 46.7214 259.301C49.9651 259.228 52.619 256.574 52.6927 253.33C52.7812 249.865 50.0093 247.049 46.574 247.049Z" fill="white"/>
<path d="M46.5731 233.838C46.0866 233.838 45.6885 234.192 45.6885 234.634V261.837C45.6885 262.264 46.0866 262.618 46.5731 262.618C47.0597 262.618 47.443 262.264 47.443 261.837V234.634C47.443 234.192 47.0597 233.838 46.5731 233.838Z" fill="white"/>
<path d="M370.44 160.709C370.44 171.84 361.416 180.863 350.285 180.863C339.153 180.863 330.13 171.84 330.13 160.709C330.13 149.577 339.153 140.568 350.285 140.568C361.416 140.568 370.44 149.577 370.44 160.709Z" fill="#FECD3B"/>
<path d="M350.286 159.529C347.824 159.529 345.848 157.494 345.952 155.017C346.025 152.761 347.868 150.918 350.124 150.83C352.336 150.756 354.208 152.334 354.562 154.427C354.65 154.855 355.019 155.179 355.447 155.179C356.007 155.179 356.42 154.678 356.331 154.132C355.83 151.198 353.235 148.972 350.139 149.046C346.88 149.134 344.241 151.773 344.153 155.032C344.079 158.482 346.851 161.313 350.286 161.313C352.749 161.313 354.724 163.347 354.636 165.824C354.547 168.08 352.704 169.908 350.463 169.997C348.237 170.085 346.364 168.508 346.011 166.399C345.937 165.972 345.568 165.662 345.126 165.662C344.566 165.662 344.153 166.163 344.241 166.709C344.757 169.643 347.338 171.855 350.434 171.781C353.692 171.707 356.346 169.053 356.42 165.81C356.493 162.345 353.722 159.529 350.286 159.529Z" fill="white"/>
<path d="M350.285 146.318C349.798 146.318 349.4 146.672 349.4 147.115V174.317C349.4 174.745 349.798 175.098 350.285 175.098C350.772 175.098 351.17 174.745 351.17 174.317V147.115C351.17 146.672 350.772 146.318 350.285 146.318Z" fill="white"/>
<path d="M506.306 277.598C506.306 284.616 500.615 290.307 493.597 290.307C486.579 290.307 480.888 284.616 480.888 277.598C480.888 270.58 486.579 264.889 493.597 264.889C500.615 264.889 506.306 270.58 506.306 277.598Z" fill="#FECD3B"/>
<path d="M493.597 276.848C492.049 276.848 490.795 275.565 490.854 274.002C490.913 272.572 492.078 271.422 493.494 271.363C494.894 271.319 496.074 272.306 496.295 273.633C496.339 273.899 496.575 274.105 496.855 274.105C497.209 274.105 497.474 273.796 497.415 273.442C497.091 271.599 495.455 270.198 493.508 270.242C491.459 270.286 489.778 271.967 489.734 274.017C489.675 276.184 491.429 277.968 493.597 277.968C495.145 277.968 496.398 279.251 496.339 280.814C496.28 282.244 495.13 283.394 493.7 283.453C492.299 283.512 491.135 282.509 490.899 281.182C490.854 280.917 490.619 280.71 490.338 280.71C489.999 280.71 489.734 281.035 489.793 281.374C490.103 283.232 491.739 284.618 493.685 284.573C495.749 284.529 497.416 282.863 497.46 280.799C497.519 278.632 495.764 276.848 493.597 276.848Z" fill="white"/>
<path d="M493.596 268.516C493.287 268.516 493.051 268.737 493.051 269.017V286.164C493.051 286.444 493.287 286.665 493.596 286.665C493.906 286.665 494.157 286.444 494.157 286.164V269.017C494.157 268.737 493.906 268.516 493.596 268.516Z" fill="white"/>
</svg>
