<svg width="262" height="184" viewBox="0 0 262 184" fill="none" xmlns="http://www.w3.org/2000/svg">
<path d="M247.072 92.1639C247.072 91.3692 246.426 90.7226 245.631 90.7226H171.994C171.199 90.7226 170.553 91.3692 170.553 92.1639V118.076C170.553 118.87 171.199 119.517 171.994 119.517H245.631C246.426 119.517 247.072 118.87 247.072 118.076V92.1639Z" fill="white"/>
<path d="M200.726 97.0487C200.757 96.9942 200.811 96.963 200.874 96.963C200.936 96.963 200.991 96.9942 201.03 97.0487L201.949 98.5367C201.975 98.5783 202.009 98.612 202.05 98.638C202.086 98.6692 202.128 98.6899 202.175 98.7003L203.881 99.121C203.943 99.1366 203.99 99.1756 204.006 99.2379C204.029 99.2924 204.013 99.3625 203.974 99.4093L202.837 100.749C202.811 100.786 202.79 100.827 202.775 100.874C202.759 100.915 202.754 100.96 202.759 101.006L202.884 102.759C202.892 102.822 202.86 102.884 202.814 102.923C202.759 102.954 202.697 102.962 202.642 102.938L201.014 102.276C200.967 102.261 200.92 102.253 200.874 102.253C200.827 102.253 200.783 102.261 200.741 102.276L199.113 102.938C199.051 102.962 198.988 102.954 198.942 102.923C198.887 102.884 198.864 102.822 198.864 102.759L198.996 101.006C199.001 100.96 198.996 100.915 198.981 100.874C198.965 100.827 198.942 100.786 198.91 100.749L197.773 99.4093C197.734 99.3625 197.726 99.2924 197.742 99.2379C197.765 99.1756 197.812 99.1366 197.867 99.121L199.573 98.7003C199.619 98.6899 199.664 98.6692 199.705 98.638C199.741 98.612 199.773 98.5783 199.799 98.5367L200.726 97.0487ZM207.94 97.0487C207.971 96.9942 208.033 96.963 208.096 96.963C208.15 96.963 208.213 96.9942 208.244 97.0487L209.171 98.5367C209.197 98.5783 209.228 98.612 209.264 98.638C209.301 98.6692 209.342 98.6899 209.389 98.7003L211.095 99.121C211.157 99.1366 211.204 99.1756 211.227 99.2379C211.243 99.2924 211.235 99.3625 211.189 99.4093L210.059 100.749C210.028 100.786 210.004 100.827 209.989 100.874C209.973 100.915 209.968 100.96 209.973 101.006L210.098 102.759C210.106 102.822 210.074 102.884 210.028 102.923C209.981 102.954 209.911 102.962 209.856 102.938L208.228 102.276C208.187 102.261 208.142 102.253 208.096 102.253C208.044 102.253 207.997 102.261 207.955 102.276L206.327 102.938C206.273 102.962 206.203 102.954 206.156 102.923C206.109 102.884 206.078 102.822 206.086 102.759L206.21 101.006C206.216 100.96 206.21 100.915 206.195 100.874C206.179 100.827 206.156 100.786 206.125 100.749L204.995 99.4093C204.956 99.3625 204.94 99.2924 204.956 99.2379C204.979 99.1756 205.026 99.1366 205.088 99.121L206.795 98.7003C206.841 98.6899 206.883 98.6692 206.919 98.638C206.961 98.612 206.992 98.5783 207.013 98.5367L207.94 97.0487ZM215.162 97.0487C215.193 97.002 215.247 96.963 215.31 96.963C215.372 96.963 215.427 97.002 215.458 97.0487L216.385 98.5445C216.411 98.5861 216.445 98.6198 216.486 98.6458C216.523 98.677 216.564 98.6977 216.611 98.7081L218.317 99.1288C218.379 99.1366 218.426 99.1834 218.442 99.2457C218.465 99.3002 218.449 99.3625 218.41 99.4093L217.273 100.757C217.242 100.793 217.221 100.832 217.211 100.874C217.195 100.921 217.187 100.967 217.187 101.014L217.32 102.767C217.32 102.829 217.296 102.892 217.25 102.923C217.195 102.962 217.133 102.97 217.078 102.946L215.45 102.284C215.403 102.263 215.357 102.253 215.31 102.253C215.263 102.253 215.216 102.263 215.17 102.284L213.549 102.946C213.487 102.97 213.424 102.962 213.378 102.923C213.323 102.892 213.3 102.829 213.3 102.767L213.432 101.014C213.432 100.967 213.427 100.921 213.417 100.874C213.401 100.832 213.378 100.793 213.347 100.757L212.209 99.4093C212.17 99.3625 212.155 99.3002 212.178 99.2457C212.194 99.1834 212.248 99.1366 212.303 99.1288L214.009 98.7081C214.055 98.6977 214.1 98.677 214.141 98.6458C214.178 98.6198 214.209 98.5861 214.235 98.5445L215.162 97.0487ZM222.376 97.0487C222.407 97.002 222.462 96.963 222.524 96.963C222.586 96.963 222.649 97.002 222.68 97.0487L223.607 98.5445C223.628 98.5861 223.659 98.6198 223.7 98.6458C223.737 98.677 223.778 98.6977 223.825 98.7081L225.531 99.1288C225.593 99.1366 225.64 99.1834 225.656 99.2457C225.679 99.3002 225.664 99.3625 225.625 99.4093L224.495 100.757C224.464 100.793 224.44 100.832 224.425 100.874C224.409 100.921 224.404 100.967 224.409 101.014L224.534 102.767C224.542 102.829 224.511 102.892 224.464 102.923C224.409 102.962 224.347 102.97 224.292 102.946L222.664 102.284C222.623 102.263 222.576 102.253 222.524 102.253C222.477 102.253 222.433 102.263 222.391 102.284L220.763 102.946C220.709 102.97 220.639 102.962 220.592 102.923C220.537 102.892 220.514 102.829 220.522 102.767L220.646 101.014C220.652 100.967 220.646 100.921 220.631 100.874C220.615 100.832 220.592 100.793 220.561 100.757L219.431 99.4093C219.384 99.3625 219.377 99.3002 219.392 99.2457C219.415 99.1834 219.462 99.1366 219.517 99.1288L221.231 98.7081C221.272 98.6977 221.314 98.677 221.355 98.6458C221.392 98.6198 221.423 98.5861 221.449 98.5445L222.376 97.0487ZM229.59 97.0487C229.621 97.002 229.684 96.963 229.746 96.963C229.808 96.963 229.863 97.002 229.894 97.0487L230.821 98.5445C230.847 98.5861 230.878 98.6198 230.914 98.6458C230.956 98.677 230.998 98.6977 231.039 98.7081L232.753 99.1288C232.808 99.1366 232.854 99.1834 232.878 99.2457C232.893 99.3002 232.885 99.3625 232.847 99.4093L231.709 100.757C231.678 100.793 231.655 100.832 231.639 100.874C231.623 100.921 231.618 100.967 231.623 101.014L231.756 102.767C231.756 102.829 231.732 102.892 231.678 102.923C231.631 102.962 231.561 102.97 231.507 102.946L229.878 102.284C229.837 102.263 229.793 102.253 229.746 102.253C229.699 102.253 229.652 102.263 229.606 102.284L227.977 102.946C227.923 102.97 227.861 102.962 227.806 102.923C227.759 102.892 227.728 102.829 227.736 102.767L227.861 101.014C227.866 100.967 227.861 100.921 227.845 100.874C227.829 100.832 227.806 100.793 227.775 100.757L226.645 99.4093C226.606 99.3625 226.591 99.3002 226.614 99.2457C226.63 99.1834 226.676 99.1366 226.739 99.1288L228.445 98.7081C228.492 98.6977 228.533 98.677 228.569 98.6458C228.611 98.6198 228.642 98.5861 228.663 98.5445L229.59 97.0487Z" fill="#4C6BA9"/>
<path d="M218.59 106.273V107.06C218.59 107.083 218.574 107.099 218.551 107.099H197.781C197.75 107.099 197.734 107.083 197.734 107.06V106.273C197.734 106.249 197.75 106.234 197.781 106.234H218.551C218.574 106.234 218.59 106.249 218.59 106.273ZM242.647 106.273V107.06C242.647 107.083 242.624 107.099 242.601 107.099H220.366C220.343 107.099 220.327 107.083 220.327 107.06V106.273C220.327 106.249 220.343 106.234 220.366 106.234H242.601C242.624 106.234 242.647 106.249 242.647 106.273ZM207.496 109.366V110.145C207.496 110.168 207.48 110.192 207.457 110.192H197.781C197.75 110.192 197.734 110.168 197.734 110.145V109.366C197.734 109.342 197.75 109.319 197.781 109.319H207.457C207.48 109.319 207.496 109.342 207.496 109.366ZM225.508 109.366V110.145C225.508 110.168 225.485 110.192 225.461 110.192H208.859C208.836 110.192 208.813 110.168 208.813 110.145V109.366C208.813 109.342 208.836 109.319 208.859 109.319H225.461C225.485 109.319 225.508 109.342 225.508 109.366ZM242.647 109.366V110.145C242.647 110.168 242.624 110.192 242.601 110.192H227.596C227.573 110.192 227.549 110.168 227.549 110.145V109.366C227.549 109.342 227.573 109.319 227.596 109.319H242.601C242.624 109.319 242.647 109.342 242.647 109.366ZM212.833 112.451V113.238C212.833 113.261 212.809 113.277 212.786 113.277H197.781C197.75 113.277 197.734 113.261 197.734 113.238V112.451C197.734 112.427 197.75 112.412 197.781 112.412H212.786C212.809 112.412 212.833 112.427 212.833 112.451Z" fill="#96ABD5"/>
<path d="M194.47 105.091C194.47 99.9877 190.333 95.8508 185.23 95.8508C180.135 95.8508 175.99 99.9877 175.99 105.091C175.99 110.186 180.135 114.33 185.23 114.33C190.333 114.33 194.47 110.186 194.47 105.091Z" fill="#9482ED"/>
<path d="M182.511 104.054C182.511 104.054 182.044 103.626 181.787 104.218C181.53 104.802 182.176 105.441 182.675 105.145L182.511 104.054Z" fill="#F68580"/>
<path d="M187.918 104.054C187.918 104.054 188.385 103.626 188.642 104.218C188.899 104.802 188.253 105.441 187.754 105.145L187.918 104.054Z" fill="#F68580"/>
<path d="M184.146 106.703V108.269C184.801 109.336 185.51 109.22 186.32 108.269V106.703H184.146Z" fill="#F68580"/>
<path d="M177.836 110.622C178.342 110.123 179.417 109.11 180.189 108.752C181.264 108.261 184.146 107.926 184.146 107.926C184.146 107.926 184.629 108.947 185.229 108.947C185.993 108.939 186.32 107.918 186.32 107.918C186.32 107.918 189.686 108.246 190.761 108.744C191.47 109.071 192.28 109.96 192.724 110.489C191.049 112.811 188.314 114.33 185.229 114.33C182.206 114.33 179.527 112.873 177.836 110.622Z" fill="white"/>
<path d="M186.888 107.981C186.888 107.981 186.886 107.983 186.881 107.989C186.881 107.989 186.717 108.557 186.335 109.001C186.07 109.313 185.712 109.562 185.229 109.554C184.839 109.547 184.473 109.305 184.177 109.009C183.741 108.581 183.445 108.051 183.445 108.051C183.44 108.04 183.437 108.03 183.437 108.02C183.494 108.015 183.549 108.007 183.601 107.996C183.663 108.113 183.92 108.542 184.286 108.9C184.559 109.165 184.886 109.391 185.237 109.399C185.657 109.399 185.985 109.173 186.218 108.9C186.546 108.518 186.701 108.043 186.725 107.957C186.777 107.963 186.831 107.97 186.888 107.981ZM190.176 112.897L189.779 111.564C189.763 111.518 189.786 111.479 189.825 111.463C189.872 111.448 189.919 111.471 189.927 111.518L190.308 112.803C190.267 112.834 190.223 112.865 190.176 112.897ZM180.516 113.029C180.516 113.029 180.516 113.027 180.516 113.021L180.967 111.518C180.975 111.471 181.022 111.448 181.061 111.463C181.108 111.479 181.131 111.518 181.116 111.564L180.671 113.068C180.666 113.084 180.656 113.097 180.64 113.107C180.599 113.081 180.557 113.055 180.516 113.029Z" fill="#2D4676"/>
<path d="M182.348 102.27C182.348 102.27 182.301 106.002 183.275 106.703C184.638 107.692 186.212 107.506 187.202 106.703C188.323 105.792 188.105 102.27 188.105 102.27H182.348Z" fill="#FFC0BD"/>
<path d="M182.598 104.857C182.598 104.857 182.691 103.26 183.135 102.979C183.486 102.761 184.288 103.143 185.231 103.174C186.049 103.213 187.015 102.87 187.389 102.979C187.95 103.143 187.934 104.779 187.934 104.779L188.067 103.961C188.067 103.961 188.316 103.774 188.565 104.078C188.706 103.797 188.721 103.346 188.783 102.979C189.017 101.647 188.503 99.9254 187.716 100.237C187.155 98.5932 183.704 100.315 181.974 99.3256C181.671 99.7073 181.974 101.071 182.411 101.273C181.951 101.304 181.717 101.016 181.717 101.016C181.717 101.016 181.484 102.917 181.865 104.078C182.029 103.766 182.403 103.945 182.457 104.078C182.496 104.234 182.535 104.623 182.598 104.857Z" fill="#873D26"/>
<path fill-rule="evenodd" clip-rule="evenodd" d="M247.189 92.1638V118.076C247.189 118.932 246.488 119.634 245.631 119.634H171.994C171.137 119.634 170.436 118.932 170.436 118.076V92.1638C170.436 91.3069 171.137 90.6057 171.994 90.6057H245.631C246.488 90.6057 247.189 91.3069 247.189 92.1638ZM246.955 92.1638C246.955 91.4315 246.363 90.8394 245.631 90.8394H171.994C171.269 90.8394 170.669 91.4315 170.669 92.1638V118.076C170.669 118.808 171.269 119.4 171.994 119.4H245.631C246.363 119.4 246.955 118.808 246.955 118.076V92.1638Z" fill="#AFC0E0"/>
<path d="M214.798 39.0001C214.798 36.7876 212.998 34.9957 210.786 34.9957H58.3305C56.118 34.9957 54.3184 36.7876 54.3184 39.0001V71.0664C54.3184 73.279 56.118 75.0786 58.3305 75.0786H210.786C212.998 75.0786 214.798 73.279 214.798 71.0664V39.0001Z" fill="white"/>
<path d="M74.6979 43.0825C74.8304 42.8643 75.0641 42.7319 75.3134 42.7319C75.5705 42.7319 75.8042 42.8643 75.9366 43.0825L79.7385 49.2137C79.8397 49.3773 79.9722 49.5175 80.128 49.6344C80.2838 49.7435 80.463 49.8292 80.65 49.8759L87.6538 51.5976C87.9031 51.6522 88.0978 51.8391 88.1757 52.0806C88.2536 52.3144 88.1991 52.5792 88.0355 52.774L83.3845 58.282C83.2598 58.43 83.1586 58.6014 83.104 58.7884C83.0417 58.9676 83.0183 59.1623 83.0339 59.3571L83.5637 66.5479C83.5793 66.805 83.4702 67.0465 83.2598 67.1945C83.0573 67.3425 82.7924 67.3737 82.5587 67.2802L75.8821 64.5535C75.7029 64.4756 75.5081 64.4444 75.3134 64.4444C75.1264 64.4444 74.9316 64.4756 74.7525 64.5535L68.0759 67.2802C67.8422 67.3737 67.5773 67.3425 67.3669 67.1945C67.1644 67.0465 67.0553 66.805 67.0709 66.5479L67.6006 59.3571C67.6162 59.1623 67.5928 58.9676 67.5305 58.7884C67.4682 58.6014 67.3747 58.43 67.2501 58.282L62.5991 52.774C62.4354 52.5792 62.3809 52.3144 62.4588 52.0806C62.5367 51.8391 62.7315 51.6522 62.9808 51.5976L69.9846 49.8759C70.1716 49.8292 70.3507 49.7435 70.5066 49.6344C70.6624 49.5175 70.7948 49.3773 70.8961 49.2137L74.6979 43.0825Z" fill="#FEBB48"/>
<path d="M104.319 43.0825C104.451 42.8643 104.685 42.7319 104.934 42.7319C105.192 42.7319 105.425 42.8643 105.558 43.0825L109.36 49.2137C109.461 49.3773 109.593 49.5175 109.749 49.6344C109.905 49.7435 110.084 49.8292 110.271 49.8759L117.275 51.5976C117.524 51.6522 117.719 51.8391 117.797 52.0806C117.875 52.3144 117.82 52.5792 117.657 52.774L113.006 58.282C112.881 58.43 112.78 58.6014 112.725 58.7884C112.663 58.9676 112.639 59.1623 112.655 59.3571L113.185 66.5479C113.2 66.805 113.091 67.0465 112.881 67.1945C112.678 67.3425 112.413 67.3737 112.18 67.2802L105.503 64.5535C105.324 64.4756 105.129 64.4444 104.934 64.4444C104.748 64.4444 104.553 64.4756 104.374 64.5535L97.697 67.2802C97.4632 67.3737 97.1984 67.3425 96.988 67.1945C96.7855 67.0465 96.6764 66.805 96.692 66.5479L97.2217 59.3571C97.2373 59.1623 97.2139 58.9676 97.1516 58.7884C97.0893 58.6014 96.9958 58.43 96.8712 58.282L92.2201 52.774C92.0565 52.5792 92.002 52.3144 92.0799 52.0806C92.1578 51.8391 92.3526 51.6522 92.6019 51.5976L99.6057 49.8759C99.7926 49.8292 99.9718 49.7435 100.128 49.6344C100.283 49.5175 100.416 49.3773 100.517 49.2137L104.319 43.0825Z" fill="#FEBB48"/>
<path d="M133.938 43.0825C134.071 42.8643 134.304 42.7319 134.554 42.7319C134.811 42.7319 135.044 42.8643 135.177 43.0825L138.979 49.2137C139.08 49.3773 139.212 49.5175 139.368 49.6344C139.524 49.7435 139.703 49.8292 139.89 49.8759L146.894 51.5976C147.143 51.6522 147.338 51.8391 147.416 52.0806C147.494 52.3144 147.439 52.5792 147.276 52.774L142.625 58.282C142.5 58.43 142.399 58.6014 142.344 58.7884C142.282 58.9676 142.259 59.1623 142.274 59.3571L142.804 66.5479C142.819 66.805 142.71 67.0465 142.508 67.1945C142.298 67.3425 142.033 67.3737 141.799 67.2802L135.122 64.5535C134.943 64.4756 134.748 64.4444 134.554 64.4444C134.367 64.4444 134.172 64.4756 133.993 64.5535L127.316 67.2802C127.082 67.3737 126.818 67.3425 126.607 67.1945C126.405 67.0465 126.296 66.805 126.311 66.5479L126.841 59.3571C126.856 59.1623 126.833 58.9676 126.771 58.7884C126.708 58.6014 126.615 58.43 126.49 58.282L121.839 52.774C121.676 52.5792 121.621 52.3144 121.699 52.0806C121.777 51.8391 121.972 51.6522 122.221 51.5976L129.225 49.8759C129.412 49.8292 129.591 49.7435 129.747 49.6344C129.903 49.5175 130.035 49.3773 130.136 49.2137L133.938 43.0825Z" fill="#FEBB48"/>
<path fill-rule="evenodd" clip-rule="evenodd" d="M163.232 42.8721C163.434 42.5449 163.793 42.3423 164.174 42.3423C164.564 42.3423 164.922 42.5449 165.125 42.8721L168.927 49.0033C169.005 49.128 169.106 49.2371 169.215 49.315C169.332 49.4007 169.464 49.463 169.604 49.4942L176.608 51.2159C176.982 51.3094 177.286 51.5898 177.403 51.956C177.527 52.3222 177.45 52.7273 177.2 53.0233L172.541 58.5313C172.448 58.6404 172.378 58.7728 172.331 58.9053C172.292 59.0377 172.269 59.1857 172.284 59.326L172.814 66.5245C172.838 66.9062 172.666 67.2802 172.355 67.5061C172.043 67.7321 171.63 67.7866 171.272 67.6386L164.595 64.9118C164.463 64.8573 164.322 64.8339 164.174 64.8339C164.034 64.8339 163.894 64.8573 163.761 64.9118L157.085 67.6386C156.726 67.7866 156.314 67.7321 156.002 67.5061C155.69 67.2802 155.519 66.9062 155.542 66.5245L156.072 59.326C156.08 59.1857 156.064 59.0377 156.025 58.9053C155.979 58.7728 155.908 58.6404 155.815 58.5313L151.156 53.0233C150.907 52.7273 150.829 52.3222 150.946 51.956C151.07 51.5898 151.374 51.3094 151.748 51.2159L158.752 49.4942C158.892 49.463 159.025 49.4007 159.134 49.315C159.251 49.2371 159.352 49.128 159.43 49.0033L163.232 42.8721ZM163.886 43.285L160.092 49.4163C159.96 49.6266 159.796 49.8058 159.593 49.946C159.399 50.094 159.173 50.1953 158.939 50.2499L151.935 51.9716C151.818 52.0027 151.725 52.0884 151.694 52.1975C151.655 52.3066 151.678 52.4312 151.756 52.5247L156.407 58.0327C156.571 58.2197 156.688 58.43 156.765 58.6637C156.836 58.8975 156.867 59.139 156.851 59.3805L156.321 66.579C156.314 66.6959 156.368 66.805 156.462 66.8751C156.555 66.9452 156.68 66.9608 156.789 66.914L163.465 64.1951C163.691 64.1016 163.933 64.0549 164.174 64.0549C164.424 64.0549 164.665 64.1016 164.891 64.1951L171.568 66.914C171.677 66.9608 171.801 66.9452 171.895 66.8751C171.988 66.805 172.043 66.6959 172.035 66.579L171.505 59.3805C171.49 59.139 171.521 58.8975 171.591 58.6637C171.669 58.43 171.786 58.2197 171.949 58.0327L176.6 52.5247C176.678 52.4312 176.702 52.3066 176.663 52.1975C176.632 52.0884 176.538 52.0027 176.421 51.9716L169.417 50.2499C169.184 50.1953 168.958 50.094 168.763 49.946C168.56 49.8058 168.397 49.6266 168.264 49.4163L164.463 43.285C164.408 43.1837 164.299 43.1214 164.174 43.1214C164.057 43.1214 163.948 43.1837 163.886 43.285ZM192.844 42.8721C193.054 42.5449 193.413 42.3423 193.794 42.3423C194.184 42.3423 194.542 42.5449 194.745 42.8721L198.547 49.0033C198.625 49.128 198.726 49.2371 198.835 49.315C198.952 49.4007 199.084 49.463 199.224 49.4942L206.228 51.2159C206.602 51.3094 206.906 51.5898 207.023 51.956C207.148 52.3222 207.07 52.7273 206.82 53.0233L202.162 58.5313C202.068 58.6404 201.998 58.7728 201.951 58.9053C201.912 59.0377 201.889 59.1857 201.904 59.326L202.434 66.5245C202.458 66.9062 202.286 67.2802 201.975 67.5061C201.663 67.7321 201.25 67.7866 200.892 67.6386L194.215 64.9118C194.083 64.8573 193.942 64.8339 193.794 64.8339C193.654 64.8339 193.514 64.8573 193.381 64.9118L186.705 67.6386C186.347 67.7866 185.934 67.7321 185.622 67.5061C185.31 67.2802 185.139 66.9062 185.162 66.5245L185.692 59.326C185.7 59.1857 185.684 59.0377 185.645 58.9053C185.599 58.7728 185.528 58.6404 185.435 58.5313L180.776 53.0233C180.527 52.7273 180.449 52.3222 180.566 51.956C180.691 51.5898 180.994 51.3094 181.368 51.2159L188.372 49.4942C188.512 49.463 188.645 49.4007 188.754 49.315C188.871 49.2371 188.972 49.128 189.05 49.0033L192.844 42.8721ZM193.506 43.285L189.712 49.4163C189.58 49.6266 189.416 49.8058 189.213 49.946C189.019 50.094 188.793 50.1953 188.559 50.2499L181.555 51.9716C181.438 52.0027 181.345 52.0884 181.314 52.1975C181.275 52.3066 181.298 52.4312 181.376 52.5247L186.027 58.0327C186.191 58.2197 186.308 58.43 186.385 58.6637C186.456 58.8975 186.487 59.139 186.471 59.3805L185.941 66.579C185.934 66.6959 185.988 66.805 186.082 66.8751C186.175 66.9452 186.3 66.9608 186.409 66.914L193.085 64.1951C193.311 64.1016 193.553 64.0549 193.794 64.0549C194.044 64.0549 194.285 64.1016 194.511 64.1951L201.188 66.914C201.297 66.9608 201.421 66.9452 201.515 66.8751C201.608 66.805 201.663 66.6959 201.655 66.579L201.125 59.3805C201.11 59.139 201.141 58.8975 201.211 58.6637C201.289 58.43 201.406 58.2197 201.562 58.0327L206.22 52.5247C206.298 52.4312 206.322 52.3066 206.283 52.1975C206.252 52.0884 206.158 52.0027 206.041 51.9716L199.037 50.2499C198.804 50.1953 198.578 50.094 198.383 49.946C198.181 49.8058 198.017 49.6266 197.884 49.4163L194.083 43.285C194.02 43.1837 193.919 43.1214 193.794 43.1214C193.677 43.1214 193.568 43.1837 193.506 43.285Z" fill="#8E5A01"/>
<path d="M161.999 120.591C161.999 120.591 156.709 106.817 141.369 100.327C141.369 100.327 150.344 116.875 161.999 120.591Z" fill="#081912"/>
<path d="M47.4688 171.058C63.5331 174.167 86.7648 178.787 104.411 180.119C86.1259 186.889 61.5309 185.362 47.4688 171.058Z" fill="#36527C"/>
<path d="M141.898 101.091L142.584 100.67L151.333 72.3509C151.333 72.3509 149.705 66.2742 150.686 65.4562C151.676 64.6382 153.639 64.0617 154.2 65.4562C154.753 66.8507 155.618 69.1022 155.618 69.1022C155.618 69.1022 157.69 58.4057 158.695 56.2788C159.708 54.1598 163.915 54.7051 163.362 58.2109C162.816 61.7245 162.279 63.8124 162.279 63.8124C162.279 63.8124 163.611 62.7295 164.99 62.8697C166.042 62.971 167.171 63.9292 167.241 64.8096C168.815 64.5914 170.537 65.6042 170.552 67.2091C170.591 69.6008 168.457 74.5011 168.457 74.5011C168.457 74.5011 165.66 107.004 162.287 112.745C160.152 116.384 157.604 117.942 157.604 117.942C150.289 113.034 144.352 106.139 141.898 101.091Z" fill="#FFC0BD"/>
<path d="M37.0371 149.852L54.0285 155.228L46.0821 169.734C41.9063 165.223 39.46 159.559 37.6759 152.626C37.4318 151.675 37.2189 150.751 37.0371 149.852Z" fill="#FFC0BD"/>
<path d="M165.278 100.927C164.39 106.318 163.369 110.907 162.287 112.745C160.152 116.384 157.604 117.942 157.604 117.942C150.289 113.034 144.352 106.139 141.898 101.09L142.584 100.67L142.646 100.452C145.911 103.498 154.122 110.673 158.017 109.504C162.941 108.04 165.278 100.927 165.278 100.927Z" fill="#F78682"/>
<path d="M37.8162 153.156C37.7694 152.979 37.7227 152.802 37.6759 152.626C37.4318 151.675 37.2189 150.751 37.0371 149.852L54.0285 155.228L46.0821 169.734C45.49 169.095 44.929 168.43 44.3993 167.74C44.3993 167.74 47.2584 160.292 46.643 158.173C46.1288 156.428 40.0131 153.981 37.8162 153.156Z" fill="#F78682"/>
<path d="M162.863 63.4229L161.422 69.0322C161.383 69.1802 161.235 69.2659 161.087 69.2269C160.939 69.1958 160.853 69.04 160.892 68.8997L162.419 62.9633C162.435 62.9087 162.466 62.862 162.513 62.8308C162.372 63.4696 162.279 63.8124 162.279 63.8124C162.279 63.8124 162.505 63.6255 162.871 63.4229H162.863ZM167.53 64.7785L166.104 69.9359C166.065 70.0839 165.917 70.1696 165.769 70.1307C165.621 70.0917 165.535 69.9359 165.582 69.7956L167.078 64.35C167.083 64.3396 167.088 64.3266 167.094 64.311C167.171 64.4746 167.226 64.646 167.234 64.8096C167.332 64.7941 167.431 64.7837 167.53 64.7785Z" fill="#E9756F"/>
<path d="M102.588 180.758C88.9775 179.909 66.1432 177.961 50.3827 173.715C48.8557 172.508 47.4222 171.183 46.0823 169.734L54.0287 155.228L37.0373 149.852C36.7646 148.505 36.5543 147.211 36.4141 145.98C40.7924 138.93 52.268 121.892 60.6508 118.137C69.6178 114.117 89.4294 112.738 89.4294 112.738L106.203 112.745C109.412 113.501 128.912 107.806 141.37 100.327C141.37 100.327 151.926 115.908 161.999 120.591C161.999 120.591 146.153 136.328 126.505 140.916C124.651 151.325 122.158 162.068 118.87 171.814C117.826 172.702 116.704 173.567 115.505 174.408C111.757 177.026 107.363 179.169 102.588 180.758Z" fill="#37B381"/>
<path d="M97.4066 180.407C105.376 176.597 123.856 144.578 126.52 132.658C143.301 137.029 156.81 117.342 156.81 117.342C158.516 118.658 160.261 119.788 161.999 120.591C161.999 120.591 146.153 136.328 126.505 140.916C124.65 151.325 122.157 162.068 118.87 171.814C117.826 172.702 116.704 173.567 115.504 174.408C111.757 177.026 107.363 179.168 102.587 180.758C100.975 180.656 99.2451 180.54 97.4066 180.407ZM48.084 153.342L65.3481 136.024L53.6543 155.906L54.0282 155.228L48.084 153.342Z" fill="#1D9070"/>
<path d="M38.9538 150.46L37.0373 149.852C36.7646 148.505 36.5543 147.211 36.4141 145.98C40.7924 138.93 52.268 121.892 60.6508 118.137C69.6178 114.124 89.4294 112.738 89.4294 112.738L106.203 112.745C109.412 113.501 128.912 107.806 141.37 100.327C141.37 100.327 142.64 102.205 144.727 104.854C128.827 113.283 114.718 117.677 96.5656 116.96C85.1913 116.508 70.7396 119.227 63.1438 122.157C56.5763 124.689 42.6388 144.968 38.9538 150.46ZM90.4811 174.93C90.4811 174.93 62.9724 174.268 61.0091 166.174C59.0459 158.087 74.6428 136.523 78.2109 132.915C85.4795 125.569 106.444 124.907 113.534 132.915C121.231 141.594 102.962 168.823 90.4811 174.93Z" fill="#60C395"/>
<path d="M37.87 143.674L56.6455 150.226C56.8247 150.288 56.9259 150.483 56.8558 150.67C56.7935 150.849 56.5987 150.951 56.4118 150.888L37.5117 144.29C37.5013 144.29 37.4935 144.287 37.4883 144.282C37.6129 144.085 37.7402 143.882 37.87 143.674ZM156.701 125.21C144.158 120.824 136.079 105.227 135.269 103.607C135.482 103.503 135.692 103.399 135.9 103.295C136.694 104.892 144.688 120.411 157.137 124.618C157.207 124.642 157.262 124.681 157.301 124.735C157.108 124.891 156.908 125.049 156.701 125.21Z" fill="white"/>
<path d="M126.303 142.038C126.202 141.914 126.163 141.75 126.217 141.586C126.217 141.586 126.256 137.34 126.397 132.9C126.404 132.635 126.615 132.432 126.872 132.44C127.129 132.448 127.331 132.666 127.324 132.923C127.238 135.961 127.573 139.28 127.324 140.714C127.054 140.781 126.781 140.849 126.506 140.916C126.438 141.29 126.371 141.664 126.303 142.038ZM53.3125 154.994C53.3229 154.963 53.3359 154.934 53.3515 154.908L64.57 135.525C64.6946 135.299 64.9829 135.221 65.2088 135.354C65.427 135.486 65.5049 135.767 65.3802 135.993L54.1617 155.376C54.0838 155.5 53.9591 155.578 53.8189 155.602L54.0292 155.228L53.3125 154.994Z" fill="#114A35"/>
<path d="M108.961 100.438L106.055 112.739H89.5312L93.559 100.438H108.961Z" fill="#F78682"/>
<path d="M92.3906 104.014L93.5592 100.445H108.961L107.512 106.592C103.188 106.312 92.3906 104.014 92.3906 104.014Z" fill="#B43F31"/>
<path d="M88.6128 112.739C87.4598 111.407 87.8025 109.81 89.3685 108.836C95.6321 108.501 101.14 108.47 107.326 108.836C108.681 110.036 107.988 112.911 106.204 112.739H88.6128Z" fill="#EEFAF5"/>
<path d="M106.919 72.6329C106.919 72.6329 110.721 80.1508 109.428 84.1241L103.975 75.5232L106.919 72.6329Z" fill="#141D44"/>
<path d="M104.529 75.1104C104.529 75.1104 108.229 82.0752 110.333 84.5215C111.922 86.3678 116.939 89.5932 116.939 89.5932C116.768 90.4579 116.417 91.0812 115.903 91.5408C117.08 93.6521 118.739 96.1529 119.144 98.5602C119.401 100.126 112.982 104.691 106.329 103.601C100.377 102.627 98.3743 99.6587 98.3743 99.6587C98.6158 101.326 94.7127 102.985 92.6482 100.477C91.0433 98.5212 91.5108 93.9559 97.5018 95.9581C96.115 94.5636 89.7734 86.0095 89.7734 86.0095L104.529 75.1104Z" fill="#FFC0BD"/>
<path d="M117.46 100.765C117.46 100.765 118.559 99.1602 118.27 98.0539C117.982 96.9477 116.486 92.5693 116.486 92.5693C117.569 94.4469 118.8 96.5348 119.143 98.5603C119.229 99.0745 118.59 99.9159 117.46 100.765Z" fill="#FFDCDA"/>
<path d="M113.683 102.791C111.525 103.585 108.946 104.029 106.329 103.601C100.377 102.627 98.3743 99.6587 98.3743 99.6587C98.6158 101.326 94.7127 102.985 92.6482 100.477C91.0433 98.529 91.5108 93.9559 97.5018 95.9581C96.115 94.5636 89.7734 86.0095 89.7734 86.0095L104.529 75.1104C104.529 75.1104 105.604 77.1281 106.921 79.3718C105.916 81.1481 103.391 84.7162 99.2469 85.2382C99.2469 85.2382 99.7922 88.2688 97.9848 90.2008C97.9848 90.2008 100.548 100.204 106.04 101.879C109.764 103.016 113.683 102.791 113.683 102.791Z" fill="#FF9694"/>
<path d="M102.285 90.6373C102.332 90.9333 102.129 91.2138 101.833 91.2605C101.537 91.315 101.257 91.1125 101.202 90.8165C100.743 88.0586 102.87 84.88 106.89 84.693C107.193 84.6774 107.45 84.9111 107.466 85.215C107.474 85.511 107.248 85.7681 106.944 85.7837C103.703 85.9317 101.911 88.4169 102.277 90.6373H102.285Z" fill="#CE6A22"/>
<path d="M108.369 97.6177C108.369 97.6177 110.699 97.8125 113.534 97.1113C114.687 100.313 108.611 101.381 108.369 97.6177Z" fill="white"/>
<path d="M105.097 88.8454C105.665 88.4481 106.546 88.7363 107.068 89.492C107.582 90.2399 107.551 91.167 106.982 91.5566C106.413 91.9539 105.533 91.6656 105.011 90.9099C104.497 90.162 104.528 89.2349 105.097 88.8454Z" fill="#692815"/>
<path d="M97.5945 96.114C97.5945 96.114 98.6852 96.9009 99.5656 96.6282C100.446 96.3555 96.052 90.162 96.052 90.162C96.052 90.162 98.1866 88.3779 98.3736 84.8409C98.3736 84.8409 106.647 81.787 106.904 74.4482C107.169 67.1094 102.853 62.9414 102.853 62.9414L101.661 66.1434C101.661 66.1434 101.685 60.5108 93.037 56.8647C93.037 56.8647 92.1723 67.5068 90.0766 70.2491C90.0766 70.2491 90.9024 67.9508 88.9625 66.1434C88.8379 71.9163 75.1575 78.9512 78.3283 87.5365C74.8459 91.4864 85.2386 102.658 92.5852 103.772C99.1371 104.123 101.661 102.167 101.661 102.167C100.282 101.552 99.2617 100.664 98.3736 99.6588C98.249 101.396 96.3636 102.136 93.7849 101.24C92.7643 100.882 90.8478 98.1941 92.7098 96.3166C94.4315 94.587 97.5945 96.114 97.5945 96.114Z" fill="#274382"/>
<path fill-rule="evenodd" clip-rule="evenodd" d="M89.7801 67.1874C88.8998 71.1138 84.3968 74.8378 81.8337 79.3018C79.9717 82.5505 81.8337 87.5365 81.8337 87.5365C80.4781 92.6705 86.6561 101.24 86.6561 101.24C80.8442 97.4306 75.7336 90.4814 78.3279 87.5365C75.1571 78.9512 88.8374 71.9163 88.9621 66.1434C89.3205 66.4784 89.5853 66.829 89.7801 67.1874ZM99.2847 61.0795C99.2847 61.0795 96.2386 58.6566 94.9219 59.646C93.6131 60.6276 91.6421 66.1278 91.6421 66.1278C92.6159 62.0611 93.0366 56.8647 93.0366 56.8647C96.0516 58.1346 98.0148 59.646 99.2847 61.0795ZM100.555 62.8168L99.2847 61.0795C99.8223 61.6794 100.235 62.2637 100.555 62.8168ZM106.055 68.465C105.322 66.455 102.105 64.9359 102.105 64.9359L102.853 62.9414C102.853 62.9414 104.863 64.8891 106.055 68.465Z" fill="#4565AD"/>
<path d="M88.2067 102.175C89.0013 102.121 90.279 101.809 90.5595 100.337C90.9724 98.1787 91.5333 94.3145 95.9973 94.4236C95.9973 94.4236 95.639 91.3774 94.6184 90.2634C94.6184 90.2634 96.979 86.9991 96.9556 83.7348C96.9556 83.7348 104.606 81.9741 106.624 70.6465C106.842 71.7996 106.951 73.0694 106.904 74.4484C106.647 81.7872 98.3735 84.8411 98.3735 84.8411C98.1865 88.378 96.0519 90.1621 96.0519 90.1621C96.0519 90.1621 100.446 96.3557 99.5655 96.6283C98.6851 96.901 97.5944 96.1142 97.5944 96.1142C97.5944 96.1142 94.4314 94.5872 92.7097 96.3167C90.8477 98.1943 92.7642 100.882 93.7848 101.24C96.3635 102.136 98.2488 101.396 98.3657 99.6589C99.2616 100.664 100.282 101.552 101.661 102.167C101.661 102.167 99.1292 104.123 92.5851 103.772C91.1983 103.562 89.7025 102.985 88.2067 102.175ZM101.661 66.1435L101.038 69.6104C101.24 65.6138 100.228 62.2872 100.228 62.2872C101.669 64.4296 101.661 66.1435 101.661 66.1435ZM90.7854 68.9404C90.2556 70.8101 88.0898 72.5007 88.0898 72.5007C88.9157 71.7372 90.1388 68.1302 90.1388 68.1302C90.4193 69.291 90.0765 70.2492 90.0765 70.2492C90.3335 69.9142 90.5673 69.4701 90.7854 68.9404Z" fill="#1F3466"/>
<path d="M95.3898 98.0694C95.3587 98.0746 95.3275 98.0823 95.2964 98.0927C94.8679 98.2252 94.5017 98.5524 94.2836 99.0899C94.2212 99.2535 94.0421 99.3314 93.8785 99.2613C93.7226 99.199 93.6447 99.0198 93.7071 98.8562C94.0031 98.1239 94.5251 97.6798 95.1172 97.5006C95.247 97.4591 95.3795 97.4305 95.5145 97.4149C95.5249 97.4149 95.5327 97.4149 95.5379 97.4149C96.3091 97.3448 97.1272 97.672 97.6803 98.3654C97.7894 98.4978 97.7738 98.6926 97.6335 98.8017C97.5011 98.9107 97.3063 98.8874 97.1973 98.7549C96.8934 98.3732 96.4805 98.1317 96.0598 98.0538C96.1144 98.2096 96.1689 98.381 96.2079 98.5602C96.278 98.9653 96.2312 99.3938 95.9508 99.721C95.8417 99.8456 95.6469 99.8612 95.5145 99.7521C95.3821 99.6353 95.3665 99.4405 95.4833 99.3081C95.6391 99.1289 95.6314 98.8952 95.5924 98.6692C95.5457 98.4355 95.46 98.2174 95.3898 98.0694Z" fill="#A93F3A"/>
<path d="M43.1678 33.4685C43.1678 25.9505 37.0755 19.8505 29.5575 19.8505C22.0473 19.8505 15.9473 25.9505 15.9473 33.4685C15.9473 40.9787 22.0473 47.0788 29.5575 47.0788C37.0755 47.0788 43.1678 40.9787 43.1678 33.4685Z" fill="#428BFF"/>
<path d="M22.4062 30.2979H25.32V39.4051H22.4062V30.2979Z" fill="#B8DCFF"/>
<path d="M25.3203 30.2977C25.3203 30.2977 26.1539 29.9861 26.6447 29.5965C27.042 29.2849 29.3247 26.8932 30.3375 26.6439C31.4671 26.3556 33.1655 27.0879 32.5812 28.3812C32.3163 28.9811 31.1399 30.2977 31.1399 30.2977C31.1399 30.2977 35.5183 29.9861 36.2116 30.6171C36.9206 31.2637 36.905 32.518 35.9545 33.562C36.5778 35.0811 36.2895 36.164 35.3001 37.0054C35.7831 38.2753 35.2222 39.9503 33.6875 40.2385C31.0386 40.7371 25.3203 39.405 25.3203 39.405V30.2977Z" fill="white"/>
<path d="M217.204 21.8756C217.204 16.9597 213.207 12.9631 208.291 12.9631C203.376 12.9631 199.387 16.9597 199.387 21.8756C199.387 26.7915 203.376 30.7803 208.291 30.7803C213.207 30.7803 217.204 26.7915 217.204 21.8756Z" fill="#428BFF"/>
<path d="M203.609 19.8032H205.518V25.7631H203.609V19.8032Z" fill="#B8DCFF"/>
<path d="M205.518 19.8033C205.518 19.8033 206.063 19.5929 206.382 19.3436C206.647 19.1333 208.135 17.5752 208.797 17.4038C209.545 17.2246 210.652 17.6998 210.27 18.549C210.098 18.9385 209.327 19.8033 209.327 19.8033C209.327 19.8033 212.194 19.5929 212.646 20.0136C213.106 20.4343 213.098 21.2523 212.475 21.9379C212.888 22.9351 212.693 23.6363 212.046 24.1894C212.366 25.023 211.999 26.1137 210.994 26.3085C209.257 26.6279 205.518 25.7631 205.518 25.7631V19.8033Z" fill="white"/>
<path d="M198.1 135.898C205.665 135.898 211.788 142.029 211.788 149.586C211.788 157.151 205.665 163.275 198.1 163.275C190.543 163.275 184.412 157.151 184.412 149.586C184.412 142.029 190.543 135.898 198.1 135.898Z" fill="#FEBB48"/>
<path d="M193.121 143.619C193.908 143.619 194.539 144.647 194.539 145.909C194.539 147.171 193.908 148.192 193.121 148.192C192.342 148.192 191.711 147.171 191.711 145.909C191.711 144.647 192.342 143.619 193.121 143.619ZM203.077 143.619C203.857 143.619 204.495 144.647 204.495 145.909C204.495 147.171 203.857 148.192 203.077 148.192C202.298 148.192 201.667 147.171 201.667 145.909C201.667 144.647 202.298 143.619 203.077 143.619ZM193.129 153.232H203.077C203.062 158.943 192.903 158.935 193.129 153.232Z" fill="#844610"/>
<path d="M75.3679 15.3717C79.458 15.3717 82.7768 18.6905 82.7768 22.7806C82.7768 26.8707 79.458 30.1895 75.3679 30.1895C71.2778 30.1895 67.959 26.8707 67.959 22.7806C67.959 18.6905 71.2778 15.3717 75.3679 15.3717Z" fill="#FEBB48"/>
<path d="M72.6717 19.5476C73.1002 19.5476 73.443 20.1007 73.443 20.7863C73.443 21.4719 73.1002 22.025 72.6717 22.025C72.251 22.025 71.9082 21.4719 71.9082 20.7863C71.9082 20.1007 72.251 19.5476 72.6717 19.5476ZM78.0628 19.5476C78.4835 19.5476 78.8263 20.1007 78.8263 20.7863C78.8263 21.4719 78.4835 22.025 78.0628 22.025C77.6421 22.025 77.2993 21.4719 77.2993 20.7863C77.2993 20.1007 77.6421 19.5476 78.0628 19.5476ZM72.6795 24.7518H78.0628C78.055 27.8369 72.5548 27.8369 72.6795 24.7518Z" fill="#844610"/>
<path d="M245.094 134.457C245.214 134.073 245.31 133.686 245.383 133.296C245.406 133.172 245.531 133.086 245.655 133.109C245.78 133.133 245.866 133.257 245.842 133.382C245.775 133.73 245.692 134.075 245.593 134.418C245.598 134.429 245.601 134.436 245.601 134.442C245.663 134.558 245.624 134.699 245.515 134.761C245.505 134.766 245.494 134.771 245.484 134.777C245.432 134.927 245.38 135.075 245.328 135.221C245.281 135.337 245.141 135.4 245.024 135.353C244.915 135.314 244.853 135.205 244.876 135.096C244.523 135.273 244.167 135.436 243.809 135.587C243.684 135.633 243.552 135.579 243.497 135.462C243.451 135.337 243.505 135.205 243.63 135.15C244.118 134.948 244.606 134.717 245.094 134.457ZM241.986 70.2622C241.877 70.1999 241.838 70.0518 241.9 69.9428C241.97 69.8337 242.111 69.7948 242.22 69.8571C242.77 70.1843 243.305 70.5141 243.825 70.8465C243.934 70.9166 243.965 71.0568 243.895 71.1659C243.824 71.275 243.676 71.3061 243.567 71.236C243.053 70.9088 242.526 70.5842 241.986 70.2622ZM246.247 73.0902C246.138 73.0123 246.123 72.8721 246.201 72.763C246.279 72.6617 246.419 72.6383 246.528 72.7162C247.037 73.0954 247.53 73.4823 248.008 73.877C248.109 73.955 248.125 74.103 248.039 74.2043C247.961 74.3055 247.813 74.3211 247.712 74.2354C247.239 73.8511 246.751 73.4693 246.247 73.0902ZM250.15 76.3856C250.057 76.2999 250.057 76.1519 250.143 76.0584C250.228 75.9649 250.376 75.9649 250.47 76.0506C250.932 76.4869 251.376 76.931 251.802 77.3828C251.888 77.4763 251.888 77.6243 251.794 77.71C251.701 77.8035 251.553 77.7957 251.459 77.7023C251.039 77.2608 250.602 76.8219 250.15 76.3856ZM253.602 80.1563C253.516 80.055 253.532 79.907 253.633 79.8291C253.734 79.7434 253.882 79.7668 253.96 79.8681C254.355 80.3615 254.734 80.8601 255.098 81.3639C255.175 81.4729 255.152 81.6132 255.043 81.6911C254.942 81.769 254.794 81.7456 254.716 81.6365C254.363 81.1379 253.991 80.6445 253.602 80.1563ZM256.484 84.3633C256.422 84.2542 256.461 84.1062 256.57 84.0438C256.679 83.9815 256.827 84.0127 256.889 84.1295C257.211 84.6749 257.515 85.2228 257.801 85.7734C257.855 85.8902 257.809 86.0304 257.7 86.0928C257.583 86.1473 257.443 86.1084 257.38 85.9915C257.1 85.4462 256.801 84.9034 256.484 84.3633ZM258.736 88.9442C258.689 88.8273 258.744 88.6871 258.868 88.6403C258.985 88.5936 259.118 88.6481 259.172 88.7728C259.406 89.3545 259.624 89.9414 259.826 90.5334C259.865 90.6581 259.803 90.7905 259.678 90.8295C259.554 90.8762 259.421 90.8061 259.382 90.6815C259.185 90.0998 258.969 89.5207 258.736 88.9442ZM260.286 93.8055C260.255 93.6809 260.333 93.5562 260.458 93.525C260.59 93.4939 260.715 93.5718 260.746 93.6964C260.891 94.3093 261.021 94.9222 261.135 95.535C261.159 95.6597 261.081 95.7843 260.948 95.8077C260.824 95.8311 260.699 95.7454 260.676 95.6207C260.561 95.0131 260.432 94.408 260.286 93.8055ZM261.135 98.8383C261.128 98.7136 261.221 98.5968 261.346 98.5812C261.478 98.5734 261.587 98.6669 261.603 98.7915C261.665 99.42 261.712 100.046 261.743 100.669C261.743 100.802 261.649 100.911 261.517 100.918C261.392 100.918 261.283 100.825 261.276 100.692C261.244 100.074 261.198 99.4563 261.135 98.8383ZM261.299 103.941C261.299 103.816 261.408 103.715 261.54 103.715C261.665 103.723 261.766 103.832 261.766 103.957C261.746 104.585 261.709 105.211 261.657 105.834C261.649 105.967 261.533 106.06 261.408 106.052C261.276 106.045 261.182 105.928 261.19 105.803C261.242 105.185 261.278 104.564 261.299 103.941ZM260.8 109.028C260.824 108.904 260.948 108.818 261.073 108.834C261.198 108.857 261.283 108.974 261.268 109.106C261.169 109.724 261.055 110.34 260.925 110.953C260.902 111.077 260.777 111.163 260.652 111.132C260.528 111.109 260.442 110.984 260.473 110.859C260.598 110.252 260.707 109.641 260.8 109.028ZM259.694 114.022C259.733 113.898 259.858 113.82 259.982 113.859C260.107 113.898 260.177 114.022 260.146 114.147C259.969 114.755 259.782 115.354 259.585 115.947C259.546 116.063 259.414 116.134 259.289 116.095C259.172 116.048 259.102 115.915 259.141 115.799C259.338 115.212 259.523 114.62 259.694 114.022ZM257.996 118.837C258.05 118.72 258.183 118.665 258.299 118.712C258.424 118.767 258.479 118.899 258.424 119.024C258.18 119.606 257.926 120.177 257.661 120.738C257.606 120.855 257.466 120.901 257.349 120.847C257.232 120.792 257.185 120.652 257.24 120.535C257.505 119.979 257.757 119.413 257.996 118.837ZM255.729 123.418C255.791 123.301 255.931 123.27 256.048 123.332C256.157 123.394 256.196 123.535 256.134 123.651C255.812 124.197 255.484 124.732 255.152 125.256C255.082 125.365 254.934 125.397 254.825 125.326C254.716 125.256 254.685 125.108 254.755 124.999C255.087 124.485 255.412 123.958 255.729 123.418ZM252.869 127.648C252.955 127.547 253.095 127.531 253.197 127.609C253.298 127.687 253.321 127.835 253.243 127.936C252.849 128.435 252.446 128.918 252.036 129.385C251.95 129.479 251.802 129.487 251.709 129.401C251.607 129.323 251.6 129.175 251.685 129.074C252.09 128.617 252.485 128.141 252.869 127.648ZM249.403 131.38C249.504 131.294 249.652 131.302 249.738 131.403C249.823 131.497 249.815 131.645 249.722 131.73C249.244 132.156 248.761 132.559 248.273 132.938C248.172 133.024 248.024 133 247.946 132.899C247.868 132.798 247.883 132.65 247.985 132.572C248.468 132.198 248.94 131.8 249.403 131.38ZM240.545 136.062C240.669 136.046 240.794 136.124 240.817 136.257C240.841 136.381 240.755 136.506 240.623 136.522C239.994 136.636 239.363 136.698 238.729 136.709C238.605 136.716 238.496 136.615 238.496 136.483C238.488 136.358 238.589 136.249 238.722 136.241C239.329 136.231 239.937 136.171 240.545 136.062ZM235.543 135.875C235.668 135.906 235.746 136.039 235.714 136.163C235.683 136.288 235.551 136.366 235.426 136.327C234.824 136.171 234.224 135.963 233.627 135.704C233.51 135.657 233.455 135.517 233.51 135.4C233.556 135.283 233.697 135.228 233.814 135.275C234.385 135.524 234.961 135.724 235.543 135.875ZM231.024 133.686C231.126 133.764 231.149 133.904 231.071 134.013C230.993 134.114 230.853 134.138 230.744 134.06C230.191 133.647 229.716 133.218 229.318 132.782C229.233 132.689 229.24 132.541 229.334 132.455C229.435 132.369 229.583 132.377 229.669 132.47C230.043 132.883 230.495 133.296 231.024 133.686ZM228.173 129.736C228.204 129.861 228.126 129.985 227.994 130.016C227.869 130.048 227.745 129.962 227.721 129.837C227.573 129.183 227.55 128.536 227.636 127.897C227.651 127.773 227.768 127.679 227.893 127.695C228.025 127.718 228.111 127.835 228.095 127.96C228.017 128.544 228.041 129.136 228.173 129.736ZM229.311 125.085C229.233 125.186 229.085 125.21 228.983 125.132C228.882 125.062 228.859 124.914 228.937 124.804C229.311 124.306 229.747 123.831 230.245 123.402C230.339 123.324 230.487 123.332 230.573 123.433C230.658 123.527 230.651 123.675 230.549 123.761C230.082 124.166 229.661 124.61 229.311 125.085ZM233.276 122.132C233.159 122.179 233.019 122.117 232.972 122C232.925 121.875 232.988 121.743 233.105 121.696C233.697 121.47 234.32 121.291 234.951 121.182C235.076 121.158 235.2 121.244 235.224 121.377C235.247 121.501 235.161 121.626 235.029 121.641C234.429 121.751 233.837 121.914 233.276 122.132ZM238.2 121.688C238.067 121.657 237.989 121.532 238.013 121.408C238.044 121.283 238.161 121.205 238.293 121.229C238.901 121.353 239.516 121.548 240.116 121.828C240.233 121.875 240.28 122.015 240.225 122.132C240.178 122.249 240.038 122.304 239.921 122.249C239.353 121.992 238.776 121.805 238.2 121.688ZM242.516 124.072C242.422 123.986 242.422 123.838 242.516 123.745C242.609 123.651 242.757 123.651 242.843 123.737C243.31 124.197 243.715 124.68 244.082 125.194C244.159 125.303 244.128 125.443 244.027 125.521C243.918 125.599 243.77 125.568 243.7 125.467C243.349 124.976 242.96 124.508 242.516 124.072ZM245.102 128.326C245.063 128.201 245.133 128.069 245.258 128.03C245.383 127.991 245.515 128.061 245.554 128.186C245.741 128.793 245.873 129.424 245.951 130.055C245.967 130.18 245.873 130.297 245.749 130.312C245.616 130.328 245.499 130.235 245.484 130.11C245.414 129.502 245.281 128.91 245.102 128.326ZM243.326 137.83C243.404 137.729 243.552 137.714 243.653 137.791C243.754 137.869 243.77 138.017 243.692 138.119C243.31 138.61 242.882 139.085 242.399 139.521C242.305 139.615 242.157 139.607 242.072 139.513C241.986 139.412 241.986 139.264 242.079 139.178C242.539 138.758 242.952 138.306 243.326 137.83ZM239.462 141.025C239.579 140.962 239.719 141.009 239.781 141.118C239.843 141.235 239.797 141.375 239.688 141.438C239.142 141.728 238.566 141.988 237.958 142.217C237.833 142.263 237.701 142.201 237.654 142.084C237.608 141.959 237.67 141.827 237.787 141.78C238.384 141.557 238.942 141.305 239.462 141.025ZM234.694 142.723C234.818 142.692 234.943 142.77 234.974 142.902C234.998 143.027 234.92 143.151 234.795 143.183C234.161 143.323 233.541 143.435 232.933 143.518C232.809 143.541 232.692 143.448 232.676 143.323C232.653 143.19 232.746 143.074 232.871 143.058C233.468 142.975 234.076 142.863 234.694 142.723ZM229.653 143.222C229.778 143.229 229.879 143.338 229.871 143.463C229.871 143.596 229.762 143.697 229.63 143.689C228.991 143.668 228.363 143.616 227.745 143.533C227.62 143.51 227.526 143.393 227.55 143.268C227.565 143.136 227.682 143.05 227.807 143.066C228.409 143.149 229.025 143.201 229.653 143.222ZM224.652 142.372C224.776 142.411 224.846 142.536 224.808 142.661C224.776 142.785 224.644 142.855 224.519 142.816C223.917 142.635 223.322 142.43 222.735 142.201C222.618 142.154 222.556 142.022 222.603 141.897C222.65 141.78 222.782 141.718 222.907 141.765C223.483 141.988 224.065 142.191 224.652 142.372ZM219.946 140.425C220.063 140.487 220.11 140.627 220.047 140.744C219.993 140.853 219.853 140.9 219.736 140.845C219.18 140.56 218.627 140.264 218.076 139.957C217.967 139.887 217.928 139.747 217.991 139.638C218.053 139.521 218.193 139.482 218.31 139.544C218.85 139.851 219.396 140.144 219.946 140.425ZM215.498 137.893C215.607 137.955 215.638 138.103 215.576 138.212C215.506 138.321 215.365 138.36 215.256 138.29C214.721 137.963 214.189 137.636 213.659 137.308C213.55 137.246 213.511 137.098 213.581 136.989C213.651 136.88 213.792 136.849 213.901 136.911C214.436 137.238 214.968 137.566 215.498 137.893ZM211.096 135.221C211.205 135.283 211.244 135.431 211.182 135.54C211.119 135.649 210.971 135.688 210.862 135.626C210.327 135.309 209.787 135.002 209.242 134.706C209.125 134.644 209.086 134.496 209.148 134.387C209.211 134.27 209.351 134.231 209.468 134.293C210.013 134.595 210.556 134.904 211.096 135.221ZM206.523 132.821C206.64 132.876 206.694 133.008 206.64 133.133C206.585 133.25 206.453 133.296 206.336 133.25C205.91 133.057 205.482 132.876 205.05 132.704C204.905 132.647 204.762 132.593 204.622 132.541C204.497 132.494 204.435 132.361 204.482 132.237C204.528 132.12 204.661 132.058 204.786 132.097C204.931 132.154 205.076 132.211 205.222 132.268C205.658 132.445 206.092 132.629 206.523 132.821ZM201.599 131.193C201.732 131.224 201.81 131.349 201.786 131.473C201.763 131.598 201.638 131.684 201.513 131.652C200.906 131.533 200.296 131.437 199.683 131.364C199.558 131.356 199.465 131.24 199.48 131.107C199.496 130.982 199.605 130.889 199.737 130.905C200.366 130.972 200.986 131.068 201.599 131.193ZM196.434 130.788C196.559 130.78 196.668 130.881 196.675 131.014C196.683 131.138 196.582 131.247 196.45 131.255C195.837 131.281 195.224 131.333 194.611 131.411C194.479 131.427 194.362 131.333 194.346 131.208C194.331 131.076 194.424 130.959 194.549 130.944C195.177 130.866 195.806 130.814 196.434 130.788ZM191.316 131.621C191.44 131.582 191.565 131.652 191.604 131.777C191.643 131.902 191.573 132.034 191.448 132.065C190.856 132.237 190.272 132.434 189.695 132.657C189.57 132.704 189.438 132.642 189.391 132.525C189.345 132.408 189.407 132.268 189.524 132.221C190.116 131.993 190.713 131.793 191.316 131.621ZM186.548 133.655C186.657 133.592 186.797 133.631 186.867 133.74C186.929 133.849 186.89 133.997 186.781 134.06C186.252 134.366 185.732 134.699 185.223 135.057C185.122 135.127 184.974 135.104 184.896 135.002C184.826 134.893 184.849 134.745 184.958 134.675C185.478 134.306 186.008 133.966 186.548 133.655ZM182.403 136.779C182.497 136.685 182.645 136.693 182.738 136.786C182.824 136.88 182.824 137.028 182.73 137.114C182.289 137.534 181.863 137.981 181.453 138.454C181.367 138.547 181.219 138.555 181.125 138.469C181.024 138.391 181.016 138.243 181.102 138.142C181.523 137.664 181.956 137.21 182.403 136.779ZM179.1 140.768C179.17 140.666 179.318 140.635 179.427 140.705C179.536 140.775 179.559 140.916 179.489 141.025C179.157 141.534 178.838 142.063 178.531 142.614C178.469 142.723 178.329 142.762 178.212 142.7C178.103 142.637 178.064 142.497 178.126 142.388C178.438 141.827 178.762 141.287 179.1 140.768ZM176.7 145.356C176.755 145.239 176.887 145.185 177.004 145.232C177.129 145.278 177.183 145.419 177.137 145.535C176.895 146.112 176.669 146.688 176.443 147.273C176.396 147.39 176.264 147.452 176.139 147.405C176.023 147.358 175.96 147.218 176.007 147.101C176.233 146.517 176.467 145.933 176.7 145.356ZM174.838 150.155C174.885 150.038 175.025 149.976 175.142 150.023C175.267 150.07 175.321 150.21 175.275 150.327C175.051 150.908 174.82 151.487 174.581 152.064C174.535 152.189 174.394 152.243 174.277 152.196C174.161 152.142 174.098 152.009 174.153 151.893C174.386 151.316 174.612 150.74 174.838 150.155ZM172.805 154.853C172.86 154.736 173 154.689 173.117 154.752C173.233 154.806 173.28 154.946 173.218 155.063C172.937 155.624 172.641 156.177 172.314 156.715C172.252 156.824 172.112 156.863 171.995 156.801C171.886 156.731 171.847 156.59 171.917 156.481C172.228 155.944 172.525 155.398 172.805 154.853ZM170.078 159.146C170.164 159.044 170.312 159.029 170.405 159.107C170.507 159.192 170.522 159.34 170.444 159.434C170.055 159.922 169.637 160.395 169.19 160.852C169.097 160.945 168.949 160.945 168.855 160.852C168.762 160.766 168.762 160.618 168.855 160.525C169.291 160.078 169.699 159.618 170.078 159.146ZM166.401 162.62C166.51 162.55 166.65 162.574 166.728 162.675C166.806 162.784 166.783 162.924 166.674 163.002C166.175 163.36 165.645 163.703 165.084 164.03C164.975 164.093 164.827 164.054 164.765 163.945C164.703 163.828 164.742 163.688 164.851 163.625C165.396 163.308 165.913 162.973 166.401 162.62ZM161.937 165.028C162.054 164.981 162.194 165.035 162.241 165.16C162.288 165.277 162.225 165.417 162.108 165.464C161.542 165.687 160.95 165.898 160.332 166.095C160.207 166.134 160.075 166.064 160.036 165.939C159.997 165.814 160.067 165.69 160.192 165.651C160.8 165.459 161.381 165.251 161.937 165.028ZM157.044 166.461C157.177 166.43 157.294 166.516 157.325 166.64C157.348 166.765 157.27 166.89 157.138 166.913C156.546 167.038 155.93 167.149 155.292 167.248C155.159 167.263 155.042 167.178 155.027 167.053C155.003 166.921 155.089 166.804 155.221 166.788C155.85 166.69 156.458 166.581 157.044 166.461ZM151.988 167.123C152.121 167.115 152.23 167.217 152.238 167.349C152.238 167.474 152.136 167.583 152.012 167.591C151.352 167.617 150.721 167.611 150.119 167.575C149.994 167.575 149.893 167.458 149.9 167.334C149.908 167.201 150.017 167.108 150.142 167.115C150.734 167.147 151.35 167.149 151.988 167.123ZM146.963 166.625C147.088 166.656 147.166 166.78 147.127 166.905C147.096 167.038 146.971 167.108 146.847 167.077C146.216 166.913 145.616 166.71 145.039 166.477C144.922 166.43 144.868 166.297 144.914 166.173C144.961 166.056 145.094 166.001 145.218 166.048C145.771 166.266 146.356 166.461 146.963 166.625ZM142.367 164.545C142.476 164.615 142.507 164.755 142.437 164.864C142.367 164.973 142.219 165.004 142.11 164.934C141.588 164.584 141.081 164.217 140.583 163.828C140.482 163.742 140.466 163.602 140.544 163.501C140.622 163.399 140.77 163.376 140.871 163.462C141.354 163.843 141.853 164.202 142.367 164.545ZM138.417 161.327C138.511 161.413 138.518 161.561 138.425 161.654C138.339 161.748 138.191 161.756 138.098 161.67C137.646 161.249 137.194 160.813 136.734 160.384C136.641 160.291 136.641 160.143 136.726 160.049C136.82 159.956 136.968 159.956 137.061 160.042C137.513 160.478 137.965 160.906 138.417 161.327ZM134.654 157.813C134.755 157.899 134.763 158.047 134.678 158.141C134.592 158.234 134.444 158.25 134.343 158.164C133.883 157.759 133.415 157.354 132.925 156.964C132.823 156.886 132.808 156.738 132.886 156.637C132.971 156.536 133.119 156.52 133.221 156.598C133.712 156.995 134.187 157.401 134.654 157.813ZM130.525 154.697C130.634 154.76 130.665 154.908 130.603 155.017C130.533 155.126 130.385 155.165 130.276 155.095C129.762 154.775 129.224 154.479 128.663 154.199C128.546 154.136 128.5 153.996 128.554 153.887C128.616 153.77 128.757 153.723 128.874 153.778C129.442 154.066 129.995 154.37 130.525 154.697ZM125.804 152.539C125.929 152.578 125.999 152.711 125.96 152.827C125.921 152.952 125.788 153.022 125.664 152.983C125.285 152.864 124.895 152.752 124.495 152.648C124.371 152.617 124.3 152.492 124.332 152.368C124.363 152.243 124.487 152.165 124.612 152.196C125.022 152.3 125.42 152.415 125.804 152.539Z" fill="#0F2A62"/>
<path d="M239.773 76.8452L223.047 59.4487L248.795 66.2344L242.103 70.0596L239.773 76.8452Z" fill="#A8C0E7"/>
<path d="M223.514 59.9318L223.047 59.4487L223.81 59.6513L242.196 69.8882C242.233 69.909 242.259 69.9349 242.274 69.9661L242.103 70.0596L242.04 70.2466C242.03 70.2414 242.02 70.2362 242.009 70.231L223.514 59.9318Z" fill="#133A84"/>
<path d="M242.103 70.0595V76.0427L240.482 74.7884L242.103 70.0595Z" fill="#133A84"/>
<path d="M76.9181 113.666C77.0427 113.697 77.1206 113.821 77.0895 113.946C77.0661 114.078 76.9337 114.156 76.809 114.125C76.809 114.125 76.1156 113.962 75.0094 113.51C74.8847 113.463 74.8302 113.331 74.8769 113.206C74.9237 113.089 75.0639 113.034 75.1808 113.081C76.2481 113.517 76.9181 113.666 76.9181 113.666ZM72.2982 111.624C72.4073 111.694 72.4385 111.835 72.3761 111.952C72.306 112.061 72.1658 112.092 72.0567 112.029C71.5503 111.726 71.0206 111.383 70.4752 110.993C70.3739 110.915 70.3506 110.767 70.4207 110.666C70.4986 110.557 70.6466 110.534 70.7479 110.612C71.2777 110.993 71.7996 111.328 72.2982 111.624ZM68.2549 108.547C68.3484 108.633 68.3484 108.781 68.2627 108.874C68.177 108.968 68.029 108.976 67.9355 108.882C67.494 108.467 67.0551 108.017 66.6189 107.534C66.5331 107.441 66.5409 107.293 66.6344 107.199C66.7279 107.114 66.8759 107.121 66.9616 107.223C67.3927 107.695 67.8238 108.137 68.2549 108.547ZM64.9594 104.675C65.0296 104.784 65.0062 104.924 64.8971 105.002C64.7958 105.072 64.6478 105.049 64.5699 104.94C64.2271 104.436 63.8921 103.906 63.5649 103.351C63.4948 103.242 63.5338 103.094 63.6428 103.031C63.7519 102.961 63.8999 103 63.9622 103.109C64.2843 103.66 64.6167 104.182 64.9594 104.675ZM62.4898 100.227C62.5443 100.344 62.4898 100.484 62.3729 100.53C62.2561 100.585 62.1159 100.53 62.0613 100.414C61.8172 99.8527 61.5835 99.271 61.3602 98.6685C61.3134 98.5439 61.3757 98.4114 61.5004 98.3647C61.6173 98.3179 61.7497 98.3803 61.7964 98.5049C62.0146 99.1022 62.2457 99.6761 62.4898 100.227ZM60.8304 95.4042C60.8616 95.5289 60.7914 95.6535 60.6668 95.6847C60.5421 95.7237 60.4097 95.6457 60.3785 95.5211C60.2279 94.929 60.0877 94.3187 59.9578 93.6903C59.9267 93.5579 60.0124 93.4332 60.137 93.4098C60.2617 93.3865 60.3863 93.4644 60.4097 93.5968C60.5396 94.2149 60.6798 94.8173 60.8304 95.4042ZM59.8254 90.3793C59.8566 90.5039 59.7709 90.6286 59.6462 90.6519C59.5138 90.6753 59.3969 90.5896 59.3658 90.465C59.2515 89.8469 59.1268 89.2392 58.9918 88.642C58.9684 88.5095 59.0463 88.3849 59.171 88.3615C59.3034 88.3303 59.4281 88.416 59.4515 88.5407C59.5813 89.1432 59.706 89.756 59.8254 90.3793ZM58.6802 85.3465C58.7113 85.4712 58.6412 85.6036 58.5166 85.6348C58.3919 85.6659 58.2595 85.5958 58.2283 85.4712C58.0673 84.8635 57.8985 84.2662 57.7219 83.6793C57.683 83.5547 57.7531 83.4222 57.8778 83.3833C58.0024 83.3521 58.1348 83.4222 58.1738 83.5469C58.3452 84.139 58.514 84.7388 58.6802 85.3465ZM57.1532 80.4228C57.2 80.5397 57.1298 80.6721 57.013 80.7189C56.8883 80.7656 56.7559 80.6955 56.7092 80.5786C56.5014 79.9866 56.2859 79.4049 56.0625 78.8335C56.0158 78.7089 56.0703 78.5764 56.195 78.5297C56.3118 78.483 56.4521 78.5453 56.4988 78.6621C56.7221 79.2387 56.9403 79.8255 57.1532 80.4228ZM55.2133 75.6394C55.2679 75.7562 55.2133 75.8965 55.0965 75.951C54.9796 76.0055 54.8394 75.951 54.7849 75.8341C54.52 75.2628 54.2499 74.7045 53.9746 74.1592C53.9201 74.0423 53.9668 73.9021 54.0759 73.8475C54.1928 73.7852 54.333 73.8319 54.3953 73.9488C54.6706 74.4993 54.9433 75.0629 55.2133 75.6394ZM52.806 71.0663C52.8762 71.1753 52.8372 71.3234 52.7281 71.3857C52.6191 71.4558 52.471 71.4168 52.4087 71.3078C52.0815 70.7676 51.7517 70.243 51.4193 69.7341C51.3492 69.625 51.3803 69.477 51.4894 69.4069C51.5985 69.3367 51.7387 69.3679 51.8088 69.477C52.1464 69.9912 52.4788 70.5209 52.806 71.0663ZM49.8923 66.797C49.9702 66.8983 49.9547 67.0463 49.8534 67.1242C49.7521 67.2099 49.6041 67.1865 49.5262 67.0852C49.1366 66.5866 48.7419 66.1088 48.342 65.6518C48.2563 65.5583 48.2719 65.4103 48.3654 65.3246C48.4666 65.2389 48.6147 65.2467 48.7004 65.3479C49.1003 65.8102 49.4976 66.2932 49.8923 66.797ZM46.4099 62.9796C46.5034 63.0653 46.5112 63.2133 46.4177 63.3068C46.332 63.4003 46.184 63.4081 46.0905 63.3146C45.6283 62.8835 45.1634 62.4784 44.696 62.0992C44.5947 62.0213 44.5791 61.8733 44.657 61.772C44.7427 61.6707 44.8907 61.6552 44.9842 61.7409C45.4621 62.1252 45.9373 62.5381 46.4099 62.9796ZM42.2887 59.8322C42.3977 59.9023 42.4367 60.0425 42.3666 60.1594C42.3042 60.2684 42.1562 60.2996 42.0472 60.2373C41.507 59.9101 40.9643 59.6166 40.4189 59.3569C40.3021 59.3024 40.2553 59.1622 40.3098 59.0453C40.3644 58.9284 40.5046 58.8817 40.6215 58.9362C41.1772 59.2011 41.7329 59.4998 42.2887 59.8322ZM37.5052 57.8144C37.6299 57.8455 37.7078 57.9702 37.6766 58.0948C37.6454 58.2195 37.5208 58.2974 37.3961 58.2662C36.7833 58.1156 36.1808 58.0143 35.5887 57.9624C35.4563 57.9468 35.3628 57.83 35.3784 57.7053C35.3862 57.5729 35.503 57.4794 35.6277 57.495C36.2457 57.5521 36.8716 57.6586 37.5052 57.8144ZM32.3088 57.6741C32.4335 57.6508 32.5582 57.7287 32.5815 57.8533C32.6127 57.978 32.527 58.1026 32.4023 58.1338C31.8051 58.2636 31.2285 58.448 30.6728 58.6869C30.556 58.7415 30.4157 58.6869 30.3612 58.5701C30.3144 58.4532 30.369 58.313 30.4858 58.2584C31.0727 58.004 31.6804 57.8092 32.3088 57.6741ZM27.6968 60.097C27.7903 60.0035 27.9383 60.0113 28.0318 60.1048C28.1175 60.1983 28.1097 60.3463 28.0162 60.4398C27.5851 60.8397 27.1774 61.2916 26.7931 61.7954C26.7152 61.8967 26.5671 61.9123 26.4659 61.8344C26.3646 61.7564 26.3412 61.6084 26.4191 61.5071C26.819 60.9878 27.2449 60.5177 27.6968 60.097ZM24.7675 64.3975C24.8143 64.2806 24.9545 64.2183 25.0713 64.265C25.196 64.3118 25.2505 64.4442 25.2038 64.5689C24.9701 65.1765 24.822 65.7608 24.7519 66.3218C24.7363 66.4464 24.6117 66.5399 24.487 66.5165C24.3624 66.5009 24.2689 66.3841 24.2845 66.2594C24.3624 65.6673 24.526 65.0441 24.7675 64.3975ZM24.7363 69.586C24.6896 69.4692 24.7363 69.329 24.861 69.2744C24.9779 69.2199 25.1103 69.2744 25.1648 69.3913C25.4141 69.9444 25.7491 70.443 26.1542 70.8793C26.2399 70.9728 26.2399 71.1208 26.1465 71.2065C26.0452 71.3 25.8972 71.2922 25.8115 71.1987C25.3752 70.7235 25.009 70.1781 24.7363 69.586ZM28.6239 73.0295C28.4992 72.9828 28.4369 72.8503 28.4836 72.7257C28.5226 72.6088 28.6628 72.5465 28.7797 72.5854C29.3406 72.788 29.9327 72.9282 30.5404 72.9983C30.6728 73.0139 30.7663 73.1308 30.7507 73.2632C30.7351 73.3879 30.6183 73.4814 30.4936 73.4658C29.847 73.3879 29.216 73.2399 28.6239 73.0295ZM33.8202 73.1853C33.6956 73.2243 33.5709 73.1464 33.532 73.0295C33.493 72.9049 33.5709 72.7724 33.6878 72.7335C34.2643 72.5699 34.8174 72.3361 35.3628 72.0323C35.4719 71.97 35.6121 72.0089 35.6822 72.118C35.7445 72.2349 35.7056 72.3751 35.5887 72.4374C35.02 72.7646 34.4279 73.0061 33.8202 73.1853ZM38.1207 70.256C38.0428 70.3573 37.8947 70.3807 37.7935 70.295C37.6922 70.2171 37.6766 70.0691 37.7545 69.9678C38.1596 69.4614 38.479 68.955 38.7128 68.433C38.7673 68.3162 38.9075 68.2694 39.0244 68.324C39.1412 68.3707 39.1958 68.5109 39.1412 68.6278C38.8842 69.1809 38.5492 69.7263 38.1207 70.256ZM39.7489 65.3323C39.7567 65.457 39.6632 65.5739 39.5308 65.5817C39.4061 65.5894 39.2893 65.496 39.2815 65.3713C39.2347 64.7792 39.1023 64.1871 38.8997 63.6028C38.8608 63.486 38.9231 63.3457 39.04 63.3068C39.1646 63.26 39.2971 63.3302 39.3438 63.447C39.5619 64.0703 39.6944 64.7013 39.7489 65.3323ZM37.7 60.5489C37.7779 60.6502 37.7623 60.7982 37.661 60.8761C37.5597 60.954 37.4117 60.9384 37.3338 60.8371C36.9677 60.3697 36.5548 59.9179 36.1029 59.4738C36.0094 59.3803 36.0094 59.2323 36.0951 59.1466C36.1886 59.0531 36.3366 59.0453 36.4301 59.1388C36.8975 59.5906 37.3182 60.0659 37.7 60.5489ZM33.8436 57.0665C33.9527 57.1366 33.9838 57.2846 33.9137 57.3859C33.8358 57.495 33.6956 57.5261 33.5865 57.456C33.0827 57.1184 32.5556 56.7964 32.005 56.49C31.8959 56.4276 31.857 56.2874 31.9193 56.1706C31.9816 56.0615 32.1219 56.0147 32.2309 56.0771C32.7971 56.3887 33.3346 56.7185 33.8436 57.0665ZM29.2471 54.6825C29.364 54.7293 29.4263 54.8617 29.3796 54.9864C29.3328 55.1032 29.1926 55.1656 29.0757 55.1188C28.5044 54.8955 27.9201 54.6929 27.3228 54.5111C27.206 54.4722 27.1359 54.3398 27.167 54.2151C27.206 54.0905 27.3384 54.0281 27.4631 54.0593C28.0707 54.2463 28.6654 54.454 29.2471 54.6825ZM24.2533 53.2958C24.378 53.3192 24.4637 53.436 24.4481 53.5685C24.4247 53.6931 24.3001 53.7788 24.1754 53.7555C23.5677 53.6516 22.9549 53.5711 22.3368 53.5139C22.2122 53.4984 22.1187 53.3815 22.1265 53.2569C22.1421 53.1244 22.2511 53.0309 22.3836 53.0465C23.012 53.1036 23.6353 53.1867 24.2533 53.2958ZM19.0803 52.9608C19.2128 52.953 19.3218 53.0543 19.3296 53.1867C19.3296 53.3114 19.2361 53.4205 19.1037 53.4282C18.4857 53.4594 17.8728 53.5165 17.2651 53.5996C17.1327 53.6152 17.0158 53.5217 17.0002 53.3971C16.9847 53.2646 17.0704 53.1478 17.2028 53.1322C17.826 53.0491 18.4519 52.992 19.0803 52.9608ZM13.9697 53.8412C14.0943 53.8022 14.2268 53.8723 14.2657 53.997C14.2969 54.1216 14.2346 54.2541 14.1099 54.293C13.523 54.4696 12.9439 54.6799 12.3726 54.924C12.2557 54.9786 12.1233 54.924 12.0688 54.7994C12.022 54.6825 12.0765 54.5423 12.1934 54.4956C12.7751 54.2463 13.3672 54.0281 13.9697 53.8412ZM9.27971 56.0693C9.38878 55.9992 9.5368 56.0303 9.60692 56.1394C9.67703 56.2407 9.64587 56.3887 9.54459 56.4588C9.04079 56.7964 8.54739 57.1652 8.06437 57.5651C7.97088 57.6508 7.82286 57.6352 7.73716 57.5417C7.65925 57.4404 7.66704 57.2924 7.76832 57.2067C8.25654 56.7964 8.76033 56.4173 9.27971 56.0693ZM5.43892 59.5595C5.51683 59.4582 5.66485 59.4504 5.76613 59.5283C5.8674 59.614 5.87519 59.762 5.79729 59.8555C5.39217 60.3437 5.01303 60.832 4.65986 61.3202C4.58974 61.4292 4.44172 61.4526 4.33265 61.3747C4.23137 61.3046 4.208 61.1566 4.2859 61.0475C4.63908 60.5489 5.02342 60.0529 5.43892 59.5595ZM2.55638 63.8677C2.61871 63.7509 2.75894 63.7119 2.8758 63.7664C2.98487 63.8288 3.03161 63.969 2.97708 64.0858C2.69142 64.6416 2.43433 65.1999 2.2058 65.7608C2.15127 65.8855 2.01883 65.94 1.89418 65.8933C1.77732 65.8387 1.72278 65.7063 1.76953 65.5894C2.00325 65.0129 2.26553 64.439 2.55638 63.8677ZM0.772322 68.7369C0.803485 68.6122 0.928136 68.5343 1.05279 68.5655C1.17744 68.5888 1.25534 68.7135 1.22418 68.8459C1.08395 69.4484 0.972282 70.0535 0.889182 70.6611C0.873601 70.7858 0.756742 70.8793 0.632092 70.8637C0.499651 70.8403 0.413953 70.7235 0.429534 70.5988C0.512635 69.9756 0.626897 69.3549 0.772322 68.7369ZM0.234768 73.8943C0.226978 73.7696 0.336046 73.6605 0.460697 73.6605C0.593138 73.6528 0.694416 73.7618 0.702207 73.8865C0.707401 74.5045 0.741162 75.12 0.803487 75.7329C0.811278 75.8653 0.717789 75.9822 0.593138 75.99C0.460698 76.0055 0.351629 75.9121 0.336048 75.7796C0.273723 75.1564 0.239962 74.5279 0.234768 73.8943ZM0.873602 79.0361C0.84244 78.9114 0.920345 78.7868 1.04499 78.7556C1.16965 78.7245 1.30209 78.8024 1.32546 78.9348C1.46569 79.5373 1.6267 80.132 1.80848 80.7189C1.84743 80.8435 1.77732 80.976 1.65267 81.0149C1.52802 81.0539 1.39557 80.9838 1.36441 80.8591C1.17744 80.2566 1.01383 79.649 0.873602 79.0361ZM2.50185 83.952C2.44731 83.8351 2.50185 83.6949 2.61871 83.6482C2.73557 83.5936 2.8758 83.6482 2.93033 83.765C3.17444 84.3363 3.43413 84.8973 3.7094 85.4478C3.77172 85.5647 3.72498 85.7049 3.60812 85.7594C3.49126 85.8217 3.35103 85.775 3.29649 85.6581C3.01603 85.1024 2.75115 84.5337 2.50185 83.952ZM4.91695 88.5251C4.85462 88.416 4.88578 88.268 4.99485 88.1979C5.10392 88.1356 5.24415 88.1667 5.31427 88.2758C5.65186 88.8004 5.99725 89.312 6.35042 89.8106C6.42833 89.9196 6.40496 90.0599 6.29589 90.1378C6.19461 90.2157 6.04659 90.1923 5.97647 90.0832C5.61291 89.5794 5.25973 89.0601 4.91695 88.5251ZM8.01762 92.6619C7.93972 92.5684 7.94751 92.4204 8.041 92.3347C8.14227 92.249 8.29029 92.2568 8.37599 92.3581C8.79149 92.8307 9.21219 93.28 9.63808 93.7059C9.73157 93.7994 9.73157 93.9474 9.63808 94.0409C9.55238 94.1266 9.40436 94.1266 9.31087 94.0409C8.87459 93.6046 8.44351 93.145 8.01762 92.6619ZM11.7883 96.2223C11.6792 96.1443 11.6636 95.9963 11.7416 95.8951C11.8195 95.7938 11.9675 95.7704 12.0688 95.8483C12.5829 96.2456 13.0893 96.5962 13.5879 96.9C13.697 96.9702 13.7282 97.1104 13.6658 97.2195C13.5957 97.3285 13.4555 97.3675 13.3386 97.2974C12.8322 96.9857 12.3103 96.6274 11.7883 96.2223Z" fill="#0F2A62"/>
<path d="M12.4745 96.4403L6.17969 99.1904L30.1671 106.521L17.0087 92.249L12.4745 96.4403Z" fill="#A8C0E7"/>
<path d="M29.3175 106.264L12.3806 96.6117C12.3417 96.5884 12.3105 96.5572 12.2949 96.5183L12.4741 96.4403L12.6221 96.3001L29.7304 106.054L30.1667 106.529L29.3175 106.264Z" fill="#133A84"/>
<path d="M30.1662 106.529L10.7285 104.083V100.577L30.1662 106.529Z" fill="#133A84"/>
<path d="M72.0339 87.098C72.0339 86.4124 71.473 85.8593 70.7874 85.8593H33.1586C32.473 85.8593 31.9121 86.4124 31.9121 87.098V109.449C31.9121 110.135 32.473 110.688 33.1586 110.688H70.7874C71.473 110.688 72.0339 110.135 72.0339 109.449V87.098Z" fill="white"/>
<path d="M55.1202 90.1751V92.6213C55.1202 92.6915 55.0579 92.7538 54.98 92.7538H36.1578C36.0799 92.7538 36.0176 92.6915 36.0176 92.6213V90.1751C36.0176 90.0972 36.0799 90.0349 36.1578 90.0349H54.98C55.0579 90.0349 55.1202 90.0972 55.1202 90.1751ZM57.7301 90.1751C57.7301 90.0972 57.7924 90.0349 57.8703 90.0349H67.7878C67.8657 90.0349 67.9281 90.0972 67.9281 90.1751V92.6213C67.9281 92.6915 67.8657 92.7538 67.7878 92.7538H57.8703C57.7924 92.7538 57.7301 92.6915 57.7301 92.6213V90.1751Z" fill="#607EBC"/>
<path d="M57.2938 95.06V95.6365C57.2938 95.6521 57.2782 95.6676 57.2549 95.6676H36.0487C36.0332 95.6676 36.0176 95.6521 36.0176 95.6365V95.06C36.0176 95.0444 36.0332 95.0288 36.0487 95.0288H57.2549C57.2782 95.0288 57.2938 95.0444 57.2938 95.06ZM47.5166 97.7711V98.3476C47.5166 98.3632 47.501 98.3788 47.4854 98.3788H36.0487C36.0332 98.3788 36.0176 98.3632 36.0176 98.3476V97.7711C36.0176 97.7555 36.0332 97.7399 36.0487 97.7399H47.4854C47.501 97.7399 47.5166 97.7555 47.5166 97.7711ZM67.9281 95.06V95.6365C67.9281 95.6521 67.9125 95.6676 67.8969 95.6676H58.8286C58.8052 95.6676 58.7896 95.6521 58.7896 95.6365V95.06C58.7896 95.0444 58.8052 95.0288 58.8286 95.0288H67.8969C67.9125 95.0288 67.9281 95.0444 67.9281 95.06ZM67.9281 97.7711V98.3476C67.9281 98.3632 67.9125 98.3788 67.8969 98.3788H49.5032C49.4876 98.3788 49.472 98.3632 49.472 98.3476V97.7711C49.472 97.7555 49.4876 97.7399 49.5032 97.7399H67.8969C67.9125 97.7399 67.9281 97.7555 67.9281 97.7711ZM44.1744 100.482V101.059C44.1744 101.074 44.1588 101.09 44.1432 101.09H36.0487C36.0332 101.09 36.0176 101.074 36.0176 101.059V100.482C36.0176 100.467 36.0332 100.451 36.0487 100.451H44.1432C44.1588 100.451 44.1744 100.467 44.1744 100.482ZM53.9049 100.482V101.059C53.9049 101.074 53.8893 101.09 53.8737 101.09H45.7793C45.7637 101.09 45.7481 101.074 45.7481 101.059V100.482C45.7481 100.467 45.7637 100.451 45.7793 100.451H53.8737C53.8893 100.451 53.9049 100.467 53.9049 100.482ZM55.9928 103.193V103.77C55.9928 103.785 55.9772 103.801 55.9616 103.801H36.0487C36.0332 103.801 36.0176 103.785 36.0176 103.77V103.193C36.0176 103.178 36.0332 103.162 36.0487 103.162H55.9616C55.9772 103.162 55.9928 103.178 55.9928 103.193ZM67.9281 103.193V103.77C67.9281 103.785 67.9125 103.801 67.8969 103.801H57.325C57.3016 103.801 57.2938 103.785 57.2938 103.77V103.193C57.2938 103.178 57.3016 103.162 57.325 103.162H67.8969C67.9125 103.162 67.9281 103.178 67.9281 103.193ZM49.472 105.912V106.481C49.472 106.497 49.4564 106.512 49.4409 106.512H36.0487C36.0332 106.512 36.0176 106.497 36.0176 106.481V105.912C36.0176 105.889 36.0332 105.873 36.0487 105.873H49.4409C49.4564 105.873 49.472 105.889 49.472 105.912ZM67.9281 100.482V101.059C67.9281 101.074 67.9125 101.09 67.8969 101.09H55.3695C55.354 101.09 55.3384 101.074 55.3384 101.059V100.482C55.3384 100.467 55.354 100.451 55.3695 100.451H67.8969C67.9125 100.451 67.9281 100.467 67.9281 100.482Z" fill="#96ABD5"/>
<path fill-rule="evenodd" clip-rule="evenodd" d="M72.1194 87.0978V109.449C72.1194 110.182 71.5195 110.774 70.7872 110.774H33.1506C32.4183 110.774 31.8262 110.182 31.8262 109.449V87.0978C31.8262 86.3655 32.4183 85.7734 33.1506 85.7734H70.7872C71.5195 85.7734 72.1194 86.3655 72.1194 87.0978ZM71.948 87.0978C71.948 86.459 71.426 85.9448 70.7872 85.9448H33.1506C32.5195 85.9448 31.9976 86.459 31.9976 87.0978V109.449C31.9976 110.088 32.5195 110.602 33.1506 110.602H70.7872C71.426 110.602 71.948 110.088 71.948 109.449V87.0978Z" fill="#AFC0E0"/>
<path d="M184.414 12.9644C184.414 5.81261 178.61 0.000793457 171.45 0.000793457C164.298 0.000793457 158.494 5.81261 158.494 12.9644C158.494 20.1162 164.298 25.9281 171.45 25.9281C178.61 25.9281 184.414 20.1162 184.414 12.9644Z" fill="#F26262"/>
<path d="M171.45 9.78582C173.031 6.90328 176.179 6.90328 177.752 8.13421C179.326 9.36513 179.326 11.827 177.752 14.281C176.646 16.1274 173.818 17.9738 171.45 19.2047C169.089 17.9738 166.253 16.1274 165.155 14.281C163.581 11.827 163.581 9.36513 165.155 8.13421C166.729 6.90328 169.876 6.90328 171.45 9.78582Z" fill="white"/>
<path d="M38.1444 125.897C38.1444 120.319 33.6181 115.785 28.0322 115.785C22.4541 115.785 17.9199 120.319 17.9199 125.897C17.9199 131.475 22.4541 136.009 28.0322 136.009C33.6181 136.009 38.1444 131.475 38.1444 125.897Z" fill="#F26262"/>
<path d="M28.0313 123.934C29.3479 121.612 31.9812 121.612 33.29 122.602C34.6066 123.599 34.6066 125.578 33.29 127.564C32.3707 129.052 30.0024 130.54 28.0313 131.537C26.0603 130.54 23.6919 129.052 22.7726 127.564C21.4638 125.578 21.4638 123.599 22.7726 122.602C24.0893 121.612 26.7225 121.612 28.0313 123.934Z" fill="white"/>
</svg>
