<svg width="294" height="184" viewBox="0 0 294 184" fill="none" xmlns="http://www.w3.org/2000/svg">
<path d="M1.38606 182.306C2.10896 182.052 3.7154 182.172 4.49185 182.306C4.89346 182.721 4.90685 182.721 4.93362 183.283L4.53201 183.712C4.42491 183.752 4.38475 183.779 4.26427 183.792C3.26024 183.926 1.8546 183.993 1.06477 183.35C1.038 182.761 0.997836 182.761 1.38606 182.306Z" fill="#2C3890"/>
<path d="M219.34 11.2735C219.113 11.8491 219.273 12.6791 219.113 13.3351L218.791 13.4555C218.35 12.987 218.497 11.9294 218.47 11.2735C217.801 11.2868 217.051 11.3806 216.422 11.1396L216.328 10.8585C216.997 10.256 217.707 10.8049 218.35 10.4033C218.537 10.2828 218.537 8.87718 218.631 8.51573L218.952 8.36847L219.233 8.60944L219.26 10.4568L221.081 10.497L221.321 10.8183L221.241 11.1262C220.692 11.4073 219.943 11.2868 219.34 11.2735Z" fill="#2C3890"/>
<path d="M160.516 20.5239L160.824 20.4837L161.065 20.6845L161.105 22.7997C161.748 22.7997 162.618 22.6926 163.207 22.9335L163.234 23.2013C162.672 23.6564 161.855 23.5226 161.146 23.5359C161.159 24.2722 161.226 25.0353 161.025 25.7582L160.597 25.8653C160.208 25.3834 160.369 24.1919 160.356 23.5493C159.686 23.5627 158.937 23.6564 158.307 23.3753L158.254 23.0674C158.776 22.6524 159.66 22.7863 160.342 22.7863C160.329 22.0768 160.208 21.1664 160.516 20.5239Z" fill="#2C3890"/>
<path d="M291.015 182.306C291.658 182.279 292.595 182.172 293.13 182.547C293.331 183.042 293.331 183.029 293.13 183.538C292.22 184.073 290.761 183.832 289.703 183.846C288.886 183.832 288.043 183.993 287.414 183.471C287.307 183.002 287.293 182.962 287.481 182.52C288.23 182.105 290.118 182.306 291.015 182.306Z" fill="#2C3890"/>
<path d="M61.1328 54.8079L64.2386 54.6473C64.3725 54.8481 64.4662 55.0489 64.5465 55.2765L64.9079 60.3903L61.1328 54.8079Z" fill="#0E7E82"/>
<path d="M182.887 35.5708C184.118 37.03 185.029 38.0876 187.01 38.3553C187.278 38.8506 187.197 40.4972 187.023 41.0595L186.97 41.18L186.876 41.2871L186.247 41.9698C185.885 41.8627 185.537 41.7021 185.189 41.5414C183.422 40.0822 183.114 37.6993 182.887 35.5708Z" fill="#1C2056"/>
<path d="M179.312 169.16L181.736 169.253L181.762 174.22C181.762 174.916 181.669 175.8 181.789 176.469L179.888 176.415L179.312 169.16Z" fill="#F6B79B"/>
<path d="M239.194 48.0071C239.783 47.9937 240.52 47.9937 241.002 48.315L240.921 48.5559C240.48 48.663 239.957 48.4087 239.409 48.489C238.659 48.5961 238.03 48.9576 237.575 49.5466C237.427 49.734 237.347 49.8143 237.28 50.0419C237.226 50.2427 237.28 50.1624 237.16 50.3364L237.079 50.4435C237.066 50.7916 237.026 51.1396 237.16 51.4609L242.059 51.9295C242.3 51.8893 242.34 51.7822 242.474 51.5814C242.474 51.1798 242.541 50.9388 242.314 50.6042C242.314 50.2427 242.26 50.0955 242.474 49.7876C242.755 50.0151 242.836 50.2695 242.956 50.6042C242.956 50.9388 242.996 51.3271 242.916 51.6617L242.876 51.8358C242.822 52.05 242.769 52.2106 242.675 52.4114L242.554 52.6524C242.367 53.1745 241.658 53.7233 241.243 54.125C241.055 54.1651 240.935 54.1919 240.774 54.299L240.667 54.3793C240.091 54.3793 239.77 54.6337 239.141 54.5132L238.953 54.473L238.753 54.4329C237.601 54.2053 237.24 53.3887 236.651 52.5185C236.504 52.2909 236.611 52.0633 236.423 51.7688C236.423 51.3672 236.356 51.1263 236.584 50.7916L236.571 50.6176C236.544 50.0955 237.146 49.2788 237.481 48.9174C237.628 48.8906 237.708 48.8639 237.815 48.7434C238.003 48.5426 238.097 48.4087 238.378 48.3284C238.672 48.2213 238.927 48.1142 239.194 48.0071Z" fill="#EFF1F6"/>
<path d="M212.873 169.16C212.672 171.449 213.93 173.992 213.984 176.322C212.966 176.349 211.922 176.335 210.905 176.496C210.195 174.367 210.075 171.676 209.727 169.441L210.972 169.401L212.873 169.16Z" fill="#E87F5C"/>
<path d="M135.281 74.353C137.062 73.5498 138.735 72.5993 140.77 72.693C141.386 72.7198 141.894 73.0813 142.524 73.0411C143.474 72.9876 144.585 72.5324 145.509 72.7198L147.289 76.5887C147.142 76.9501 146.982 77.0572 146.62 77.2045C146.312 77.3249 145.897 77.3116 145.576 77.3116C144.826 76.9501 144.398 76.428 143.742 75.9729C143.086 75.5177 142.39 75.1964 141.653 74.9153L141.426 74.8082C140.944 74.6208 140.101 74.7145 139.619 74.9153L139.525 74.9554L138.133 75.5311C137.945 75.5846 137.825 75.5846 137.664 75.7051C137.423 75.8658 137.196 75.7453 136.914 75.9461C136.071 75.9461 135.897 76.08 135.281 75.4641V74.353Z" fill="#F5A69B"/>
<path d="M150.315 54.4194C150.516 54.3792 150.623 54.3524 150.837 54.3926L151.453 54.5265C151.748 54.58 151.962 54.6336 152.23 54.7808C152.832 55.1289 153.381 55.7447 153.541 56.4274C153.582 56.6149 153.555 56.5479 153.662 56.7219L153.742 56.829C153.756 57.6323 153.809 58.4489 153.341 59.1584L153.26 59.2789C153.06 59.6135 152.952 59.7608 152.645 60.0018L152.524 60.0955C151.989 60.5239 151.574 60.631 150.918 60.7514C150.302 60.7648 149.673 60.6979 149.137 60.3498L149.017 60.2695C148.602 60.0285 148.387 59.8144 148.106 59.4127L148.039 59.2923C147.919 59.0915 147.812 58.9442 147.745 58.7032C147.691 58.5158 147.732 58.5827 147.624 58.4087L147.544 58.3016C147.544 57.8732 147.477 57.3377 147.584 56.9228L147.624 56.7487C147.678 56.5345 147.732 56.3739 147.825 56.1731L147.946 55.9321L147.972 55.7982C148.12 55.3431 148.776 55.0218 149.177 54.821L149.405 54.7005C149.726 54.4729 149.94 54.4595 150.315 54.4194Z" fill="#EFF1F6"/>
<path d="M206.409 97.7666L208.578 97.9808C208.886 98.0477 209.247 98.1013 209.542 98.2084C209.327 100.792 209.234 103.51 208.658 106.04C208.578 106.763 208.444 107.807 208.123 108.463C207.962 108.798 207.815 108.878 207.48 108.985L206.958 108.436C206.851 107.566 206.851 106.763 206.904 105.893C206.141 106.415 205.552 108.275 204.91 109.092C204.776 108.891 204.562 108.637 204.481 108.423C204.321 108.034 204.468 107.245 204.535 106.83L205.258 102.639C204.99 103.242 204.722 103.925 204.347 104.46C204.04 104.915 203.692 105.129 203.169 105.237L202.795 104.902C202.433 103.121 204.588 101.18 204.963 99.5203L205.003 99.3061L205.204 99.2927C205.753 98.8911 206.061 98.369 206.409 97.7666Z" fill="#F6B79B"/>
<path d="M206.918 105.906L206.972 105.812L207.721 104.032L207.761 107.057L208.176 105.451C208.27 106.134 208.042 106.656 208.123 107.338C208.23 107.178 208.217 107.111 208.243 106.923C208.257 106.736 208.283 106.629 208.35 106.468C208.471 106.2 208.444 105.879 208.444 105.585C208.591 105.759 208.618 105.839 208.672 106.053C208.591 106.776 208.457 107.82 208.136 108.476C207.976 108.811 207.828 108.891 207.494 108.998L206.972 108.45C206.864 107.579 206.864 106.776 206.918 105.906Z" fill="#FCBA49"/>
<path d="M213.436 67.1772C213.945 68.3821 214.989 70.6846 214.949 71.9564C214.922 72.9069 214.614 74.0046 214.453 74.9417L213.342 81.2738L211.374 92.0236C211.026 94.0316 210.825 96.0932 210.33 98.0611C210.036 98.195 209.875 98.2218 209.554 98.2218C209.259 98.1147 208.898 98.0611 208.59 97.9942L211.415 81.9297L212.74 74.2858C212.874 73.3085 213.034 72.3045 213.088 71.3272C213.128 70.2429 212.874 68.034 213.436 67.1772Z" fill="#17ACA1"/>
<path d="M93.9049 36.1865C92.6198 35.2227 91.5756 33.3886 90.8393 31.9696C89.5006 29.3993 88.4162 26.1463 88.3895 23.2547C88.3895 22.6255 88.3493 21.8624 88.5769 21.26C88.8045 20.6308 89.2194 20.1489 89.8219 19.841C90.5849 19.4527 91.7094 19.1716 92.5394 19.4394C92.6465 19.9614 92.6599 20.5505 92.8206 21.0592C93.1954 22.1971 94.4136 23.1476 95.3775 23.7634L96.2878 24.339C96.2878 25.2895 96.2878 26.1329 95.9665 27.0432L95.9263 27.1503C95.6318 27.9669 94.8152 28.9441 94.0789 29.3725L93.9585 29.2119C93.6372 28.8237 93.4497 28.5425 92.941 28.4087C92.4859 28.422 92.0173 28.4622 91.7094 28.837C91.3614 29.2654 91.3078 29.8545 91.4015 30.3899C91.4952 30.912 91.9236 31.4475 92.3654 31.7153C92.7135 31.9294 93.0615 31.8625 93.4364 31.7822C93.7576 32.3578 93.8514 33.0138 93.9986 33.643C94.0388 34.3525 94.2396 35.5975 93.9049 36.1865Z" fill="#2C3890"/>
<path d="M132.296 73.3353C133.206 73.9243 134.237 74.1117 135.281 74.3393L135.268 75.4236C135.884 76.0394 136.058 75.9056 136.901 75.9056C137.196 75.7182 137.423 75.8252 137.651 75.6646C137.811 75.5575 137.932 75.5441 138.119 75.4906L139.512 74.9149L139.605 74.8748C140.087 74.674 140.931 74.5803 141.413 74.7677L141.64 74.8748L141.386 74.9551L141.573 75.0086C143.113 75.4772 144.652 76.8828 145.75 78.0207C145.683 78.4893 145.496 78.757 145.228 79.1452L145.121 79.1051C144.947 79.0515 145.014 79.0649 144.813 79.0381C144.639 79.2791 144.425 79.4933 144.425 79.8146L144.893 79.4933L144.987 79.8146C144.679 80.1091 144.465 80.4036 144.036 80.5107L144.01 80.3099C143.769 80.4705 143.715 80.4973 143.581 80.7517L143.769 80.8722C143.287 81.4076 142.725 81.9431 141.975 82.0368L141.48 82.0234L141.359 82.0904C141.105 82.2376 140.783 82.2912 140.502 82.3581C140.261 82.2109 140.181 82.0904 139.886 82.1573C139.284 82.2912 138.856 82.3046 138.253 82.1305C137.691 81.9699 137.115 81.8896 136.58 81.6486C135.803 81.3005 135.174 80.7249 134.438 80.2831C133.595 79.7878 132.564 79.4398 131.613 79.1854C131.747 77.4585 131.493 75.4103 131.921 73.7503L132.296 73.3353Z" fill="#F6B79B"/>
<path d="M146.179 5.78467C147.504 6.21305 149.004 8.14078 149.66 9.33223C149.954 9.8811 150.195 10.7646 150.302 11.3804L150.409 11.9025C150.476 12.264 150.409 12.679 150.543 13.0003C150.704 13.3885 150.556 15.2627 150.382 15.6375L150.302 15.7848L150.222 16.1864C150.061 16.8557 149.793 17.6188 149.405 18.1811C148.642 19.3056 147.866 20.7514 146.634 21.4073C146.299 21.5814 146.005 21.9428 145.657 22.1436C144.639 22.7193 143.461 23.228 142.31 23.4555L141.721 23.5894C141.386 23.6697 140.971 23.5492 140.677 23.6296C140.007 23.817 139.445 23.7902 138.722 23.7902C138.2 23.4422 137.156 23.7233 136.661 23.3886C136.5 23.2815 136.38 23.2681 136.192 23.2146C135.242 22.9736 134.171 22.4381 133.408 21.8223L133.301 21.7554C131.975 20.7112 131.065 19.5599 130.262 18.074L132.096 19.078C134.653 20.3899 137.517 20.6844 140.248 19.7875C142.779 18.9575 144.8 17.0967 146.005 14.7406C147.544 11.7017 147.17 8.90384 146.179 5.78467Z" fill="#EFF1F6"/>
<path d="M109.765 48.449C112.336 53.0809 114.411 58.2081 116.017 63.255C116.258 64.0047 116.566 65.6111 117.035 66.2002C118.092 67.5389 121.399 68.3956 122.978 69.0784L132.296 73.3221L131.948 73.7505C125.161 73.1346 118.44 72.1172 111.881 70.2297C111.76 64.8481 111.332 59.3192 110.569 53.9912L109.966 50.4169C109.819 49.8145 109.538 49.038 109.765 48.449Z" fill="#EB6F11"/>
<path d="M92.5508 19.4525C93.7021 17.6988 94.5321 16.6814 96.6874 16.2128C99.4585 15.6104 102.323 17.1098 105.001 16.3735C105.938 16.1191 106.808 15.5703 107.651 15.1017L106.313 17.0964C107.571 17.4043 108.16 16.4672 109.258 16.3735C109.994 18.1406 110.476 20.0148 109.713 21.8622C109.044 23.4954 107.973 24.2584 106.42 24.9546C103.1 25.6908 99.512 25.3026 96.2858 24.3789L95.3754 23.8033C94.4116 23.1741 93.1934 22.237 92.8185 21.0991C92.6713 20.577 92.6579 19.9746 92.5508 19.4525Z" fill="#3951C9"/>
<path d="M96.2865 24.366C99.5261 25.3031 103.1 25.6913 106.42 24.9416C106.354 28.1277 106.648 33.1211 104.171 35.5174C103.368 36.3072 102.351 36.682 101.293 37.0033L101.28 38.8641L101.2 38.8373L101.133 38.168C98.7095 38.0073 96.1125 37.579 93.9973 36.3072L93.8902 36.1733C94.2249 35.5977 94.0241 34.3393 93.9973 33.6432C93.8501 33.014 93.7563 32.358 93.4351 31.7824C93.0468 31.8627 92.7122 31.9296 92.3641 31.7154C91.9223 31.4477 91.4939 30.9256 91.4002 30.3901C91.3065 29.8546 91.3601 29.2656 91.7081 28.8372C92.016 28.4624 92.4846 28.4222 92.9397 28.4089C93.4484 28.5427 93.6359 28.8238 93.9571 29.2121L94.0776 29.3727C94.8139 28.9443 95.6305 27.9671 95.925 27.1505L95.9652 27.0434C96.2999 26.1598 96.2865 25.3031 96.2865 24.366Z" fill="#F6B79B"/>
<path d="M94.0111 33.6563C95.1624 35.3431 96.1396 36.3471 98.228 36.7487C99.1517 36.9228 100.089 36.9496 101.026 36.9496C101.253 37.3244 101.16 37.7528 101.133 38.1812C98.71 38.0205 96.1129 37.5921 93.9977 36.3204L93.8906 36.1865C94.2387 35.5975 94.0379 34.3525 94.0111 33.6563Z" fill="#EC6B79"/>
<path d="M185.202 41.5547C185.55 41.7153 185.885 41.876 186.26 41.9831L186.22 42.1036C185.376 44.6605 184.225 47.03 183.515 49.6538C182.003 55.263 181.735 61.1935 180.972 66.9365L180.102 74.8482L179.874 76.9768L178.281 90.5244L176.447 89.8015C175.389 89.507 174.613 88.8912 173.863 88.1148L174.894 84.5137L177.598 73.456C178.227 70.6045 178.95 67.82 178.776 64.8749C178.736 64.2591 178.763 63.6433 178.468 63.0944C178.683 61.6888 178.254 59.6138 178.174 58.1546L178.027 51.3808C178.254 51.1398 179.298 47.1639 179.379 46.5882L179.392 46.5347C180.557 44.0581 182.391 43.0005 184.881 42.0634C185.041 41.9295 185.108 41.7421 185.202 41.5547Z" fill="#2CC9C1"/>
<path d="M185.203 41.5547C185.551 41.7153 185.885 41.876 186.26 41.9831L186.22 42.1036C185.377 44.6605 184.225 47.03 183.516 49.6538C182.003 55.263 181.735 61.1935 180.972 66.9365C180.383 65.6112 180.33 63.5763 180.129 62.1305L179.259 55.4236C179.125 54.2858 178.884 53.1345 178.844 51.9966L181.374 50.0153L180.678 47.6592L184.881 42.0634C185.042 41.9295 185.109 41.7421 185.203 41.5547Z" fill="#2C3890"/>
<path d="M257.935 141.529L257.855 141.422C256.328 139.387 254.454 135.679 254.856 133.135C254.896 132.854 254.99 132.613 255.097 132.359C255.579 131.114 256.489 130.003 257.721 129.44C258.47 129.092 259.461 128.972 260.251 129.253C262.138 129.949 262.098 131.957 263.571 132.734L263.678 132.801C264.146 133.028 264.869 132.881 265.325 132.693C267.426 131.823 269.26 129.869 271.79 130.726C272.46 130.953 273.022 131.422 273.33 132.064C273.558 132.533 273.571 133.309 273.343 133.791C272.473 135.598 267.681 136.522 268.444 138.905C269.046 140.766 271.857 141.623 270.72 144.019C270.224 145.05 269.086 145.786 268.015 146.107C266.824 146.469 265.391 146.442 264.294 145.826C263.665 145.478 263.142 144.916 262.607 144.42C260.987 142.921 259.889 142.586 257.788 142.198C257.975 141.997 258.256 141.81 258.256 141.542L257.935 141.529Z" fill="#FCBA49"/>
<path d="M247.397 124.099L247.892 121.355C247.156 120.618 246.393 119.695 245.523 119.146C244.572 118.543 243.649 117.606 242.711 116.923C241.935 116.361 240.623 115.839 240.021 115.143L240.262 114.982C240.918 115.21 241.667 115.732 242.216 116.147C244.291 117.673 246.232 119.052 248.053 120.913L250.61 109.855C250.891 108.798 251.078 107.164 251.774 106.334L251.895 106.575C251.266 108.302 250.904 110.176 250.476 111.957L248.521 120.779C249.378 120.31 250.275 119.775 251.199 119.48C252.444 119.092 254.064 118.115 255.362 118.088L255.523 118.329C255.335 118.503 255.349 118.543 255.081 118.583C254.01 118.744 252.952 119.306 251.922 119.628C250.744 120.002 249.552 120.779 248.414 121.301L247.745 124.273C247.25 126.602 247.022 129.025 246.728 131.395C245.951 137.606 245.549 143.751 245.63 150.016C245.643 151.663 245.563 153.43 245.777 155.063L246.259 161.02C249.03 153.657 252.497 147.285 257.906 141.515L258.214 141.529C258.214 141.81 257.932 141.997 257.745 142.185C252.618 147.633 249.218 153.979 246.62 160.953H260.195L260.289 165.224C259.78 165.224 258.722 165.371 258.281 165.21L257.705 168.53L237.062 167.245L236.861 165.84C236.821 165.599 236.741 165.425 236.634 165.21L234.88 165.197L234.84 160.953H245.951L244.519 156.268C243.782 154.086 242.885 151.971 241.895 149.882C241.373 148.771 240.69 147.673 240.034 146.643C239.806 146.281 239.405 145.866 239.405 145.438H239.565C242.511 149.601 244.264 154.019 245.643 158.905C245.898 157.151 245.402 154.902 245.295 153.082L245.268 147.191C245.335 139.534 246.152 131.676 247.397 124.099Z" fill="#EC6B79"/>
<path d="M236.902 165.853L236.956 165.318C237.344 165.104 237.933 165.197 238.375 165.197H241.748L258.322 165.238L257.746 168.558L237.103 167.272L236.902 165.853Z" fill="#B82E55"/>
<path d="M237.105 167.259L257.748 168.544L255.74 182.279H239.542L237.105 167.259Z" fill="#EC6B79"/>
<path d="M145.992 71.9031L146.032 71.8629C146.675 71.0597 162.659 65.4505 164.828 64.6607L167.572 63.6834C167.84 63.5897 168.456 63.4559 168.656 63.3086C169.058 63.0141 169.701 61.7156 169.995 61.247L175.35 52.8132C176.595 50.7784 177.786 48.5963 179.259 46.7221L179.379 46.5748C179.299 47.1505 178.268 51.113 178.027 51.3674L178.175 58.1412C178.255 59.6138 178.683 61.6754 178.469 63.081C177.291 64.9954 176.1 67.4452 174.493 69.0115C173.797 69.6139 173.181 70.0155 172.311 70.3368C169.112 71.5015 165.577 72.1441 162.284 73.041L152.927 75.4908C151.293 75.9192 149.62 76.4948 147.973 76.7893L146.688 73.3623C146.514 72.9339 146.3 72.2511 145.992 71.9031Z" fill="#17ACA1"/>
<path d="M174.481 69.0116L174.467 68.9045L174.387 68.195C174.347 67.2177 174.601 66.1066 174.708 65.1294C175.19 60.9124 175.779 57.1641 177.279 53.1614C177.479 52.6125 177.627 51.7959 178.015 51.3675L178.162 58.1413C178.243 59.6139 178.671 61.6755 178.457 63.0811C177.279 64.9955 176.074 67.4453 174.481 69.0116Z" fill="#0E7E82"/>
<path d="M224.72 125.384C227.264 125.116 228.455 125.893 229.981 127.834C230.41 128.383 230.865 129.012 231.481 129.387C232.819 130.203 234.814 127.66 236.26 127.298C237.384 127.017 238.415 127.245 239.392 127.847C240.53 128.557 241.762 129.882 242.029 131.248C242.19 132.051 242.056 132.814 241.762 133.564C241.119 135.183 239.62 136.281 238.857 137.861C238.335 138.959 238 140.15 237.652 141.315C237.518 141.756 237.478 142.399 237.237 142.76C237.076 142.56 236.969 142.52 236.742 142.399L235.43 142.908C233.114 143.684 231.253 145.023 229.098 146.094C227.772 146.75 226.501 147.232 225.041 146.71C223.93 146.321 223.047 145.465 222.538 144.42C221.828 142.921 222.096 141.208 223.087 139.896C223.596 139.226 224.225 138.651 224.479 137.834C225.202 135.612 223.596 133.992 222.672 132.131C222.003 130.792 221.614 129.226 222.163 127.78C222.605 126.602 223.622 125.893 224.72 125.384Z" fill="#FCBA49"/>
<path d="M130.262 18.0739C129.539 17.2573 128.816 16.4273 128.24 15.5036C126.835 13.2679 126.433 10.3094 127.062 7.7391C127.691 5.16879 129.405 2.85283 131.667 1.48736C133.943 0.121881 136.754 -0.373438 139.338 0.295913C142.605 1.1393 144.492 2.95993 146.179 5.78459C147.17 8.91716 147.558 11.715 146.005 14.7405C144.813 17.0966 142.779 18.9574 140.248 19.7874C137.518 20.6844 134.653 20.3898 132.096 19.0779L130.262 18.0739Z" fill="#FCBA49"/>
<path d="M141.185 6.13242L142.35 7.2837C141.52 8.35466 140.476 9.30514 139.512 10.269L135.295 14.5796L132.269 11.6613L130.891 10.2556C131.078 9.77369 131.721 9.27837 132.082 8.90353L135.215 12.2235L141.185 6.13242Z" fill="#FBFBFC"/>
<path d="M49.8473 5.6241C51.4939 5.49023 53.2878 6.0391 54.5596 7.09667C56.7283 8.87715 57.2102 11.6349 57.4779 14.2453C58.067 13.9776 58.7229 13.6965 59.3655 13.6162C60.4231 13.4823 61.5878 13.576 62.4445 14.2855C63.9974 15.5707 64.3321 17.0834 64.5195 18.9977C65.3629 18.556 66.0322 18.2615 67.0095 18.2882C68.7096 18.3284 69.7003 19.3458 70.7846 20.4837L44.7469 20.6042C42.5112 20.5908 24.0238 20.7247 23.4883 20.39C23.5552 20.1624 23.6355 19.9081 23.7828 19.7073C24.6931 18.3953 26.6075 17.3913 28.1336 17.1102C30.1818 16.7353 32.0961 16.9763 34.131 17.244C34.2916 17.1236 34.2916 17.1637 34.3585 17.0298C34.7869 16.2668 35.1484 15.6376 35.8847 15.1289C37.6919 13.8839 39.4992 13.8036 41.6143 14.1918C42.2435 12.2239 42.8995 10.4434 44.1445 8.77005C45.6706 6.73523 47.3841 5.95878 49.8473 5.6241Z" fill="#EFF1F6"/>
<path d="M193.357 34.2723L193.625 37.5789C193.678 38.6231 193.651 39.7342 193.933 40.7517L194.334 41.0462C195.071 41.1533 195.753 41.3541 196.463 41.5817L193.089 51.5282C192.058 54.6206 190.947 57.8737 190.412 61.0999C190.198 62.3717 190.144 63.7104 190.05 64.9956C189.823 66.3209 189.97 67.8202 189.997 69.1723C190.024 71.0197 189.957 72.9475 190.131 74.7815L189.261 74.902L180.117 74.8484L180.987 66.9367C181.75 61.1936 182.018 55.2632 183.531 49.654C184.24 47.0302 185.392 44.6607 186.235 42.1037L186.275 41.9833L186.904 41.3005L186.998 41.1934L187.052 41.0729C187.226 40.5107 187.293 38.8775 187.038 38.3688L187.145 38.3554C189.876 38.1412 191.657 36.2268 193.357 34.2723Z" fill="#FBFBFC"/>
<path d="M193.353 34.2723L193.621 37.5789C193.675 38.6231 193.648 39.7342 193.929 40.7517L194.331 41.0462C193.34 42.4652 191.667 44.8079 189.846 45.1158C188.936 45.2765 188.079 45.1426 187.289 44.6473C186.646 43.8441 186.901 42.8266 187.008 41.8896C187.048 41.5415 187.075 41.5549 186.874 41.2871L186.968 41.18L187.021 41.0596C187.195 40.4973 187.262 38.8641 187.008 38.3554L187.115 38.342C189.873 38.1412 191.653 36.2268 193.353 34.2723Z" fill="#F6B79B"/>
<path d="M193.357 34.2723L193.624 37.5789L193.45 37.4585C193.263 37.5522 193.183 37.6459 193.049 37.8065C191.482 39.7744 189.448 40.8052 186.984 41.18L187.038 41.0596C187.212 40.4973 187.279 38.8641 187.025 38.3554L187.132 38.342C189.876 38.1412 191.656 36.2268 193.357 34.2723Z" fill="#E87F5C"/>
<path d="M251.75 14.4328C253.785 14.2722 255.726 14.6738 257.319 16.0125C259.167 17.5654 259.769 19.6939 259.956 22.0099L261.335 21.5547C262.768 21.1799 264.428 21.3405 265.713 22.117C267.226 23.0273 267.881 24.54 268.27 26.1866C270.09 25.5976 272.005 25.4236 273.865 25.959C276.315 26.6552 277.708 27.8466 278.926 30.0689L263.022 30.0421L235.324 29.9752C235.672 29.1987 236.047 28.1947 236.85 27.7931C238.015 27.204 239.38 27.686 240.532 28.0608C240.478 27.1639 240.425 26.1599 240.639 25.2763C240.84 24.4195 241.683 23.4958 242.419 23.0407C243.129 22.6123 244.173 22.4115 244.99 22.6391C245.231 22.706 245.351 22.7328 245.605 22.6792C245.431 20.8184 245.766 18.9442 246.824 17.3646C247.948 15.6912 249.796 14.7943 251.75 14.4328Z" fill="#EFF1F6"/>
<path d="M94.0107 36.3202C96.1259 37.5919 98.723 38.0203 101.146 38.181L101.213 38.8503L101.293 38.8771C101.374 39.6937 101.36 40.9387 102.03 41.5009C103.703 42.1569 106.501 43.0538 107.679 44.4327C108.589 45.4903 109.165 47.1904 109.767 48.4622C109.54 49.0512 109.821 49.8277 109.955 50.4435L110.557 54.0178C111.32 59.3458 111.762 64.8747 111.869 70.2563C104.212 68.3821 99.1112 61.1397 95.577 54.6202C94.2249 52.1168 93.0201 49.4127 91.5208 47.003C90.6908 45.6643 89.8474 44.6201 88.2811 44.1917C87.7858 44.0579 87.2637 44.0712 86.7416 43.9508L86.6211 43.924C88.6961 42.4916 91.1593 41.7821 93.6091 41.2867L94.0107 36.3202Z" fill="#F8921A"/>
<path d="M94.0087 36.3202C96.1239 37.5919 98.721 38.0203 101.144 38.181L101.211 38.8503L101.291 38.8771C101.372 39.6937 101.358 40.9387 102.028 41.5009L101.787 41.7017C101.653 42.2372 101.505 42.7192 101.198 43.1877C100.756 43.8437 99.8187 44.339 99.0557 44.4862C97.8374 44.7272 96.3247 44.4193 95.2939 43.7366C94.397 43.1475 93.7946 42.3443 93.5938 41.2867L94.0087 36.3202Z" fill="#F5A69B"/>
<path d="M247.398 124.099C245.23 123.631 243.463 123.979 241.321 123.872C238.71 123.738 236.434 121.783 235.069 119.681C234.185 118.316 233.744 116.696 234.092 115.076C234.386 113.711 235.149 112.6 236.341 111.863C237.318 111.261 238.697 110.752 239.862 110.659C241.04 110.565 242.271 110.739 243.436 110.592C245.136 110.391 246.301 108.637 246.676 107.111C247.372 104.3 247.238 100.926 250.049 99.1993C251.214 98.4898 252.954 98.2086 254.266 98.5567C255.431 98.8646 256.488 99.467 257.104 100.551C257.907 101.97 257.773 103.617 257.318 105.13C256.676 107.258 255.056 109.882 256.207 112.064C257.05 113.671 258.51 113.818 259.996 114.541C262.472 115.746 263.543 118.008 262.753 120.699C262.218 122.533 260.799 123.979 259.125 124.849C255.631 126.669 251.307 125.143 247.773 124.287L248.443 121.315C249.58 120.793 250.772 120.016 251.95 119.641C252.981 119.32 254.038 118.744 255.109 118.597C255.377 118.557 255.364 118.517 255.551 118.343L255.39 118.102C254.079 118.129 252.459 119.092 251.227 119.494C250.303 119.789 249.406 120.324 248.55 120.793L250.504 111.97C250.933 110.177 251.281 108.316 251.923 106.589L251.803 106.348C251.107 107.178 250.919 108.811 250.638 109.869L248.081 120.926C246.261 119.066 244.319 117.687 242.244 116.161C241.682 115.746 240.946 115.237 240.29 114.996L240.049 115.157C240.651 115.853 241.963 116.375 242.74 116.937C243.677 117.606 244.601 118.544 245.551 119.159C246.421 119.708 247.184 120.645 247.921 121.368L247.398 124.099Z" fill="#FCBA49"/>
<path d="M61.1301 54.8079L47.1674 54.7142C45.2129 54.7142 42.8702 54.9819 40.9692 54.7008C40.3802 54.6071 40.2196 54.3795 39.8313 53.9779C39.577 53.3353 39.6707 52.5723 39.6841 51.8895L39.7243 48.2616C39.751 44.9818 39.5502 41.6217 39.7644 38.3552C40.0188 37.9135 40.2062 37.726 40.648 37.4851L58.9346 37.4717C60.434 37.4717 64.8383 37.0969 65.9762 37.7127C66.2841 38.0741 66.4581 38.2214 66.5117 38.7167C66.7393 40.6176 66.5385 42.8399 66.5385 44.781C66.5385 47.5789 66.7125 50.5374 66.5117 53.3219C66.4581 53.9779 66.2841 54.1921 65.8156 54.6205C65.414 54.7008 65.0257 54.7811 64.6375 54.9284L64.5438 55.3166C64.4501 55.089 64.3564 54.9016 64.2359 54.6874L61.1301 54.8079Z" fill="#17ACA1"/>
<path d="M226.085 68.2485C226.246 68.1949 226.38 68.1548 226.541 68.1414C227.906 68.0209 229.379 68.1414 230.744 68.1414H238.79L248.482 68.1547C249.62 68.1547 251.266 67.9539 252.337 68.2217C252.525 68.2618 252.873 68.5028 253.02 68.6501C253.355 68.9714 253.515 69.3462 253.542 69.8147L253.529 78.1549C253.529 79.7747 253.69 81.6355 253.462 83.2285C253.408 83.59 253.275 83.8577 253.007 84.1121C252.07 84.9822 250.035 84.6743 248.843 84.6743H236.675C235.55 84.6743 233.743 84.4468 232.699 84.7011C232.351 84.7814 231.788 85.3705 231.507 85.6114L227.866 88.6101C227.839 88.1951 227.786 85.076 227.705 85.009C227.652 84.9555 227.545 84.9956 227.464 84.9822C226.487 84.8751 226.019 84.8751 225.296 84.1656C224.733 82.9742 225.095 71.6755 225.095 69.3997C225.322 68.8643 225.63 68.5965 226.085 68.2485Z" fill="#5E90F6"/>
<path d="M181.36 29.6134C180.289 27.525 179.994 25.0082 180.717 22.7324C181.507 20.2424 183.488 18.4887 185.764 17.3375C188.241 16.0925 191.159 15.7846 193.796 16.6949C196.286 17.5517 197.812 19.4392 198.897 21.7418C199.901 23.8971 200.717 25.5437 203.087 26.4139C204.693 27.0029 206.42 26.3469 208.053 26.2131C210.972 25.9587 213.904 27.2706 215.189 30.0016C216.059 31.849 216.072 33.9775 215.349 35.8785L214.493 37.7259C216.554 38.1677 218.469 38.6228 219.687 40.497C220.651 41.983 220.892 44.0044 220.53 45.718C220.115 47.6591 219.004 49.212 217.317 50.2562C214.787 51.8224 211.467 52.5855 208.656 53.5761L207.719 53.951L205.322 48.797C204.733 47.4984 203.984 45.3967 202.886 44.4596C201.708 43.4556 199.887 42.813 198.468 42.2106L196.447 41.568C195.737 41.3404 195.068 41.1396 194.318 41.0325L193.917 40.738C193.636 39.7206 193.662 38.6094 193.609 37.5653L193.341 34.2587C191.641 36.2132 189.86 38.1275 187.116 38.3417L187.009 38.3551C185.028 38.0874 184.117 37.0432 182.886 35.5706C182.672 34.7138 182.27 33.9106 182.056 33.0538C181.761 31.9293 181.668 30.7513 181.36 29.6134Z" fill="#393359"/>
<path d="M197.41 28.8103C198.106 29.2119 198.441 30.3632 198.642 31.1263C198.95 32.3177 198.896 33.6029 199.097 34.8211C199.485 37.1103 201.855 39.1853 203.715 40.3499C206.379 41.9965 209.07 43.188 209.873 46.5883C210.462 49.0783 209.552 51.3139 208.682 53.5763L207.745 53.9512L205.349 48.7972C204.76 47.4986 204.01 45.3969 202.912 44.4598C201.734 43.4557 199.913 42.8132 198.494 42.2107L196.473 41.5682C195.763 41.3406 195.094 41.1398 194.344 41.0327L193.943 40.7382C193.662 39.7208 193.688 38.6096 193.635 37.5654L193.367 34.2588C193.863 33.8171 194.304 33.1477 194.666 32.5989C194.719 32.5185 194.947 32.0902 195.014 32.0634C195.241 31.9295 196.058 32.291 196.5 32.1035C197.049 31.8626 197.531 31.3003 197.731 30.7515C197.986 30.0821 197.664 29.4395 197.41 28.8103Z" fill="#1C2056"/>
<path d="M181.359 29.6132C181.48 28.8234 181.413 27.9934 181.453 27.1902C181.587 24.901 182.029 22.893 182.993 20.7912L183.274 22.4378C184.626 29.707 189.646 26.6012 194.077 29.6534L194.331 29.3589C194.706 28.9573 195.014 28.5557 195.563 28.3816C196.286 28.1674 196.795 28.4486 197.397 28.7966C197.651 29.4124 197.973 30.0684 197.705 30.7511C197.491 31.3134 197.022 31.8623 196.473 32.1032C196.032 32.2907 195.215 31.9292 194.987 32.0631C194.92 32.1032 194.693 32.5182 194.639 32.5986C194.278 33.1474 193.836 33.8168 193.341 34.2585C191.641 36.213 189.86 38.1274 187.116 38.3416L187.009 38.355C185.027 38.0872 184.117 37.043 182.885 35.5705C182.671 34.7137 182.27 33.9105 182.055 33.0537C181.761 31.9292 181.667 30.7511 181.359 29.6132Z" fill="#F6B79B"/>
<path d="M97.9587 173.43L105.134 173.364C105.148 173.845 105.081 174.609 105.268 175.05L106.218 175.479C107.022 175.88 107.731 176.416 108.548 176.777L110.395 177.299C112.631 177.714 114.867 178.103 116.232 180.137C116.66 180.767 116.861 181.516 117.062 182.239H147.156H150.489H162.337C163.743 182.239 165.844 181.985 167.156 182.333C167.544 182.279 167.745 182.293 168.067 182.052L168.361 181.088C168.776 180.579 178.883 176.67 179.927 176.443L181.828 176.496C182.458 176.509 184.024 176.349 184.506 176.697L184.854 178.732L185.269 182.145C186.126 182.427 187.799 182.212 188.736 182.212C191.668 182.226 194.8 182.467 197.719 182.186L197.933 181.409C198.08 181.088 198.067 181.101 198.402 180.967C199.432 180.352 200.798 179.95 201.909 179.508L209.272 176.764C209.781 176.791 210.41 176.59 210.918 176.509C211.936 176.349 212.98 176.362 213.997 176.335C214.533 177.072 214.827 177.728 214.76 178.665L214.975 181.757L215.135 182.226C215.684 182.4 216.327 182.319 216.889 182.319H220.289L233.168 182.306C235.269 182.306 237.451 182.159 239.553 182.279H255.752L275.069 182.239H280.049C280.919 182.239 281.95 182.132 282.767 182.386C283.074 182.734 283.128 182.828 283.235 183.283L282.927 183.685C281.816 184.234 268.563 183.899 266.515 183.899H227.063L78.2396 183.846L31.211 183.832H17.2751C14.6914 183.832 12.0274 183.979 9.45707 183.792C9.04207 183.431 9.00191 183.431 8.9082 182.882C9.22949 182.373 9.26965 182.373 9.84529 182.186L31.1574 182.239H34.7585H49.0157L66.5661 182.279L66.6866 179.107L66.6598 178.049C66.7535 177.125 66.9945 176.242 67.4363 175.425L67.7308 175.305L68.3064 173.658L75.0133 174.327L75.3614 175.198C76.2717 176.068 77.5167 176.75 78.668 177.259C80.9036 177.955 84.9197 178.518 86.0978 180.74C86.3388 181.208 86.4726 181.771 86.6199 182.279H91.5597H96.6468C96.8342 181.851 96.7539 181.155 96.7806 180.686L97.0216 177.674C97.1287 176.844 97.1956 175.974 97.5437 175.211C98.0658 174.622 97.9319 174.18 97.9587 173.43Z" fill="url(#paint0_linear_559_5878)"/>
<path d="M184.826 178.718L185.241 182.132C183.581 181.878 181.573 182.065 179.887 182.065L168.039 182.052L168.334 181.088C171.868 181.128 175.844 181.489 179.298 180.74C181.225 180.311 183.046 179.495 184.826 178.718Z" fill="#1C2056"/>
<path d="M198.375 180.954C199.486 181.115 200.704 181.074 201.842 181.115C204.72 181.195 207.572 181.155 210.356 180.338C211.869 179.896 213.261 179.2 214.747 178.651L214.961 181.744L214.72 182.159L197.973 181.998L197.906 181.396C198.054 181.074 198.054 181.101 198.375 180.954Z" fill="#1C2056"/>
<path d="M210.905 176.496C211.923 176.335 212.967 176.349 213.984 176.322C214.52 177.058 214.814 177.714 214.747 178.651C213.275 179.2 211.883 179.896 210.356 180.338C207.559 181.154 204.72 181.195 201.842 181.114C200.704 181.088 199.5 181.114 198.375 180.954C199.406 180.338 200.771 179.936 201.882 179.494L209.245 176.75C209.767 176.764 210.397 176.576 210.905 176.496Z" fill="#FCBA49"/>
<path d="M181.802 176.483C182.431 176.496 183.997 176.335 184.479 176.684L184.827 178.718C183.047 179.495 181.226 180.311 179.312 180.74C175.858 181.489 171.882 181.128 168.348 181.088C168.763 180.579 178.87 176.67 179.914 176.443L181.802 176.483Z" fill="#FCBA49"/>
<path d="M97.9589 173.43L105.134 173.364C105.148 173.845 105.081 174.609 105.268 175.05L106.219 175.479C107.022 175.88 107.731 176.416 108.548 176.777C107.838 177.179 107.075 177.353 106.312 177.647C103.662 178.651 101.627 179.334 98.7621 178.544C98.1195 178.37 97.4502 178.196 97.0352 177.647C97.1423 176.817 97.2092 175.947 97.5573 175.184C98.066 174.622 97.9321 174.18 97.9589 173.43Z" fill="#1C2056"/>
<path d="M97.9602 173.43L105.136 173.364C105.149 173.845 105.082 174.609 105.27 175.05L105.189 175.09C104.707 175.345 104.292 175.706 103.797 175.92C102.525 176.509 100.812 176.443 99.4997 176.001L97.5586 175.171C98.0673 174.622 97.9334 174.18 97.9602 173.43Z" fill="#F5A69B"/>
<path d="M68.3341 173.631L75.041 174.301L75.3891 175.171C76.2994 176.041 77.5444 176.724 78.6957 177.232C80.9313 177.929 84.9474 178.491 86.1255 180.713C86.3664 181.182 86.5003 181.744 86.6476 182.253C85.764 182.815 75.7907 182.293 74.037 182.279C71.6273 182.253 69.1909 182.413 66.808 182.253L66.7143 179.08L66.6875 178.022C66.7812 177.099 67.0222 176.215 67.4639 175.398L67.7585 175.278L68.3341 173.631Z" fill="#2C3890"/>
<path d="M68.3341 173.631L75.041 174.301L75.3891 175.171C76.2994 176.041 77.5444 176.724 78.6957 177.232C78.0665 177.621 77.2499 177.661 76.5403 177.808C75.3489 178.062 74.1039 178.384 72.8857 178.451C70.7973 178.571 68.7491 178.263 66.6875 178.022C66.7812 177.099 67.0222 176.215 67.4639 175.398L67.7585 175.278L68.3341 173.631Z" fill="#1C2056"/>
<path d="M68.335 173.631L75.0419 174.301L75.39 175.171L75.3096 175.211C74.734 175.465 74.3324 175.934 73.8103 176.269C72.5653 177.099 70.999 176.817 69.6871 176.335C68.9374 176.054 68.2279 175.626 67.4648 175.412L67.7594 175.291L68.335 173.631Z" fill="#F5A69B"/>
<path d="M196.463 41.5814L198.485 42.2239C199.917 42.8264 201.724 43.4555 202.902 44.473C204 45.41 204.75 47.5252 205.339 48.8104L207.735 53.9644L212.099 63.6432C212.528 64.6472 213.304 66.1064 213.438 67.1774C212.876 68.0341 213.143 70.243 213.09 71.3273C213.05 72.318 212.889 73.3086 212.742 74.2859L211.416 81.9299L208.592 97.9943L206.423 97.7801C206.075 98.3691 205.767 98.8912 205.218 99.333L205.017 99.3464L204.589 89.5872C203.692 89.3864 201.564 90.3637 200.573 90.618C197.427 91.4079 194.174 91.8095 190.921 91.9032L190.131 74.7678C189.957 72.9338 190.024 70.9927 189.997 69.1586C189.984 67.8199 189.823 66.3072 190.051 64.9819C190.144 63.6967 190.198 62.358 190.412 61.0863C190.948 57.8734 192.059 54.6069 193.09 51.5145L196.463 41.5814Z" fill="#2CC9C1"/>
<path d="M206.634 89.0117L205.858 97.4857C206.059 97.6062 206.192 97.6865 206.42 97.7668C206.072 98.3559 205.764 98.878 205.215 99.3197L205.014 99.3331L204.586 89.574L205.162 89.2661C205.644 89.2527 206.152 89.1054 206.634 89.0117Z" fill="#FBFBFC"/>
<path d="M199.301 66.3744L199.97 60.5645C200.051 59.6274 200.198 58.5966 200.158 57.6595C200.118 56.7492 199.355 55.4372 199.475 54.6876C200.452 56.8027 201.764 58.8241 202.554 61.0062L200.091 66.361C199.903 66.8162 199.475 67.5525 199.421 68.0077C199.368 68.4494 199.85 69.7346 199.984 70.2299C201.724 76.2273 204.415 82.0373 206.624 87.8874L206.61 89.0119C206.128 89.1056 205.62 89.2529 205.138 89.2796L204.75 89.1859C204.335 88.4496 204.067 87.5259 203.732 86.7361C202.393 83.483 201.55 80.1229 200.559 76.7628C199.984 74.8083 199.073 72.6396 198.846 70.6181C198.725 69.2794 199.14 67.7131 199.301 66.3744Z" fill="#17ACA1"/>
<path d="M196.463 41.5814L198.484 42.2239L198.658 47.0834L195.177 50.2562L196.757 52.2374L192.165 61.0595C191.683 62.0233 190.813 64.433 190.023 64.9685C190.117 63.6833 190.171 62.3446 190.385 61.0729C190.92 57.86 192.032 54.5935 193.062 51.5011L196.463 41.5814Z" fill="#2C3890"/>
<path d="M202.567 61.0062L206.168 68.0745C206.824 69.3864 207.922 71.1535 208.243 72.5726C208.551 73.938 207.895 76.4146 207.748 77.8604C207.386 81.1536 207.252 84.6343 206.65 87.8873C204.428 82.0506 201.75 76.2272 200.01 70.2298C199.863 69.7345 199.381 68.4494 199.448 68.0076C199.501 67.5524 199.93 66.8161 200.117 66.361L202.567 61.0062Z" fill="#EFF1F6"/>
<path d="M108.443 87.7397L110.987 86.8562L109.835 122.412L118.055 120.123C119.849 119.668 121.683 118.824 123.396 118.128C133.557 114.005 142.808 108.195 151.656 101.769C153.651 100.324 155.9 98.9179 157.64 97.1776C155.351 97.2445 153.25 97.6595 150.987 97.9808L150.92 97.7532C151.402 97.4453 152.286 97.4855 152.861 97.3918L159.126 96.4949L155.485 103.978L155.231 104.005C155.191 103.403 155.659 102.827 155.94 102.278C156.73 100.725 157.962 98.7974 158.404 97.1508L147.426 105.223C137.493 112.037 126.583 118.048 114.949 121.355C113.276 121.836 111.589 122.412 109.849 122.626L108.028 157.848L106.475 173.363L105.123 173.35L97.9477 173.417L96.8634 173.377C96.7964 173.296 96.7027 173.229 96.6492 173.136C96.5688 172.935 96.6492 172.239 96.6358 171.971L96.5822 168.209L96.1538 153.925C96.0601 151.676 96.0601 149.4 95.8192 147.165L94.4805 119.092C94.534 117.968 95.0427 116.682 95.3372 115.585L97.2248 108.302L101.803 88.8107C104.052 88.6634 106.274 88.3154 108.443 87.7397Z" fill="#1C2056"/>
<path d="M83.1546 47.4316C84.172 45.8653 84.9752 44.8211 86.6219 43.8974L86.7423 43.9242C87.251 44.0447 87.7731 44.0313 88.2818 44.1651C89.8615 44.5935 90.6915 45.6377 91.5215 46.9764C93.0209 49.3861 94.2123 52.0903 95.5778 54.5936C99.1119 61.1131 104.212 68.3555 111.87 70.2297C118.429 72.1172 125.15 73.1347 131.937 73.7505C131.509 75.4105 131.763 77.4587 131.629 79.1856C128.563 79.9085 125.203 80.1896 122.057 80.3637C118.777 80.5377 115.444 80.6046 112.164 80.2833C112.204 81.4078 112.686 85.4775 111.977 86.2138C111.723 86.4815 111.308 86.6689 111 86.8564L108.456 87.7399C106.287 88.3155 104.052 88.6636 101.816 88.8376C94.8147 89.5739 87.8936 88.7841 81.2938 86.3343C80.5575 85.9594 80.0087 85.5712 79.4062 85.0223L80.3299 60.5241C80.5308 56.1867 80.8922 51.943 82.9003 48.0072L83.1546 47.4316Z" fill="#FCBA49"/>
<path d="M83.1546 47.4314C83.6365 48.5291 83.1412 50.4836 83.1144 51.742C83.1011 52.6925 83.1948 53.7501 83.3019 54.7005C84.1586 62.5587 88.4291 69.761 94.721 74.4866C96.3542 75.7182 98.1079 76.8695 100.022 77.6325C104.065 79.2256 107.934 79.6807 112.164 80.2965C112.204 81.4211 112.686 85.4907 111.977 86.227C111.723 86.4947 111.308 86.6821 111 86.8696L108.456 87.7531C106.287 88.3288 104.052 88.6768 101.816 88.8508C94.8147 89.5871 87.8936 88.7973 81.2938 86.3475C80.5575 85.9726 80.0087 85.5844 79.4062 85.0355L80.3299 60.5373C80.5308 56.1999 80.8922 51.9562 82.9003 48.0204L83.1546 47.4314Z" fill="#F8921A"/>
<path d="M83.1539 47.4314C83.6359 48.5291 83.1405 50.4836 83.1138 51.742C83.1004 52.6925 83.1941 53.7501 83.3012 54.7005C84.158 62.5587 88.4284 69.761 94.7203 74.4866C96.3535 75.7182 98.1072 76.8695 100.022 77.6325C104.064 79.2256 107.933 79.6807 112.164 80.2965C112.204 81.4211 112.686 85.4907 111.976 86.227C111.722 86.4947 111.307 86.6821 110.999 86.8696L108.455 87.7531C107.451 86.8562 105.323 86.3609 104.038 85.7584C98.1608 83.0409 93.1407 79.0783 89.3254 73.8038C85.6305 68.6766 83.4752 63.0674 82.6854 56.8023C82.498 55.3833 82.3373 53.6697 82.5649 52.2641C82.672 51.6081 82.4846 50.6309 82.8193 50.1088C82.8193 49.6938 82.8996 49.319 82.6586 48.9575C82.8326 48.6496 82.846 48.3283 82.8862 47.9937L83.1539 47.4314Z" fill="#EB6F11"/>
<path d="M150.369 128.008L150.262 111.421L167.223 111.448L167.143 182.319C165.817 181.971 163.729 182.225 162.323 182.225H150.476L150.369 128.008Z" fill="#99BFF6"/>
<path d="M130.917 128.008H150.368L150.462 182.226H147.129H117.034C116.834 181.503 116.619 180.753 116.204 180.124C114.852 178.089 112.603 177.701 110.368 177.286L108.52 176.764C107.69 176.402 106.994 175.867 106.191 175.465L105.241 175.037C105.053 174.595 105.12 173.845 105.107 173.35L106.459 173.363L108.012 157.848L110.515 157.861C110.515 155.706 110.194 142.292 110.676 141.422L125.508 141.342C127.008 141.114 128.708 141.248 130.247 141.235V131.998C130.247 130.806 130.06 129.226 130.341 128.075L130.917 128.008Z" fill="#99BFF6"/>
<path d="M110.705 141.422L110.584 158.879C110.598 161.315 110.959 176.523 110.383 177.286L108.536 176.764C107.706 176.402 107.01 175.867 106.207 175.465L105.256 175.037C105.069 174.595 105.136 173.845 105.122 173.35L106.474 173.363L108.027 157.848L110.531 157.861C110.531 155.719 110.223 142.305 110.705 141.422Z" fill="#B8D2F6"/>
<path d="M105.121 173.364L106.473 173.377L106.192 175.479L105.242 175.05C105.068 174.595 105.148 173.845 105.121 173.364Z" fill="#EFF1F6"/>
<path d="M130.262 141.235L130.129 182.119L127.063 182.105L127.17 141.609C126.782 141.221 126.072 141.355 125.523 141.342C127.036 141.114 128.736 141.248 130.262 141.235Z" fill="#EFF1F6"/>
<path d="M130.918 128.008H150.369L150.463 182.226H147.13L147.116 128.222C146.34 127.888 144.573 128.142 143.649 128.155L135.55 128.142C134.077 128.129 132.511 128.222 131.065 128.035L130.918 128.008Z" fill="#B8D2F6"/>
<path d="M81.2781 86.3343C87.8779 88.7841 94.799 89.574 101.8 88.8377L97.222 108.329L95.3344 115.612C95.0399 116.696 94.5312 117.995 94.4777 119.119L95.8164 147.192C96.0707 149.427 96.0573 151.703 96.1511 153.952L96.5794 168.236L96.633 171.998C96.633 172.266 96.5527 172.962 96.6464 173.163C96.6865 173.256 96.7802 173.323 96.8606 173.403L97.9449 173.444C97.9181 174.193 98.052 174.635 97.5299 175.197C97.1819 175.96 97.1149 176.831 97.0078 177.661L96.7669 180.673C96.7535 181.141 96.8204 181.837 96.633 182.266H91.5459H86.6061C86.4589 181.757 86.3384 181.195 86.084 180.726C84.906 178.491 80.9032 177.942 78.6542 177.246C77.5029 176.737 76.2579 176.054 75.3476 175.184L74.9996 174.314L68.2927 173.644C67.8107 173.551 67.302 173.497 66.887 173.216C66.8201 171.931 67.5698 169.976 67.8509 168.678L70.448 156.241L76.1107 127.165C78.6408 113.63 80.0866 100.016 81.2781 86.3343Z" fill="#2C3890"/>
<path d="M75.0391 174.3L76.94 174.581C77.3818 174.019 77.6094 172.707 77.837 171.998L80.3939 164.059L91.3578 129.748L93.3391 122.867C93.6738 121.676 93.888 120.19 94.4904 119.119L95.8291 147.191C96.0835 149.427 96.0701 151.703 96.1638 153.952L96.5922 168.236L96.6457 171.998C96.6457 172.265 96.5654 172.962 96.6591 173.162C96.6993 173.256 96.793 173.323 96.8733 173.403L97.9576 173.443C97.9309 174.193 98.0647 174.635 97.5427 175.197C97.1946 175.96 97.1277 176.83 97.0206 177.66L96.7796 180.672C96.7662 181.141 96.8331 181.837 96.6457 182.265H91.5587H86.6188C86.4716 181.757 86.3511 181.195 86.0967 180.726C84.9187 178.49 80.916 177.941 78.667 177.245C77.5157 176.737 76.2707 176.054 75.3604 175.184L75.0391 174.3Z" fill="#EFF1F6"/>
<path d="M95.8324 147.178C96.0867 149.414 96.0734 151.69 96.1671 153.939L96.5955 168.223L96.649 171.984C96.649 172.252 96.5687 172.948 96.6624 173.149C96.7025 173.243 96.7963 173.31 96.8766 173.39L97.9609 173.43C97.9342 174.18 98.068 174.622 97.5459 175.184C97.1979 175.947 97.1309 176.817 97.0238 177.647L96.7829 180.659C96.7695 181.128 96.8364 181.824 96.649 182.252H91.5619L91.5352 148.704C92.3518 148.718 95.2166 148.986 95.7788 148.571L95.8324 147.178Z" fill="#B8D2F6"/>
<path d="M180.104 74.8351L189.247 74.8886L190.117 74.7681L190.907 91.9035C194.147 91.8098 197.4 91.4082 200.559 90.6184C201.55 90.364 203.678 89.3868 204.575 89.5876L205.004 99.3467L204.963 99.5609C204.589 101.207 202.433 103.162 202.795 104.942L203.17 105.277C203.692 105.17 204.04 104.956 204.348 104.501C204.722 103.952 204.99 103.282 205.258 102.68L204.535 106.87C204.468 107.272 204.321 108.062 204.481 108.463C204.562 108.677 204.789 108.932 204.91 109.133L204.83 122.359C204.789 124.541 204.589 126.87 204.763 129.053C204.816 129.775 205.097 130.605 205.271 131.315L206.409 136.054L209.85 152.533C210.291 154.796 213.183 168.116 212.848 169.2L210.961 169.441L209.716 169.481C210.05 171.704 210.184 174.408 210.894 176.536C210.385 176.63 209.756 176.817 209.247 176.791L201.884 179.535C200.76 179.977 199.394 180.378 198.377 180.994C198.042 181.128 198.042 181.115 197.908 181.436L197.694 182.212C194.776 182.494 191.643 182.253 188.712 182.239C187.774 182.239 186.114 182.453 185.244 182.172L184.829 178.759L184.481 176.724C183.999 176.389 182.433 176.536 181.804 176.523C181.67 175.854 181.777 174.97 181.777 174.274L181.75 169.307L179.327 169.214C179.006 167.54 179.019 165.666 178.885 163.966L177.922 152.092L176.663 136L176.074 128.611L176.516 90.6451L176.462 89.7884L178.296 90.5113L179.876 76.9502L180.104 74.8351Z" fill="#3951C9"/>
<path d="M179.873 76.9634C180.007 78.0343 179.86 78.9848 179.833 80.0558C179.699 83.9514 178.989 87.8604 178.976 91.7293L176.526 90.6449L176.473 89.7881L178.307 90.5111L179.873 76.9634Z" fill="#2C3890"/>
<path d="M182.539 169.28C182.941 164.956 182.834 160.512 182.914 156.174L183.677 129.628L185.779 106.107L186.421 100.042C186.542 98.7974 186.756 97.6996 186.582 96.4413C186.448 95.4105 186.154 94.3529 185.926 93.3355C185.752 92.5322 185.658 91.5148 185.35 90.7652L185.283 90.6313L185.417 90.4706L185.645 90.551L185.966 91.6889L186.502 94.2993L189.808 110.324C189.955 110.792 189.889 111.274 190.036 111.716C190.116 111.957 190.049 112.01 189.955 112.251L187.425 122.519C186.823 124.915 186.006 127.459 185.658 129.895C185.471 131.207 185.565 132.68 185.538 134.005L185.417 142.867L184.668 169.293L182.539 169.28Z" fill="#2C3890"/>
<path d="M190.114 74.7681L190.904 91.9035C194.144 91.8098 197.397 91.4082 200.556 90.6184C201.547 90.364 203.675 89.3868 204.572 89.5876L205 99.3467L204.96 99.5609C204.585 101.207 202.43 103.162 202.792 104.942L203.166 105.277C203.688 105.17 204.037 104.956 204.344 104.501C204.719 103.952 204.987 103.282 205.255 102.68L204.532 106.87C204.465 107.272 204.318 108.062 204.478 108.463C204.559 108.677 204.786 108.932 204.907 109.133L204.826 122.359C204.786 124.541 204.585 126.87 204.759 129.053C204.813 129.775 205.094 130.605 205.268 131.315L206.406 136.054L209.846 152.533C210.288 154.796 213.18 168.116 212.845 169.2L210.958 169.441C210.556 168.999 209.271 161.034 209.03 159.749L204.264 137.312L202.992 132.011C202.698 130.873 202.283 129.588 202.189 128.423C201.814 123.216 202.256 117.834 202.336 112.613L202.256 103.831L202.363 92.3051C198.093 93.3092 193.809 93.7911 189.431 93.8714L189.23 74.9154L190.114 74.7681Z" fill="#2C3890"/>
<path d="M189.997 112.252C190.358 112.935 190.465 113.738 190.626 114.474L191.443 118.089C192.42 122.466 193.317 127.031 194.575 131.328L198.846 143.885L207.373 169.468L209.729 169.428C210.064 171.65 210.198 174.354 210.907 176.483C210.399 176.576 209.769 176.764 209.261 176.737L201.898 179.481C200.773 179.923 199.408 180.325 198.39 180.941C198.056 181.074 198.056 181.061 197.922 181.382L197.708 182.159C194.789 182.44 191.657 182.199 188.725 182.186C187.788 182.186 186.128 182.4 185.258 182.119L184.843 178.705L184.495 176.67C184.013 176.335 182.447 176.483 181.817 176.469C181.683 175.8 181.791 174.916 181.791 174.22L181.764 169.254L182.567 169.267L184.736 169.307L185.485 142.881L185.606 134.019C185.633 132.694 185.539 131.221 185.726 129.909C186.074 127.473 186.891 124.929 187.493 122.533L189.997 112.252Z" fill="#EFF1F6"/>
<path d="M207.371 169.481L209.727 169.441C210.062 171.663 210.196 174.367 210.905 176.496C210.397 176.59 209.767 176.777 209.259 176.75C208.897 174.381 208.161 171.744 207.371 169.481Z" fill="#F6B79B"/>
<path d="M182.538 169.28L184.707 169.32L184.479 176.683C183.997 176.349 182.431 176.496 181.802 176.482C181.668 175.813 181.775 174.93 181.775 174.233L181.748 169.267L182.538 169.28Z" fill="#E87F5C"/>
<path d="M9.81925 182.172C10.5421 181.704 12.9652 181.998 13.9425 181.998C18.0657 182.012 22.296 182.226 26.4192 181.971C23.6079 179.736 21.1581 176.978 18.8555 174.22C9.77909 163.39 3.90218 150.673 1.67994 136.71C-1.09118 119.334 2.028 100.043 12.5234 85.625C19.6989 75.7587 29.9935 68.6636 42.2025 67.0706C45.5626 66.6288 48.8826 66.5351 52.2561 66.3075L63.769 65.0357C67.3031 64.4869 70.757 63.764 74.1573 62.6528C76.152 61.9969 78.2805 60.8188 80.3153 60.5109L79.3916 85.0092C79.994 85.558 80.5563 85.9597 81.2792 86.3211C80.0877 100.003 78.6419 113.631 76.152 127.152L70.4892 156.228L67.8922 168.665C67.611 169.963 66.8614 171.904 66.9283 173.203C67.3433 173.484 67.852 173.538 68.3339 173.631L67.7583 175.278L67.4638 175.398C67.0086 176.215 66.781 177.099 66.6873 178.022L66.7141 179.08L66.5936 182.253L49.0432 182.212H34.7325H31.1314L9.81925 182.172Z" fill="#EFF1F6"/>
<path d="M62.5642 84.9154C62.7517 84.8752 62.9123 84.902 63.0997 84.9154L63.1399 87.1644C63.7557 87.1644 64.9471 87.0038 65.4291 87.3652L65.3755 87.6865C64.8133 87.9676 63.7959 87.8337 63.1533 87.8337C63.1667 88.6236 63.18 89.4 63.0596 90.1765L62.6847 90.1899C62.3367 89.7615 62.4973 88.3692 62.4973 87.7802C61.8413 87.7802 60.7034 87.9275 60.168 87.6062L60.2751 87.2849L62.5107 87.2313L62.5642 84.9154Z" fill="#3951C9"/>
<path d="M55.79 105.183C56.0979 104.996 56.0979 105.023 56.446 105.076C55.9908 106.455 54.8797 107.78 54.1969 109.066L50.047 117.339C47.731 122.158 46.1781 127.138 44.2638 132.105C42.577 136.389 41.5194 141.02 40.743 145.545C40.2744 148.223 39.8193 150.94 39.6586 153.658C39.5248 155.974 39.6051 158.33 39.6318 160.646L39.1767 160.74C39.1901 158.142 39.2838 155.492 39.0964 152.895C38.668 147.045 37.2222 141.583 35.107 136.134C34.2503 134.006 32.9919 131.877 31.8272 129.896C27.9048 123.243 23.0989 117.205 17.6236 111.77L17.5566 111.542L17.7173 111.315L18.1992 111.489L18.2795 111.596L24.799 118.892C29.0427 124.073 32.2556 129.642 35.4015 135.505C35.7228 137.165 36.7001 138.972 37.2088 140.619C38.3199 144.233 38.9625 147.928 39.431 151.677C40.1673 145.117 41.3989 138.263 43.7684 132.065C44.063 130.766 44.5984 129.508 45.0268 128.236C47.7042 120.19 51.4794 112.479 55.79 105.183Z" fill="#3951C9"/>
<path d="M62.7922 134.849L61.333 140.096C60.503 143.108 59.5659 147.499 56.6877 149.173C53.2473 151.181 49.2713 151.823 45.6836 153.457C46.942 151.074 48.7224 148.758 50.4494 146.71C53.1402 143.523 56.0318 140.511 59.2045 137.78C60.329 136.803 61.5204 135.625 62.7922 134.849Z" fill="#2CC9C1"/>
<path d="M42.3086 160.766C42.6834 159.079 43.4331 157.165 44.156 155.585C44.5175 154.796 45.1734 153.832 45.3608 153.015C45.5349 152.225 45.4947 151.261 45.5483 150.445C45.7089 147.955 45.6687 145.237 46.231 142.801C46.646 141.007 47.5295 139.695 49.0958 138.718C52.3756 136.67 56.6863 135.746 60.4212 134.916C61.0906 134.769 62.2151 134.354 62.8577 134.514L62.7774 134.849C61.5056 135.625 60.3275 136.79 59.1896 137.767C56.0303 140.498 53.1253 143.51 50.4345 146.696C48.6942 148.745 46.9271 151.061 45.6687 153.444C44.4371 155.773 43.567 158.169 42.737 160.659L42.3086 160.766Z" fill="#17ACA1"/>
<path d="M39.1644 160.739L39.6196 160.646C40.4228 160.927 41.467 160.793 42.3238 160.779L42.7522 160.686L42.886 160.699C45.0815 160.94 47.5046 160.712 49.7268 160.686C50.4095 160.672 51.4939 160.525 52.1365 160.739C52.4042 160.833 52.6184 161.087 52.779 161.301C53.261 161.931 53.2342 164.086 53.0602 164.862C52.9932 165.184 52.6184 165.492 52.3507 165.625C51.9758 165.826 51.3868 165.813 50.9718 165.84L50.7978 166.348L50.7442 165.907C50.6505 165.853 50.5702 165.773 50.4631 165.733C50.2087 165.652 49.6063 165.733 49.3118 165.733H45.6705L34.6798 165.746C32.8993 165.746 30.8511 165.559 29.1108 165.853C28.5887 165.907 28.1603 165.813 27.7319 165.518C27.1161 164.782 27.2768 163.524 27.2634 162.613C27.2634 161.971 27.3705 161.529 27.8524 161.074C28.0398 160.9 28.2674 160.766 28.5218 160.726C29.2313 160.605 30.0746 160.686 30.7975 160.699L35.2554 160.793L35.5499 160.686C36.5138 160.94 38.1336 160.86 39.1644 160.739Z" fill="#FCBA49"/>
<path d="M18.1719 111.475C23.1117 112.439 32.2282 116.094 35.16 120.391C36.4719 122.305 36.3381 124.782 36.2042 126.991L35.3742 135.492C32.2283 129.628 29.0154 124.046 24.7717 118.878L18.2522 111.582L18.1719 111.475Z" fill="#2CC9C1"/>
<path d="M55.7883 105.183C51.4777 112.479 47.7026 120.19 45.0118 128.236C44.5834 129.494 44.0479 130.766 43.7534 132.065C43.1644 130.967 42.91 129.588 42.5619 128.396C41.8257 125.893 41.0358 123.416 40.7011 120.819C40.5539 119.695 40.4468 118.463 40.7681 117.352C41.7587 113.925 45.2929 111.823 48.0774 109.936C50.5674 108.236 53.1511 106.629 55.7883 105.183Z" fill="#5E90F6"/>
<path d="M17.5977 111.783C23.0729 117.218 27.8789 123.256 31.8013 129.909C32.966 131.877 34.2243 134.019 35.0811 136.148C31.654 134.876 28.1734 133.805 24.84 132.319C23.6352 131.783 22.2563 131.221 21.2523 130.351C20.2884 129.521 19.7128 128.463 19.338 127.259C18.682 125.157 18.6418 122.787 18.4276 120.605L17.5977 111.783Z" fill="#2CC9C1"/>
<path d="M56.4478 105.076C57.0502 107.071 57.4117 109.28 57.7597 111.341C58.4023 115.13 59.4064 119.989 57.492 123.537C55.9793 126.321 52.164 127.66 49.5 129.079L44.2656 132.105C46.18 127.138 47.7329 122.158 50.0488 117.339L54.1988 109.065C54.8949 107.78 55.9927 106.455 56.4478 105.076Z" fill="#5E90F6"/>
<path d="M35.2409 160.78C34.7188 159.227 34.1431 157.714 33.4202 156.242C33.2194 155.827 32.9651 155.211 32.5768 154.956C30.4751 154.742 28.4403 154.381 26.3653 153.966C23.9422 153.484 21.064 153.163 19.404 151.128C18.8953 150.499 18.5339 149.749 18.2661 148.986C17.2889 146.228 16.7668 143.149 16.1242 140.284C15.9502 139.508 15.5352 138.423 15.5352 137.647L15.5753 137.486L23.3666 138.986C26.044 139.548 29.0962 140.097 30.6491 142.614C31.7602 144.407 31.9477 146.63 32.2689 148.678L33.032 154.073C33.0989 154.715 33.5139 155.291 33.8084 155.853C34.4376 157.045 35.6291 159.361 35.5488 160.646L35.2409 160.78Z" fill="#5E90F6"/>
<path d="M29.0977 165.84C30.838 165.545 32.8862 165.733 34.6667 165.733L45.6574 165.719H49.2987C49.5932 165.719 50.209 165.639 50.45 165.719C50.5571 165.759 50.6374 165.84 50.7311 165.893L50.7846 166.335L50.5035 168.383L49.0042 182.225H34.7336H31.1325L29.0977 165.84Z" fill="#FCBA49"/>
<path d="M29.0977 165.84C30.838 165.545 32.8862 165.733 34.6667 165.733L45.6574 165.719H49.2987C49.5932 165.719 50.209 165.639 50.45 165.719C50.5571 165.759 50.6374 165.84 50.7311 165.893L50.7846 166.335L50.5035 168.383L37.3173 168.356C36.0991 168.356 34.1446 168.115 33.0334 168.45L34.7202 182.225H31.1191L29.0977 165.84Z" fill="#EB6F11"/>
<defs>
<linearGradient id="paint0_linear_559_5878" x1="145.842" y1="176.358" x2="145.866" y2="184.125" gradientUnits="userSpaceOnUse">
<stop stop-color="#2D296F"/>
<stop offset="1" stop-color="#394E97"/>
</linearGradient>
</defs>
</svg>
